<svg width="332" height="119" viewBox="0 0 332 119" fill="none" xmlns="http://www.w3.org/2000/svg">
<g filter="url(#filter0_dd)">
<rect x="16" y="16" width="300" height="87" rx="10" fill="#F45D58"/>
</g>
<path d="M135.688 53.16C138.355 53.16 140.502 53.96 142.128 55.56C143.782 57.16 144.608 59.5333 144.608 62.68V75H138.368V63.64C138.368 61.9333 137.995 60.6667 137.248 59.84C136.502 58.9867 135.422 58.56 134.008 58.56C132.435 58.56 131.182 59.0533 130.248 60.04C129.315 61 128.848 62.44 128.848 64.36V75H122.608V45.32H128.848V55.72C129.675 54.8933 130.675 54.2667 131.848 53.84C133.022 53.3867 134.302 53.16 135.688 53.16ZM171.169 64.32C171.169 64.4 171.129 64.96 171.049 66H154.769C155.062 67.3333 155.756 68.3867 156.849 69.16C157.942 69.9333 159.302 70.32 160.929 70.32C162.049 70.32 163.036 70.16 163.889 69.84C164.769 69.4933 165.582 68.96 166.329 68.24L169.649 71.84C167.622 74.16 164.662 75.32 160.769 75.32C158.342 75.32 156.196 74.8533 154.329 73.92C152.462 72.96 151.022 71.64 150.009 69.96C148.996 68.28 148.489 66.3733 148.489 64.24C148.489 62.1333 148.982 60.24 149.969 58.56C150.982 56.8533 152.356 55.5333 154.089 54.6C155.849 53.64 157.809 53.16 159.969 53.16C162.076 53.16 163.982 53.6133 165.689 54.52C167.396 55.4267 168.729 56.7333 169.689 58.44C170.676 60.12 171.169 62.08 171.169 64.32ZM160.009 57.88C158.596 57.88 157.409 58.28 156.449 59.08C155.489 59.88 154.902 60.9733 154.689 62.36H165.289C165.076 61 164.489 59.92 163.529 59.12C162.569 58.2933 161.396 57.88 160.009 57.88ZM174.913 45.32H181.153V75H174.913V45.32ZM199.255 53.16C201.255 53.16 203.068 53.6267 204.695 54.56C206.348 55.4667 207.641 56.76 208.575 58.44C209.508 60.0933 209.975 62.0267 209.975 64.24C209.975 66.4533 209.508 68.4 208.575 70.08C207.641 71.7333 206.348 73.0267 204.695 73.96C203.068 74.8667 201.255 75.32 199.255 75.32C196.508 75.32 194.348 74.4533 192.775 72.72V82.76H186.535V53.48H192.495V55.96C194.041 54.0933 196.295 53.16 199.255 53.16ZM198.175 70.2C199.775 70.2 201.081 69.6667 202.095 68.6C203.135 67.5067 203.655 66.0533 203.655 64.24C203.655 62.4267 203.135 60.9867 202.095 59.92C201.081 58.8267 199.775 58.28 198.175 58.28C196.575 58.28 195.255 58.8267 194.215 59.92C193.201 60.9867 192.695 62.4267 192.695 64.24C192.695 66.0533 193.201 67.5067 194.215 68.6C195.255 69.6667 196.575 70.2 198.175 70.2Z" fill="white"/>
<defs>
<filter id="filter0_dd" x="0" y="0" width="332" height="119" filterUnits="userSpaceOnUse" color-interpolation-filters="sRGB">
<feFlood flood-opacity="0" result="BackgroundImageFix"/>
<feColorMatrix in="SourceAlpha" type="matrix" values="0 0 0 0 0 0 0 0 0 0 0 0 0 0 0 0 0 0 127 0"/>
<feOffset dx="-4" dy="-4"/>
<feGaussianBlur stdDeviation="6"/>
<feColorMatrix type="matrix" values="0 0 0 0 1 0 0 0 0 1 0 0 0 0 1 0 0 0 0.25 0"/>
<feBlend mode="normal" in2="BackgroundImageFix" result="effect1_dropShadow"/>
<feColorMatrix in="SourceAlpha" type="matrix" values="0 0 0 0 0 0 0 0 0 0 0 0 0 0 0 0 0 0 127 0"/>
<feOffset dx="4" dy="4"/>
<feGaussianBlur stdDeviation="6"/>
<feColorMatrix type="matrix" values="0 0 0 0 0 0 0 0 0 0 0 0 0 0 0 0 0 0 0.25 0"/>
<feBlend mode="normal" in2="effect1_dropShadow" result="effect2_dropShadow"/>
<feBlend mode="normal" in="SourceGraphic" in2="effect2_dropShadow" result="shape"/>
</filter>
</defs>
</svg>
