<svg width="332" height="119" viewBox="0 0 332 119" fill="none" xmlns="http://www.w3.org/2000/svg">
<g filter="url(#filter0_dd)">
<rect x="16" y="16" width="300" height="87" rx="10" fill="#55BB99"/>
</g>
<path d="M87.3075 32H92.1675V49.04H102.697V53H87.3075V32ZM112.236 53.24C110.536 53.24 109.006 52.89 107.646 52.19C106.306 51.47 105.256 50.48 104.496 49.22C103.736 47.96 103.356 46.53 103.356 44.93C103.356 43.33 103.736 41.9 104.496 40.64C105.256 39.38 106.306 38.4 107.646 37.7C109.006 36.98 110.536 36.62 112.236 36.62C113.936 36.62 115.456 36.98 116.796 37.7C118.136 38.4 119.186 39.38 119.946 40.64C120.706 41.9 121.086 43.33 121.086 44.93C121.086 46.53 120.706 47.96 119.946 49.22C119.186 50.48 118.136 51.47 116.796 52.19C115.456 52.89 113.936 53.24 112.236 53.24ZM112.236 49.4C113.436 49.4 114.416 49 115.176 48.2C115.956 47.38 116.346 46.29 116.346 44.93C116.346 43.57 115.956 42.49 115.176 41.69C114.416 40.87 113.436 40.46 112.236 40.46C111.036 40.46 110.046 40.87 109.266 41.69C108.486 42.49 108.096 43.57 108.096 44.93C108.096 46.29 108.486 47.38 109.266 48.2C110.046 49 111.036 49.4 112.236 49.4ZM140.454 36.86V50.3C140.454 53.26 139.684 55.46 138.144 56.9C136.604 58.34 134.354 59.06 131.394 59.06C129.834 59.06 128.354 58.87 126.954 58.49C125.554 58.11 124.394 57.56 123.474 56.84L125.334 53.48C126.014 54.04 126.874 54.48 127.914 54.8C128.954 55.14 129.994 55.31 131.034 55.31C132.654 55.31 133.844 54.94 134.604 54.2C135.384 53.48 135.774 52.38 135.774 50.9V50.21C134.554 51.55 132.854 52.22 130.674 52.22C129.194 52.22 127.834 51.9 126.594 51.26C125.374 50.6 124.404 49.68 123.684 48.5C122.964 47.32 122.604 45.96 122.604 44.42C122.604 42.88 122.964 41.52 123.684 40.34C124.404 39.16 125.374 38.25 126.594 37.61C127.834 36.95 129.194 36.62 130.674 36.62C133.014 36.62 134.794 37.39 136.014 38.93V36.86H140.454ZM131.604 48.38C132.844 48.38 133.854 48.02 134.634 47.3C135.434 46.56 135.834 45.6 135.834 44.42C135.834 43.24 135.434 42.29 134.634 41.57C133.854 40.83 132.844 40.46 131.604 40.46C130.364 40.46 129.344 40.83 128.544 41.57C127.744 42.29 127.344 43.24 127.344 44.42C127.344 45.6 127.744 46.56 128.544 47.3C129.344 48.02 130.364 48.38 131.604 48.38ZM152.486 36.86H157.166V53H152.486V36.86ZM154.826 34.61C153.966 34.61 153.266 34.36 152.726 33.86C152.186 33.36 151.916 32.74 151.916 32C151.916 31.26 152.186 30.64 152.726 30.14C153.266 29.64 153.966 29.39 154.826 29.39C155.686 29.39 156.386 29.63 156.926 30.11C157.466 30.59 157.736 31.19 157.736 31.91C157.736 32.69 157.466 33.34 156.926 33.86C156.386 34.36 155.686 34.61 154.826 34.61ZM170.909 36.62C172.909 36.62 174.519 37.22 175.739 38.42C176.979 39.62 177.599 41.4 177.599 43.76V53H172.919V44.48C172.919 43.2 172.639 42.25 172.079 41.63C171.519 40.99 170.709 40.67 169.649 40.67C168.469 40.67 167.529 41.04 166.829 41.78C166.129 42.5 165.779 43.58 165.779 45.02V53H161.099V36.86H165.569V38.75C166.189 38.07 166.959 37.55 167.879 37.19C168.799 36.81 169.809 36.62 170.909 36.62ZM196.028 36.62C198.528 36.62 200.448 37.22 201.788 38.42C203.128 39.6 203.798 41.39 203.798 43.79V53H199.418V50.99C198.538 52.49 196.898 53.24 194.498 53.24C193.258 53.24 192.178 53.03 191.258 52.61C190.358 52.19 189.668 51.61 189.188 50.87C188.708 50.13 188.468 49.29 188.468 48.35C188.468 46.85 189.028 45.67 190.148 44.81C191.288 43.95 193.038 43.52 195.398 43.52H199.118C199.118 42.5 198.808 41.72 198.188 41.18C197.568 40.62 196.638 40.34 195.398 40.34C194.538 40.34 193.688 40.48 192.848 40.76C192.028 41.02 191.328 41.38 190.748 41.84L189.068 38.57C189.948 37.95 190.998 37.47 192.218 37.13C193.458 36.79 194.728 36.62 196.028 36.62ZM195.668 50.09C196.468 50.09 197.178 49.91 197.798 49.55C198.418 49.17 198.858 48.62 199.118 47.9V46.25H195.908C193.988 46.25 193.028 46.88 193.028 48.14C193.028 48.74 193.258 49.22 193.718 49.58C194.198 49.92 194.848 50.09 195.668 50.09ZM213.053 53.24C211.713 53.24 210.403 53.08 209.123 52.76C207.843 52.42 206.823 52 206.063 51.5L207.623 48.14C208.343 48.6 209.213 48.98 210.233 49.28C211.253 49.56 212.253 49.7 213.233 49.7C215.213 49.7 216.203 49.21 216.203 48.23C216.203 47.77 215.933 47.44 215.393 47.24C214.853 47.04 214.023 46.87 212.903 46.73C211.583 46.53 210.493 46.3 209.633 46.04C208.773 45.78 208.023 45.32 207.383 44.66C206.763 44 206.453 43.06 206.453 41.84C206.453 40.82 206.743 39.92 207.323 39.14C207.923 38.34 208.783 37.72 209.903 37.28C211.043 36.84 212.383 36.62 213.923 36.62C215.063 36.62 216.193 36.75 217.313 37.01C218.453 37.25 219.393 37.59 220.133 38.03L218.573 41.36C217.153 40.56 215.603 40.16 213.923 40.16C212.923 40.16 212.173 40.3 211.673 40.58C211.173 40.86 210.923 41.22 210.923 41.66C210.923 42.16 211.193 42.51 211.733 42.71C212.273 42.91 213.133 43.1 214.313 43.28C215.633 43.5 216.713 43.74 217.553 44C218.393 44.24 219.123 44.69 219.743 45.35C220.363 46.01 220.673 46.93 220.673 48.11C220.673 49.11 220.373 50 219.773 50.78C219.173 51.56 218.293 52.17 217.133 52.61C215.993 53.03 214.633 53.24 213.053 53.24ZM237.747 36.62C240.247 36.62 242.167 37.22 243.507 38.42C244.847 39.6 245.517 41.39 245.517 43.79V53H241.137V50.99C240.257 52.49 238.617 53.24 236.217 53.24C234.977 53.24 233.897 53.03 232.977 52.61C232.077 52.19 231.387 51.61 230.907 50.87C230.427 50.13 230.187 49.29 230.187 48.35C230.187 46.85 230.747 45.67 231.867 44.81C233.007 43.95 234.757 43.52 237.117 43.52H240.837C240.837 42.5 240.527 41.72 239.907 41.18C239.287 40.62 238.357 40.34 237.117 40.34C236.257 40.34 235.407 40.48 234.567 40.76C233.747 41.02 233.047 41.38 232.467 41.84L230.787 38.57C231.667 37.95 232.717 37.47 233.937 37.13C235.177 36.79 236.447 36.62 237.747 36.62ZM237.387 50.09C238.187 50.09 238.897 49.91 239.517 49.55C240.137 49.17 240.577 48.62 240.837 47.9V46.25H237.627C235.707 46.25 234.747 46.88 234.747 48.14C234.747 48.74 234.977 49.22 235.437 49.58C235.917 49.92 236.567 50.09 237.387 50.09ZM92.1495 67C94.0095 67 95.6195 67.31 96.9795 67.93C98.3595 68.55 99.4195 69.43 100.16 70.57C100.9 71.71 101.27 73.06 101.27 74.62C101.27 76.16 100.9 77.51 100.16 78.67C99.4195 79.81 98.3595 80.69 96.9795 81.31C95.6195 81.91 94.0095 82.21 92.1495 82.21H87.9195V88H83.0595V67H92.1495ZM91.8795 78.25C93.3395 78.25 94.4495 77.94 95.2095 77.32C95.9695 76.68 96.3495 75.78 96.3495 74.62C96.3495 73.44 95.9695 72.54 95.2095 71.92C94.4495 71.28 93.3395 70.96 91.8795 70.96H87.9195V78.25H91.8795ZM110.363 71.62C112.863 71.62 114.783 72.22 116.123 73.42C117.463 74.6 118.133 76.39 118.133 78.79V88H113.753V85.99C112.873 87.49 111.233 88.24 108.833 88.24C107.593 88.24 106.513 88.03 105.593 87.61C104.693 87.19 104.003 86.61 103.523 85.87C103.043 85.13 102.803 84.29 102.803 83.35C102.803 81.85 103.363 80.67 104.483 79.81C105.623 78.95 107.373 78.52 109.733 78.52H113.453C113.453 77.5 113.143 76.72 112.523 76.18C111.903 75.62 110.973 75.34 109.733 75.34C108.873 75.34 108.023 75.48 107.183 75.76C106.363 76.02 105.663 76.38 105.083 76.84L103.403 73.57C104.283 72.95 105.333 72.47 106.553 72.13C107.793 71.79 109.063 71.62 110.363 71.62ZM110.003 85.09C110.803 85.09 111.513 84.91 112.133 84.55C112.753 84.17 113.193 83.62 113.453 82.9V81.25H110.243C108.323 81.25 107.363 81.88 107.363 83.14C107.363 83.74 107.593 84.22 108.053 84.58C108.533 84.92 109.183 85.09 110.003 85.09ZM126.428 73.99C126.988 73.21 127.738 72.62 128.678 72.22C129.638 71.82 130.738 71.62 131.978 71.62V75.94C131.458 75.9 131.108 75.88 130.928 75.88C129.588 75.88 128.538 76.26 127.778 77.02C127.018 77.76 126.638 78.88 126.638 80.38V88H121.958V71.86H126.428V73.99ZM145.318 87.22C144.858 87.56 144.288 87.82 143.608 88C142.948 88.16 142.248 88.24 141.508 88.24C139.588 88.24 138.098 87.75 137.038 86.77C135.998 85.79 135.478 84.35 135.478 82.45V75.82H132.988V72.22H135.478V68.29H140.158V72.22H144.178V75.82H140.158V82.39C140.158 83.07 140.328 83.6 140.668 83.98C141.028 84.34 141.528 84.52 142.168 84.52C142.908 84.52 143.538 84.32 144.058 83.92L145.318 87.22ZM147.535 71.86H152.215V88H147.535V71.86ZM149.875 69.61C149.015 69.61 148.315 69.36 147.775 68.86C147.235 68.36 146.965 67.74 146.965 67C146.965 66.26 147.235 65.64 147.775 65.14C148.315 64.64 149.015 64.39 149.875 64.39C150.735 64.39 151.435 64.63 151.975 65.11C152.515 65.59 152.785 66.19 152.785 66.91C152.785 67.69 152.515 68.34 151.975 68.86C151.435 69.36 150.735 69.61 149.875 69.61ZM163.948 88.24C162.228 88.24 160.678 87.89 159.298 87.19C157.938 86.47 156.868 85.48 156.088 84.22C155.328 82.96 154.948 81.53 154.948 79.93C154.948 78.33 155.328 76.9 156.088 75.64C156.868 74.38 157.938 73.4 159.298 72.7C160.678 71.98 162.228 71.62 163.948 71.62C165.648 71.62 167.128 71.98 168.388 72.7C169.668 73.4 170.598 74.41 171.178 75.73L167.548 77.68C166.708 76.2 165.498 75.46 163.918 75.46C162.698 75.46 161.688 75.86 160.888 76.66C160.088 77.46 159.688 78.55 159.688 79.93C159.688 81.31 160.088 82.4 160.888 83.2C161.688 84 162.698 84.4 163.918 84.4C165.518 84.4 166.728 83.66 167.548 82.18L171.178 84.16C170.598 85.44 169.668 86.44 168.388 87.16C167.128 87.88 165.648 88.24 163.948 88.24ZM173.463 71.86H178.143V88H173.463V71.86ZM175.803 69.61C174.943 69.61 174.243 69.36 173.703 68.86C173.163 68.36 172.893 67.74 172.893 67C172.893 66.26 173.163 65.64 173.703 65.14C174.243 64.64 174.943 64.39 175.803 64.39C176.663 64.39 177.363 64.63 177.903 65.11C178.443 65.59 178.713 66.19 178.713 66.91C178.713 67.69 178.443 68.34 177.903 68.86C177.363 69.36 176.663 69.61 175.803 69.61ZM191.616 71.62C193.116 71.62 194.476 71.97 195.696 72.67C196.936 73.35 197.906 74.32 198.606 75.58C199.306 76.82 199.656 78.27 199.656 79.93C199.656 81.59 199.306 83.05 198.606 84.31C197.906 85.55 196.936 86.52 195.696 87.22C194.476 87.9 193.116 88.24 191.616 88.24C189.556 88.24 187.936 87.59 186.756 86.29V93.82H182.076V71.86H186.546V73.72C187.706 72.32 189.396 71.62 191.616 71.62ZM190.806 84.4C192.006 84.4 192.986 84 193.746 83.2C194.526 82.38 194.916 81.29 194.916 79.93C194.916 78.57 194.526 77.49 193.746 76.69C192.986 75.87 192.006 75.46 190.806 75.46C189.606 75.46 188.616 75.87 187.836 76.69C187.076 77.49 186.696 78.57 186.696 79.93C186.696 81.29 187.076 82.38 187.836 83.2C188.616 84 189.606 84.4 190.806 84.4ZM208.626 71.62C211.126 71.62 213.046 72.22 214.386 73.42C215.726 74.6 216.396 76.39 216.396 78.79V88H212.016V85.99C211.136 87.49 209.496 88.24 207.096 88.24C205.856 88.24 204.776 88.03 203.856 87.61C202.956 87.19 202.266 86.61 201.786 85.87C201.306 85.13 201.066 84.29 201.066 83.35C201.066 81.85 201.626 80.67 202.746 79.81C203.886 78.95 205.636 78.52 207.996 78.52H211.716C211.716 77.5 211.406 76.72 210.786 76.18C210.166 75.62 209.236 75.34 207.996 75.34C207.136 75.34 206.286 75.48 205.446 75.76C204.626 76.02 203.926 76.38 203.346 76.84L201.666 73.57C202.546 72.95 203.596 72.47 204.816 72.13C206.056 71.79 207.326 71.62 208.626 71.62ZM208.266 85.09C209.066 85.09 209.776 84.91 210.396 84.55C211.016 84.17 211.456 83.62 211.716 82.9V81.25H208.506C206.586 81.25 205.626 81.88 205.626 83.14C205.626 83.74 205.856 84.22 206.316 84.58C206.796 84.92 207.446 85.09 208.266 85.09ZM230.031 71.62C232.031 71.62 233.641 72.22 234.861 73.42C236.101 74.62 236.721 76.4 236.721 78.76V88H232.041V79.48C232.041 78.2 231.761 77.25 231.201 76.63C230.641 75.99 229.831 75.67 228.771 75.67C227.591 75.67 226.651 76.04 225.951 76.78C225.251 77.5 224.901 78.58 224.901 80.02V88H220.221V71.86H224.691V73.75C225.311 73.07 226.081 72.55 227.001 72.19C227.921 71.81 228.931 71.62 230.031 71.62ZM250.963 87.22C250.503 87.56 249.933 87.82 249.253 88C248.593 88.16 247.893 88.24 247.153 88.24C245.233 88.24 243.743 87.75 242.683 86.77C241.643 85.79 241.123 84.35 241.123 82.45V75.82H238.633V72.22H241.123V68.29H245.803V72.22H249.823V75.82H245.803V82.39C245.803 83.07 245.973 83.6 246.313 83.98C246.673 84.34 247.173 84.52 247.813 84.52C248.553 84.52 249.183 84.32 249.703 83.92L250.963 87.22Z" fill="white"/>
<defs>
<filter id="filter0_dd" x="0" y="0" width="332" height="119" filterUnits="userSpaceOnUse" color-interpolation-filters="sRGB">
<feFlood flood-opacity="0" result="BackgroundImageFix"/>
<feColorMatrix in="SourceAlpha" type="matrix" values="0 0 0 0 0 0 0 0 0 0 0 0 0 0 0 0 0 0 127 0"/>
<feOffset dx="-4" dy="-4"/>
<feGaussianBlur stdDeviation="6"/>
<feColorMatrix type="matrix" values="0 0 0 0 1 0 0 0 0 1 0 0 0 0 1 0 0 0 0.25 0"/>
<feBlend mode="normal" in2="BackgroundImageFix" result="effect1_dropShadow"/>
<feColorMatrix in="SourceAlpha" type="matrix" values="0 0 0 0 0 0 0 0 0 0 0 0 0 0 0 0 0 0 127 0"/>
<feOffset dx="4" dy="4"/>
<feGaussianBlur stdDeviation="6"/>
<feColorMatrix type="matrix" values="0 0 0 0 0 0 0 0 0 0 0 0 0 0 0 0 0 0 0.25 0"/>
<feBlend mode="normal" in2="effect1_dropShadow" result="effect2_dropShadow"/>
<feBlend mode="normal" in="SourceGraphic" in2="effect2_dropShadow" result="shape"/>
</filter>
</defs>
</svg>
