<svg width="332" height="119" viewBox="0 0 332 119" fill="none" xmlns="http://www.w3.org/2000/svg">
<g filter="url(#filter0_dd)">
<rect x="16" y="16" width="300" height="87" rx="10" fill="#229A1F"/>
</g>
<path d="M114.204 33.5C115.754 33.5 117.096 33.7583 118.229 34.275C119.379 34.7917 120.262 35.525 120.879 36.475C121.496 37.425 121.804 38.55 121.804 39.85C121.804 41.1333 121.496 42.2583 120.879 43.225C120.262 44.175 119.379 44.9083 118.229 45.425C117.096 45.925 115.754 46.175 114.204 46.175H110.679V51H106.629V33.5H114.204ZM113.979 42.875C115.196 42.875 116.121 42.6167 116.754 42.1C117.387 41.5667 117.704 40.8167 117.704 39.85C117.704 38.8667 117.387 38.1167 116.754 37.6C116.121 37.0667 115.196 36.8 113.979 36.8H110.679V42.875H113.979ZM137.805 37.55V51H134.105V49.4C133.588 49.9833 132.971 50.4333 132.255 50.75C131.538 51.05 130.763 51.2 129.93 51.2C128.163 51.2 126.763 50.6917 125.73 49.675C124.696 48.6583 124.18 47.15 124.18 45.15V37.55H128.08V44.575C128.08 46.7417 128.988 47.825 130.805 47.825C131.738 47.825 132.488 47.525 133.055 46.925C133.621 46.3083 133.905 45.4 133.905 44.2V37.55H137.805ZM144.733 39.325C145.199 38.675 145.824 38.1833 146.608 37.85C147.408 37.5167 148.324 37.35 149.358 37.35V40.95C148.924 40.9167 148.633 40.9 148.483 40.9C147.366 40.9 146.491 41.2167 145.858 41.85C145.224 42.4667 144.908 43.4 144.908 44.65V51H141.008V37.55H144.733V39.325ZM155.84 51.2C154.724 51.2 153.632 51.0667 152.565 50.8C151.499 50.5167 150.649 50.1667 150.015 49.75L151.315 46.95C151.915 47.3333 152.64 47.65 153.49 47.9C154.34 48.1333 155.174 48.25 155.99 48.25C157.64 48.25 158.465 47.8417 158.465 47.025C158.465 46.6417 158.24 46.3667 157.79 46.2C157.34 46.0333 156.649 45.8917 155.715 45.775C154.615 45.6083 153.707 45.4167 152.99 45.2C152.274 44.9833 151.649 44.6 151.115 44.05C150.599 43.5 150.34 42.7167 150.34 41.7C150.34 40.85 150.582 40.1 151.065 39.45C151.565 38.7833 152.282 38.2667 153.215 37.9C154.165 37.5333 155.282 37.35 156.565 37.35C157.515 37.35 158.457 37.4583 159.39 37.675C160.34 37.875 161.124 38.1583 161.74 38.525L160.44 41.3C159.257 40.6333 157.965 40.3 156.565 40.3C155.732 40.3 155.107 40.4167 154.69 40.65C154.274 40.8833 154.065 41.1833 154.065 41.55C154.065 41.9667 154.29 42.2583 154.74 42.425C155.19 42.5917 155.907 42.75 156.89 42.9C157.99 43.0833 158.89 43.2833 159.59 43.5C160.29 43.7 160.899 44.075 161.415 44.625C161.932 45.175 162.19 45.9417 162.19 46.925C162.19 47.7583 161.94 48.5 161.44 49.15C160.94 49.8 160.207 50.3083 159.24 50.675C158.29 51.025 157.157 51.2 155.84 51.2ZM177.737 37.55V51H174.037V49.4C173.52 49.9833 172.903 50.4333 172.187 50.75C171.47 51.05 170.695 51.2 169.862 51.2C168.095 51.2 166.695 50.6917 165.662 49.675C164.628 48.6583 164.112 47.15 164.112 45.15V37.55H168.012V44.575C168.012 46.7417 168.92 47.825 170.737 47.825C171.67 47.825 172.42 47.525 172.987 46.925C173.553 46.3083 173.837 45.4 173.837 44.2V37.55H177.737ZM180.94 37.55H184.84V51H180.94V37.55ZM182.89 35.675C182.173 35.675 181.59 35.4667 181.14 35.05C180.69 34.6333 180.465 34.1167 180.465 33.5C180.465 32.8833 180.69 32.3667 181.14 31.95C181.59 31.5333 182.173 31.325 182.89 31.325C183.606 31.325 184.19 31.525 184.64 31.925C185.09 32.325 185.315 32.825 185.315 33.425C185.315 34.075 185.09 34.6167 184.64 35.05C184.19 35.4667 183.606 35.675 182.89 35.675ZM196.224 37.35C197.891 37.35 199.233 37.85 200.249 38.85C201.283 39.85 201.799 41.3333 201.799 43.3V51H197.899V43.9C197.899 42.8333 197.666 42.0417 197.199 41.525C196.733 40.9917 196.058 40.725 195.174 40.725C194.191 40.725 193.408 41.0333 192.824 41.65C192.241 42.25 191.949 43.15 191.949 44.35V51H188.049V37.55H191.774V39.125C192.291 38.5583 192.933 38.125 193.699 37.825C194.466 37.5083 195.308 37.35 196.224 37.35ZM218.946 37.55V48.75C218.946 51.2167 218.304 53.05 217.021 54.25C215.738 55.45 213.863 56.05 211.396 56.05C210.096 56.05 208.863 55.8917 207.696 55.575C206.529 55.2583 205.563 54.8 204.796 54.2L206.346 51.4C206.913 51.8667 207.629 52.2333 208.496 52.5C209.363 52.7833 210.229 52.925 211.096 52.925C212.446 52.925 213.438 52.6167 214.071 52C214.721 51.4 215.046 50.4833 215.046 49.25V48.675C214.029 49.7917 212.613 50.35 210.796 50.35C209.563 50.35 208.429 50.0833 207.396 49.55C206.379 49 205.571 48.2333 204.971 47.25C204.371 46.2667 204.071 45.1333 204.071 43.85C204.071 42.5667 204.371 41.4333 204.971 40.45C205.571 39.4667 206.379 38.7083 207.396 38.175C208.429 37.625 209.563 37.35 210.796 37.35C212.746 37.35 214.229 37.9917 215.246 39.275V37.55H218.946ZM211.571 47.15C212.604 47.15 213.446 46.85 214.096 46.25C214.763 45.6333 215.096 44.8333 215.096 43.85C215.096 42.8667 214.763 42.075 214.096 41.475C213.446 40.8583 212.604 40.55 211.571 40.55C210.538 40.55 209.688 40.8583 209.021 41.475C208.354 42.075 208.021 42.8667 208.021 43.85C208.021 44.8333 208.354 45.6333 209.021 46.25C209.688 46.85 210.538 47.15 211.571 47.15ZM45.2075 68.5H49.2575V86H45.2075V68.5ZM60.9007 72.35C62.5673 72.35 63.909 72.85 64.9257 73.85C65.959 74.85 66.4757 76.3333 66.4757 78.3V86H62.5757V78.9C62.5757 77.8333 62.3423 77.0417 61.8757 76.525C61.409 75.9917 60.734 75.725 59.8507 75.725C58.8673 75.725 58.084 76.0333 57.5007 76.65C56.9173 77.25 56.6257 78.15 56.6257 79.35V86H52.7257V72.55H56.4507V74.125C56.9673 73.5583 57.609 73.125 58.3757 72.825C59.1423 72.5083 59.984 72.35 60.9007 72.35ZM83.4473 67.45V86H79.7223V84.45C78.7556 85.6167 77.3556 86.2 75.5223 86.2C74.2556 86.2 73.1056 85.9167 72.0723 85.35C71.0556 84.7833 70.2556 83.975 69.6723 82.925C69.089 81.875 68.7973 80.6583 68.7973 79.275C68.7973 77.8917 69.089 76.675 69.6723 75.625C70.2556 74.575 71.0556 73.7667 72.0723 73.2C73.1056 72.6333 74.2556 72.35 75.5223 72.35C77.239 72.35 78.5806 72.8917 79.5473 73.975V67.45H83.4473ZM76.1973 83C77.1806 83 77.9973 82.6667 78.6473 82C79.2973 81.3167 79.6223 80.4083 79.6223 79.275C79.6223 78.1417 79.2973 77.2417 78.6473 76.575C77.9973 75.8917 77.1806 75.55 76.1973 75.55C75.1973 75.55 74.3723 75.8917 73.7223 76.575C73.0723 77.2417 72.7473 78.1417 72.7473 79.275C72.7473 80.4083 73.0723 81.3167 73.7223 82C74.3723 82.6667 75.1973 83 76.1973 83ZM99.8219 79.325C99.8219 79.375 99.7969 79.725 99.7469 80.375H89.5719C89.7552 81.2083 90.1885 81.8667 90.8719 82.35C91.5552 82.8333 92.4052 83.075 93.4219 83.075C94.1219 83.075 94.7385 82.975 95.2719 82.775C95.8219 82.5583 96.3302 82.225 96.7969 81.775L98.8719 84.025C97.6052 85.475 95.7552 86.2 93.3219 86.2C91.8052 86.2 90.4635 85.9083 89.2969 85.325C88.1302 84.725 87.2302 83.9 86.5969 82.85C85.9635 81.8 85.6469 80.6083 85.6469 79.275C85.6469 77.9583 85.9552 76.775 86.5719 75.725C87.2052 74.6583 88.0635 73.8333 89.1469 73.25C90.2469 72.65 91.4719 72.35 92.8219 72.35C94.1385 72.35 95.3302 72.6333 96.3969 73.2C97.4635 73.7667 98.2969 74.5833 98.8969 75.65C99.5135 76.7 99.8219 77.925 99.8219 79.325ZM92.8469 75.3C91.9635 75.3 91.2219 75.55 90.6219 76.05C90.0219 76.55 89.6552 77.2333 89.5219 78.1H96.1469C96.0135 77.25 95.6469 76.575 95.0469 76.075C94.4469 75.5583 93.7135 75.3 92.8469 75.3ZM109.958 72.35C111.208 72.35 112.342 72.6417 113.358 73.225C114.392 73.7917 115.2 74.6 115.783 75.65C116.367 76.6833 116.658 77.8917 116.658 79.275C116.658 80.6583 116.367 81.875 115.783 82.925C115.2 83.9583 114.392 84.7667 113.358 85.35C112.342 85.9167 111.208 86.2 109.958 86.2C108.242 86.2 106.892 85.6583 105.908 84.575V90.85H102.008V72.55H105.733V74.1C106.7 72.9333 108.108 72.35 109.958 72.35ZM109.283 83C110.283 83 111.1 82.6667 111.733 82C112.383 81.3167 112.708 80.4083 112.708 79.275C112.708 78.1417 112.383 77.2417 111.733 76.575C111.1 75.8917 110.283 75.55 109.283 75.55C108.283 75.55 107.458 75.8917 106.808 76.575C106.175 77.2417 105.858 78.1417 105.858 79.275C105.858 80.4083 106.175 81.3167 106.808 82C107.458 82.6667 108.283 83 109.283 83ZM132.034 79.325C132.034 79.375 132.009 79.725 131.959 80.375H121.784C121.967 81.2083 122.401 81.8667 123.084 82.35C123.767 82.8333 124.617 83.075 125.634 83.075C126.334 83.075 126.951 82.975 127.484 82.775C128.034 82.5583 128.542 82.225 129.009 81.775L131.084 84.025C129.817 85.475 127.967 86.2 125.534 86.2C124.017 86.2 122.676 85.9083 121.509 85.325C120.342 84.725 119.442 83.9 118.809 82.85C118.176 81.8 117.859 80.6083 117.859 79.275C117.859 77.9583 118.167 76.775 118.784 75.725C119.417 74.6583 120.276 73.8333 121.359 73.25C122.459 72.65 123.684 72.35 125.034 72.35C126.351 72.35 127.542 72.6333 128.609 73.2C129.676 73.7667 130.509 74.5833 131.109 75.65C131.726 76.7 132.034 77.925 132.034 79.325ZM125.059 75.3C124.176 75.3 123.434 75.55 122.834 76.05C122.234 76.55 121.867 77.2333 121.734 78.1H128.359C128.226 77.25 127.859 76.575 127.259 76.075C126.659 75.5583 125.926 75.3 125.059 75.3ZM142.396 72.35C144.062 72.35 145.404 72.85 146.421 73.85C147.454 74.85 147.971 76.3333 147.971 78.3V86H144.071V78.9C144.071 77.8333 143.837 77.0417 143.371 76.525C142.904 75.9917 142.229 75.725 141.346 75.725C140.362 75.725 139.579 76.0333 138.996 76.65C138.412 77.25 138.121 78.15 138.121 79.35V86H134.221V72.55H137.946V74.125C138.462 73.5583 139.104 73.125 139.871 72.825C140.637 72.5083 141.479 72.35 142.396 72.35ZM164.942 67.45V86H161.217V84.45C160.251 85.6167 158.851 86.2 157.017 86.2C155.751 86.2 154.601 85.9167 153.567 85.35C152.551 84.7833 151.751 83.975 151.167 82.925C150.584 81.875 150.292 80.6583 150.292 79.275C150.292 77.8917 150.584 76.675 151.167 75.625C151.751 74.575 152.551 73.7667 153.567 73.2C154.601 72.6333 155.751 72.35 157.017 72.35C158.734 72.35 160.076 72.8917 161.042 73.975V67.45H164.942ZM157.692 83C158.676 83 159.492 82.6667 160.142 82C160.792 81.3167 161.117 80.4083 161.117 79.275C161.117 78.1417 160.792 77.2417 160.142 76.575C159.492 75.8917 158.676 75.55 157.692 75.55C156.692 75.55 155.867 75.8917 155.217 76.575C154.567 77.2417 154.242 78.1417 154.242 79.275C154.242 80.4083 154.567 81.3167 155.217 82C155.867 82.6667 156.692 83 157.692 83ZM181.317 79.325C181.317 79.375 181.292 79.725 181.242 80.375H171.067C171.25 81.2083 171.683 81.8667 172.367 82.35C173.05 82.8333 173.9 83.075 174.917 83.075C175.617 83.075 176.233 82.975 176.767 82.775C177.317 82.5583 177.825 82.225 178.292 81.775L180.367 84.025C179.1 85.475 177.25 86.2 174.817 86.2C173.3 86.2 171.958 85.9083 170.792 85.325C169.625 84.725 168.725 83.9 168.092 82.85C167.458 81.8 167.142 80.6083 167.142 79.275C167.142 77.9583 167.45 76.775 168.067 75.725C168.7 74.6583 169.558 73.8333 170.642 73.25C171.742 72.65 172.967 72.35 174.317 72.35C175.633 72.35 176.825 72.6333 177.892 73.2C178.958 73.7667 179.792 74.5833 180.392 75.65C181.008 76.7 181.317 77.925 181.317 79.325ZM174.342 75.3C173.458 75.3 172.717 75.55 172.117 76.05C171.517 76.55 171.15 77.2333 171.017 78.1H177.642C177.508 77.25 177.142 76.575 176.542 76.075C175.942 75.5583 175.208 75.3 174.342 75.3ZM191.678 72.35C193.345 72.35 194.687 72.85 195.703 73.85C196.737 74.85 197.253 76.3333 197.253 78.3V86H193.353V78.9C193.353 77.8333 193.12 77.0417 192.653 76.525C192.187 75.9917 191.512 75.725 190.628 75.725C189.645 75.725 188.862 76.0333 188.278 76.65C187.695 77.25 187.403 78.15 187.403 79.35V86H183.503V72.55H187.228V74.125C187.745 73.5583 188.387 73.125 189.153 72.825C189.92 72.5083 190.762 72.35 191.678 72.35ZM209.053 85.35C208.67 85.6333 208.195 85.85 207.628 86C207.078 86.1333 206.495 86.2 205.878 86.2C204.278 86.2 203.037 85.7917 202.153 84.975C201.287 84.1583 200.853 82.9583 200.853 81.375V75.85H198.778V72.85H200.853V69.575H204.753V72.85H208.103V75.85H204.753V81.325C204.753 81.8917 204.895 82.3333 205.178 82.65C205.478 82.95 205.895 83.1 206.428 83.1C207.045 83.1 207.57 82.9333 208.003 82.6L209.053 85.35ZM225.353 68.5C226.903 68.5 228.244 68.7583 229.378 69.275C230.528 69.7917 231.411 70.525 232.028 71.475C232.644 72.425 232.953 73.55 232.953 74.85C232.953 76.1333 232.644 77.2583 232.028 78.225C231.411 79.175 230.528 79.9083 229.378 80.425C228.244 80.925 226.903 81.175 225.353 81.175H221.828V86H217.778V68.5H225.353ZM225.128 77.875C226.344 77.875 227.269 77.6167 227.903 77.1C228.536 76.5667 228.853 75.8167 228.853 74.85C228.853 73.8667 228.536 73.1167 227.903 72.6C227.269 72.0667 226.344 71.8 225.128 71.8H221.828V77.875H225.128ZM240.462 72.35C242.545 72.35 244.145 72.85 245.262 73.85C246.379 74.8333 246.937 76.325 246.937 78.325V86H243.287V84.325C242.554 85.575 241.187 86.2 239.187 86.2C238.154 86.2 237.254 86.025 236.487 85.675C235.737 85.325 235.162 84.8417 234.762 84.225C234.362 83.6083 234.162 82.9083 234.162 82.125C234.162 80.875 234.629 79.8917 235.562 79.175C236.512 78.4583 237.97 78.1 239.937 78.1H243.037C243.037 77.25 242.779 76.6 242.262 76.15C241.745 75.6833 240.97 75.45 239.937 75.45C239.22 75.45 238.512 75.5667 237.812 75.8C237.129 76.0167 236.545 76.3167 236.062 76.7L234.662 73.975C235.395 73.4583 236.27 73.0583 237.287 72.775C238.32 72.4917 239.379 72.35 240.462 72.35ZM240.162 83.575C240.829 83.575 241.42 83.425 241.937 83.125C242.454 82.8083 242.82 82.35 243.037 81.75V80.375H240.362C238.762 80.375 237.962 80.9 237.962 81.95C237.962 82.45 238.154 82.85 238.537 83.15C238.937 83.4333 239.479 83.575 240.162 83.575ZM258.732 85.35C258.348 85.6333 257.873 85.85 257.307 86C256.757 86.1333 256.173 86.2 255.557 86.2C253.957 86.2 252.715 85.7917 251.832 84.975C250.965 84.1583 250.532 82.9583 250.532 81.375V75.85H248.457V72.85H250.532V69.575H254.432V72.85H257.782V75.85H254.432V81.325C254.432 81.8917 254.573 82.3333 254.857 82.65C255.157 82.95 255.573 83.1 256.107 83.1C256.723 83.1 257.248 82.9333 257.682 82.6L258.732 85.35ZM268.686 72.35C270.353 72.35 271.694 72.85 272.711 73.85C273.744 74.85 274.261 76.3333 274.261 78.3V86H270.361V78.9C270.361 77.8333 270.128 77.0417 269.661 76.525C269.194 75.9917 268.519 75.725 267.636 75.725C266.653 75.725 265.869 76.0333 265.286 76.65C264.703 77.25 264.411 78.15 264.411 79.35V86H260.511V67.45H264.411V73.95C264.928 73.4333 265.553 73.0417 266.286 72.775C267.019 72.4917 267.819 72.35 268.686 72.35ZM281.911 86.2C280.795 86.2 279.703 86.0667 278.636 85.8C277.57 85.5167 276.72 85.1667 276.086 84.75L277.386 81.95C277.986 82.3333 278.711 82.65 279.561 82.9C280.411 83.1333 281.245 83.25 282.061 83.25C283.711 83.25 284.536 82.8417 284.536 82.025C284.536 81.6417 284.311 81.3667 283.861 81.2C283.411 81.0333 282.72 80.8917 281.786 80.775C280.686 80.6083 279.778 80.4167 279.061 80.2C278.345 79.9833 277.72 79.6 277.186 79.05C276.67 78.5 276.411 77.7167 276.411 76.7C276.411 75.85 276.653 75.1 277.136 74.45C277.636 73.7833 278.353 73.2667 279.286 72.9C280.236 72.5333 281.353 72.35 282.636 72.35C283.586 72.35 284.528 72.4583 285.461 72.675C286.411 72.875 287.195 73.1583 287.811 73.525L286.511 76.3C285.328 75.6333 284.036 75.3 282.636 75.3C281.803 75.3 281.178 75.4167 280.761 75.65C280.345 75.8833 280.136 76.1833 280.136 76.55C280.136 76.9667 280.361 77.2583 280.811 77.425C281.261 77.5917 281.978 77.75 282.961 77.9C284.061 78.0833 284.961 78.2833 285.661 78.5C286.361 78.7 286.97 79.075 287.486 79.625C288.003 80.175 288.261 80.9417 288.261 81.925C288.261 82.7583 288.011 83.5 287.511 84.15C287.011 84.8 286.278 85.3083 285.311 85.675C284.361 86.025 283.228 86.2 281.911 86.2Z" fill="white"/>
<defs>
<filter id="filter0_dd" x="0" y="0" width="332" height="119" filterUnits="userSpaceOnUse" color-interpolation-filters="sRGB">
<feFlood flood-opacity="0" result="BackgroundImageFix"/>
<feColorMatrix in="SourceAlpha" type="matrix" values="0 0 0 0 0 0 0 0 0 0 0 0 0 0 0 0 0 0 127 0"/>
<feOffset dx="-4" dy="-4"/>
<feGaussianBlur stdDeviation="6"/>
<feColorMatrix type="matrix" values="0 0 0 0 1 0 0 0 0 1 0 0 0 0 1 0 0 0 0.25 0"/>
<feBlend mode="normal" in2="BackgroundImageFix" result="effect1_dropShadow"/>
<feColorMatrix in="SourceAlpha" type="matrix" values="0 0 0 0 0 0 0 0 0 0 0 0 0 0 0 0 0 0 127 0"/>
<feOffset dx="4" dy="4"/>
<feGaussianBlur stdDeviation="6"/>
<feColorMatrix type="matrix" values="0 0 0 0 0 0 0 0 0 0 0 0 0 0 0 0 0 0 0.25 0"/>
<feBlend mode="normal" in2="effect1_dropShadow" result="effect2_dropShadow"/>
<feBlend mode="normal" in="SourceGraphic" in2="effect2_dropShadow" result="shape"/>
</filter>
</defs>
</svg>
