<svg width="332" height="119" viewBox="0 0 332 119" fill="none" xmlns="http://www.w3.org/2000/svg">
<g filter="url(#filter0_dd)">
<rect x="16" y="16" width="300" height="87" rx="10" fill="#265026"/>
</g>
<path d="M67.0439 51.3C65.6606 51.3 64.3189 51.1167 63.0189 50.75C61.7356 50.3667 60.7022 49.875 59.9189 49.275L61.2939 46.225C62.0439 46.775 62.9356 47.2167 63.9689 47.55C65.0022 47.8833 66.0356 48.05 67.0689 48.05C68.2189 48.05 69.0689 47.8833 69.6189 47.55C70.1689 47.2 70.4439 46.7417 70.4439 46.175C70.4439 45.7583 70.2772 45.4167 69.9439 45.15C69.6272 44.8667 69.2106 44.6417 68.6939 44.475C68.1939 44.3083 67.5106 44.125 66.6439 43.925C65.3106 43.6083 64.2189 43.2917 63.3689 42.975C62.5189 42.6583 61.7856 42.15 61.1689 41.45C60.5689 40.75 60.2689 39.8167 60.2689 38.65C60.2689 37.6333 60.5439 36.7167 61.0939 35.9C61.6439 35.0667 62.4689 34.4083 63.5689 33.925C64.6856 33.4417 66.0439 33.2 67.6439 33.2C68.7606 33.2 69.8522 33.3333 70.9189 33.6C71.9856 33.8667 72.9189 34.25 73.7189 34.75L72.4689 37.825C70.8522 36.9083 69.2356 36.45 67.6189 36.45C66.4856 36.45 65.6439 36.6333 65.0939 37C64.5606 37.3667 64.2939 37.85 64.2939 38.45C64.2939 39.05 64.6022 39.5 65.2189 39.8C65.8522 40.0833 66.8106 40.3667 68.0939 40.65C69.4272 40.9667 70.5189 41.2833 71.3689 41.6C72.2189 41.9167 72.9439 42.4167 73.5439 43.1C74.1606 43.7833 74.4689 44.7083 74.4689 45.875C74.4689 46.875 74.1856 47.7917 73.6189 48.625C73.0689 49.4417 72.2356 50.0917 71.1189 50.575C70.0022 51.0583 68.6439 51.3 67.0439 51.3ZM82.9513 51.2C81.5346 51.2 80.2596 50.9083 79.1263 50.325C78.0096 49.725 77.1346 48.9 76.5013 47.85C75.8679 46.8 75.5513 45.6083 75.5513 44.275C75.5513 42.9417 75.8679 41.75 76.5013 40.7C77.1346 39.65 78.0096 38.8333 79.1263 38.25C80.2596 37.65 81.5346 37.35 82.9513 37.35C84.3679 37.35 85.6346 37.65 86.7513 38.25C87.8679 38.8333 88.7429 39.65 89.3763 40.7C90.0096 41.75 90.3263 42.9417 90.3263 44.275C90.3263 45.6083 90.0096 46.8 89.3763 47.85C88.7429 48.9 87.8679 49.725 86.7513 50.325C85.6346 50.9083 84.3679 51.2 82.9513 51.2ZM82.9513 48C83.9513 48 84.7679 47.6667 85.4013 47C86.0513 46.3167 86.3763 45.4083 86.3763 44.275C86.3763 43.1417 86.0513 42.2417 85.4013 41.575C84.7679 40.8917 83.9513 40.55 82.9513 40.55C81.9513 40.55 81.1263 40.8917 80.4763 41.575C79.8263 42.2417 79.5013 43.1417 79.5013 44.275C79.5013 45.4083 79.8263 46.3167 80.4763 47C81.1263 47.6667 81.9513 48 82.9513 48ZM99.0231 51.2C97.5898 51.2 96.2981 50.9083 95.1481 50.325C94.0148 49.725 93.1231 48.9 92.4731 47.85C91.8398 46.8 91.5231 45.6083 91.5231 44.275C91.5231 42.9417 91.8398 41.75 92.4731 40.7C93.1231 39.65 94.0148 38.8333 95.1481 38.25C96.2981 37.65 97.5898 37.35 99.0231 37.35C100.44 37.35 101.673 37.65 102.723 38.25C103.79 38.8333 104.565 39.675 105.048 40.775L102.023 42.4C101.323 41.1667 100.315 40.55 98.9981 40.55C97.9814 40.55 97.1398 40.8833 96.4731 41.55C95.8064 42.2167 95.4731 43.125 95.4731 44.275C95.4731 45.425 95.8064 46.3333 96.4731 47C97.1398 47.6667 97.9814 48 98.9981 48C100.331 48 101.34 47.3833 102.023 46.15L105.048 47.8C104.565 48.8667 103.79 49.7 102.723 50.3C101.673 50.9 100.44 51.2 99.0231 51.2ZM106.884 37.55H110.784V51H106.884V37.55ZM108.834 35.675C108.117 35.675 107.534 35.4667 107.084 35.05C106.634 34.6333 106.409 34.1167 106.409 33.5C106.409 32.8833 106.634 32.3667 107.084 31.95C107.534 31.5333 108.117 31.325 108.834 31.325C109.55 31.325 110.134 31.525 110.584 31.925C111.034 32.325 111.259 32.825 111.259 33.425C111.259 34.075 111.034 34.6167 110.584 35.05C110.134 35.4667 109.55 35.675 108.834 35.675ZM119.418 37.35C121.501 37.35 123.101 37.85 124.218 38.85C125.335 39.8333 125.893 41.325 125.893 43.325V51H122.243V49.325C121.51 50.575 120.143 51.2 118.143 51.2C117.11 51.2 116.21 51.025 115.443 50.675C114.693 50.325 114.118 49.8417 113.718 49.225C113.318 48.6083 113.118 47.9083 113.118 47.125C113.118 45.875 113.585 44.8917 114.518 44.175C115.468 43.4583 116.926 43.1 118.893 43.1H121.993C121.993 42.25 121.735 41.6 121.218 41.15C120.701 40.6833 119.926 40.45 118.893 40.45C118.176 40.45 117.468 40.5667 116.768 40.8C116.085 41.0167 115.501 41.3167 115.018 41.7L113.618 38.975C114.351 38.4583 115.226 38.0583 116.243 37.775C117.276 37.4917 118.335 37.35 119.418 37.35ZM119.118 48.575C119.785 48.575 120.376 48.425 120.893 48.125C121.41 47.8083 121.776 47.35 121.993 46.75V45.375H119.318C117.718 45.375 116.918 45.9 116.918 46.95C116.918 47.45 117.11 47.85 117.493 48.15C117.893 48.4333 118.435 48.575 119.118 48.575ZM129.013 32.45H132.913V51H129.013V32.45ZM154.592 47.25H146.467L144.917 51H140.767L148.567 33.5H152.567L160.392 51H156.142L154.592 47.25ZM153.317 44.175L150.542 37.475L147.767 44.175H153.317ZM167.901 51.2C166.468 51.2 165.176 50.9083 164.026 50.325C162.893 49.725 162.001 48.9 161.351 47.85C160.718 46.8 160.401 45.6083 160.401 44.275C160.401 42.9417 160.718 41.75 161.351 40.7C162.001 39.65 162.893 38.8333 164.026 38.25C165.176 37.65 166.468 37.35 167.901 37.35C169.318 37.35 170.551 37.65 171.601 38.25C172.668 38.8333 173.443 39.675 173.926 40.775L170.901 42.4C170.201 41.1667 169.193 40.55 167.876 40.55C166.859 40.55 166.018 40.8833 165.351 41.55C164.684 42.2167 164.351 43.125 164.351 44.275C164.351 45.425 164.684 46.3333 165.351 47C166.018 47.6667 166.859 48 167.876 48C169.209 48 170.218 47.3833 170.901 46.15L173.926 47.8C173.443 48.8667 172.668 49.7 171.601 50.3C170.551 50.9 169.318 51.2 167.901 51.2ZM184.632 50.35C184.248 50.6333 183.773 50.85 183.207 51C182.657 51.1333 182.073 51.2 181.457 51.2C179.857 51.2 178.615 50.7917 177.732 49.975C176.865 49.1583 176.432 47.9583 176.432 46.375V40.85H174.357V37.85H176.432V34.575H180.332V37.85H183.682V40.85H180.332V46.325C180.332 46.8917 180.473 47.3333 180.757 47.65C181.057 47.95 181.473 48.1 182.007 48.1C182.623 48.1 183.148 47.9333 183.582 47.6L184.632 50.35ZM186.411 37.55H190.311V51H186.411V37.55ZM188.361 35.675C187.644 35.675 187.061 35.4667 186.611 35.05C186.161 34.6333 185.936 34.1167 185.936 33.5C185.936 32.8833 186.161 32.3667 186.611 31.95C187.061 31.5333 187.644 31.325 188.361 31.325C189.078 31.325 189.661 31.525 190.111 31.925C190.561 32.325 190.786 32.825 190.786 33.425C190.786 34.075 190.561 34.6167 190.111 35.05C189.661 35.4667 189.078 35.675 188.361 35.675ZM199.921 51.2C198.504 51.2 197.229 50.9083 196.096 50.325C194.979 49.725 194.104 48.9 193.471 47.85C192.837 46.8 192.521 45.6083 192.521 44.275C192.521 42.9417 192.837 41.75 193.471 40.7C194.104 39.65 194.979 38.8333 196.096 38.25C197.229 37.65 198.504 37.35 199.921 37.35C201.337 37.35 202.604 37.65 203.721 38.25C204.837 38.8333 205.712 39.65 206.346 40.7C206.979 41.75 207.296 42.9417 207.296 44.275C207.296 45.6083 206.979 46.8 206.346 47.85C205.712 48.9 204.837 49.725 203.721 50.325C202.604 50.9083 201.337 51.2 199.921 51.2ZM199.921 48C200.921 48 201.737 47.6667 202.371 47C203.021 46.3167 203.346 45.4083 203.346 44.275C203.346 43.1417 203.021 42.2417 202.371 41.575C201.737 40.8917 200.921 40.55 199.921 40.55C198.921 40.55 198.096 40.8917 197.446 41.575C196.796 42.2417 196.471 43.1417 196.471 44.275C196.471 45.4083 196.796 46.3167 197.446 47C198.096 47.6667 198.921 48 199.921 48ZM217.667 37.35C219.334 37.35 220.676 37.85 221.692 38.85C222.726 39.85 223.242 41.3333 223.242 43.3V51H219.342V43.9C219.342 42.8333 219.109 42.0417 218.642 41.525C218.176 40.9917 217.501 40.725 216.617 40.725C215.634 40.725 214.851 41.0333 214.267 41.65C213.684 42.25 213.392 43.15 213.392 44.35V51H209.492V37.55H213.217V39.125C213.734 38.5583 214.376 38.125 215.142 37.825C215.909 37.5083 216.751 37.35 217.667 37.35ZM237.363 36.75V41.375H245.463V44.625H237.363V51H233.313V33.5H246.538V36.75H237.363ZM254.653 51.2C253.236 51.2 251.961 50.9083 250.828 50.325C249.711 49.725 248.836 48.9 248.203 47.85C247.569 46.8 247.253 45.6083 247.253 44.275C247.253 42.9417 247.569 41.75 248.203 40.7C248.836 39.65 249.711 38.8333 250.828 38.25C251.961 37.65 253.236 37.35 254.653 37.35C256.069 37.35 257.336 37.65 258.453 38.25C259.569 38.8333 260.444 39.65 261.078 40.7C261.711 41.75 262.028 42.9417 262.028 44.275C262.028 45.6083 261.711 46.8 261.078 47.85C260.444 48.9 259.569 49.725 258.453 50.325C257.336 50.9083 256.069 51.2 254.653 51.2ZM254.653 48C255.653 48 256.469 47.6667 257.103 47C257.753 46.3167 258.078 45.4083 258.078 44.275C258.078 43.1417 257.753 42.2417 257.103 41.575C256.469 40.8917 255.653 40.55 254.653 40.55C253.653 40.55 252.828 40.8917 252.178 41.575C251.528 42.2417 251.203 43.1417 251.203 44.275C251.203 45.4083 251.528 46.3167 252.178 47C252.828 47.6667 253.653 48 254.653 48ZM267.95 39.325C268.416 38.675 269.041 38.1833 269.825 37.85C270.625 37.5167 271.541 37.35 272.575 37.35V40.95C272.141 40.9167 271.85 40.9 271.7 40.9C270.583 40.9 269.708 41.2167 269.075 41.85C268.441 42.4667 268.125 43.4 268.125 44.65V51H264.225V37.55H267.95V39.325ZM141.315 68.5V86H137.265V78.825H129.315V86H125.265V68.5H129.315V75.4H137.265V68.5H141.315ZM157.945 79.325C157.945 79.375 157.92 79.725 157.87 80.375H147.695C147.878 81.2083 148.312 81.8667 148.995 82.35C149.678 82.8333 150.528 83.075 151.545 83.075C152.245 83.075 152.862 82.975 153.395 82.775C153.945 82.5583 154.453 82.225 154.92 81.775L156.995 84.025C155.728 85.475 153.878 86.2 151.445 86.2C149.928 86.2 148.587 85.9083 147.42 85.325C146.253 84.725 145.353 83.9 144.72 82.85C144.087 81.8 143.77 80.6083 143.77 79.275C143.77 77.9583 144.078 76.775 144.695 75.725C145.328 74.6583 146.187 73.8333 147.27 73.25C148.37 72.65 149.595 72.35 150.945 72.35C152.262 72.35 153.453 72.6333 154.52 73.2C155.587 73.7667 156.42 74.5833 157.02 75.65C157.637 76.7 157.945 77.925 157.945 79.325ZM150.97 75.3C150.087 75.3 149.345 75.55 148.745 76.05C148.145 76.55 147.778 77.2333 147.645 78.1H154.27C154.137 77.25 153.77 76.575 153.17 76.075C152.57 75.5583 151.837 75.3 150.97 75.3ZM165.19 72.35C167.274 72.35 168.874 72.85 169.99 73.85C171.107 74.8333 171.665 76.325 171.665 78.325V86H168.015V84.325C167.282 85.575 165.915 86.2 163.915 86.2C162.882 86.2 161.982 86.025 161.215 85.675C160.465 85.325 159.89 84.8417 159.49 84.225C159.09 83.6083 158.89 82.9083 158.89 82.125C158.89 80.875 159.357 79.8917 160.29 79.175C161.24 78.4583 162.699 78.1 164.665 78.1H167.765C167.765 77.25 167.507 76.6 166.99 76.15C166.474 75.6833 165.699 75.45 164.665 75.45C163.949 75.45 163.24 75.5667 162.54 75.8C161.857 76.0167 161.274 76.3167 160.79 76.7L159.39 73.975C160.124 73.4583 160.999 73.0583 162.015 72.775C163.049 72.4917 164.107 72.35 165.19 72.35ZM164.89 83.575C165.557 83.575 166.149 83.425 166.665 83.125C167.182 82.8083 167.549 82.35 167.765 81.75V80.375H165.09C163.49 80.375 162.69 80.9 162.69 81.95C162.69 82.45 162.882 82.85 163.265 83.15C163.665 83.4333 164.207 83.575 164.89 83.575ZM174.785 67.45H178.685V86H174.785V67.45ZM191.546 85.35C191.163 85.6333 190.688 85.85 190.121 86C189.571 86.1333 188.988 86.2 188.371 86.2C186.771 86.2 185.529 85.7917 184.646 84.975C183.779 84.1583 183.346 82.9583 183.346 81.375V75.85H181.271V72.85H183.346V69.575H187.246V72.85H190.596V75.85H187.246V81.325C187.246 81.8917 187.388 82.3333 187.671 82.65C187.971 82.95 188.388 83.1 188.921 83.1C189.538 83.1 190.063 82.9333 190.496 82.6L191.546 85.35ZM201.5 72.35C203.167 72.35 204.509 72.85 205.525 73.85C206.559 74.85 207.075 76.3333 207.075 78.3V86H203.175V78.9C203.175 77.8333 202.942 77.0417 202.475 76.525C202.009 75.9917 201.334 75.725 200.45 75.725C199.467 75.725 198.684 76.0333 198.1 76.65C197.517 77.25 197.225 78.15 197.225 79.35V86H193.325V67.45H197.225V73.95C197.742 73.4333 198.367 73.0417 199.1 72.775C199.834 72.4917 200.634 72.35 201.5 72.35Z" fill="white"/>
<defs>
<filter id="filter0_dd" x="0" y="0" width="332" height="119" filterUnits="userSpaceOnUse" color-interpolation-filters="sRGB">
<feFlood flood-opacity="0" result="BackgroundImageFix"/>
<feColorMatrix in="SourceAlpha" type="matrix" values="0 0 0 0 0 0 0 0 0 0 0 0 0 0 0 0 0 0 127 0"/>
<feOffset dx="-4" dy="-4"/>
<feGaussianBlur stdDeviation="6"/>
<feColorMatrix type="matrix" values="0 0 0 0 1 0 0 0 0 1 0 0 0 0 1 0 0 0 0.25 0"/>
<feBlend mode="normal" in2="BackgroundImageFix" result="effect1_dropShadow"/>
<feColorMatrix in="SourceAlpha" type="matrix" values="0 0 0 0 0 0 0 0 0 0 0 0 0 0 0 0 0 0 127 0"/>
<feOffset dx="4" dy="4"/>
<feGaussianBlur stdDeviation="6"/>
<feColorMatrix type="matrix" values="0 0 0 0 0 0 0 0 0 0 0 0 0 0 0 0 0 0 0.25 0"/>
<feBlend mode="normal" in2="effect1_dropShadow" result="effect2_dropShadow"/>
<feBlend mode="normal" in="SourceGraphic" in2="effect2_dropShadow" result="shape"/>
</filter>
</defs>
</svg>
