<svg width="167" height="168" viewBox="0 0 167 168" fill="none" xmlns="http://www.w3.org/2000/svg">
<g filter="url(#filter0_dd)">
<rect x="16" y="16" width="135" height="135.662" rx="10" fill="#E9B3AC"/>
</g>
<path d="M136.201 26.1547C136.201 27.1646 135.804 28.1332 135.096 28.8473C134.388 29.5615 133.427 29.9627 132.426 29.9627C131.425 29.9627 130.465 29.5615 129.757 28.8473C129.049 28.1332 128.651 27.1646 128.651 26.1547C128.651 25.1447 129.049 24.1762 129.757 23.462C130.465 22.7479 131.425 22.3467 132.426 22.3467C133.427 22.3467 134.388 22.7479 135.096 23.462C135.804 24.1762 136.201 25.1447 136.201 26.1547V26.1547ZM142.493 28.6933C142.493 29.3666 142.228 30.0124 141.756 30.4885C141.284 30.9645 140.644 31.232 139.976 31.232C139.309 31.232 138.669 30.9645 138.197 30.4885C137.725 30.0124 137.46 29.3666 137.46 28.6933C137.46 28.0201 137.725 27.3743 138.197 26.8982C138.669 26.4221 139.309 26.1547 139.976 26.1547C140.644 26.1547 141.284 26.4221 141.756 26.8982C142.228 27.3743 142.493 28.0201 142.493 28.6933V28.6933ZM137.46 37.5787C137.46 36.2321 136.929 34.9406 135.985 33.9885C135.041 33.0363 133.761 32.5013 132.426 32.5013C131.091 32.5013 129.811 33.0363 128.867 33.9885C127.923 34.9406 127.393 36.2321 127.393 37.5787V41.3867H137.46V37.5787ZM127.393 28.6933C127.393 29.3666 127.127 30.0124 126.655 30.4885C126.183 30.9645 125.543 31.232 124.876 31.232C124.208 31.232 123.568 30.9645 123.096 30.4885C122.624 30.0124 122.359 29.3666 122.359 28.6933C122.359 28.0201 122.624 27.3743 123.096 26.8982C123.568 26.4221 124.208 26.1547 124.876 26.1547C125.543 26.1547 126.183 26.4221 126.655 26.8982C127.127 27.3743 127.393 28.0201 127.393 28.6933V28.6933ZM139.976 41.3867V37.5787C139.978 36.2881 139.653 35.0185 139.033 33.89C139.591 33.746 140.174 33.7324 140.738 33.8503C141.301 33.9682 141.831 34.2144 142.286 34.5702C142.742 34.9261 143.11 35.3821 143.364 35.9034C143.618 36.4248 143.751 36.9978 143.752 37.5787V41.3867H139.976ZM125.82 33.89C125.199 35.0185 124.874 36.2881 124.876 37.5787V41.3867H121.101V37.5787C121.1 36.9974 121.232 36.4237 121.486 35.9017C121.739 35.3797 122.108 34.9232 122.563 34.5671C123.019 34.211 123.549 33.9649 124.114 33.8475C124.678 33.7301 125.262 33.7447 125.82 33.89V33.89Z" fill="white"/>
<path d="M35.2842 134.231C36.7842 134.231 37.9362 134.591 38.7402 135.311C39.5442 136.019 39.9462 137.093 39.9462 138.533V144.059H37.3182V142.853C36.7902 143.753 35.8062 144.203 34.3662 144.203C33.6222 144.203 32.9742 144.077 32.4222 143.825C31.8822 143.573 31.4682 143.225 31.1802 142.781C30.8922 142.337 30.7482 141.833 30.7482 141.269C30.7482 140.369 31.0842 139.661 31.7562 139.145C32.4402 138.629 33.4902 138.371 34.9062 138.371H37.1382C37.1382 137.759 36.9522 137.291 36.5802 136.967C36.2082 136.631 35.6502 136.463 34.9062 136.463C34.3902 136.463 33.8802 136.547 33.3762 136.715C32.8842 136.871 32.4642 137.087 32.1162 137.363L31.1082 135.401C31.6362 135.029 32.2662 134.741 32.9982 134.537C33.7422 134.333 34.5042 134.231 35.2842 134.231ZM35.0682 142.313C35.5482 142.313 35.9742 142.205 36.3462 141.989C36.7182 141.761 36.9822 141.431 37.1382 140.999V140.009H35.2122C34.0602 140.009 33.4842 140.387 33.4842 141.143C33.4842 141.503 33.6222 141.791 33.8982 142.007C34.1862 142.211 34.5762 142.313 35.0682 142.313ZM52.0471 130.703V144.059H49.3651V142.943C48.6691 143.783 47.6611 144.203 46.3411 144.203C45.4291 144.203 44.6011 143.999 43.8571 143.591C43.1251 143.183 42.5491 142.601 42.1291 141.845C41.7091 141.089 41.4991 140.213 41.4991 139.217C41.4991 138.221 41.7091 137.345 42.1291 136.589C42.5491 135.833 43.1251 135.251 43.8571 134.843C44.6011 134.435 45.4291 134.231 46.3411 134.231C47.5771 134.231 48.5431 134.621 49.2391 135.401V130.703H52.0471ZM46.8271 141.899C47.5351 141.899 48.1231 141.659 48.5911 141.179C49.0591 140.687 49.2931 140.033 49.2931 139.217C49.2931 138.401 49.0591 137.753 48.5911 137.273C48.1231 136.781 47.5351 136.535 46.8271 136.535C46.1071 136.535 45.5131 136.781 45.0451 137.273C44.5771 137.753 44.3431 138.401 44.3431 139.217C44.3431 140.033 44.5771 140.687 45.0451 141.179C45.5131 141.659 46.1071 141.899 46.8271 141.899ZM64.1 130.703V144.059H61.418V142.943C60.722 143.783 59.714 144.203 58.394 144.203C57.482 144.203 56.654 143.999 55.91 143.591C55.178 143.183 54.602 142.601 54.182 141.845C53.762 141.089 53.552 140.213 53.552 139.217C53.552 138.221 53.762 137.345 54.182 136.589C54.602 135.833 55.178 135.251 55.91 134.843C56.654 134.435 57.482 134.231 58.394 134.231C59.63 134.231 60.596 134.621 61.292 135.401V130.703H64.1ZM58.88 141.899C59.588 141.899 60.176 141.659 60.644 141.179C61.112 140.687 61.346 140.033 61.346 139.217C61.346 138.401 61.112 137.753 60.644 137.273C60.176 136.781 59.588 136.535 58.88 136.535C58.16 136.535 57.566 136.781 57.098 137.273C56.63 137.753 56.396 138.401 56.396 139.217C56.396 140.033 56.63 140.687 57.098 141.179C57.566 141.659 58.16 141.899 58.88 141.899ZM74.2345 144.203C73.4305 144.203 72.6445 144.107 71.8765 143.915C71.1085 143.711 70.4965 143.459 70.0405 143.159L70.9765 141.143C71.4085 141.419 71.9305 141.647 72.5425 141.827C73.1545 141.995 73.7545 142.079 74.3425 142.079C75.5305 142.079 76.1245 141.785 76.1245 141.197C76.1245 140.921 75.9625 140.723 75.6385 140.603C75.3145 140.483 74.8165 140.381 74.1445 140.297C73.3525 140.177 72.6985 140.039 72.1825 139.883C71.6665 139.727 71.2165 139.451 70.8325 139.055C70.4605 138.659 70.2745 138.095 70.2745 137.363C70.2745 136.751 70.4485 136.211 70.7965 135.743C71.1565 135.263 71.6725 134.891 72.3445 134.627C73.0285 134.363 73.8325 134.231 74.7565 134.231C75.4405 134.231 76.1185 134.309 76.7905 134.465C77.4745 134.609 78.0385 134.813 78.4825 135.077L77.5465 137.075C76.6945 136.595 75.7645 136.355 74.7565 136.355C74.1565 136.355 73.7065 136.439 73.4065 136.607C73.1065 136.775 72.9565 136.991 72.9565 137.255C72.9565 137.555 73.1185 137.765 73.4425 137.885C73.7665 138.005 74.2825 138.119 74.9905 138.227C75.7825 138.359 76.4305 138.503 76.9345 138.659C77.4385 138.803 77.8765 139.073 78.2485 139.469C78.6205 139.865 78.8065 140.417 78.8065 141.125C78.8065 141.725 78.6265 142.259 78.2665 142.727C77.9065 143.195 77.3785 143.561 76.6825 143.825C75.9985 144.077 75.1825 144.203 74.2345 144.203ZM89.615 139.253C89.615 139.289 89.597 139.541 89.561 140.009H82.235C82.367 140.609 82.679 141.083 83.171 141.431C83.663 141.779 84.275 141.953 85.007 141.953C85.511 141.953 85.955 141.881 86.339 141.737C86.735 141.581 87.101 141.341 87.437 141.017L88.931 142.637C88.019 143.681 86.687 144.203 84.935 144.203C83.843 144.203 82.877 143.993 82.037 143.573C81.197 143.141 80.549 142.547 80.093 141.791C79.637 141.035 79.409 140.177 79.409 139.217C79.409 138.269 79.631 137.417 80.075 136.661C80.531 135.893 81.149 135.299 81.929 134.879C82.721 134.447 83.603 134.231 84.575 134.231C85.523 134.231 86.381 134.435 87.149 134.843C87.917 135.251 88.517 135.839 88.949 136.607C89.393 137.363 89.615 138.245 89.615 139.253ZM84.593 136.355C83.957 136.355 83.423 136.535 82.991 136.895C82.559 137.255 82.295 137.747 82.199 138.371H86.969C86.873 137.759 86.609 137.273 86.177 136.913C85.745 136.541 85.217 136.355 84.593 136.355ZM94.3325 144.203C93.5285 144.203 92.7425 144.107 91.9745 143.915C91.2065 143.711 90.5945 143.459 90.1385 143.159L91.0745 141.143C91.5065 141.419 92.0285 141.647 92.6405 141.827C93.2525 141.995 93.8525 142.079 94.4405 142.079C95.6285 142.079 96.2225 141.785 96.2225 141.197C96.2225 140.921 96.0605 140.723 95.7365 140.603C95.4125 140.483 94.9145 140.381 94.2425 140.297C93.4505 140.177 92.7965 140.039 92.2805 139.883C91.7645 139.727 91.3145 139.451 90.9305 139.055C90.5585 138.659 90.3725 138.095 90.3725 137.363C90.3725 136.751 90.5465 136.211 90.8945 135.743C91.2545 135.263 91.7705 134.891 92.4425 134.627C93.1265 134.363 93.9305 134.231 94.8545 134.231C95.5385 134.231 96.2165 134.309 96.8885 134.465C97.5725 134.609 98.1365 134.813 98.5805 135.077L97.6445 137.075C96.7925 136.595 95.8625 136.355 94.8545 136.355C94.2545 136.355 93.8045 136.439 93.5045 136.607C93.2045 136.775 93.0545 136.991 93.0545 137.255C93.0545 137.555 93.2165 137.765 93.5405 137.885C93.8645 138.005 94.3805 138.119 95.0885 138.227C95.8805 138.359 96.5285 138.503 97.0325 138.659C97.5365 138.803 97.9745 139.073 98.3465 139.469C98.7185 139.865 98.9045 140.417 98.9045 141.125C98.9045 141.725 98.7245 142.259 98.3645 142.727C98.0045 143.195 97.4765 143.561 96.7805 143.825C96.0965 144.077 95.2805 144.203 94.3325 144.203ZM103.485 144.203C102.681 144.203 101.895 144.107 101.127 143.915C100.359 143.711 99.747 143.459 99.291 143.159L100.227 141.143C100.659 141.419 101.181 141.647 101.793 141.827C102.405 141.995 103.005 142.079 103.593 142.079C104.781 142.079 105.375 141.785 105.375 141.197C105.375 140.921 105.213 140.723 104.889 140.603C104.565 140.483 104.067 140.381 103.395 140.297C102.603 140.177 101.949 140.039 101.433 139.883C100.917 139.727 100.467 139.451 100.083 139.055C99.711 138.659 99.525 138.095 99.525 137.363C99.525 136.751 99.699 136.211 100.047 135.743C100.407 135.263 100.923 134.891 101.595 134.627C102.279 134.363 103.083 134.231 104.007 134.231C104.691 134.231 105.369 134.309 106.041 134.465C106.725 134.609 107.289 134.813 107.733 135.077L106.797 137.075C105.945 136.595 105.015 136.355 104.007 136.355C103.407 136.355 102.957 136.439 102.657 136.607C102.357 136.775 102.207 136.991 102.207 137.255C102.207 137.555 102.369 137.765 102.693 137.885C103.017 138.005 103.533 138.119 104.241 138.227C105.033 138.359 105.681 138.503 106.185 138.659C106.689 138.803 107.127 139.073 107.499 139.469C107.871 139.865 108.057 140.417 108.057 141.125C108.057 141.725 107.877 142.259 107.517 142.727C107.157 143.195 106.629 143.561 105.933 143.825C105.249 144.077 104.433 144.203 103.485 144.203ZM109.379 134.375H112.187V144.059H109.379V134.375ZM110.783 133.025C110.267 133.025 109.847 132.875 109.523 132.575C109.199 132.275 109.037 131.903 109.037 131.459C109.037 131.015 109.199 130.643 109.523 130.343C109.847 130.043 110.267 129.893 110.783 129.893C111.299 129.893 111.719 130.037 112.043 130.325C112.367 130.613 112.529 130.973 112.529 131.405C112.529 131.873 112.367 132.263 112.043 132.575C111.719 132.875 111.299 133.025 110.783 133.025ZM118.992 144.203C117.972 144.203 117.054 143.993 116.238 143.573C115.434 143.141 114.804 142.547 114.348 141.791C113.892 141.035 113.664 140.177 113.664 139.217C113.664 138.257 113.892 137.399 114.348 136.643C114.804 135.887 115.434 135.299 116.238 134.879C117.054 134.447 117.972 134.231 118.992 134.231C120.012 134.231 120.924 134.447 121.728 134.879C122.532 135.299 123.162 135.887 123.618 136.643C124.074 137.399 124.302 138.257 124.302 139.217C124.302 140.177 124.074 141.035 123.618 141.791C123.162 142.547 122.532 143.141 121.728 143.573C120.924 143.993 120.012 144.203 118.992 144.203ZM118.992 141.899C119.712 141.899 120.3 141.659 120.756 141.179C121.224 140.687 121.458 140.033 121.458 139.217C121.458 138.401 121.224 137.753 120.756 137.273C120.3 136.781 119.712 136.535 118.992 136.535C118.272 136.535 117.678 136.781 117.21 137.273C116.742 137.753 116.508 138.401 116.508 139.217C116.508 140.033 116.742 140.687 117.21 141.179C117.678 141.659 118.272 141.899 118.992 141.899ZM131.654 134.231C132.854 134.231 133.82 134.591 134.552 135.311C135.296 136.031 135.668 137.099 135.668 138.515V144.059H132.86V138.947C132.86 138.179 132.692 137.609 132.356 137.237C132.02 136.853 131.534 136.661 130.898 136.661C130.19 136.661 129.626 136.883 129.206 137.327C128.786 137.759 128.576 138.407 128.576 139.271V144.059H125.768V134.375H128.45V135.509C128.822 135.101 129.284 134.789 129.836 134.573C130.388 134.345 130.994 134.231 131.654 134.231Z" fill="white"/>
<path d="M85.312 66.5467C83.4433 66.5467 81.9143 68.0767 81.9143 69.9467V80.1467H71.7214C69.8527 80.1467 68.3237 81.6767 68.3237 83.5467C68.3237 85.4167 69.8527 86.9467 71.7214 86.9467H81.9143V97.1467C81.9143 99.0167 83.4433 100.547 85.312 100.547C87.1807 100.547 88.7096 99.0167 88.7096 97.1467V86.9467H98.9026C100.771 86.9467 102.3 85.4167 102.3 83.5467C102.3 81.6767 100.771 80.1467 98.9026 80.1467H88.7096V69.9467C88.7096 68.0767 87.1807 66.5467 85.312 66.5467ZM85.312 49.5467C66.5569 49.5467 51.3354 64.7787 51.3354 83.5467C51.3354 102.315 66.5569 117.547 85.312 117.547C104.067 117.547 119.288 102.315 119.288 83.5467C119.288 64.7787 104.067 49.5467 85.312 49.5467ZM85.312 110.747C70.3283 110.747 58.1308 98.5407 58.1308 83.5467C58.1308 68.5527 70.3283 56.3467 85.312 56.3467C100.296 56.3467 112.493 68.5527 112.493 83.5467C112.493 98.5407 100.296 110.747 85.312 110.747Z" fill="white"/>
<defs>
<filter id="filter0_dd" x="0" y="0" width="167" height="167.662" filterUnits="userSpaceOnUse" color-interpolation-filters="sRGB">
<feFlood flood-opacity="0" result="BackgroundImageFix"/>
<feColorMatrix in="SourceAlpha" type="matrix" values="0 0 0 0 0 0 0 0 0 0 0 0 0 0 0 0 0 0 127 0"/>
<feOffset dx="-4" dy="-4"/>
<feGaussianBlur stdDeviation="6"/>
<feColorMatrix type="matrix" values="0 0 0 0 1 0 0 0 0 1 0 0 0 0 1 0 0 0 0.5 0"/>
<feBlend mode="normal" in2="BackgroundImageFix" result="effect1_dropShadow"/>
<feColorMatrix in="SourceAlpha" type="matrix" values="0 0 0 0 0 0 0 0 0 0 0 0 0 0 0 0 0 0 127 0"/>
<feOffset dx="4" dy="4"/>
<feGaussianBlur stdDeviation="6"/>
<feColorMatrix type="matrix" values="0 0 0 0 0 0 0 0 0 0 0 0 0 0 0 0 0 0 0.25 0"/>
<feBlend mode="normal" in2="effect1_dropShadow" result="effect2_dropShadow"/>
<feBlend mode="normal" in="SourceGraphic" in2="effect2_dropShadow" result="shape"/>
</filter>
</defs>
</svg>
