<svg width="169" height="169" viewBox="0 0 169 169" fill="none" xmlns="http://www.w3.org/2000/svg">
<g filter="url(#filter0_dd)">
<rect x="16.4592" y="16" width="136.081" height="137" rx="10" fill="#F9BE7F"/>
</g>
<path d="M30.2754 135.172C31.7754 135.172 32.9274 135.532 33.7314 136.252C34.5354 136.96 34.9374 138.034 34.9374 139.474V145H32.3094V143.794C31.7814 144.694 30.7974 145.144 29.3574 145.144C28.6134 145.144 27.9654 145.018 27.4134 144.766C26.8734 144.514 26.4594 144.166 26.1714 143.722C25.8834 143.278 25.7394 142.774 25.7394 142.21C25.7394 141.31 26.0754 140.602 26.7474 140.086C27.4314 139.57 28.4814 139.312 29.8974 139.312H32.1294C32.1294 138.7 31.9434 138.232 31.5714 137.908C31.1994 137.572 30.6414 137.404 29.8974 137.404C29.3814 137.404 28.8714 137.488 28.3674 137.656C27.8754 137.812 27.4554 138.028 27.1074 138.304L26.0994 136.342C26.6274 135.97 27.2574 135.682 27.9894 135.478C28.7334 135.274 29.4954 135.172 30.2754 135.172ZM30.0594 143.254C30.5394 143.254 30.9654 143.146 31.3374 142.93C31.7094 142.702 31.9734 142.372 32.1294 141.94V140.95H30.2034C29.0514 140.95 28.4754 141.328 28.4754 142.084C28.4754 142.444 28.6134 142.732 28.8894 142.948C29.1774 143.152 29.5674 143.254 30.0594 143.254ZM47.0382 131.644V145H44.3562V143.884C43.6602 144.724 42.6522 145.144 41.3322 145.144C40.4202 145.144 39.5922 144.94 38.8482 144.532C38.1162 144.124 37.5402 143.542 37.1202 142.786C36.7002 142.03 36.4902 141.154 36.4902 140.158C36.4902 139.162 36.7002 138.286 37.1202 137.53C37.5402 136.774 38.1162 136.192 38.8482 135.784C39.5922 135.376 40.4202 135.172 41.3322 135.172C42.5682 135.172 43.5342 135.562 44.2302 136.342V131.644H47.0382ZM41.8182 142.84C42.5262 142.84 43.1142 142.6 43.5822 142.12C44.0502 141.628 44.2842 140.974 44.2842 140.158C44.2842 139.342 44.0502 138.694 43.5822 138.214C43.1142 137.722 42.5262 137.476 41.8182 137.476C41.0982 137.476 40.5042 137.722 40.0362 138.214C39.5682 138.694 39.3342 139.342 39.3342 140.158C39.3342 140.974 39.5682 141.628 40.0362 142.12C40.5042 142.6 41.0982 142.84 41.8182 142.84ZM59.0911 131.644V145H56.4091V143.884C55.7131 144.724 54.7051 145.144 53.3851 145.144C52.4731 145.144 51.6451 144.94 50.9011 144.532C50.1691 144.124 49.5931 143.542 49.1731 142.786C48.7531 142.03 48.5431 141.154 48.5431 140.158C48.5431 139.162 48.7531 138.286 49.1731 137.53C49.5931 136.774 50.1691 136.192 50.9011 135.784C51.6451 135.376 52.4731 135.172 53.3851 135.172C54.6211 135.172 55.5871 135.562 56.2831 136.342V131.644H59.0911ZM53.8711 142.84C54.5791 142.84 55.1671 142.6 55.6351 142.12C56.1031 141.628 56.3371 140.974 56.3371 140.158C56.3371 139.342 56.1031 138.694 55.6351 138.214C55.1671 137.722 54.5791 137.476 53.8711 137.476C53.1511 137.476 52.5571 137.722 52.0891 138.214C51.6211 138.694 51.3871 139.342 51.3871 140.158C51.3871 140.974 51.6211 141.628 52.0891 142.12C52.5571 142.6 53.1511 142.84 53.8711 142.84ZM68.6496 136.594C68.9856 136.126 69.4356 135.772 69.9996 135.532C70.5756 135.292 71.2356 135.172 71.9796 135.172V137.764C71.6676 137.74 71.4576 137.728 71.3496 137.728C70.5456 137.728 69.9156 137.956 69.4596 138.412C69.0036 138.856 68.7756 139.528 68.7756 140.428V145H65.9676V135.316H68.6496V136.594ZM82.6374 140.194C82.6374 140.23 82.6194 140.482 82.5834 140.95H75.2574C75.3894 141.55 75.7014 142.024 76.1934 142.372C76.6854 142.72 77.2974 142.894 78.0294 142.894C78.5334 142.894 78.9774 142.822 79.3614 142.678C79.7574 142.522 80.1234 142.282 80.4594 141.958L81.9534 143.578C81.0414 144.622 79.7094 145.144 77.9574 145.144C76.8654 145.144 75.8994 144.934 75.0594 144.514C74.2194 144.082 73.5714 143.488 73.1154 142.732C72.6594 141.976 72.4314 141.118 72.4314 140.158C72.4314 139.21 72.6534 138.358 73.0974 137.602C73.5534 136.834 74.1714 136.24 74.9514 135.82C75.7434 135.388 76.6254 135.172 77.5974 135.172C78.5454 135.172 79.4034 135.376 80.1714 135.784C80.9394 136.192 81.5394 136.78 81.9714 137.548C82.4154 138.304 82.6374 139.186 82.6374 140.194ZM77.6154 137.296C76.9794 137.296 76.4454 137.476 76.0134 137.836C75.5814 138.196 75.3174 138.688 75.2214 139.312H79.9914C79.8954 138.7 79.6314 138.214 79.1994 137.854C78.7674 137.482 78.2394 137.296 77.6154 137.296ZM87.3549 145.144C86.5509 145.144 85.7649 145.048 84.9969 144.856C84.2289 144.652 83.6169 144.4 83.1609 144.1L84.0969 142.084C84.5289 142.36 85.0509 142.588 85.6629 142.768C86.2749 142.936 86.8749 143.02 87.4629 143.02C88.6509 143.02 89.2449 142.726 89.2449 142.138C89.2449 141.862 89.0829 141.664 88.7589 141.544C88.4349 141.424 87.9369 141.322 87.2649 141.238C86.4729 141.118 85.8189 140.98 85.3029 140.824C84.7869 140.668 84.3369 140.392 83.9529 139.996C83.5809 139.6 83.3949 139.036 83.3949 138.304C83.3949 137.692 83.5689 137.152 83.9169 136.684C84.2769 136.204 84.7929 135.832 85.4649 135.568C86.1489 135.304 86.9529 135.172 87.8769 135.172C88.5609 135.172 89.2389 135.25 89.9109 135.406C90.5949 135.55 91.1589 135.754 91.6029 136.018L90.6669 138.016C89.8149 137.536 88.8849 137.296 87.8769 137.296C87.2769 137.296 86.8269 137.38 86.5269 137.548C86.2269 137.716 86.0769 137.932 86.0769 138.196C86.0769 138.496 86.2389 138.706 86.5629 138.826C86.8869 138.946 87.4029 139.06 88.1109 139.168C88.9029 139.3 89.5509 139.444 90.0549 139.6C90.5589 139.744 90.9969 140.014 91.3689 140.41C91.7409 140.806 91.9269 141.358 91.9269 142.066C91.9269 142.666 91.7469 143.2 91.3869 143.668C91.0269 144.136 90.4989 144.502 89.8029 144.766C89.1189 145.018 88.3029 145.144 87.3549 145.144ZM97.8574 145.144C96.8374 145.144 95.9194 144.934 95.1034 144.514C94.2994 144.082 93.6694 143.488 93.2134 142.732C92.7574 141.976 92.5294 141.118 92.5294 140.158C92.5294 139.198 92.7574 138.34 93.2134 137.584C93.6694 136.828 94.2994 136.24 95.1034 135.82C95.9194 135.388 96.8374 135.172 97.8574 135.172C98.8774 135.172 99.7894 135.388 100.593 135.82C101.397 136.24 102.027 136.828 102.483 137.584C102.939 138.34 103.167 139.198 103.167 140.158C103.167 141.118 102.939 141.976 102.483 142.732C102.027 143.488 101.397 144.082 100.593 144.514C99.7894 144.934 98.8774 145.144 97.8574 145.144ZM97.8574 142.84C98.5774 142.84 99.1654 142.6 99.6214 142.12C100.089 141.628 100.323 140.974 100.323 140.158C100.323 139.342 100.089 138.694 99.6214 138.214C99.1654 137.722 98.5774 137.476 97.8574 137.476C97.1374 137.476 96.5434 137.722 96.0754 138.214C95.6074 138.694 95.3734 139.342 95.3734 140.158C95.3734 140.974 95.6074 141.628 96.0754 142.12C96.5434 142.6 97.1374 142.84 97.8574 142.84ZM114.39 135.316V145H111.726V143.848C111.354 144.268 110.91 144.592 110.394 144.82C109.878 145.036 109.32 145.144 108.72 145.144C107.448 145.144 106.44 144.778 105.696 144.046C104.952 143.314 104.58 142.228 104.58 140.788V135.316H107.388V140.374C107.388 141.934 108.042 142.714 109.35 142.714C110.022 142.714 110.562 142.498 110.97 142.066C111.378 141.622 111.582 140.968 111.582 140.104V135.316H114.39ZM119.264 136.594C119.6 136.126 120.05 135.772 120.614 135.532C121.19 135.292 121.85 135.172 122.594 135.172V137.764C122.282 137.74 122.072 137.728 121.964 137.728C121.16 137.728 120.53 137.956 120.074 138.412C119.618 138.856 119.39 139.528 119.39 140.428V145H116.582V135.316H119.264V136.594ZM128.445 145.144C127.413 145.144 126.483 144.934 125.655 144.514C124.839 144.082 124.197 143.488 123.729 142.732C123.273 141.976 123.045 141.118 123.045 140.158C123.045 139.198 123.273 138.34 123.729 137.584C124.197 136.828 124.839 136.24 125.655 135.82C126.483 135.388 127.413 135.172 128.445 135.172C129.465 135.172 130.353 135.388 131.109 135.82C131.877 136.24 132.435 136.846 132.783 137.638L130.605 138.808C130.101 137.92 129.375 137.476 128.427 137.476C127.695 137.476 127.089 137.716 126.609 138.196C126.129 138.676 125.889 139.33 125.889 140.158C125.889 140.986 126.129 141.64 126.609 142.12C127.089 142.6 127.695 142.84 128.427 142.84C129.387 142.84 130.113 142.396 130.605 141.508L132.783 142.696C132.435 143.464 131.877 144.064 131.109 144.496C130.353 144.928 129.465 145.144 128.445 145.144ZM143.353 140.194C143.353 140.23 143.335 140.482 143.299 140.95H135.973C136.105 141.55 136.417 142.024 136.909 142.372C137.401 142.72 138.013 142.894 138.745 142.894C139.249 142.894 139.693 142.822 140.077 142.678C140.473 142.522 140.839 142.282 141.175 141.958L142.669 143.578C141.757 144.622 140.425 145.144 138.673 145.144C137.581 145.144 136.615 144.934 135.775 144.514C134.935 144.082 134.287 143.488 133.831 142.732C133.375 141.976 133.147 141.118 133.147 140.158C133.147 139.21 133.369 138.358 133.813 137.602C134.269 136.834 134.887 136.24 135.667 135.82C136.459 135.388 137.341 135.172 138.313 135.172C139.261 135.172 140.119 135.376 140.887 135.784C141.655 136.192 142.255 136.78 142.687 137.548C143.131 138.304 143.353 139.186 143.353 140.194ZM138.331 137.296C137.695 137.296 137.161 137.476 136.729 137.836C136.297 138.196 136.033 138.688 135.937 139.312H140.707C140.611 138.7 140.347 138.214 139.915 137.854C139.483 137.482 138.955 137.296 138.331 137.296Z" fill="white"/>
<path d="M127.877 41.9386H146.813V24.0373C146.813 22.6269 145.68 21.48 144.286 21.48H127.861C126.338 21.48 124.071 22.5016 124.071 25.316V43.2173C124.071 46.0317 126.338 47.0533 127.861 47.0533H146.813V44.496H127.877C127.293 44.4806 126.598 44.2479 126.598 43.2173C126.598 43.0882 126.609 42.9731 126.628 42.8682C126.77 42.1317 127.366 41.9514 127.877 41.9386ZM131.207 28.6942C131.733 28.1688 132.442 27.8741 133.181 27.8741C133.92 27.8741 134.629 28.1688 135.155 28.6942L135.438 28.9742L135.72 28.6942C136.246 28.1687 136.956 27.874 137.695 27.874C138.434 27.874 139.143 28.1687 139.669 28.6942C139.93 28.9482 140.138 29.2529 140.28 29.5901C140.422 29.9272 140.495 30.2899 140.495 30.6563C140.495 31.0228 140.422 31.3854 140.28 31.7226C140.138 32.0597 139.93 32.3644 139.669 32.6184L135.439 36.824L131.208 32.6184C130.947 32.3646 130.739 32.06 130.597 31.7229C130.455 31.3858 130.382 31.0231 130.382 30.6566C130.382 30.2901 130.455 29.9274 130.596 29.5902C130.738 29.253 130.946 28.9482 131.207 28.6942Z" fill="white"/>
<path d="M85.1129 68.125C83.2367 68.125 81.7016 69.6663 81.7016 71.55V81.825H71.4677C69.5915 81.825 68.0565 83.3663 68.0565 85.25C68.0565 87.1338 69.5915 88.675 71.4677 88.675H81.7016V98.95C81.7016 100.834 83.2367 102.375 85.1129 102.375C86.9891 102.375 88.5242 100.834 88.5242 98.95V88.675H98.7581C100.634 88.675 102.169 87.1338 102.169 85.25C102.169 83.3663 100.634 81.825 98.7581 81.825H88.5242V71.55C88.5242 69.6663 86.9891 68.125 85.1129 68.125ZM85.1129 51C66.2826 51 51 66.344 51 85.25C51 104.156 66.2826 119.5 85.1129 119.5C103.943 119.5 119.226 104.156 119.226 85.25C119.226 66.344 103.943 51 85.1129 51ZM85.1129 112.65C70.0691 112.65 57.8226 100.354 57.8226 85.25C57.8226 70.1458 70.0691 57.85 85.1129 57.85C100.157 57.85 112.403 70.1458 112.403 85.25C112.403 100.354 100.157 112.65 85.1129 112.65Z" fill="white"/>
<defs>
<filter id="filter0_dd" x="0.459229" y="0" width="168.081" height="169" filterUnits="userSpaceOnUse" color-interpolation-filters="sRGB">
<feFlood flood-opacity="0" result="BackgroundImageFix"/>
<feColorMatrix in="SourceAlpha" type="matrix" values="0 0 0 0 0 0 0 0 0 0 0 0 0 0 0 0 0 0 127 0"/>
<feOffset dx="-4" dy="-4"/>
<feGaussianBlur stdDeviation="6"/>
<feColorMatrix type="matrix" values="0 0 0 0 1 0 0 0 0 1 0 0 0 0 1 0 0 0 0.5 0"/>
<feBlend mode="normal" in2="BackgroundImageFix" result="effect1_dropShadow"/>
<feColorMatrix in="SourceAlpha" type="matrix" values="0 0 0 0 0 0 0 0 0 0 0 0 0 0 0 0 0 0 127 0"/>
<feOffset dx="4" dy="4"/>
<feGaussianBlur stdDeviation="6"/>
<feColorMatrix type="matrix" values="0 0 0 0 0 0 0 0 0 0 0 0 0 0 0 0 0 0 0.25 0"/>
<feBlend mode="normal" in2="effect1_dropShadow" result="effect2_dropShadow"/>
<feBlend mode="normal" in="SourceGraphic" in2="effect2_dropShadow" result="shape"/>
</filter>
</defs>
</svg>
