<svg width="198" height="198" viewBox="0 0 198 198" fill="none" xmlns="http://www.w3.org/2000/svg">
<g filter="url(#filter0_dd)">
<rect x="16" y="16" width="166" height="166" rx="10" fill="#F9BE7F"/>
</g>
<path d="M69.06 120H144V50C144 44.485 139.515 40 134 40H69C62.97 40 54 43.995 54 55V125C54 136.005 62.97 140 69 140H144V130H69.06C66.75 129.94 64 129.03 64 125C64 124.495 64.045 124.045 64.12 123.635C64.68 120.755 67.04 120.05 69.06 120V120ZM82.24 68.21C84.3212 66.1553 87.128 65.0032 90.0525 65.0032C92.977 65.0032 95.7838 66.1553 97.865 68.21L98.985 69.305L100.1 68.21C102.182 66.155 104.99 65.0028 107.915 65.0028C110.84 65.0028 113.648 66.155 115.73 68.21C116.763 69.2032 117.584 70.3948 118.146 71.7131C118.707 73.0315 118.996 74.4496 118.996 75.8825C118.996 77.3154 118.707 78.7335 118.146 80.0519C117.584 81.3702 116.763 82.5618 115.73 83.555L98.99 100L82.245 83.555C81.2113 82.5625 80.3887 81.3713 79.8267 80.0531C79.2646 78.7348 78.9747 77.3166 78.9742 75.8836C78.9738 74.4505 79.2628 73.0321 79.824 71.7135C80.3852 70.3949 81.2069 69.2032 82.24 68.21V68.21Z" fill="white"/>
<path d="M32.2243 159.988C34.0577 159.988 35.4657 160.428 36.4483 161.308C37.431 162.173 37.9223 163.486 37.9223 165.246V172H34.7103V170.526C34.065 171.626 32.8623 172.176 31.1023 172.176C30.193 172.176 29.401 172.022 28.7263 171.714C28.0663 171.406 27.5603 170.981 27.2083 170.438C26.8563 169.895 26.6803 169.279 26.6803 168.59C26.6803 167.49 27.091 166.625 27.9123 165.994C28.7483 165.363 30.0317 165.048 31.7623 165.048H34.4903C34.4903 164.3 34.263 163.728 33.8083 163.332C33.3537 162.921 32.6717 162.716 31.7623 162.716C31.1317 162.716 30.5083 162.819 29.8923 163.024C29.291 163.215 28.7777 163.479 28.3523 163.816L27.1203 161.418C27.7657 160.963 28.5357 160.611 29.4303 160.362C30.3397 160.113 31.271 159.988 32.2243 159.988ZM31.9603 169.866C32.547 169.866 33.0677 169.734 33.5223 169.47C33.977 169.191 34.2997 168.788 34.4903 168.26V167.05H32.1363C30.7283 167.05 30.0243 167.512 30.0243 168.436C30.0243 168.876 30.193 169.228 30.5303 169.492C30.8823 169.741 31.359 169.866 31.9603 169.866ZM52.8034 155.676V172H49.5254V170.636C48.6747 171.663 47.4427 172.176 45.8294 172.176C44.7147 172.176 43.7027 171.927 42.7934 171.428C41.8987 170.929 41.1947 170.218 40.6814 169.294C40.168 168.37 39.9114 167.299 39.9114 166.082C39.9114 164.865 40.168 163.794 40.6814 162.87C41.1947 161.946 41.8987 161.235 42.7934 160.736C43.7027 160.237 44.7147 159.988 45.8294 159.988C47.34 159.988 48.5207 160.465 49.3714 161.418V155.676H52.8034ZM46.4234 169.36C47.2887 169.36 48.0074 169.067 48.5794 168.48C49.1514 167.879 49.4374 167.079 49.4374 166.082C49.4374 165.085 49.1514 164.293 48.5794 163.706C48.0074 163.105 47.2887 162.804 46.4234 162.804C45.5434 162.804 44.8174 163.105 44.2454 163.706C43.6734 164.293 43.3874 165.085 43.3874 166.082C43.3874 167.079 43.6734 167.879 44.2454 168.48C44.8174 169.067 45.5434 169.36 46.4234 169.36ZM67.6258 155.676V172H64.3478V170.636C63.4971 171.663 62.2651 172.176 60.6518 172.176C59.5371 172.176 58.5251 171.927 57.6158 171.428C56.7211 170.929 56.0171 170.218 55.5038 169.294C54.9904 168.37 54.7338 167.299 54.7338 166.082C54.7338 164.865 54.9904 163.794 55.5038 162.87C56.0171 161.946 56.7211 161.235 57.6158 160.736C58.5251 160.237 59.5371 159.988 60.6518 159.988C62.1624 159.988 63.3431 160.465 64.1938 161.418V155.676H67.6258ZM61.2458 169.36C62.1111 169.36 62.8298 169.067 63.4018 168.48C63.9738 167.879 64.2598 167.079 64.2598 166.082C64.2598 165.085 63.9738 164.293 63.4018 163.706C62.8298 163.105 62.1111 162.804 61.2458 162.804C60.3658 162.804 59.6398 163.105 59.0678 163.706C58.4958 164.293 58.2098 165.085 58.2098 166.082C58.2098 167.079 58.4958 167.879 59.0678 168.48C59.6398 169.067 60.3658 169.36 61.2458 169.36ZM79.4907 161.726C79.9013 161.154 80.4513 160.721 81.1407 160.428C81.8447 160.135 82.6513 159.988 83.5607 159.988V163.156C83.1793 163.127 82.9227 163.112 82.7907 163.112C81.808 163.112 81.038 163.391 80.4807 163.948C79.9233 164.491 79.6447 165.312 79.6447 166.412V172H76.2127V160.164H79.4907V161.726ZM96.6779 166.126C96.6779 166.17 96.6559 166.478 96.6119 167.05H87.6579C87.8193 167.783 88.2006 168.363 88.8019 168.788C89.4033 169.213 90.1513 169.426 91.0459 169.426C91.6619 169.426 92.2046 169.338 92.6739 169.162C93.1579 168.971 93.6053 168.678 94.0159 168.282L95.8419 170.262C94.7273 171.538 93.0993 172.176 90.9579 172.176C89.6233 172.176 88.4426 171.919 87.4159 171.406C86.3893 170.878 85.5973 170.152 85.0399 169.228C84.4826 168.304 84.2039 167.255 84.2039 166.082C84.2039 164.923 84.4753 163.882 85.0179 162.958C85.5753 162.019 86.3306 161.293 87.2839 160.78C88.2519 160.252 89.3299 159.988 90.5179 159.988C91.6766 159.988 92.7253 160.237 93.6639 160.736C94.6026 161.235 95.3359 161.953 95.8639 162.892C96.4066 163.816 96.6779 164.894 96.6779 166.126ZM90.5399 162.584C89.7626 162.584 89.1099 162.804 88.5819 163.244C88.0539 163.684 87.7313 164.285 87.6139 165.048H93.4439C93.3266 164.3 93.0039 163.706 92.4759 163.266C91.9479 162.811 91.3026 162.584 90.5399 162.584ZM102.535 172.176C101.552 172.176 100.591 172.059 99.6528 171.824C98.7142 171.575 97.9662 171.267 97.4088 170.9L98.5528 168.436C99.0808 168.773 99.7188 169.052 100.467 169.272C101.215 169.477 101.948 169.58 102.667 169.58C104.119 169.58 104.845 169.221 104.845 168.502C104.845 168.165 104.647 167.923 104.251 167.776C103.855 167.629 103.246 167.505 102.425 167.402C101.457 167.255 100.657 167.087 100.027 166.896C99.3962 166.705 98.8462 166.368 98.3768 165.884C97.9222 165.4 97.6948 164.711 97.6948 163.816C97.6948 163.068 97.9075 162.408 98.3328 161.836C98.7728 161.249 99.4035 160.795 100.225 160.472C101.061 160.149 102.043 159.988 103.173 159.988C104.009 159.988 104.837 160.083 105.659 160.274C106.495 160.45 107.184 160.699 107.727 161.022L106.583 163.464C105.541 162.877 104.405 162.584 103.173 162.584C102.439 162.584 101.889 162.687 101.523 162.892C101.156 163.097 100.973 163.361 100.973 163.684C100.973 164.051 101.171 164.307 101.567 164.454C101.963 164.601 102.593 164.74 103.459 164.872C104.427 165.033 105.219 165.209 105.835 165.4C106.451 165.576 106.986 165.906 107.441 166.39C107.895 166.874 108.123 167.549 108.123 168.414C108.123 169.147 107.903 169.8 107.463 170.372C107.023 170.944 106.377 171.391 105.527 171.714C104.691 172.022 103.693 172.176 102.535 172.176ZM115.462 172.176C114.216 172.176 113.094 171.919 112.096 171.406C111.114 170.878 110.344 170.152 109.786 169.228C109.229 168.304 108.95 167.255 108.95 166.082C108.95 164.909 109.229 163.86 109.786 162.936C110.344 162.012 111.114 161.293 112.096 160.78C113.094 160.252 114.216 159.988 115.462 159.988C116.709 159.988 117.824 160.252 118.806 160.78C119.789 161.293 120.559 162.012 121.116 162.936C121.674 163.86 121.952 164.909 121.952 166.082C121.952 167.255 121.674 168.304 121.116 169.228C120.559 170.152 119.789 170.878 118.806 171.406C117.824 171.919 116.709 172.176 115.462 172.176ZM115.462 169.36C116.342 169.36 117.061 169.067 117.618 168.48C118.19 167.879 118.476 167.079 118.476 166.082C118.476 165.085 118.19 164.293 117.618 163.706C117.061 163.105 116.342 162.804 115.462 162.804C114.582 162.804 113.856 163.105 113.284 163.706C112.712 164.293 112.426 165.085 112.426 166.082C112.426 167.079 112.712 167.879 113.284 168.48C113.856 169.067 114.582 169.36 115.462 169.36ZM135.76 160.164V172H132.504V170.592C132.05 171.105 131.507 171.501 130.876 171.78C130.246 172.044 129.564 172.176 128.83 172.176C127.276 172.176 126.044 171.729 125.134 170.834C124.225 169.939 123.77 168.612 123.77 166.852V160.164H127.202V166.346C127.202 168.253 128.002 169.206 129.6 169.206C130.422 169.206 131.082 168.942 131.58 168.414C132.079 167.871 132.328 167.072 132.328 166.016V160.164H135.76ZM141.808 161.726C142.219 161.154 142.769 160.721 143.458 160.428C144.162 160.135 144.969 159.988 145.878 159.988V163.156C145.497 163.127 145.24 163.112 145.108 163.112C144.125 163.112 143.355 163.391 142.798 163.948C142.241 164.491 141.962 165.312 141.962 166.412V172H138.53V160.164H141.808V161.726ZM153.121 172.176C151.86 172.176 150.723 171.919 149.711 171.406C148.714 170.878 147.929 170.152 147.357 169.228C146.8 168.304 146.521 167.255 146.521 166.082C146.521 164.909 146.8 163.86 147.357 162.936C147.929 162.012 148.714 161.293 149.711 160.78C150.723 160.252 151.86 159.988 153.121 159.988C154.368 159.988 155.453 160.252 156.377 160.78C157.316 161.293 157.998 162.034 158.423 163.002L155.761 164.432C155.145 163.347 154.258 162.804 153.099 162.804C152.204 162.804 151.464 163.097 150.877 163.684C150.29 164.271 149.997 165.07 149.997 166.082C149.997 167.094 150.29 167.893 150.877 168.48C151.464 169.067 152.204 169.36 153.099 169.36C154.272 169.36 155.16 168.817 155.761 167.732L158.423 169.184C157.998 170.123 157.316 170.856 156.377 171.384C155.453 171.912 154.368 172.176 153.121 172.176ZM171.433 166.126C171.433 166.17 171.411 166.478 171.367 167.05H162.413C162.574 167.783 162.955 168.363 163.557 168.788C164.158 169.213 164.906 169.426 165.801 169.426C166.417 169.426 166.959 169.338 167.429 169.162C167.913 168.971 168.36 168.678 168.771 168.282L170.597 170.262C169.482 171.538 167.854 172.176 165.713 172.176C164.378 172.176 163.197 171.919 162.171 171.406C161.144 170.878 160.352 170.152 159.795 169.228C159.237 168.304 158.959 167.255 158.959 166.082C158.959 164.923 159.23 163.882 159.773 162.958C160.33 162.019 161.085 161.293 162.039 160.78C163.007 160.252 164.085 159.988 165.273 159.988C166.431 159.988 167.48 160.237 168.419 160.736C169.357 161.235 170.091 161.953 170.619 162.892C171.161 163.816 171.433 164.894 171.433 166.126ZM165.295 162.584C164.517 162.584 163.865 162.804 163.337 163.244C162.809 163.684 162.486 164.285 162.369 165.048H168.199C168.081 164.3 167.759 163.706 167.231 163.266C166.703 162.811 166.057 162.584 165.295 162.584Z" fill="white"/>
<defs>
<filter id="filter0_dd" x="0" y="0" width="198" height="198" filterUnits="userSpaceOnUse" color-interpolation-filters="sRGB">
<feFlood flood-opacity="0" result="BackgroundImageFix"/>
<feColorMatrix in="SourceAlpha" type="matrix" values="0 0 0 0 0 0 0 0 0 0 0 0 0 0 0 0 0 0 127 0"/>
<feOffset dx="-4" dy="-4"/>
<feGaussianBlur stdDeviation="6"/>
<feColorMatrix type="matrix" values="0 0 0 0 1 0 0 0 0 1 0 0 0 0 1 0 0 0 0.5 0"/>
<feBlend mode="normal" in2="BackgroundImageFix" result="effect1_dropShadow"/>
<feColorMatrix in="SourceAlpha" type="matrix" values="0 0 0 0 0 0 0 0 0 0 0 0 0 0 0 0 0 0 127 0"/>
<feOffset dx="4" dy="4"/>
<feGaussianBlur stdDeviation="6"/>
<feColorMatrix type="matrix" values="0 0 0 0 0 0 0 0 0 0 0 0 0 0 0 0 0 0 0.25 0"/>
<feBlend mode="normal" in2="effect1_dropShadow" result="effect2_dropShadow"/>
<feBlend mode="normal" in="SourceGraphic" in2="effect2_dropShadow" result="shape"/>
</filter>
</defs>
</svg>
