<svg width="198" height="198" viewBox="0 0 198 198" fill="none" xmlns="http://www.w3.org/2000/svg">
<g filter="url(#filter0_dd)">
<rect x="16" y="16" width="166" height="166" rx="10" fill="#E9B3AC"/>
</g>
<path d="M120.667 51.1667C120.667 57.0456 118.331 62.6838 114.174 66.8409C110.017 70.9979 104.379 73.3333 98.5 73.3333C92.621 73.3333 86.9829 70.9979 82.8258 66.8409C78.6687 62.6838 76.3333 57.0456 76.3333 51.1667C76.3333 45.2877 78.6687 39.6495 82.8258 35.4925C86.9829 31.3354 92.621 29 98.5 29C104.379 29 110.017 31.3354 114.174 35.4925C118.331 39.6495 120.667 45.2877 120.667 51.1667V51.1667ZM157.611 65.9444C157.611 69.8638 156.054 73.6225 153.283 76.3939C150.511 79.1653 146.753 80.7222 142.833 80.7222C138.914 80.7222 135.155 79.1653 132.384 76.3939C129.612 73.6225 128.056 69.8638 128.056 65.9444C128.056 62.0251 129.612 58.2663 132.384 55.495C135.155 52.7236 138.914 51.1667 142.833 51.1667C146.753 51.1667 150.511 52.7236 153.283 55.495C156.054 58.2663 157.611 62.0251 157.611 65.9444V65.9444ZM128.056 117.667C128.056 109.828 124.942 102.31 119.399 96.7677C113.856 91.225 106.339 88.1111 98.5 88.1111C90.6614 88.1111 83.1438 91.225 77.6011 96.7677C72.0583 102.31 68.9444 109.828 68.9444 117.667V139.833H128.056V117.667ZM68.9444 65.9444C68.9444 69.8638 67.3875 73.6225 64.6161 76.3939C61.8448 79.1653 58.086 80.7222 54.1667 80.7222C50.2474 80.7222 46.4886 79.1653 43.7172 76.3939C40.9458 73.6225 39.3889 69.8638 39.3889 65.9444C39.3889 62.0251 40.9458 58.2663 43.7172 55.495C46.4886 52.7236 50.2474 51.1667 54.1667 51.1667C58.086 51.1667 61.8448 52.7236 64.6161 55.495C67.3875 58.2663 68.9444 62.0251 68.9444 65.9444V65.9444ZM142.833 139.833V117.667C142.844 110.154 140.937 102.764 137.292 96.1946C140.568 95.3562 143.992 95.2772 147.303 95.9634C150.614 96.6497 153.724 98.0831 156.397 100.154C159.07 102.226 161.234 104.88 162.725 107.915C164.216 110.95 164.994 114.285 165 117.667V139.833H142.833ZM59.7083 96.1946C56.0637 102.764 54.1563 110.154 54.1667 117.667V139.833H32V117.667C31.9986 114.283 32.7719 110.944 34.2606 107.905C35.7493 104.866 37.914 102.209 40.5887 100.136C43.2634 98.0632 46.3772 96.6303 49.6913 95.9472C53.0054 95.264 56.432 95.3486 59.7083 96.1946V96.1946Z" fill="white"/>
<path d="M31.2364 160.35C33.3198 160.35 34.9198 160.85 36.0364 161.85C37.1531 162.833 37.7114 164.325 37.7114 166.325V174H34.0614V172.325C33.3281 173.575 31.9614 174.2 29.9614 174.2C28.9281 174.2 28.0281 174.025 27.2614 173.675C26.5114 173.325 25.9364 172.842 25.5364 172.225C25.1364 171.608 24.9364 170.908 24.9364 170.125C24.9364 168.875 25.4031 167.892 26.3364 167.175C27.2864 166.458 28.7448 166.1 30.7114 166.1H33.8114C33.8114 165.25 33.5531 164.6 33.0364 164.15C32.5198 163.683 31.7448 163.45 30.7114 163.45C29.9948 163.45 29.2864 163.567 28.5864 163.8C27.9031 164.017 27.3198 164.317 26.8364 164.7L25.4364 161.975C26.1698 161.458 27.0448 161.058 28.0614 160.775C29.0948 160.492 30.1531 160.35 31.2364 160.35ZM30.9364 171.575C31.6031 171.575 32.1948 171.425 32.7114 171.125C33.2281 170.808 33.5948 170.35 33.8114 169.75V168.375H31.1364C29.5364 168.375 28.7364 168.9 28.7364 169.95C28.7364 170.45 28.9281 170.85 29.3114 171.15C29.7114 171.433 30.2531 171.575 30.9364 171.575ZM54.6776 155.45V174H50.9526V172.45C49.9859 173.617 48.5859 174.2 46.7526 174.2C45.4859 174.2 44.3359 173.917 43.3026 173.35C42.2859 172.783 41.4859 171.975 40.9026 170.925C40.3193 169.875 40.0276 168.658 40.0276 167.275C40.0276 165.892 40.3193 164.675 40.9026 163.625C41.4859 162.575 42.2859 161.767 43.3026 161.2C44.3359 160.633 45.4859 160.35 46.7526 160.35C48.4693 160.35 49.8109 160.892 50.7776 161.975V155.45H54.6776ZM47.4276 171C48.4109 171 49.2276 170.667 49.8776 170C50.5276 169.317 50.8526 168.408 50.8526 167.275C50.8526 166.142 50.5276 165.242 49.8776 164.575C49.2276 163.892 48.4109 163.55 47.4276 163.55C46.4276 163.55 45.6026 163.892 44.9526 164.575C44.3026 165.242 43.9776 166.142 43.9776 167.275C43.9776 168.408 44.3026 169.317 44.9526 170C45.6026 170.667 46.4276 171 47.4276 171ZM71.5772 155.45V174H67.8522V172.45C66.8855 173.617 65.4855 174.2 63.6522 174.2C62.3855 174.2 61.2355 173.917 60.2022 173.35C59.1855 172.783 58.3855 171.975 57.8022 170.925C57.2188 169.875 56.9272 168.658 56.9272 167.275C56.9272 165.892 57.2188 164.675 57.8022 163.625C58.3855 162.575 59.1855 161.767 60.2022 161.2C61.2355 160.633 62.3855 160.35 63.6522 160.35C65.3688 160.35 66.7105 160.892 67.6772 161.975V155.45H71.5772ZM64.3272 171C65.3105 171 66.1272 170.667 66.7772 170C67.4272 169.317 67.7522 168.408 67.7522 167.275C67.7522 166.142 67.4272 165.242 66.7772 164.575C66.1272 163.892 65.3105 163.55 64.3272 163.55C63.3272 163.55 62.5022 163.892 61.8522 164.575C61.2022 165.242 60.8772 166.142 60.8772 167.275C60.8772 168.408 61.2022 169.317 61.8522 170C62.5022 170.667 63.3272 171 64.3272 171ZM85.9718 174.2C84.8552 174.2 83.7635 174.067 82.6968 173.8C81.6302 173.517 80.7802 173.167 80.1468 172.75L81.4468 169.95C82.0468 170.333 82.7718 170.65 83.6218 170.9C84.4718 171.133 85.3052 171.25 86.1218 171.25C87.7718 171.25 88.5968 170.842 88.5968 170.025C88.5968 169.642 88.3718 169.367 87.9218 169.2C87.4718 169.033 86.7802 168.892 85.8468 168.775C84.7468 168.608 83.8385 168.417 83.1218 168.2C82.4052 167.983 81.7802 167.6 81.2468 167.05C80.7302 166.5 80.4718 165.717 80.4718 164.7C80.4718 163.85 80.7135 163.1 81.1968 162.45C81.6968 161.783 82.4135 161.267 83.3468 160.9C84.2968 160.533 85.4135 160.35 86.6968 160.35C87.6468 160.35 88.5885 160.458 89.5218 160.675C90.4718 160.875 91.2552 161.158 91.8718 161.525L90.5718 164.3C89.3885 163.633 88.0968 163.3 86.6968 163.3C85.8635 163.3 85.2385 163.417 84.8218 163.65C84.4052 163.883 84.1968 164.183 84.1968 164.55C84.1968 164.967 84.4218 165.258 84.8718 165.425C85.3218 165.592 86.0385 165.75 87.0218 165.9C88.1218 166.083 89.0218 166.283 89.7218 166.5C90.4218 166.7 91.0302 167.075 91.5468 167.625C92.0635 168.175 92.3218 168.942 92.3218 169.925C92.3218 170.758 92.0718 171.5 91.5718 172.15C91.0718 172.8 90.3385 173.308 89.3718 173.675C88.4218 174.025 87.2885 174.2 85.9718 174.2ZM107.493 167.325C107.493 167.375 107.468 167.725 107.418 168.375H97.2431C97.4264 169.208 97.8597 169.867 98.5431 170.35C99.2264 170.833 100.076 171.075 101.093 171.075C101.793 171.075 102.41 170.975 102.943 170.775C103.493 170.558 104.001 170.225 104.468 169.775L106.543 172.025C105.276 173.475 103.426 174.2 100.993 174.2C99.4764 174.2 98.1347 173.908 96.9681 173.325C95.8014 172.725 94.9014 171.9 94.2681 170.85C93.6347 169.8 93.3181 168.608 93.3181 167.275C93.3181 165.958 93.6264 164.775 94.2431 163.725C94.8764 162.658 95.7347 161.833 96.8181 161.25C97.9181 160.65 99.1431 160.35 100.493 160.35C101.81 160.35 103.001 160.633 104.068 161.2C105.135 161.767 105.968 162.583 106.568 163.65C107.185 164.7 107.493 165.925 107.493 167.325ZM100.518 163.3C99.6347 163.3 98.8931 163.55 98.2931 164.05C97.6931 164.55 97.3264 165.233 97.1931 166.1H103.818C103.685 165.25 103.318 164.575 102.718 164.075C102.118 163.558 101.385 163.3 100.518 163.3ZM114.205 174.2C113.088 174.2 111.996 174.067 110.93 173.8C109.863 173.517 109.013 173.167 108.38 172.75L109.68 169.95C110.28 170.333 111.005 170.65 111.855 170.9C112.705 171.133 113.538 171.25 114.355 171.25C116.005 171.25 116.83 170.842 116.83 170.025C116.83 169.642 116.605 169.367 116.155 169.2C115.705 169.033 115.013 168.892 114.08 168.775C112.98 168.608 112.071 168.417 111.355 168.2C110.638 167.983 110.013 167.6 109.48 167.05C108.963 166.5 108.705 165.717 108.705 164.7C108.705 163.85 108.946 163.1 109.43 162.45C109.93 161.783 110.646 161.267 111.58 160.9C112.53 160.533 113.646 160.35 114.93 160.35C115.88 160.35 116.821 160.458 117.755 160.675C118.705 160.875 119.488 161.158 120.105 161.525L118.805 164.3C117.621 163.633 116.33 163.3 114.93 163.3C114.096 163.3 113.471 163.417 113.055 163.65C112.638 163.883 112.43 164.183 112.43 164.55C112.43 164.967 112.655 165.258 113.105 165.425C113.555 165.592 114.271 165.75 115.255 165.9C116.355 166.083 117.255 166.283 117.955 166.5C118.655 166.7 119.263 167.075 119.78 167.625C120.296 168.175 120.555 168.942 120.555 169.925C120.555 170.758 120.305 171.5 119.805 172.15C119.305 172.8 118.571 173.308 117.605 173.675C116.655 174.025 115.521 174.2 114.205 174.2ZM127.076 174.2C125.959 174.2 124.867 174.067 123.801 173.8C122.734 173.517 121.884 173.167 121.251 172.75L122.551 169.95C123.151 170.333 123.876 170.65 124.726 170.9C125.576 171.133 126.409 171.25 127.226 171.25C128.876 171.25 129.701 170.842 129.701 170.025C129.701 169.642 129.476 169.367 129.026 169.2C128.576 169.033 127.884 168.892 126.951 168.775C125.851 168.608 124.942 168.417 124.226 168.2C123.509 167.983 122.884 167.6 122.351 167.05C121.834 166.5 121.576 165.717 121.576 164.7C121.576 163.85 121.817 163.1 122.301 162.45C122.801 161.783 123.517 161.267 124.451 160.9C125.401 160.533 126.517 160.35 127.801 160.35C128.751 160.35 129.692 160.458 130.626 160.675C131.576 160.875 132.359 161.158 132.976 161.525L131.676 164.3C130.492 163.633 129.201 163.3 127.801 163.3C126.967 163.3 126.342 163.417 125.926 163.65C125.509 163.883 125.301 164.183 125.301 164.55C125.301 164.967 125.526 165.258 125.976 165.425C126.426 165.592 127.142 165.75 128.126 165.9C129.226 166.083 130.126 166.283 130.826 166.5C131.526 166.7 132.134 167.075 132.651 167.625C133.167 168.175 133.426 168.942 133.426 169.925C133.426 170.758 133.176 171.5 132.676 172.15C132.176 172.8 131.442 173.308 130.476 173.675C129.526 174.025 128.392 174.2 127.076 174.2ZM135.422 160.55H139.322V174H135.422V160.55ZM137.372 158.675C136.655 158.675 136.072 158.467 135.622 158.05C135.172 157.633 134.947 157.117 134.947 156.5C134.947 155.883 135.172 155.367 135.622 154.95C136.072 154.533 136.655 154.325 137.372 154.325C138.089 154.325 138.672 154.525 139.122 154.925C139.572 155.325 139.797 155.825 139.797 156.425C139.797 157.075 139.572 157.617 139.122 158.05C138.672 158.467 138.089 158.675 137.372 158.675ZM148.932 174.2C147.515 174.2 146.24 173.908 145.107 173.325C143.99 172.725 143.115 171.9 142.482 170.85C141.848 169.8 141.532 168.608 141.532 167.275C141.532 165.942 141.848 164.75 142.482 163.7C143.115 162.65 143.99 161.833 145.107 161.25C146.24 160.65 147.515 160.35 148.932 160.35C150.348 160.35 151.615 160.65 152.732 161.25C153.848 161.833 154.723 162.65 155.357 163.7C155.99 164.75 156.307 165.942 156.307 167.275C156.307 168.608 155.99 169.8 155.357 170.85C154.723 171.9 153.848 172.725 152.732 173.325C151.615 173.908 150.348 174.2 148.932 174.2ZM148.932 171C149.932 171 150.748 170.667 151.382 170C152.032 169.317 152.357 168.408 152.357 167.275C152.357 166.142 152.032 165.242 151.382 164.575C150.748 163.892 149.932 163.55 148.932 163.55C147.932 163.55 147.107 163.892 146.457 164.575C145.807 165.242 145.482 166.142 145.482 167.275C145.482 168.408 145.807 169.317 146.457 170C147.107 170.667 147.932 171 148.932 171ZM166.678 160.35C168.345 160.35 169.687 160.85 170.703 161.85C171.737 162.85 172.253 164.333 172.253 166.3V174H168.353V166.9C168.353 165.833 168.12 165.042 167.653 164.525C167.187 163.992 166.512 163.725 165.628 163.725C164.645 163.725 163.862 164.033 163.278 164.65C162.695 165.25 162.403 166.15 162.403 167.35V174H158.503V160.55H162.228V162.125C162.745 161.558 163.387 161.125 164.153 160.825C164.92 160.508 165.762 160.35 166.678 160.35Z" fill="white"/>
<defs>
<filter id="filter0_dd" x="0" y="0" width="198" height="198" filterUnits="userSpaceOnUse" color-interpolation-filters="sRGB">
<feFlood flood-opacity="0" result="BackgroundImageFix"/>
<feColorMatrix in="SourceAlpha" type="matrix" values="0 0 0 0 0 0 0 0 0 0 0 0 0 0 0 0 0 0 127 0"/>
<feOffset dx="-4" dy="-4"/>
<feGaussianBlur stdDeviation="6"/>
<feColorMatrix type="matrix" values="0 0 0 0 1 0 0 0 0 1 0 0 0 0 1 0 0 0 0.5 0"/>
<feBlend mode="normal" in2="BackgroundImageFix" result="effect1_dropShadow"/>
<feColorMatrix in="SourceAlpha" type="matrix" values="0 0 0 0 0 0 0 0 0 0 0 0 0 0 0 0 0 0 127 0"/>
<feOffset dx="4" dy="4"/>
<feGaussianBlur stdDeviation="6"/>
<feColorMatrix type="matrix" values="0 0 0 0 0 0 0 0 0 0 0 0 0 0 0 0 0 0 0.25 0"/>
<feBlend mode="normal" in2="effect1_dropShadow" result="effect2_dropShadow"/>
<feBlend mode="normal" in="SourceGraphic" in2="effect2_dropShadow" result="shape"/>
</filter>
</defs>
</svg>
