<svg width="198" height="198" viewBox="0 0 198 198" fill="none" xmlns="http://www.w3.org/2000/svg">
<g filter="url(#filter0_dd)">
<rect x="16" y="16" width="166" height="166" rx="10" fill="#55BB99"/>
</g>
<path d="M120.2 49.8C120.2 55.3165 118.009 60.6071 114.108 64.5078C110.207 68.4086 104.916 70.6 99.4 70.6C93.8835 70.6 88.5929 68.4086 84.6922 64.5078C80.7914 60.6071 78.6 55.3165 78.6 49.8C78.6 44.2835 80.7914 38.9929 84.6922 35.0922C88.5929 31.1914 93.8835 29 99.4 29C104.916 29 110.207 31.1914 114.108 35.0922C118.009 38.9929 120.2 44.2835 120.2 49.8V49.8ZM154.867 63.6667C154.867 67.3443 153.406 70.8714 150.805 73.4719C148.205 76.0724 144.678 77.5333 141 77.5333C137.322 77.5333 133.795 76.0724 131.195 73.4719C128.594 70.8714 127.133 67.3443 127.133 63.6667C127.133 59.989 128.594 56.462 131.195 53.8615C133.795 51.2609 137.322 49.8 141 49.8C144.678 49.8 148.205 51.2609 150.805 53.8615C153.406 56.462 154.867 59.989 154.867 63.6667V63.6667ZM127.133 112.2C127.133 104.845 124.211 97.7906 119.01 92.5896C113.809 87.3886 106.755 84.4667 99.4 84.4667C92.0447 84.4667 84.9906 87.3886 79.7896 92.5896C74.5886 97.7906 71.6667 104.845 71.6667 112.2V133H127.133V112.2ZM71.6667 63.6667C71.6667 67.3443 70.2057 70.8714 67.6052 73.4719C65.0047 76.0724 61.4777 77.5333 57.8 77.5333C54.1223 77.5333 50.5953 76.0724 47.9948 73.4719C45.3943 70.8714 43.9333 67.3443 43.9333 63.6667C43.9333 59.989 45.3943 56.462 47.9948 53.8615C50.5953 51.2609 54.1223 49.8 57.8 49.8C61.4777 49.8 65.0047 51.2609 67.6052 53.8615C70.2057 56.462 71.6667 59.989 71.6667 63.6667V63.6667ZM141 133V112.2C141.01 105.151 139.22 98.2157 135.8 92.0517C138.874 91.2651 142.087 91.1909 145.194 91.8349C148.301 92.4788 151.219 93.8238 153.727 95.7674C156.235 97.7109 158.266 100.202 159.665 103.049C161.064 105.897 161.795 109.027 161.8 112.2V133H141ZM63 92.0517C59.5801 98.2158 57.7903 105.151 57.8 112.2V133H37V112.2C36.9987 109.025 37.7243 105.891 39.1212 103.04C40.5182 100.189 42.5494 97.695 45.0592 95.7501C47.569 93.8052 50.4907 92.4606 53.6005 91.8196C56.7103 91.1785 59.9256 91.2579 63 92.0517V92.0517Z" fill="white"/>
<path d="M66.5281 154.176C65.2667 154.176 64.1301 153.919 63.1181 153.406C62.1207 152.878 61.3361 152.152 60.7641 151.228C60.2067 150.304 59.9281 149.255 59.9281 148.082C59.9281 146.909 60.2067 145.86 60.7641 144.936C61.3361 144.012 62.1207 143.293 63.1181 142.78C64.1301 142.252 65.2667 141.988 66.5281 141.988C67.7747 141.988 68.8601 142.252 69.7841 142.78C70.7227 143.293 71.4047 144.034 71.8301 145.002L69.1681 146.432C68.5521 145.347 67.6647 144.804 66.5061 144.804C65.6114 144.804 64.8707 145.097 64.2841 145.684C63.6974 146.271 63.4041 147.07 63.4041 148.082C63.4041 149.094 63.6974 149.893 64.2841 150.48C64.8707 151.067 65.6114 151.36 66.5061 151.36C67.6794 151.36 68.5667 150.817 69.1681 149.732L71.8301 151.184C71.4047 152.123 70.7227 152.856 69.7841 153.384C68.8601 153.912 67.7747 154.176 66.5281 154.176ZM85.3201 142.164V154H82.0641V152.592C81.6094 153.105 81.0668 153.501 80.4361 153.78C79.8054 154.044 79.1234 154.176 78.3901 154.176C76.8354 154.176 75.6034 153.729 74.6941 152.834C73.7848 151.939 73.3301 150.612 73.3301 148.852V142.164H76.7621V148.346C76.7621 150.253 77.5614 151.206 79.1601 151.206C79.9814 151.206 80.6414 150.942 81.1401 150.414C81.6388 149.871 81.8881 149.072 81.8881 148.016V142.164H85.3201ZM91.3676 143.726C91.7783 143.154 92.3283 142.721 93.0176 142.428C93.7216 142.135 94.5283 141.988 95.4376 141.988V145.156C95.0563 145.127 94.7996 145.112 94.6676 145.112C93.685 145.112 92.915 145.391 92.3576 145.948C91.8003 146.491 91.5216 147.312 91.5216 148.412V154H88.0896V142.164H91.3676V143.726ZM100.346 143.726C100.757 143.154 101.307 142.721 101.996 142.428C102.7 142.135 103.507 141.988 104.416 141.988V145.156C104.035 145.127 103.778 145.112 103.646 145.112C102.664 145.112 101.894 145.391 101.336 145.948C100.779 146.491 100.5 147.312 100.5 148.412V154H97.0683V142.164H100.346V143.726ZM117.534 148.126C117.534 148.17 117.512 148.478 117.468 149.05H108.514C108.675 149.783 109.056 150.363 109.658 150.788C110.259 151.213 111.007 151.426 111.902 151.426C112.518 151.426 113.06 151.338 113.53 151.162C114.014 150.971 114.461 150.678 114.872 150.282L116.698 152.262C115.583 153.538 113.955 154.176 111.814 154.176C110.479 154.176 109.298 153.919 108.272 153.406C107.245 152.878 106.453 152.152 105.896 151.228C105.338 150.304 105.06 149.255 105.06 148.082C105.06 146.923 105.331 145.882 105.874 144.958C106.431 144.019 107.186 143.293 108.14 142.78C109.108 142.252 110.186 141.988 111.374 141.988C112.532 141.988 113.581 142.237 114.52 142.736C115.458 143.235 116.192 143.953 116.72 144.892C117.262 145.816 117.534 146.894 117.534 148.126ZM111.396 144.584C110.618 144.584 109.966 144.804 109.438 145.244C108.91 145.684 108.587 146.285 108.47 147.048H114.3C114.182 146.3 113.86 145.706 113.332 145.266C112.804 144.811 112.158 144.584 111.396 144.584ZM126.602 141.988C128.069 141.988 129.25 142.428 130.144 143.308C131.054 144.188 131.508 145.493 131.508 147.224V154H128.076V147.752C128.076 146.813 127.871 146.117 127.46 145.662C127.05 145.193 126.456 144.958 125.678 144.958C124.813 144.958 124.124 145.229 123.61 145.772C123.097 146.3 122.84 147.092 122.84 148.148V154H119.408V142.164H122.686V143.55C123.141 143.051 123.706 142.67 124.38 142.406C125.055 142.127 125.796 141.988 126.602 141.988ZM141.843 153.428C141.506 153.677 141.088 153.868 140.589 154C140.105 154.117 139.592 154.176 139.049 154.176C137.641 154.176 136.549 153.817 135.771 153.098C135.009 152.379 134.627 151.323 134.627 149.93V145.068H132.801V142.428H134.627V139.546H138.059V142.428H141.007V145.068H138.059V149.886C138.059 150.385 138.184 150.773 138.433 151.052C138.697 151.316 139.064 151.448 139.533 151.448C140.076 151.448 140.538 151.301 140.919 151.008L141.843 153.428ZM64.7032 176.176C63.7206 176.176 62.7599 176.059 61.8212 175.824C60.8826 175.575 60.1346 175.267 59.5772 174.9L60.7212 172.436C61.2492 172.773 61.8872 173.052 62.6352 173.272C63.3832 173.477 64.1166 173.58 64.8352 173.58C66.2872 173.58 67.0132 173.221 67.0132 172.502C67.0132 172.165 66.8152 171.923 66.4192 171.776C66.0232 171.629 65.4146 171.505 64.5932 171.402C63.6252 171.255 62.8259 171.087 62.1952 170.896C61.5646 170.705 61.0146 170.368 60.5452 169.884C60.0906 169.4 59.8632 168.711 59.8632 167.816C59.8632 167.068 60.0759 166.408 60.5012 165.836C60.9412 165.249 61.5719 164.795 62.3932 164.472C63.2292 164.149 64.2119 163.988 65.3412 163.988C66.1772 163.988 67.0059 164.083 67.8272 164.274C68.6632 164.45 69.3526 164.699 69.8952 165.022L68.7512 167.464C67.7099 166.877 66.5732 166.584 65.3412 166.584C64.6079 166.584 64.0579 166.687 63.6912 166.892C63.3246 167.097 63.1412 167.361 63.1412 167.684C63.1412 168.051 63.3392 168.307 63.7352 168.454C64.1312 168.601 64.7619 168.74 65.6272 168.872C66.5952 169.033 67.3872 169.209 68.0032 169.4C68.6192 169.576 69.1546 169.906 69.6092 170.39C70.0639 170.874 70.2912 171.549 70.2912 172.414C70.2912 173.147 70.0712 173.8 69.6312 174.372C69.1912 174.944 68.5459 175.391 67.6952 175.714C66.8592 176.022 65.8619 176.176 64.7032 176.176ZM83.5927 170.126C83.5927 170.17 83.5707 170.478 83.5267 171.05H74.5727C74.7341 171.783 75.1154 172.363 75.7167 172.788C76.3181 173.213 77.0661 173.426 77.9607 173.426C78.5767 173.426 79.1194 173.338 79.5887 173.162C80.0727 172.971 80.5201 172.678 80.9307 172.282L82.7567 174.262C81.6421 175.538 80.0141 176.176 77.8727 176.176C76.5381 176.176 75.3574 175.919 74.3307 175.406C73.3041 174.878 72.5121 174.152 71.9547 173.228C71.3974 172.304 71.1187 171.255 71.1187 170.082C71.1187 168.923 71.3901 167.882 71.9327 166.958C72.4901 166.019 73.2454 165.293 74.1987 164.78C75.1667 164.252 76.2447 163.988 77.4327 163.988C78.5914 163.988 79.6401 164.237 80.5787 164.736C81.5174 165.235 82.2507 165.953 82.7787 166.892C83.3214 167.816 83.5927 168.894 83.5927 170.126ZM77.4547 166.584C76.6774 166.584 76.0247 166.804 75.4967 167.244C74.9687 167.684 74.6461 168.285 74.5287 169.048H80.3587C80.2414 168.3 79.9187 167.706 79.3907 167.266C78.8627 166.811 78.2174 166.584 77.4547 166.584ZM89.4496 176.176C88.467 176.176 87.5063 176.059 86.5676 175.824C85.629 175.575 84.881 175.267 84.3236 174.9L85.4676 172.436C85.9956 172.773 86.6336 173.052 87.3816 173.272C88.1296 173.477 88.863 173.58 89.5816 173.58C91.0336 173.58 91.7596 173.221 91.7596 172.502C91.7596 172.165 91.5616 171.923 91.1656 171.776C90.7696 171.629 90.161 171.505 89.3396 171.402C88.3716 171.255 87.5723 171.087 86.9416 170.896C86.311 170.705 85.761 170.368 85.2916 169.884C84.837 169.4 84.6096 168.711 84.6096 167.816C84.6096 167.068 84.8223 166.408 85.2476 165.836C85.6876 165.249 86.3183 164.795 87.1396 164.472C87.9756 164.149 88.9583 163.988 90.0876 163.988C90.9236 163.988 91.7523 164.083 92.5736 164.274C93.4096 164.45 94.099 164.699 94.6416 165.022L93.4976 167.464C92.4563 166.877 91.3196 166.584 90.0876 166.584C89.3543 166.584 88.8043 166.687 88.4376 166.892C88.071 167.097 87.8876 167.361 87.8876 167.684C87.8876 168.051 88.0856 168.307 88.4816 168.454C88.8776 168.601 89.5083 168.74 90.3736 168.872C91.3416 169.033 92.1336 169.209 92.7496 169.4C93.3656 169.576 93.901 169.906 94.3556 170.39C94.8103 170.874 95.0376 171.549 95.0376 172.414C95.0376 173.147 94.8176 173.8 94.3776 174.372C93.9376 174.944 93.2923 175.391 92.4416 175.714C91.6056 176.022 90.6083 176.176 89.4496 176.176ZM100.727 176.176C99.7445 176.176 98.7838 176.059 97.8451 175.824C96.9065 175.575 96.1585 175.267 95.6011 174.9L96.7451 172.436C97.2731 172.773 97.9111 173.052 98.6591 173.272C99.4071 173.477 100.14 173.58 100.859 173.58C102.311 173.58 103.037 173.221 103.037 172.502C103.037 172.165 102.839 171.923 102.443 171.776C102.047 171.629 101.438 171.505 100.617 171.402C99.6491 171.255 98.8498 171.087 98.2191 170.896C97.5885 170.705 97.0385 170.368 96.5691 169.884C96.1145 169.4 95.8871 168.711 95.8871 167.816C95.8871 167.068 96.0998 166.408 96.5251 165.836C96.9651 165.249 97.5958 164.795 98.4171 164.472C99.2531 164.149 100.236 163.988 101.365 163.988C102.201 163.988 103.03 164.083 103.851 164.274C104.687 164.45 105.376 164.699 105.919 165.022L104.775 167.464C103.734 166.877 102.597 166.584 101.365 166.584C100.632 166.584 100.082 166.687 99.7151 166.892C99.3485 167.097 99.1651 167.361 99.1651 167.684C99.1651 168.051 99.3631 168.307 99.7591 168.454C100.155 168.601 100.786 168.74 101.651 168.872C102.619 169.033 103.411 169.209 104.027 169.4C104.643 169.576 105.178 169.906 105.633 170.39C106.088 170.874 106.315 171.549 106.315 172.414C106.315 173.147 106.095 173.8 105.655 174.372C105.215 174.944 104.57 175.391 103.719 175.714C102.883 176.022 101.886 176.176 100.727 176.176ZM108.023 164.164H111.455V176H108.023V164.164ZM109.739 162.514C109.108 162.514 108.595 162.331 108.199 161.964C107.803 161.597 107.605 161.143 107.605 160.6C107.605 160.057 107.803 159.603 108.199 159.236C108.595 158.869 109.108 158.686 109.739 158.686C110.369 158.686 110.883 158.862 111.279 159.214C111.675 159.566 111.873 160.006 111.873 160.534C111.873 161.106 111.675 161.583 111.279 161.964C110.883 162.331 110.369 162.514 109.739 162.514ZM119.862 176.176C118.615 176.176 117.493 175.919 116.496 175.406C115.513 174.878 114.743 174.152 114.186 173.228C113.628 172.304 113.35 171.255 113.35 170.082C113.35 168.909 113.628 167.86 114.186 166.936C114.743 166.012 115.513 165.293 116.496 164.78C117.493 164.252 118.615 163.988 119.862 163.988C121.108 163.988 122.223 164.252 123.206 164.78C124.188 165.293 124.958 166.012 125.516 166.936C126.073 167.86 126.352 168.909 126.352 170.082C126.352 171.255 126.073 172.304 125.516 173.228C124.958 174.152 124.188 174.878 123.206 175.406C122.223 175.919 121.108 176.176 119.862 176.176ZM119.862 173.36C120.742 173.36 121.46 173.067 122.018 172.48C122.59 171.879 122.876 171.079 122.876 170.082C122.876 169.085 122.59 168.293 122.018 167.706C121.46 167.105 120.742 166.804 119.862 166.804C118.982 166.804 118.256 167.105 117.684 167.706C117.112 168.293 116.826 169.085 116.826 170.082C116.826 171.079 117.112 171.879 117.684 172.48C118.256 173.067 118.982 173.36 119.862 173.36ZM135.43 163.988C136.897 163.988 138.077 164.428 138.972 165.308C139.881 166.188 140.336 167.493 140.336 169.224V176H136.904V169.752C136.904 168.813 136.699 168.117 136.288 167.662C135.877 167.193 135.283 166.958 134.506 166.958C133.641 166.958 132.951 167.229 132.438 167.772C131.925 168.3 131.668 169.092 131.668 170.148V176H128.236V164.164H131.514V165.55C131.969 165.051 132.533 164.67 133.208 164.406C133.883 164.127 134.623 163.988 135.43 163.988Z" fill="white"/>
<defs>
<filter id="filter0_dd" x="0" y="0" width="198" height="198" filterUnits="userSpaceOnUse" color-interpolation-filters="sRGB">
<feFlood flood-opacity="0" result="BackgroundImageFix"/>
<feColorMatrix in="SourceAlpha" type="matrix" values="0 0 0 0 0 0 0 0 0 0 0 0 0 0 0 0 0 0 127 0"/>
<feOffset dx="-4" dy="-4"/>
<feGaussianBlur stdDeviation="6"/>
<feColorMatrix type="matrix" values="0 0 0 0 1 0 0 0 0 1 0 0 0 0 1 0 0 0 0.5 0"/>
<feBlend mode="normal" in2="BackgroundImageFix" result="effect1_dropShadow"/>
<feColorMatrix in="SourceAlpha" type="matrix" values="0 0 0 0 0 0 0 0 0 0 0 0 0 0 0 0 0 0 127 0"/>
<feOffset dx="4" dy="4"/>
<feGaussianBlur stdDeviation="6"/>
<feColorMatrix type="matrix" values="0 0 0 0 0 0 0 0 0 0 0 0 0 0 0 0 0 0 0.25 0"/>
<feBlend mode="normal" in2="effect1_dropShadow" result="effect2_dropShadow"/>
<feBlend mode="normal" in="SourceGraphic" in2="effect2_dropShadow" result="shape"/>
</filter>
</defs>
</svg>
