<svg width="168" height="168" viewBox="0 0 168 168" fill="none" xmlns="http://www.w3.org/2000/svg">
<g filter="url(#filter0_dd)">
<rect x="16" y="16" width="135.55" height="136" rx="10" fill="#55BB99"/>
</g>
<path d="M101.188 49.361C101.188 53.8806 99.399 58.215 96.2138 61.4108C93.0286 64.6066 88.7084 66.402 84.2038 66.402C79.6992 66.402 75.3791 64.6066 72.1939 61.4108C69.0087 58.215 67.2192 53.8806 67.2192 49.361C67.2192 44.8415 69.0087 40.5071 72.1939 37.3113C75.3791 34.1155 79.6992 32.3201 84.2038 32.3201C88.7084 32.3201 93.0286 34.1155 96.2138 37.3113C99.399 40.5071 101.188 44.8415 101.188 49.361V49.361ZM129.496 60.7217C129.496 63.7347 128.303 66.6243 126.18 68.7549C124.056 70.8854 121.176 72.0823 118.173 72.0823C115.17 72.0823 112.29 70.8854 110.166 68.7549C108.043 66.6243 106.85 63.7347 106.85 60.7217C106.85 57.7086 108.043 54.819 110.166 52.6885C112.29 50.558 115.17 49.361 118.173 49.361C121.176 49.361 124.056 50.558 126.18 52.6885C128.303 54.819 129.496 57.7086 129.496 60.7217V60.7217ZM106.85 100.484C106.85 94.4579 104.464 88.6786 100.217 84.4175C95.9701 80.1565 90.21 77.7626 84.2038 77.7626C78.1977 77.7626 72.4376 80.1565 68.1906 84.4175C63.9436 88.6786 61.5577 94.4579 61.5577 100.484V117.525H106.85V100.484ZM61.5577 60.7217C61.5577 63.7347 60.3647 66.6243 58.2412 68.7549C56.1178 70.8854 53.2377 72.0823 50.2346 72.0823C47.2316 72.0823 44.3515 70.8854 42.228 68.7549C40.1045 66.6243 38.9115 63.7347 38.9115 60.7217C38.9115 57.7086 40.1045 54.819 42.228 52.6885C44.3515 50.558 47.2316 49.361 50.2346 49.361C53.2377 49.361 56.1178 50.558 58.2412 52.6885C60.3647 54.819 61.5577 57.7086 61.5577 60.7217V60.7217ZM118.173 117.525V100.484C118.181 94.7086 116.72 89.0269 113.927 83.9769C116.437 83.3324 119.061 83.2717 121.598 83.7992C124.135 84.3268 126.518 85.4288 128.566 87.0211C130.614 88.6134 132.272 90.6539 133.415 92.9871C134.557 95.3203 135.153 97.8844 135.158 100.484V117.525H118.173ZM54.4808 83.9769C51.6882 89.027 50.2267 94.7087 50.2346 100.484V117.525H33.25V100.484C33.2489 97.8826 33.8414 95.3155 34.9821 92.9794C36.1228 90.6434 37.7815 88.6003 39.8309 87.0069C41.8803 85.4134 44.2661 84.3119 46.8055 83.7867C49.3448 83.2615 51.9703 83.3266 54.4808 83.9769V83.9769Z" fill="white"/>
<path d="M27.8773 138.128C26.96 138.128 26.1333 137.941 25.3973 137.568C24.672 137.184 24.1013 136.656 23.6853 135.984C23.28 135.312 23.0773 134.549 23.0773 133.696C23.0773 132.843 23.28 132.08 23.6853 131.408C24.1013 130.736 24.672 130.213 25.3973 129.84C26.1333 129.456 26.96 129.264 27.8773 129.264C28.784 129.264 29.5733 129.456 30.2453 129.84C30.928 130.213 31.424 130.752 31.7333 131.456L29.7973 132.496C29.3493 131.707 28.704 131.312 27.8613 131.312C27.2106 131.312 26.672 131.525 26.2453 131.952C25.8186 132.379 25.6053 132.96 25.6053 133.696C25.6053 134.432 25.8186 135.013 26.2453 135.44C26.672 135.867 27.2106 136.08 27.8613 136.08C28.7146 136.08 29.36 135.685 29.7973 134.896L31.7333 135.952C31.424 136.635 30.928 137.168 30.2453 137.552C29.5733 137.936 28.784 138.128 27.8773 138.128ZM41.4324 129.392V138H39.0644V136.976C38.7338 137.349 38.3391 137.637 37.8804 137.84C37.4218 138.032 36.9258 138.128 36.3924 138.128C35.2618 138.128 34.3658 137.803 33.7044 137.152C33.0431 136.501 32.7124 135.536 32.7124 134.256V129.392H35.2084V133.888C35.2084 135.275 35.7898 135.968 36.9524 135.968C37.5498 135.968 38.0298 135.776 38.3924 135.392C38.7551 134.997 38.9364 134.416 38.9364 133.648V129.392H41.4324ZM45.7188 130.528C46.0175 130.112 46.4175 129.797 46.9188 129.584C47.4308 129.371 48.0175 129.264 48.6788 129.264V131.568C48.4015 131.547 48.2148 131.536 48.1188 131.536C47.4041 131.536 46.8441 131.739 46.4388 132.144C46.0335 132.539 45.8308 133.136 45.8308 133.936V138H43.3348V129.392H45.7188V130.528ZM52.1369 130.528C52.4356 130.112 52.8356 129.797 53.3369 129.584C53.8489 129.371 54.4356 129.264 55.0969 129.264V131.568C54.8196 131.547 54.6329 131.536 54.5369 131.536C53.8223 131.536 53.2623 131.739 52.8569 132.144C52.4516 132.539 52.2489 133.136 52.2489 133.936V138H49.7529V129.392H52.1369V130.528ZM64.5249 133.728C64.5249 133.76 64.5089 133.984 64.4769 134.4H57.9649C58.0823 134.933 58.3596 135.355 58.7969 135.664C59.2343 135.973 59.7783 136.128 60.4289 136.128C60.8769 136.128 61.2716 136.064 61.6129 135.936C61.9649 135.797 62.2903 135.584 62.5889 135.296L63.9169 136.736C63.1063 137.664 61.9223 138.128 60.3649 138.128C59.3943 138.128 58.5356 137.941 57.7889 137.568C57.0423 137.184 56.4663 136.656 56.0609 135.984C55.6556 135.312 55.4529 134.549 55.4529 133.696C55.4529 132.853 55.6503 132.096 56.0449 131.424C56.4503 130.741 56.9996 130.213 57.6929 129.84C58.3969 129.456 59.1809 129.264 60.0449 129.264C60.8876 129.264 61.6503 129.445 62.3329 129.808C63.0156 130.171 63.5489 130.693 63.9329 131.376C64.3276 132.048 64.5249 132.832 64.5249 133.728ZM60.0609 131.152C59.4956 131.152 59.0209 131.312 58.6369 131.632C58.2529 131.952 58.0183 132.389 57.9329 132.944H62.1729C62.0876 132.4 61.8529 131.968 61.4689 131.648C61.0849 131.317 60.6156 131.152 60.0609 131.152ZM71.0087 129.264C72.0754 129.264 72.934 129.584 73.5847 130.224C74.246 130.864 74.5767 131.813 74.5767 133.072V138H72.0807V133.456C72.0807 132.773 71.9314 132.267 71.6327 131.936C71.334 131.595 70.902 131.424 70.3367 131.424C69.7074 131.424 69.206 131.621 68.8327 132.016C68.4594 132.4 68.2727 132.976 68.2727 133.744V138H65.7767V129.392H68.1607V130.4C68.4914 130.037 68.902 129.76 69.3927 129.568C69.8834 129.365 70.422 129.264 71.0087 129.264ZM81.9812 137.584C81.7359 137.765 81.4319 137.904 81.0692 138C80.7172 138.085 80.3439 138.128 79.9492 138.128C78.9252 138.128 78.1305 137.867 77.5652 137.344C77.0105 136.821 76.7332 136.053 76.7332 135.04V131.504H75.4052V129.584H76.7332V127.488H79.2292V129.584H81.3732V131.504H79.2292V135.008C79.2292 135.371 79.3199 135.653 79.5012 135.856C79.6932 136.048 79.9599 136.144 80.3012 136.144C80.6959 136.144 81.0319 136.037 81.3092 135.824L81.9812 137.584ZM89.9896 138.128C89.2749 138.128 88.5762 138.043 87.8936 137.872C87.2109 137.691 86.6669 137.467 86.2616 137.2L87.0936 135.408C87.4776 135.653 87.9416 135.856 88.4856 136.016C89.0296 136.165 89.5629 136.24 90.0856 136.24C91.1416 136.24 91.6696 135.979 91.6696 135.456C91.6696 135.211 91.5256 135.035 91.2376 134.928C90.9496 134.821 90.5069 134.731 89.9096 134.656C89.2056 134.549 88.6242 134.427 88.1656 134.288C87.7069 134.149 87.3069 133.904 86.9656 133.552C86.6349 133.2 86.4696 132.699 86.4696 132.048C86.4696 131.504 86.6242 131.024 86.9336 130.608C87.2536 130.181 87.7122 129.851 88.3096 129.616C88.9176 129.381 89.6322 129.264 90.4536 129.264C91.0616 129.264 91.6642 129.333 92.2616 129.472C92.8696 129.6 93.3709 129.781 93.7656 130.016L92.9336 131.792C92.1762 131.365 91.3496 131.152 90.4536 131.152C89.9202 131.152 89.5202 131.227 89.2536 131.376C88.9869 131.525 88.8536 131.717 88.8536 131.952C88.8536 132.219 88.9976 132.405 89.2856 132.512C89.5736 132.619 90.0322 132.72 90.6616 132.816C91.3656 132.933 91.9416 133.061 92.3896 133.2C92.8376 133.328 93.2269 133.568 93.5576 133.92C93.8882 134.272 94.0536 134.763 94.0536 135.392C94.0536 135.925 93.8936 136.4 93.5736 136.816C93.2536 137.232 92.7842 137.557 92.1656 137.792C91.5576 138.016 90.8322 138.128 89.9896 138.128ZM103.616 133.728C103.616 133.76 103.6 133.984 103.568 134.4H97.0556C97.1729 134.933 97.4502 135.355 97.8876 135.664C98.3249 135.973 98.8689 136.128 99.5196 136.128C99.9676 136.128 100.362 136.064 100.704 135.936C101.056 135.797 101.381 135.584 101.68 135.296L103.008 136.736C102.197 137.664 101.013 138.128 99.4556 138.128C98.4849 138.128 97.6262 137.941 96.8796 137.568C96.1329 137.184 95.5569 136.656 95.1516 135.984C94.7462 135.312 94.5436 134.549 94.5436 133.696C94.5436 132.853 94.7409 132.096 95.1356 131.424C95.5409 130.741 96.0902 130.213 96.7836 129.84C97.4876 129.456 98.2716 129.264 99.1356 129.264C99.9782 129.264 100.741 129.445 101.424 129.808C102.106 130.171 102.64 130.693 103.024 131.376C103.418 132.048 103.616 132.832 103.616 133.728ZM99.1516 131.152C98.5862 131.152 98.1116 131.312 97.7276 131.632C97.3436 131.952 97.1089 132.389 97.0236 132.944H101.264C101.178 132.4 100.944 131.968 100.56 131.648C100.176 131.317 99.7062 131.152 99.1516 131.152ZM107.763 138.128C107.049 138.128 106.35 138.043 105.667 137.872C104.985 137.691 104.441 137.467 104.035 137.2L104.867 135.408C105.251 135.653 105.715 135.856 106.259 136.016C106.803 136.165 107.337 136.24 107.859 136.24C108.915 136.24 109.443 135.979 109.443 135.456C109.443 135.211 109.299 135.035 109.011 134.928C108.723 134.821 108.281 134.731 107.683 134.656C106.979 134.549 106.398 134.427 105.939 134.288C105.481 134.149 105.081 133.904 104.739 133.552C104.409 133.2 104.243 132.699 104.243 132.048C104.243 131.504 104.398 131.024 104.707 130.608C105.027 130.181 105.486 129.851 106.083 129.616C106.691 129.381 107.406 129.264 108.227 129.264C108.835 129.264 109.438 129.333 110.035 129.472C110.643 129.6 111.145 129.781 111.539 130.016L110.707 131.792C109.95 131.365 109.123 131.152 108.227 131.152C107.694 131.152 107.294 131.227 107.027 131.376C106.761 131.525 106.627 131.717 106.627 131.952C106.627 132.219 106.771 132.405 107.059 132.512C107.347 132.619 107.806 132.72 108.435 132.816C109.139 132.933 109.715 133.061 110.163 133.2C110.611 133.328 111.001 133.568 111.331 133.92C111.662 134.272 111.827 134.763 111.827 135.392C111.827 135.925 111.667 136.4 111.347 136.816C111.027 137.232 110.558 137.557 109.939 137.792C109.331 138.016 108.606 138.128 107.763 138.128ZM115.853 138.128C115.139 138.128 114.44 138.043 113.757 137.872C113.075 137.691 112.531 137.467 112.125 137.2L112.957 135.408C113.341 135.653 113.805 135.856 114.349 136.016C114.893 136.165 115.427 136.24 115.949 136.24C117.005 136.24 117.533 135.979 117.533 135.456C117.533 135.211 117.389 135.035 117.101 134.928C116.813 134.821 116.371 134.731 115.773 134.656C115.069 134.549 114.488 134.427 114.029 134.288C113.571 134.149 113.171 133.904 112.829 133.552C112.499 133.2 112.333 132.699 112.333 132.048C112.333 131.504 112.488 131.024 112.797 130.608C113.117 130.181 113.576 129.851 114.173 129.616C114.781 129.381 115.496 129.264 116.317 129.264C116.925 129.264 117.528 129.333 118.125 129.472C118.733 129.6 119.235 129.781 119.629 130.016L118.797 131.792C118.04 131.365 117.213 131.152 116.317 131.152C115.784 131.152 115.384 131.227 115.117 131.376C114.851 131.525 114.717 131.717 114.717 131.952C114.717 132.219 114.861 132.405 115.149 132.512C115.437 132.619 115.896 132.72 116.525 132.816C117.229 132.933 117.805 133.061 118.253 133.2C118.701 133.328 119.091 133.568 119.421 133.92C119.752 134.272 119.917 134.763 119.917 135.392C119.917 135.925 119.757 136.4 119.437 136.816C119.117 137.232 118.648 137.557 118.029 137.792C117.421 138.016 116.696 138.128 115.853 138.128ZM121.047 129.392H123.543V138H121.047V129.392ZM122.295 128.192C121.837 128.192 121.463 128.059 121.175 127.792C120.887 127.525 120.743 127.195 120.743 126.8C120.743 126.405 120.887 126.075 121.175 125.808C121.463 125.541 121.837 125.408 122.295 125.408C122.754 125.408 123.127 125.536 123.415 125.792C123.703 126.048 123.847 126.368 123.847 126.752C123.847 127.168 123.703 127.515 123.415 127.792C123.127 128.059 122.754 128.192 122.295 128.192ZM129.546 138.128C128.639 138.128 127.823 137.941 127.098 137.568C126.383 137.184 125.823 136.656 125.418 135.984C125.012 135.312 124.81 134.549 124.81 133.696C124.81 132.843 125.012 132.08 125.418 131.408C125.823 130.736 126.383 130.213 127.098 129.84C127.823 129.456 128.639 129.264 129.546 129.264C130.452 129.264 131.263 129.456 131.978 129.84C132.692 130.213 133.252 130.736 133.658 131.408C134.063 132.08 134.266 132.843 134.266 133.696C134.266 134.549 134.063 135.312 133.658 135.984C133.252 136.656 132.692 137.184 131.978 137.568C131.263 137.941 130.452 138.128 129.546 138.128ZM129.546 136.08C130.186 136.08 130.708 135.867 131.114 135.44C131.53 135.003 131.738 134.421 131.738 133.696C131.738 132.971 131.53 132.395 131.114 131.968C130.708 131.531 130.186 131.312 129.546 131.312C128.906 131.312 128.378 131.531 127.962 131.968C127.546 132.395 127.338 132.971 127.338 133.696C127.338 134.421 127.546 135.003 127.962 135.44C128.378 135.867 128.906 136.08 129.546 136.08ZM140.756 129.264C141.823 129.264 142.682 129.584 143.332 130.224C143.994 130.864 144.324 131.813 144.324 133.072V138H141.828V133.456C141.828 132.773 141.679 132.267 141.38 131.936C141.082 131.595 140.65 131.424 140.084 131.424C139.455 131.424 138.954 131.621 138.58 132.016C138.207 132.4 138.02 132.976 138.02 133.744V138H135.524V129.392H137.908V130.4C138.239 130.037 138.65 129.76 139.14 129.568C139.631 129.365 140.17 129.264 140.756 129.264Z" fill="white"/>
<defs>
<filter id="filter0_dd" x="0" y="0" width="167.55" height="168" filterUnits="userSpaceOnUse" color-interpolation-filters="sRGB">
<feFlood flood-opacity="0" result="BackgroundImageFix"/>
<feColorMatrix in="SourceAlpha" type="matrix" values="0 0 0 0 0 0 0 0 0 0 0 0 0 0 0 0 0 0 127 0"/>
<feOffset dx="-4" dy="-4"/>
<feGaussianBlur stdDeviation="6"/>
<feColorMatrix type="matrix" values="0 0 0 0 1 0 0 0 0 1 0 0 0 0 1 0 0 0 0.5 0"/>
<feBlend mode="normal" in2="BackgroundImageFix" result="effect1_dropShadow"/>
<feColorMatrix in="SourceAlpha" type="matrix" values="0 0 0 0 0 0 0 0 0 0 0 0 0 0 0 0 0 0 127 0"/>
<feOffset dx="4" dy="4"/>
<feGaussianBlur stdDeviation="6"/>
<feColorMatrix type="matrix" values="0 0 0 0 0 0 0 0 0 0 0 0 0 0 0 0 0 0 0.25 0"/>
<feBlend mode="normal" in2="effect1_dropShadow" result="effect2_dropShadow"/>
<feBlend mode="normal" in="SourceGraphic" in2="effect2_dropShadow" result="shape"/>
</filter>
</defs>
</svg>
