<svg width="168" height="168" viewBox="0 0 168 168" fill="none" xmlns="http://www.w3.org/2000/svg">
<g filter="url(#filter0_dd)">
<rect x="16" y="16" width="136" height="135.662" rx="10" fill="#E9B3AC"/>
</g>
<path d="M36.5359 139.253C36.5359 139.289 36.5179 139.541 36.4819 140.009H29.1559C29.2879 140.609 29.5999 141.083 30.0919 141.431C30.5839 141.779 31.1959 141.953 31.9279 141.953C32.4319 141.953 32.8759 141.881 33.2599 141.737C33.6559 141.581 34.0219 141.341 34.3579 141.017L35.8519 142.637C34.9399 143.681 33.6079 144.203 31.8559 144.203C30.7639 144.203 29.7979 143.993 28.9579 143.573C28.1179 143.141 27.4699 142.547 27.0139 141.791C26.5579 141.035 26.3299 140.177 26.3299 139.217C26.3299 138.269 26.5519 137.417 26.9959 136.661C27.4519 135.893 28.0699 135.299 28.8499 134.879C29.6419 134.447 30.5239 134.231 31.4959 134.231C32.4439 134.231 33.3019 134.435 34.0699 134.843C34.8379 135.251 35.4379 135.839 35.8699 136.607C36.3139 137.363 36.5359 138.245 36.5359 139.253ZM31.5139 136.355C30.8779 136.355 30.3439 136.535 29.9119 136.895C29.4799 137.255 29.2159 137.747 29.1199 138.371H33.8899C33.7939 137.759 33.5299 137.273 33.0979 136.913C32.6659 136.541 32.1379 136.355 31.5139 136.355ZM47.8594 130.703V144.059H45.1774V142.943C44.4814 143.783 43.4734 144.203 42.1534 144.203C41.2414 144.203 40.4134 143.999 39.6694 143.591C38.9374 143.183 38.3614 142.601 37.9414 141.845C37.5214 141.089 37.3114 140.213 37.3114 139.217C37.3114 138.221 37.5214 137.345 37.9414 136.589C38.3614 135.833 38.9374 135.251 39.6694 134.843C40.4134 134.435 41.2414 134.231 42.1534 134.231C43.3894 134.231 44.3554 134.621 45.0514 135.401V130.703H47.8594ZM42.6394 141.899C43.3474 141.899 43.9354 141.659 44.4034 141.179C44.8714 140.687 45.1054 140.033 45.1054 139.217C45.1054 138.401 44.8714 137.753 44.4034 137.273C43.9354 136.781 43.3474 136.535 42.6394 136.535C41.9194 136.535 41.3254 136.781 40.8574 137.273C40.3894 137.753 40.1554 138.401 40.1554 139.217C40.1554 140.033 40.3894 140.687 40.8574 141.179C41.3254 141.659 41.9194 141.899 42.6394 141.899ZM50.0483 134.375H52.8563V144.059H50.0483V134.375ZM51.4523 133.025C50.9363 133.025 50.5163 132.875 50.1923 132.575C49.8683 132.275 49.7063 131.903 49.7063 131.459C49.7063 131.015 49.8683 130.643 50.1923 130.343C50.5163 130.043 50.9363 129.893 51.4523 129.893C51.9683 129.893 52.3883 130.037 52.7123 130.325C53.0363 130.613 53.1983 130.973 53.1983 131.405C53.1983 131.873 53.0363 132.263 52.7123 132.575C52.3883 132.875 51.9683 133.025 51.4523 133.025ZM61.2984 143.591C61.0224 143.795 60.6804 143.951 60.2724 144.059C59.8764 144.155 59.4564 144.203 59.0124 144.203C57.8604 144.203 56.9664 143.909 56.3304 143.321C55.7064 142.733 55.3944 141.869 55.3944 140.729V136.751H53.9004V134.591H55.3944V132.233H58.2024V134.591H60.6144V136.751H58.2024V140.693C58.2024 141.101 58.3044 141.419 58.5084 141.647C58.7244 141.863 59.0244 141.971 59.4084 141.971C59.8524 141.971 60.2304 141.851 60.5424 141.611L61.2984 143.591ZM70.4103 144.203C69.6063 144.203 68.8203 144.107 68.0523 143.915C67.2843 143.711 66.6723 143.459 66.2163 143.159L67.1523 141.143C67.5843 141.419 68.1063 141.647 68.7183 141.827C69.3303 141.995 69.9303 142.079 70.5183 142.079C71.7063 142.079 72.3003 141.785 72.3003 141.197C72.3003 140.921 72.1383 140.723 71.8143 140.603C71.4903 140.483 70.9923 140.381 70.3203 140.297C69.5283 140.177 68.8743 140.039 68.3583 139.883C67.8423 139.727 67.3923 139.451 67.0083 139.055C66.6363 138.659 66.4503 138.095 66.4503 137.363C66.4503 136.751 66.6243 136.211 66.9723 135.743C67.3323 135.263 67.8483 134.891 68.5203 134.627C69.2043 134.363 70.0083 134.231 70.9323 134.231C71.6163 134.231 72.2943 134.309 72.9663 134.465C73.6503 134.609 74.2143 134.813 74.6583 135.077L73.7223 137.075C72.8703 136.595 71.9403 136.355 70.9323 136.355C70.3323 136.355 69.8823 136.439 69.5823 136.607C69.2823 136.775 69.1323 136.991 69.1323 137.255C69.1323 137.555 69.2943 137.765 69.6183 137.885C69.9423 138.005 70.4583 138.119 71.1663 138.227C71.9583 138.359 72.6063 138.503 73.1103 138.659C73.6143 138.803 74.0523 139.073 74.4243 139.469C74.7963 139.865 74.9823 140.417 74.9823 141.125C74.9823 141.725 74.8023 142.259 74.4423 142.727C74.0823 143.195 73.5543 143.561 72.8583 143.825C72.1743 144.077 71.3583 144.203 70.4103 144.203ZM85.7908 139.253C85.7908 139.289 85.7728 139.541 85.7368 140.009H78.4108C78.5428 140.609 78.8548 141.083 79.3468 141.431C79.8388 141.779 80.4508 141.953 81.1828 141.953C81.6868 141.953 82.1308 141.881 82.5148 141.737C82.9108 141.581 83.2768 141.341 83.6128 141.017L85.1068 142.637C84.1948 143.681 82.8628 144.203 81.1108 144.203C80.0188 144.203 79.0528 143.993 78.2128 143.573C77.3728 143.141 76.7248 142.547 76.2688 141.791C75.8128 141.035 75.5848 140.177 75.5848 139.217C75.5848 138.269 75.8068 137.417 76.2508 136.661C76.7068 135.893 77.3248 135.299 78.1048 134.879C78.8968 134.447 79.7788 134.231 80.7508 134.231C81.6988 134.231 82.5568 134.435 83.3248 134.843C84.0928 135.251 84.6928 135.839 85.1248 136.607C85.5688 137.363 85.7908 138.245 85.7908 139.253ZM80.7688 136.355C80.1328 136.355 79.5988 136.535 79.1668 136.895C78.7348 137.255 78.4708 137.747 78.3748 138.371H83.1448C83.0488 137.759 82.7848 137.273 82.3528 136.913C81.9208 136.541 81.3928 136.355 80.7688 136.355ZM90.5083 144.203C89.7043 144.203 88.9183 144.107 88.1503 143.915C87.3823 143.711 86.7703 143.459 86.3143 143.159L87.2503 141.143C87.6823 141.419 88.2043 141.647 88.8163 141.827C89.4283 141.995 90.0283 142.079 90.6163 142.079C91.8043 142.079 92.3983 141.785 92.3983 141.197C92.3983 140.921 92.2363 140.723 91.9123 140.603C91.5883 140.483 91.0903 140.381 90.4183 140.297C89.6263 140.177 88.9723 140.039 88.4563 139.883C87.9403 139.727 87.4903 139.451 87.1063 139.055C86.7343 138.659 86.5483 138.095 86.5483 137.363C86.5483 136.751 86.7223 136.211 87.0703 135.743C87.4303 135.263 87.9463 134.891 88.6183 134.627C89.3023 134.363 90.1063 134.231 91.0303 134.231C91.7143 134.231 92.3923 134.309 93.0643 134.465C93.7483 134.609 94.3123 134.813 94.7563 135.077L93.8203 137.075C92.9683 136.595 92.0383 136.355 91.0303 136.355C90.4303 136.355 89.9803 136.439 89.6803 136.607C89.3803 136.775 89.2303 136.991 89.2303 137.255C89.2303 137.555 89.3923 137.765 89.7163 137.885C90.0403 138.005 90.5563 138.119 91.2643 138.227C92.0563 138.359 92.7043 138.503 93.2083 138.659C93.7123 138.803 94.1503 139.073 94.5223 139.469C94.8943 139.865 95.0803 140.417 95.0803 141.125C95.0803 141.725 94.9003 142.259 94.5403 142.727C94.1803 143.195 93.6523 143.561 92.9563 143.825C92.2723 144.077 91.4563 144.203 90.5083 144.203ZM99.6608 144.203C98.8568 144.203 98.0708 144.107 97.3028 143.915C96.5348 143.711 95.9228 143.459 95.4668 143.159L96.4028 141.143C96.8348 141.419 97.3568 141.647 97.9688 141.827C98.5808 141.995 99.1808 142.079 99.7688 142.079C100.957 142.079 101.551 141.785 101.551 141.197C101.551 140.921 101.389 140.723 101.065 140.603C100.741 140.483 100.243 140.381 99.5708 140.297C98.7788 140.177 98.1248 140.039 97.6088 139.883C97.0928 139.727 96.6428 139.451 96.2588 139.055C95.8868 138.659 95.7008 138.095 95.7008 137.363C95.7008 136.751 95.8748 136.211 96.2228 135.743C96.5828 135.263 97.0988 134.891 97.7708 134.627C98.4548 134.363 99.2588 134.231 100.183 134.231C100.867 134.231 101.545 134.309 102.217 134.465C102.901 134.609 103.465 134.813 103.909 135.077L102.973 137.075C102.121 136.595 101.191 136.355 100.183 136.355C99.5828 136.355 99.1328 136.439 98.8328 136.607C98.5328 136.775 98.3828 136.991 98.3828 137.255C98.3828 137.555 98.5448 137.765 98.8688 137.885C99.1928 138.005 99.7088 138.119 100.417 138.227C101.209 138.359 101.857 138.503 102.361 138.659C102.865 138.803 103.303 139.073 103.675 139.469C104.047 139.865 104.233 140.417 104.233 141.125C104.233 141.725 104.053 142.259 103.693 142.727C103.333 143.195 102.805 143.561 102.109 143.825C101.425 144.077 100.609 144.203 99.6608 144.203ZM105.555 134.375H108.363V144.059H105.555V134.375ZM106.959 133.025C106.443 133.025 106.023 132.875 105.699 132.575C105.375 132.275 105.213 131.903 105.213 131.459C105.213 131.015 105.375 130.643 105.699 130.343C106.023 130.043 106.443 129.893 106.959 129.893C107.475 129.893 107.895 130.037 108.219 130.325C108.543 130.613 108.705 130.973 108.705 131.405C108.705 131.873 108.543 132.263 108.219 132.575C107.895 132.875 107.475 133.025 106.959 133.025ZM115.167 144.203C114.147 144.203 113.229 143.993 112.413 143.573C111.609 143.141 110.979 142.547 110.523 141.791C110.067 141.035 109.839 140.177 109.839 139.217C109.839 138.257 110.067 137.399 110.523 136.643C110.979 135.887 111.609 135.299 112.413 134.879C113.229 134.447 114.147 134.231 115.167 134.231C116.187 134.231 117.099 134.447 117.903 134.879C118.707 135.299 119.337 135.887 119.793 136.643C120.249 137.399 120.477 138.257 120.477 139.217C120.477 140.177 120.249 141.035 119.793 141.791C119.337 142.547 118.707 143.141 117.903 143.573C117.099 143.993 116.187 144.203 115.167 144.203ZM115.167 141.899C115.887 141.899 116.475 141.659 116.931 141.179C117.399 140.687 117.633 140.033 117.633 139.217C117.633 138.401 117.399 137.753 116.931 137.273C116.475 136.781 115.887 136.535 115.167 136.535C114.447 136.535 113.853 136.781 113.385 137.273C112.917 137.753 112.683 138.401 112.683 139.217C112.683 140.033 112.917 140.687 113.385 141.179C113.853 141.659 114.447 141.899 115.167 141.899ZM127.83 134.231C129.03 134.231 129.996 134.591 130.728 135.311C131.472 136.031 131.844 137.099 131.844 138.515V144.059H129.036V138.947C129.036 138.179 128.868 137.609 128.532 137.237C128.196 136.853 127.71 136.661 127.074 136.661C126.366 136.661 125.802 136.883 125.382 137.327C124.962 137.759 124.752 138.407 124.752 139.271V144.059H121.944V134.375H124.626V135.509C124.998 135.101 125.46 134.789 126.012 134.573C126.564 134.345 127.17 134.231 127.83 134.231ZM137.238 144.203C136.434 144.203 135.648 144.107 134.88 143.915C134.112 143.711 133.5 143.459 133.044 143.159L133.98 141.143C134.412 141.419 134.934 141.647 135.546 141.827C136.158 141.995 136.758 142.079 137.346 142.079C138.534 142.079 139.128 141.785 139.128 141.197C139.128 140.921 138.966 140.723 138.642 140.603C138.318 140.483 137.82 140.381 137.148 140.297C136.356 140.177 135.702 140.039 135.186 139.883C134.67 139.727 134.22 139.451 133.836 139.055C133.464 138.659 133.278 138.095 133.278 137.363C133.278 136.751 133.452 136.211 133.8 135.743C134.16 135.263 134.676 134.891 135.348 134.627C136.032 134.363 136.836 134.231 137.76 134.231C138.444 134.231 139.122 134.309 139.794 134.465C140.478 134.609 141.042 134.813 141.486 135.077L140.55 137.075C139.698 136.595 138.768 136.355 137.76 136.355C137.16 136.355 136.71 136.439 136.41 136.607C136.11 136.775 135.96 136.991 135.96 137.255C135.96 137.555 136.122 137.765 136.446 137.885C136.77 138.005 137.286 138.119 137.994 138.227C138.786 138.359 139.434 138.503 139.938 138.659C140.442 138.803 140.88 139.073 141.252 139.469C141.624 139.865 141.81 140.417 141.81 141.125C141.81 141.725 141.63 142.259 141.27 142.727C140.91 143.195 140.382 143.561 139.686 143.825C139.002 144.077 138.186 144.203 137.238 144.203Z" fill="white"/>
<path d="M136.284 26.1547C136.284 27.1646 135.886 28.1332 135.178 28.8473C134.469 29.5615 133.509 29.9627 132.507 29.9627C131.505 29.9627 130.544 29.5615 129.835 28.8473C129.127 28.1332 128.729 27.1646 128.729 26.1547C128.729 25.1447 129.127 24.1762 129.835 23.462C130.544 22.7479 131.505 22.3467 132.507 22.3467C133.509 22.3467 134.469 22.7479 135.178 23.462C135.886 24.1762 136.284 25.1447 136.284 26.1547V26.1547ZM142.581 28.6933C142.581 29.3666 142.315 30.0124 141.843 30.4885C141.371 30.9645 140.73 31.232 140.062 31.232C139.394 31.232 138.754 30.9645 138.281 30.4885C137.809 30.0124 137.544 29.3666 137.544 28.6933C137.544 28.0201 137.809 27.3743 138.281 26.8982C138.754 26.4221 139.394 26.1547 140.062 26.1547C140.73 26.1547 141.371 26.4221 141.843 26.8982C142.315 27.3743 142.581 28.0201 142.581 28.6933V28.6933ZM137.544 37.5787C137.544 36.2321 137.013 34.9406 136.068 33.9885C135.124 33.0363 133.843 32.5013 132.507 32.5013C131.171 32.5013 129.89 33.0363 128.945 33.9885C128 34.9406 127.47 36.2321 127.47 37.5787V41.3867H137.544V37.5787ZM127.47 28.6933C127.47 29.3666 127.204 30.0124 126.732 30.4885C126.26 30.9645 125.619 31.232 124.951 31.232C124.283 31.232 123.643 30.9645 123.17 30.4885C122.698 30.0124 122.433 29.3666 122.433 28.6933C122.433 28.0201 122.698 27.3743 123.17 26.8982C123.643 26.4221 124.283 26.1547 124.951 26.1547C125.619 26.1547 126.26 26.4221 126.732 26.8982C127.204 27.3743 127.47 28.0201 127.47 28.6933V28.6933ZM140.062 41.3867V37.5787C140.064 36.2881 139.739 35.0185 139.118 33.89C139.676 33.746 140.26 33.7324 140.824 33.8503C141.388 33.9682 141.918 34.2144 142.374 34.5702C142.829 34.9261 143.198 35.3821 143.452 35.9034C143.706 36.4248 143.839 36.9978 143.84 37.5787V41.3867H140.062ZM125.896 33.89C125.274 35.0185 124.949 36.2881 124.951 37.5787V41.3867H121.173V37.5787C121.173 36.9974 121.305 36.4237 121.559 35.9017C121.812 35.3797 122.181 34.9232 122.637 34.5671C123.093 34.211 123.624 33.9649 124.188 33.8475C124.753 33.7301 125.337 33.7447 125.896 33.89V33.89Z" fill="white"/>
<path d="M86.2666 49.5467C79.542 49.5467 72.9685 51.5408 67.3772 55.2767C61.786 59.0127 57.4281 64.3228 54.8547 70.5354C52.2813 76.7481 51.608 83.5844 52.9199 90.1798C54.2318 96.7751 57.47 102.833 62.225 107.588C66.98 112.343 73.0382 115.581 79.6335 116.893C86.2289 118.205 93.0652 117.532 99.2778 114.959C105.491 112.385 110.801 108.027 114.537 102.436C118.273 96.8448 120.267 90.2712 120.267 83.5467C120.267 79.0817 119.387 74.6605 117.679 70.5354C115.97 66.4104 113.465 62.6622 110.308 59.5051C107.151 56.3479 103.403 53.8434 99.2778 52.1348C95.1528 50.4261 90.7316 49.5467 86.2666 49.5467V49.5467ZM86.2666 110.747C80.887 110.747 75.6281 109.151 71.1551 106.163C66.6821 103.174 63.1958 98.9258 61.1371 93.9557C59.0784 88.9855 58.5397 83.5165 59.5893 78.2402C60.6388 72.9639 63.2293 68.1174 67.0333 64.3134C70.8373 60.5094 75.6839 57.9188 80.9602 56.8693C86.2364 55.8198 91.7054 56.3585 96.6756 58.4172C101.646 60.4759 105.894 63.9622 108.883 68.4352C111.871 72.9082 113.467 78.167 113.467 83.5467C113.467 90.7606 110.601 97.679 105.5 102.78C100.399 107.881 93.4805 110.747 86.2666 110.747V110.747Z" fill="white"/>
<path d="M96.4665 80.1467H76.0665C75.1648 80.1467 74.3 80.5049 73.6623 81.1425C73.0247 81.7801 72.6665 82.6449 72.6665 83.5467C72.6665 84.4484 73.0247 85.3132 73.6623 85.9508C74.3 86.5884 75.1648 86.9467 76.0665 86.9467H96.4665C97.3682 86.9467 98.233 86.5884 98.8707 85.9508C99.5083 85.3132 99.8665 84.4484 99.8665 83.5467C99.8665 82.6449 99.5083 81.7801 98.8707 81.1425C98.233 80.5049 97.3682 80.1467 96.4665 80.1467Z" fill="white"/>
<defs>
<filter id="filter0_dd" x="0" y="0" width="168" height="167.662" filterUnits="userSpaceOnUse" color-interpolation-filters="sRGB">
<feFlood flood-opacity="0" result="BackgroundImageFix"/>
<feColorMatrix in="SourceAlpha" type="matrix" values="0 0 0 0 0 0 0 0 0 0 0 0 0 0 0 0 0 0 127 0"/>
<feOffset dx="-4" dy="-4"/>
<feGaussianBlur stdDeviation="6"/>
<feColorMatrix type="matrix" values="0 0 0 0 1 0 0 0 0 1 0 0 0 0 1 0 0 0 0.5 0"/>
<feBlend mode="normal" in2="BackgroundImageFix" result="effect1_dropShadow"/>
<feColorMatrix in="SourceAlpha" type="matrix" values="0 0 0 0 0 0 0 0 0 0 0 0 0 0 0 0 0 0 127 0"/>
<feOffset dx="4" dy="4"/>
<feGaussianBlur stdDeviation="6"/>
<feColorMatrix type="matrix" values="0 0 0 0 0 0 0 0 0 0 0 0 0 0 0 0 0 0 0.25 0"/>
<feBlend mode="normal" in2="effect1_dropShadow" result="effect2_dropShadow"/>
<feBlend mode="normal" in="SourceGraphic" in2="effect2_dropShadow" result="shape"/>
</filter>
</defs>
</svg>
