<svg width="198" height="198" viewBox="0 0 198 198" fill="none" xmlns="http://www.w3.org/2000/svg">
<g filter="url(#filter0_dd)">
<rect x="16" y="16" width="166" height="166" rx="10" fill="#F9BE7F"/>
</g>
<path d="M69.06 120H144V50C144 44.485 139.515 40 134 40H69C62.97 40 54 43.995 54 55V125C54 136.005 62.97 140 69 140H144V130H69.06C66.75 129.94 64 129.03 64 125C64 124.495 64.045 124.045 64.12 123.635C64.68 120.755 67.04 120.05 69.06 120V120ZM82.24 68.21C84.3212 66.1553 87.128 65.0032 90.0525 65.0032C92.977 65.0032 95.7838 66.1553 97.865 68.21L98.985 69.305L100.1 68.21C102.182 66.155 104.99 65.0028 107.915 65.0028C110.84 65.0028 113.648 66.155 115.73 68.21C116.763 69.2032 117.584 70.3948 118.146 71.7131C118.707 73.0315 118.996 74.4496 118.996 75.8825C118.996 77.3154 118.707 78.7335 118.146 80.0519C117.584 81.3702 116.763 82.5618 115.73 83.555L98.99 100L82.245 83.555C81.2113 82.5625 80.3887 81.3713 79.8267 80.0531C79.2646 78.7348 78.9747 77.3166 78.9742 75.8836C78.9738 74.4505 79.2628 73.0321 79.824 71.7135C80.3852 70.3949 81.2069 69.2032 82.24 68.21V68.21Z" fill="white"/>
<path d="M38.6907 166.126C38.6907 166.17 38.6687 166.478 38.6247 167.05H29.6707C29.8321 167.783 30.2134 168.363 30.8147 168.788C31.4161 169.213 32.1641 169.426 33.0587 169.426C33.6747 169.426 34.2174 169.338 34.6867 169.162C35.1707 168.971 35.6181 168.678 36.0287 168.282L37.8547 170.262C36.7401 171.538 35.1121 172.176 32.9707 172.176C31.6361 172.176 30.4554 171.919 29.4287 171.406C28.4021 170.878 27.6101 170.152 27.0527 169.228C26.4954 168.304 26.2167 167.255 26.2167 166.082C26.2167 164.923 26.4881 163.882 27.0307 162.958C27.5881 162.019 28.3434 161.293 29.2967 160.78C30.2647 160.252 31.3427 159.988 32.5307 159.988C33.6894 159.988 34.7381 160.237 35.6767 160.736C36.6154 161.235 37.3487 161.953 37.8767 162.892C38.4194 163.816 38.6907 164.894 38.6907 166.126ZM32.5527 162.584C31.7754 162.584 31.1227 162.804 30.5947 163.244C30.0667 163.684 29.7441 164.285 29.6267 165.048H35.4567C35.3394 164.3 35.0167 163.706 34.4887 163.266C33.9607 162.811 33.3154 162.584 32.5527 162.584ZM52.6216 155.676V172H49.3436V170.636C48.493 171.663 47.261 172.176 45.6476 172.176C44.533 172.176 43.521 171.927 42.6116 171.428C41.717 170.929 41.013 170.218 40.4996 169.294C39.9863 168.37 39.7296 167.299 39.7296 166.082C39.7296 164.865 39.9863 163.794 40.4996 162.87C41.013 161.946 41.717 161.235 42.6116 160.736C43.521 160.237 44.533 159.988 45.6476 159.988C47.1583 159.988 48.339 160.465 49.1896 161.418V155.676H52.6216ZM46.2416 169.36C47.107 169.36 47.8256 169.067 48.3976 168.48C48.9696 167.879 49.2556 167.079 49.2556 166.082C49.2556 165.085 48.9696 164.293 48.3976 163.706C47.8256 163.105 47.107 162.804 46.2416 162.804C45.3616 162.804 44.6356 163.105 44.0636 163.706C43.4916 164.293 43.2056 165.085 43.2056 166.082C43.2056 167.079 43.4916 167.879 44.0636 168.48C44.6356 169.067 45.3616 169.36 46.2416 169.36ZM55.3881 160.164H58.8201V172H55.3881V160.164ZM57.1041 158.514C56.4734 158.514 55.9601 158.331 55.5641 157.964C55.1681 157.597 54.9701 157.143 54.9701 156.6C54.9701 156.057 55.1681 155.603 55.5641 155.236C55.9601 154.869 56.4734 154.686 57.1041 154.686C57.7347 154.686 58.2481 154.862 58.6441 155.214C59.0401 155.566 59.2381 156.006 59.2381 156.534C59.2381 157.106 59.0401 157.583 58.6441 157.964C58.2481 158.331 57.7347 158.514 57.1041 158.514ZM69.2293 171.428C68.8919 171.677 68.4739 171.868 67.9752 172C67.4913 172.117 66.9779 172.176 66.4353 172.176C65.0272 172.176 63.9346 171.817 63.1572 171.098C62.3946 170.379 62.0132 169.323 62.0132 167.93V163.068H60.1872V160.428H62.0132V157.546H65.4452V160.428H68.3932V163.068H65.4452V167.886C65.4452 168.385 65.5699 168.773 65.8192 169.052C66.0832 169.316 66.4499 169.448 66.9192 169.448C67.4619 169.448 67.9239 169.301 68.3052 169.008L69.2293 171.428ZM79.8443 161.726C80.2549 161.154 80.8049 160.721 81.4943 160.428C82.1983 160.135 83.0049 159.988 83.9143 159.988V163.156C83.5329 163.127 83.2763 163.112 83.1443 163.112C82.1616 163.112 81.3916 163.391 80.8343 163.948C80.2769 164.491 79.9983 165.312 79.9983 166.412V172H76.5663V160.164H79.8443V161.726ZM97.0315 166.126C97.0315 166.17 97.0095 166.478 96.9655 167.05H88.0115C88.1728 167.783 88.5542 168.363 89.1555 168.788C89.7568 169.213 90.5048 169.426 91.3995 169.426C92.0155 169.426 92.5582 169.338 93.0275 169.162C93.5115 168.971 93.9588 168.678 94.3695 168.282L96.1955 170.262C95.0808 171.538 93.4528 172.176 91.3115 172.176C89.9768 172.176 88.7962 171.919 87.7695 171.406C86.7428 170.878 85.9508 170.152 85.3935 169.228C84.8362 168.304 84.5575 167.255 84.5575 166.082C84.5575 164.923 84.8288 163.882 85.3715 162.958C85.9288 162.019 86.6842 161.293 87.6375 160.78C88.6055 160.252 89.6835 159.988 90.8715 159.988C92.0302 159.988 93.0788 160.237 94.0175 160.736C94.9562 161.235 95.6895 161.953 96.2175 162.892C96.7602 163.816 97.0315 164.894 97.0315 166.126ZM90.8935 162.584C90.1162 162.584 89.4635 162.804 88.9355 163.244C88.4075 163.684 88.0848 164.285 87.9675 165.048H93.7975C93.6802 164.3 93.3575 163.706 92.8295 163.266C92.3015 162.811 91.6562 162.584 90.8935 162.584ZM102.888 172.176C101.906 172.176 100.945 172.059 100.006 171.824C99.0678 171.575 98.3198 171.267 97.7624 170.9L98.9064 168.436C99.4344 168.773 100.072 169.052 100.82 169.272C101.568 169.477 102.302 169.58 103.02 169.58C104.472 169.58 105.198 169.221 105.198 168.502C105.198 168.165 105 167.923 104.604 167.776C104.208 167.629 103.6 167.505 102.778 167.402C101.81 167.255 101.011 167.087 100.38 166.896C99.7498 166.705 99.1998 166.368 98.7304 165.884C98.2758 165.4 98.0484 164.711 98.0484 163.816C98.0484 163.068 98.2611 162.408 98.6864 161.836C99.1264 161.249 99.7571 160.795 100.578 160.472C101.414 160.149 102.397 159.988 103.526 159.988C104.362 159.988 105.191 160.083 106.012 160.274C106.848 160.45 107.538 160.699 108.08 161.022L106.936 163.464C105.895 162.877 104.758 162.584 103.526 162.584C102.793 162.584 102.243 162.687 101.876 162.892C101.51 163.097 101.326 163.361 101.326 163.684C101.326 164.051 101.524 164.307 101.92 164.454C102.316 164.601 102.947 164.74 103.812 164.872C104.78 165.033 105.572 165.209 106.188 165.4C106.804 165.576 107.34 165.906 107.794 166.39C108.249 166.874 108.476 167.549 108.476 168.414C108.476 169.147 108.256 169.8 107.816 170.372C107.376 170.944 106.731 171.391 105.88 171.714C105.044 172.022 104.047 172.176 102.888 172.176ZM115.816 172.176C114.569 172.176 113.447 171.919 112.45 171.406C111.467 170.878 110.697 170.152 110.14 169.228C109.583 168.304 109.304 167.255 109.304 166.082C109.304 164.909 109.583 163.86 110.14 162.936C110.697 162.012 111.467 161.293 112.45 160.78C113.447 160.252 114.569 159.988 115.816 159.988C117.063 159.988 118.177 160.252 119.16 160.78C120.143 161.293 120.913 162.012 121.47 162.936C122.027 163.86 122.306 164.909 122.306 166.082C122.306 167.255 122.027 168.304 121.47 169.228C120.913 170.152 120.143 170.878 119.16 171.406C118.177 171.919 117.063 172.176 115.816 172.176ZM115.816 169.36C116.696 169.36 117.415 169.067 117.972 168.48C118.544 167.879 118.83 167.079 118.83 166.082C118.83 165.085 118.544 164.293 117.972 163.706C117.415 163.105 116.696 162.804 115.816 162.804C114.936 162.804 114.21 163.105 113.638 163.706C113.066 164.293 112.78 165.085 112.78 166.082C112.78 167.079 113.066 167.879 113.638 168.48C114.21 169.067 114.936 169.36 115.816 169.36ZM136.114 160.164V172H132.858V170.592C132.403 171.105 131.861 171.501 131.23 171.78C130.599 172.044 129.917 172.176 129.184 172.176C127.629 172.176 126.397 171.729 125.488 170.834C124.579 169.939 124.124 168.612 124.124 166.852V160.164H127.556V166.346C127.556 168.253 128.355 169.206 129.954 169.206C130.775 169.206 131.435 168.942 131.934 168.414C132.433 167.871 132.682 167.072 132.682 166.016V160.164H136.114ZM142.161 161.726C142.572 161.154 143.122 160.721 143.811 160.428C144.515 160.135 145.322 159.988 146.231 159.988V163.156C145.85 163.127 145.593 163.112 145.461 163.112C144.479 163.112 143.709 163.391 143.151 163.948C142.594 164.491 142.315 165.312 142.315 166.412V172H138.883V160.164H142.161V161.726ZM153.475 172.176C152.213 172.176 151.077 171.919 150.065 171.406C149.067 170.878 148.283 170.152 147.711 169.228C147.153 168.304 146.875 167.255 146.875 166.082C146.875 164.909 147.153 163.86 147.711 162.936C148.283 162.012 149.067 161.293 150.065 160.78C151.077 160.252 152.213 159.988 153.475 159.988C154.721 159.988 155.807 160.252 156.731 160.78C157.669 161.293 158.351 162.034 158.777 163.002L156.115 164.432C155.499 163.347 154.611 162.804 153.453 162.804C152.558 162.804 151.817 163.097 151.231 163.684C150.644 164.271 150.351 165.07 150.351 166.082C150.351 167.094 150.644 167.893 151.231 168.48C151.817 169.067 152.558 169.36 153.453 169.36C154.626 169.36 155.513 168.817 156.115 167.732L158.777 169.184C158.351 170.123 157.669 170.856 156.731 171.384C155.807 171.912 154.721 172.176 153.475 172.176ZM171.786 166.126C171.786 166.17 171.764 166.478 171.72 167.05H162.766C162.928 167.783 163.309 168.363 163.91 168.788C164.512 169.213 165.26 169.426 166.154 169.426C166.77 169.426 167.313 169.338 167.782 169.162C168.266 168.971 168.714 168.678 169.124 168.282L170.95 170.262C169.836 171.538 168.208 172.176 166.066 172.176C164.732 172.176 163.551 171.919 162.524 171.406C161.498 170.878 160.706 170.152 160.148 169.228C159.591 168.304 159.312 167.255 159.312 166.082C159.312 164.923 159.584 163.882 160.126 162.958C160.684 162.019 161.439 161.293 162.392 160.78C163.36 160.252 164.438 159.988 165.626 159.988C166.785 159.988 167.834 160.237 168.772 160.736C169.711 161.235 170.444 161.953 170.972 162.892C171.515 163.816 171.786 164.894 171.786 166.126ZM165.648 162.584C164.871 162.584 164.218 162.804 163.69 163.244C163.162 163.684 162.84 164.285 162.722 165.048H168.552C168.435 164.3 168.112 163.706 167.584 163.266C167.056 162.811 166.411 162.584 165.648 162.584Z" fill="white"/>
<defs>
<filter id="filter0_dd" x="0" y="0" width="198" height="198" filterUnits="userSpaceOnUse" color-interpolation-filters="sRGB">
<feFlood flood-opacity="0" result="BackgroundImageFix"/>
<feColorMatrix in="SourceAlpha" type="matrix" values="0 0 0 0 0 0 0 0 0 0 0 0 0 0 0 0 0 0 127 0"/>
<feOffset dx="-4" dy="-4"/>
<feGaussianBlur stdDeviation="6"/>
<feColorMatrix type="matrix" values="0 0 0 0 1 0 0 0 0 1 0 0 0 0 1 0 0 0 0.5 0"/>
<feBlend mode="normal" in2="BackgroundImageFix" result="effect1_dropShadow"/>
<feColorMatrix in="SourceAlpha" type="matrix" values="0 0 0 0 0 0 0 0 0 0 0 0 0 0 0 0 0 0 127 0"/>
<feOffset dx="4" dy="4"/>
<feGaussianBlur stdDeviation="6"/>
<feColorMatrix type="matrix" values="0 0 0 0 0 0 0 0 0 0 0 0 0 0 0 0 0 0 0.25 0"/>
<feBlend mode="normal" in2="effect1_dropShadow" result="effect2_dropShadow"/>
<feBlend mode="normal" in="SourceGraphic" in2="effect2_dropShadow" result="shape"/>
</filter>
</defs>
</svg>
