<svg width="198" height="198" viewBox="0 0 198 198" fill="none" xmlns="http://www.w3.org/2000/svg">
<g filter="url(#filter0_dd)">
<rect x="16" y="16" width="166" height="166" rx="10" fill="#E9B3AC"/>
</g>
<path d="M120.667 51.1667C120.667 57.0456 118.331 62.6838 114.174 66.8409C110.017 70.9979 104.379 73.3333 98.5 73.3333C92.621 73.3333 86.9829 70.9979 82.8258 66.8409C78.6687 62.6838 76.3333 57.0456 76.3333 51.1667C76.3333 45.2877 78.6687 39.6495 82.8258 35.4925C86.9829 31.3354 92.621 29 98.5 29C104.379 29 110.017 31.3354 114.174 35.4925C118.331 39.6495 120.667 45.2877 120.667 51.1667V51.1667ZM157.611 65.9444C157.611 69.8638 156.054 73.6225 153.283 76.3939C150.511 79.1653 146.753 80.7222 142.833 80.7222C138.914 80.7222 135.155 79.1653 132.384 76.3939C129.612 73.6225 128.056 69.8638 128.056 65.9444C128.056 62.0251 129.612 58.2663 132.384 55.495C135.155 52.7236 138.914 51.1667 142.833 51.1667C146.753 51.1667 150.511 52.7236 153.283 55.495C156.054 58.2663 157.611 62.0251 157.611 65.9444V65.9444ZM128.056 117.667C128.056 109.828 124.942 102.31 119.399 96.7677C113.856 91.225 106.339 88.1111 98.5 88.1111C90.6614 88.1111 83.1438 91.225 77.6011 96.7677C72.0583 102.31 68.9444 109.828 68.9444 117.667V139.833H128.056V117.667ZM68.9444 65.9444C68.9444 69.8638 67.3875 73.6225 64.6161 76.3939C61.8448 79.1653 58.086 80.7222 54.1667 80.7222C50.2474 80.7222 46.4886 79.1653 43.7172 76.3939C40.9458 73.6225 39.3889 69.8638 39.3889 65.9444C39.3889 62.0251 40.9458 58.2663 43.7172 55.495C46.4886 52.7236 50.2474 51.1667 54.1667 51.1667C58.086 51.1667 61.8448 52.7236 64.6161 55.495C67.3875 58.2663 68.9444 62.0251 68.9444 65.9444V65.9444ZM142.833 139.833V117.667C142.844 110.154 140.937 102.764 137.292 96.1946C140.568 95.3562 143.992 95.2772 147.303 95.9634C150.614 96.6497 153.724 98.0831 156.397 100.154C159.07 102.226 161.234 104.88 162.725 107.915C164.216 110.95 164.994 114.285 165 117.667V139.833H142.833ZM59.7083 96.1946C56.0637 102.764 54.1563 110.154 54.1667 117.667V139.833H32V117.667C31.9986 114.283 32.7719 110.944 34.2606 107.905C35.7493 104.866 37.914 102.209 40.5887 100.136C43.2634 98.0632 46.3772 96.6303 49.6913 95.9472C53.0054 95.264 56.432 95.3486 59.7083 96.1946V96.1946Z" fill="white"/>
<path d="M38.5567 167.325C38.5567 167.375 38.5317 167.725 38.4817 168.375H28.3067C28.49 169.208 28.9233 169.867 29.6067 170.35C30.29 170.833 31.14 171.075 32.1567 171.075C32.8567 171.075 33.4733 170.975 34.0067 170.775C34.5567 170.558 35.065 170.225 35.5317 169.775L37.6067 172.025C36.34 173.475 34.49 174.2 32.0567 174.2C30.54 174.2 29.1983 173.908 28.0317 173.325C26.865 172.725 25.965 171.9 25.3317 170.85C24.6983 169.8 24.3817 168.608 24.3817 167.275C24.3817 165.958 24.69 164.775 25.3067 163.725C25.94 162.658 26.7983 161.833 27.8817 161.25C28.9817 160.65 30.2067 160.35 31.5567 160.35C32.8733 160.35 34.065 160.633 35.1317 161.2C36.1983 161.767 37.0317 162.583 37.6317 163.65C38.2483 164.7 38.5567 165.925 38.5567 167.325ZM31.5817 163.3C30.6983 163.3 29.9567 163.55 29.3567 164.05C28.7567 164.55 28.39 165.233 28.2567 166.1H34.8817C34.7483 165.25 34.3817 164.575 33.7817 164.075C33.1817 163.558 32.4483 163.3 31.5817 163.3ZM54.4431 155.45V174H50.7181V172.45C49.7515 173.617 48.3515 174.2 46.5181 174.2C45.2515 174.2 44.1015 173.917 43.0681 173.35C42.0515 172.783 41.2515 171.975 40.6681 170.925C40.0848 169.875 39.7931 168.658 39.7931 167.275C39.7931 165.892 40.0848 164.675 40.6681 163.625C41.2515 162.575 42.0515 161.767 43.0681 161.2C44.1015 160.633 45.2515 160.35 46.5181 160.35C48.2348 160.35 49.5765 160.892 50.5431 161.975V155.45H54.4431ZM47.1931 171C48.1765 171 48.9931 170.667 49.6431 170C50.2931 169.317 50.6181 168.408 50.6181 167.275C50.6181 166.142 50.2931 165.242 49.6431 164.575C48.9931 163.892 48.1765 163.55 47.1931 163.55C46.1931 163.55 45.3681 163.892 44.7181 164.575C44.0681 165.242 43.7431 166.142 43.7431 167.275C43.7431 168.408 44.0681 169.317 44.7181 170C45.3681 170.667 46.1931 171 47.1931 171ZM57.6427 160.55H61.5427V174H57.6427V160.55ZM59.5927 158.675C58.876 158.675 58.2927 158.467 57.8427 158.05C57.3927 157.633 57.1677 157.117 57.1677 156.5C57.1677 155.883 57.3927 155.367 57.8427 154.95C58.2927 154.533 58.876 154.325 59.5927 154.325C60.3094 154.325 60.8927 154.525 61.3427 154.925C61.7927 155.325 62.0177 155.825 62.0177 156.425C62.0177 157.075 61.7927 157.617 61.3427 158.05C60.8927 158.467 60.3094 158.675 59.5927 158.675ZM73.4272 173.35C73.0439 173.633 72.5689 173.85 72.0022 174C71.4522 174.133 70.8689 174.2 70.2522 174.2C68.6522 174.2 67.4106 173.792 66.5272 172.975C65.6606 172.158 65.2272 170.958 65.2272 169.375V163.85H63.1522V160.85H65.2272V157.575H69.1272V160.85H72.4772V163.85H69.1272V169.325C69.1272 169.892 69.2689 170.333 69.5522 170.65C69.8522 170.95 70.2689 171.1 70.8022 171.1C71.4189 171.1 71.9439 170.933 72.3772 170.6L73.4272 173.35ZM86.4016 174.2C85.2849 174.2 84.1933 174.067 83.1266 173.8C82.0599 173.517 81.2099 173.167 80.5766 172.75L81.8766 169.95C82.4766 170.333 83.2016 170.65 84.0516 170.9C84.9016 171.133 85.7349 171.25 86.5516 171.25C88.2016 171.25 89.0266 170.842 89.0266 170.025C89.0266 169.642 88.8016 169.367 88.3516 169.2C87.9016 169.033 87.2099 168.892 86.2766 168.775C85.1766 168.608 84.2683 168.417 83.5516 168.2C82.8349 167.983 82.2099 167.6 81.6766 167.05C81.1599 166.5 80.9016 165.717 80.9016 164.7C80.9016 163.85 81.1433 163.1 81.6266 162.45C82.1266 161.783 82.8433 161.267 83.7766 160.9C84.7266 160.533 85.8433 160.35 87.1266 160.35C88.0766 160.35 89.0183 160.458 89.9516 160.675C90.9016 160.875 91.6849 161.158 92.3016 161.525L91.0016 164.3C89.8183 163.633 88.5266 163.3 87.1266 163.3C86.2933 163.3 85.6683 163.417 85.2516 163.65C84.8349 163.883 84.6266 164.183 84.6266 164.55C84.6266 164.967 84.8516 165.258 85.3016 165.425C85.7516 165.592 86.4683 165.75 87.4516 165.9C88.5516 166.083 89.4516 166.283 90.1516 166.5C90.8516 166.7 91.4599 167.075 91.9766 167.625C92.4933 168.175 92.7516 168.942 92.7516 169.925C92.7516 170.758 92.5016 171.5 92.0016 172.15C91.5016 172.8 90.7683 173.308 89.8016 173.675C88.8516 174.025 87.7183 174.2 86.4016 174.2ZM107.923 167.325C107.923 167.375 107.898 167.725 107.848 168.375H97.6728C97.8562 169.208 98.2895 169.867 98.9728 170.35C99.6562 170.833 100.506 171.075 101.523 171.075C102.223 171.075 102.839 170.975 103.373 170.775C103.923 170.558 104.431 170.225 104.898 169.775L106.973 172.025C105.706 173.475 103.856 174.2 101.423 174.2C99.9062 174.2 98.5645 173.908 97.3978 173.325C96.2312 172.725 95.3312 171.9 94.6978 170.85C94.0645 169.8 93.7478 168.608 93.7478 167.275C93.7478 165.958 94.0562 164.775 94.6728 163.725C95.3062 162.658 96.1645 161.833 97.2478 161.25C98.3478 160.65 99.5728 160.35 100.923 160.35C102.239 160.35 103.431 160.633 104.498 161.2C105.564 161.767 106.398 162.583 106.998 163.65C107.614 164.7 107.923 165.925 107.923 167.325ZM100.948 163.3C100.064 163.3 99.3228 163.55 98.7228 164.05C98.1228 164.55 97.7562 165.233 97.6228 166.1H104.248C104.114 165.25 103.748 164.575 103.148 164.075C102.548 163.558 101.814 163.3 100.948 163.3ZM114.634 174.2C113.518 174.2 112.426 174.067 111.359 173.8C110.293 173.517 109.443 173.167 108.809 172.75L110.109 169.95C110.709 170.333 111.434 170.65 112.284 170.9C113.134 171.133 113.968 171.25 114.784 171.25C116.434 171.25 117.259 170.842 117.259 170.025C117.259 169.642 117.034 169.367 116.584 169.2C116.134 169.033 115.443 168.892 114.509 168.775C113.409 168.608 112.501 168.417 111.784 168.2C111.068 167.983 110.443 167.6 109.909 167.05C109.393 166.5 109.134 165.717 109.134 164.7C109.134 163.85 109.376 163.1 109.859 162.45C110.359 161.783 111.076 161.267 112.009 160.9C112.959 160.533 114.076 160.35 115.359 160.35C116.309 160.35 117.251 160.458 118.184 160.675C119.134 160.875 119.918 161.158 120.534 161.525L119.234 164.3C118.051 163.633 116.759 163.3 115.359 163.3C114.526 163.3 113.901 163.417 113.484 163.65C113.068 163.883 112.859 164.183 112.859 164.55C112.859 164.967 113.084 165.258 113.534 165.425C113.984 165.592 114.701 165.75 115.684 165.9C116.784 166.083 117.684 166.283 118.384 166.5C119.084 166.7 119.693 167.075 120.209 167.625C120.726 168.175 120.984 168.942 120.984 169.925C120.984 170.758 120.734 171.5 120.234 172.15C119.734 172.8 119.001 173.308 118.034 173.675C117.084 174.025 115.951 174.2 114.634 174.2ZM127.506 174.2C126.389 174.2 125.297 174.067 124.231 173.8C123.164 173.517 122.314 173.167 121.681 172.75L122.981 169.95C123.581 170.333 124.306 170.65 125.156 170.9C126.006 171.133 126.839 171.25 127.656 171.25C129.306 171.25 130.131 170.842 130.131 170.025C130.131 169.642 129.906 169.367 129.456 169.2C129.006 169.033 128.314 168.892 127.381 168.775C126.281 168.608 125.372 168.417 124.656 168.2C123.939 167.983 123.314 167.6 122.781 167.05C122.264 166.5 122.006 165.717 122.006 164.7C122.006 163.85 122.247 163.1 122.731 162.45C123.231 161.783 123.947 161.267 124.881 160.9C125.831 160.533 126.947 160.35 128.231 160.35C129.181 160.35 130.122 160.458 131.056 160.675C132.006 160.875 132.789 161.158 133.406 161.525L132.106 164.3C130.922 163.633 129.631 163.3 128.231 163.3C127.397 163.3 126.772 163.417 126.356 163.65C125.939 163.883 125.731 164.183 125.731 164.55C125.731 164.967 125.956 165.258 126.406 165.425C126.856 165.592 127.572 165.75 128.556 165.9C129.656 166.083 130.556 166.283 131.256 166.5C131.956 166.7 132.564 167.075 133.081 167.625C133.597 168.175 133.856 168.942 133.856 169.925C133.856 170.758 133.606 171.5 133.106 172.15C132.606 172.8 131.872 173.308 130.906 173.675C129.956 174.025 128.822 174.2 127.506 174.2ZM135.852 160.55H139.752V174H135.852V160.55ZM137.802 158.675C137.085 158.675 136.502 158.467 136.052 158.05C135.602 157.633 135.377 157.117 135.377 156.5C135.377 155.883 135.602 155.367 136.052 154.95C136.502 154.533 137.085 154.325 137.802 154.325C138.518 154.325 139.102 154.525 139.552 154.925C140.002 155.325 140.227 155.825 140.227 156.425C140.227 157.075 140.002 157.617 139.552 158.05C139.102 158.467 138.518 158.675 137.802 158.675ZM149.361 174.2C147.945 174.2 146.67 173.908 145.536 173.325C144.42 172.725 143.545 171.9 142.911 170.85C142.278 169.8 141.961 168.608 141.961 167.275C141.961 165.942 142.278 164.75 142.911 163.7C143.545 162.65 144.42 161.833 145.536 161.25C146.67 160.65 147.945 160.35 149.361 160.35C150.778 160.35 152.045 160.65 153.161 161.25C154.278 161.833 155.153 162.65 155.786 163.7C156.42 164.75 156.736 165.942 156.736 167.275C156.736 168.608 156.42 169.8 155.786 170.85C155.153 171.9 154.278 172.725 153.161 173.325C152.045 173.908 150.778 174.2 149.361 174.2ZM149.361 171C150.361 171 151.178 170.667 151.811 170C152.461 169.317 152.786 168.408 152.786 167.275C152.786 166.142 152.461 165.242 151.811 164.575C151.178 163.892 150.361 163.55 149.361 163.55C148.361 163.55 147.536 163.892 146.886 164.575C146.236 165.242 145.911 166.142 145.911 167.275C145.911 168.408 146.236 169.317 146.886 170C147.536 170.667 148.361 171 149.361 171ZM167.108 160.35C168.775 160.35 170.117 160.85 171.133 161.85C172.167 162.85 172.683 164.333 172.683 166.3V174H168.783V166.9C168.783 165.833 168.55 165.042 168.083 164.525C167.617 163.992 166.942 163.725 166.058 163.725C165.075 163.725 164.292 164.033 163.708 164.65C163.125 165.25 162.833 166.15 162.833 167.35V174H158.933V160.55H162.658V162.125C163.175 161.558 163.817 161.125 164.583 160.825C165.35 160.508 166.192 160.35 167.108 160.35Z" fill="white"/>
<defs>
<filter id="filter0_dd" x="0" y="0" width="198" height="198" filterUnits="userSpaceOnUse" color-interpolation-filters="sRGB">
<feFlood flood-opacity="0" result="BackgroundImageFix"/>
<feColorMatrix in="SourceAlpha" type="matrix" values="0 0 0 0 0 0 0 0 0 0 0 0 0 0 0 0 0 0 127 0"/>
<feOffset dx="-4" dy="-4"/>
<feGaussianBlur stdDeviation="6"/>
<feColorMatrix type="matrix" values="0 0 0 0 1 0 0 0 0 1 0 0 0 0 1 0 0 0 0.5 0"/>
<feBlend mode="normal" in2="BackgroundImageFix" result="effect1_dropShadow"/>
<feColorMatrix in="SourceAlpha" type="matrix" values="0 0 0 0 0 0 0 0 0 0 0 0 0 0 0 0 0 0 127 0"/>
<feOffset dx="4" dy="4"/>
<feGaussianBlur stdDeviation="6"/>
<feColorMatrix type="matrix" values="0 0 0 0 0 0 0 0 0 0 0 0 0 0 0 0 0 0 0.25 0"/>
<feBlend mode="normal" in2="effect1_dropShadow" result="effect2_dropShadow"/>
<feBlend mode="normal" in="SourceGraphic" in2="effect2_dropShadow" result="shape"/>
</filter>
</defs>
</svg>
