<svg width="169" height="169" viewBox="0 0 169 169" fill="none" xmlns="http://www.w3.org/2000/svg">
<g filter="url(#filter0_dd)">
<rect x="16.4592" y="16" width="136.081" height="137" rx="10" fill="#F9BE7F"/>
</g>
<path d="M31.5271 141.194C31.5271 141.23 31.5091 141.482 31.4731 141.95H24.1471C24.2791 142.55 24.5911 143.024 25.0831 143.372C25.5751 143.72 26.1871 143.894 26.9191 143.894C27.4231 143.894 27.8671 143.822 28.2511 143.678C28.6471 143.522 29.0131 143.282 29.3491 142.958L30.8431 144.578C29.9311 145.622 28.5991 146.144 26.8471 146.144C25.7551 146.144 24.7891 145.934 23.9491 145.514C23.1091 145.082 22.4611 144.488 22.0051 143.732C21.5491 142.976 21.3211 142.118 21.3211 141.158C21.3211 140.21 21.5431 139.358 21.9871 138.602C22.4431 137.834 23.0611 137.24 23.8411 136.82C24.6331 136.388 25.5151 136.172 26.4871 136.172C27.4351 136.172 28.2931 136.376 29.0611 136.784C29.8291 137.192 30.4291 137.78 30.8611 138.548C31.3051 139.304 31.5271 140.186 31.5271 141.194ZM26.5051 138.296C25.8691 138.296 25.3351 138.476 24.9031 138.836C24.4711 139.196 24.2071 139.688 24.1111 140.312H28.8811C28.7851 139.7 28.5211 139.214 28.0891 138.854C27.6571 138.482 27.1291 138.296 26.5051 138.296ZM42.8505 132.644V146H40.1685V144.884C39.4725 145.724 38.4645 146.144 37.1445 146.144C36.2325 146.144 35.4045 145.94 34.6605 145.532C33.9285 145.124 33.3525 144.542 32.9325 143.786C32.5125 143.03 32.3025 142.154 32.3025 141.158C32.3025 140.162 32.5125 139.286 32.9325 138.53C33.3525 137.774 33.9285 137.192 34.6605 136.784C35.4045 136.376 36.2325 136.172 37.1445 136.172C38.3805 136.172 39.3465 136.562 40.0425 137.342V132.644H42.8505ZM37.6305 143.84C38.3385 143.84 38.9265 143.6 39.3945 143.12C39.8625 142.628 40.0965 141.974 40.0965 141.158C40.0965 140.342 39.8625 139.694 39.3945 139.214C38.9265 138.722 38.3385 138.476 37.6305 138.476C36.9105 138.476 36.3165 138.722 35.8485 139.214C35.3805 139.694 35.1465 140.342 35.1465 141.158C35.1465 141.974 35.3805 142.628 35.8485 143.12C36.3165 143.6 36.9105 143.84 37.6305 143.84ZM45.0394 136.316H47.8474V146H45.0394V136.316ZM46.4434 134.966C45.9274 134.966 45.5074 134.816 45.1834 134.516C44.8594 134.216 44.6974 133.844 44.6974 133.4C44.6974 132.956 44.8594 132.584 45.1834 132.284C45.5074 131.984 45.9274 131.834 46.4434 131.834C46.9594 131.834 47.3794 131.978 47.7034 132.266C48.0274 132.554 48.1894 132.914 48.1894 133.346C48.1894 133.814 48.0274 134.204 47.7034 134.516C47.3794 134.816 46.9594 134.966 46.4434 134.966ZM56.2895 145.532C56.0135 145.736 55.6715 145.892 55.2635 146C54.8675 146.096 54.4475 146.144 54.0035 146.144C52.8515 146.144 51.9575 145.85 51.3215 145.262C50.6975 144.674 50.3855 143.81 50.3855 142.67V138.692H48.8915V136.532H50.3855V134.174H53.1935V136.532H55.6055V138.692H53.1935V142.634C53.1935 143.042 53.2955 143.36 53.4995 143.588C53.7155 143.804 54.0155 143.912 54.3995 143.912C54.8435 143.912 55.2215 143.792 55.5335 143.552L56.2895 145.532ZM64.8254 137.594C65.1614 137.126 65.6114 136.772 66.1754 136.532C66.7514 136.292 67.4114 136.172 68.1554 136.172V138.764C67.8434 138.74 67.6334 138.728 67.5254 138.728C66.7214 138.728 66.0914 138.956 65.6354 139.412C65.1794 139.856 64.9514 140.528 64.9514 141.428V146H62.1434V136.316H64.8254V137.594ZM78.8132 141.194C78.8132 141.23 78.7952 141.482 78.7592 141.95H71.4332C71.5652 142.55 71.8772 143.024 72.3692 143.372C72.8612 143.72 73.4732 143.894 74.2052 143.894C74.7092 143.894 75.1532 143.822 75.5372 143.678C75.9332 143.522 76.2992 143.282 76.6352 142.958L78.1292 144.578C77.2172 145.622 75.8852 146.144 74.1332 146.144C73.0412 146.144 72.0752 145.934 71.2352 145.514C70.3952 145.082 69.7472 144.488 69.2912 143.732C68.8352 142.976 68.6072 142.118 68.6072 141.158C68.6072 140.21 68.8292 139.358 69.2732 138.602C69.7292 137.834 70.3472 137.24 71.1272 136.82C71.9192 136.388 72.8012 136.172 73.7732 136.172C74.7212 136.172 75.5792 136.376 76.3472 136.784C77.1152 137.192 77.7152 137.78 78.1472 138.548C78.5912 139.304 78.8132 140.186 78.8132 141.194ZM73.7912 138.296C73.1552 138.296 72.6212 138.476 72.1892 138.836C71.7572 139.196 71.4932 139.688 71.3972 140.312H76.1672C76.0712 139.7 75.8072 139.214 75.3752 138.854C74.9432 138.482 74.4152 138.296 73.7912 138.296ZM83.5306 146.144C82.7266 146.144 81.9406 146.048 81.1726 145.856C80.4046 145.652 79.7926 145.4 79.3366 145.1L80.2726 143.084C80.7046 143.36 81.2266 143.588 81.8386 143.768C82.4506 143.936 83.0506 144.02 83.6386 144.02C84.8266 144.02 85.4206 143.726 85.4206 143.138C85.4206 142.862 85.2586 142.664 84.9346 142.544C84.6106 142.424 84.1126 142.322 83.4406 142.238C82.6486 142.118 81.9946 141.98 81.4786 141.824C80.9626 141.668 80.5126 141.392 80.1286 140.996C79.7566 140.6 79.5706 140.036 79.5706 139.304C79.5706 138.692 79.7446 138.152 80.0926 137.684C80.4526 137.204 80.9686 136.832 81.6406 136.568C82.3246 136.304 83.1286 136.172 84.0526 136.172C84.7366 136.172 85.4146 136.25 86.0866 136.406C86.7706 136.55 87.3346 136.754 87.7786 137.018L86.8426 139.016C85.9906 138.536 85.0606 138.296 84.0526 138.296C83.4526 138.296 83.0026 138.38 82.7026 138.548C82.4026 138.716 82.2526 138.932 82.2526 139.196C82.2526 139.496 82.4146 139.706 82.7386 139.826C83.0626 139.946 83.5786 140.06 84.2866 140.168C85.0786 140.3 85.7266 140.444 86.2306 140.6C86.7346 140.744 87.1726 141.014 87.5446 141.41C87.9166 141.806 88.1026 142.358 88.1026 143.066C88.1026 143.666 87.9226 144.2 87.5626 144.668C87.2026 145.136 86.6746 145.502 85.9786 145.766C85.2946 146.018 84.4786 146.144 83.5306 146.144ZM94.0331 146.144C93.0131 146.144 92.0951 145.934 91.2791 145.514C90.4751 145.082 89.8451 144.488 89.3891 143.732C88.9331 142.976 88.7051 142.118 88.7051 141.158C88.7051 140.198 88.9331 139.34 89.3891 138.584C89.8451 137.828 90.4751 137.24 91.2791 136.82C92.0951 136.388 93.0131 136.172 94.0331 136.172C95.0531 136.172 95.9651 136.388 96.7691 136.82C97.5731 137.24 98.2031 137.828 98.6591 138.584C99.1151 139.34 99.3431 140.198 99.3431 141.158C99.3431 142.118 99.1151 142.976 98.6591 143.732C98.2031 144.488 97.5731 145.082 96.7691 145.514C95.9651 145.934 95.0531 146.144 94.0331 146.144ZM94.0331 143.84C94.7531 143.84 95.3411 143.6 95.7971 143.12C96.2651 142.628 96.4991 141.974 96.4991 141.158C96.4991 140.342 96.2651 139.694 95.7971 139.214C95.3411 138.722 94.7531 138.476 94.0331 138.476C93.3131 138.476 92.7191 138.722 92.2511 139.214C91.7831 139.694 91.5491 140.342 91.5491 141.158C91.5491 141.974 91.7831 142.628 92.2511 143.12C92.7191 143.6 93.3131 143.84 94.0331 143.84ZM110.566 136.316V146H107.902V144.848C107.53 145.268 107.086 145.592 106.57 145.82C106.054 146.036 105.496 146.144 104.896 146.144C103.624 146.144 102.616 145.778 101.872 145.046C101.128 144.314 100.756 143.228 100.756 141.788V136.316H103.564V141.374C103.564 142.934 104.218 143.714 105.526 143.714C106.198 143.714 106.738 143.498 107.146 143.066C107.554 142.622 107.758 141.968 107.758 141.104V136.316H110.566ZM115.439 137.594C115.775 137.126 116.225 136.772 116.789 136.532C117.365 136.292 118.025 136.172 118.769 136.172V138.764C118.457 138.74 118.247 138.728 118.139 138.728C117.335 138.728 116.705 138.956 116.249 139.412C115.793 139.856 115.565 140.528 115.565 141.428V146H112.757V136.316H115.439V137.594ZM124.621 146.144C123.589 146.144 122.659 145.934 121.831 145.514C121.015 145.082 120.373 144.488 119.905 143.732C119.449 142.976 119.221 142.118 119.221 141.158C119.221 140.198 119.449 139.34 119.905 138.584C120.373 137.828 121.015 137.24 121.831 136.82C122.659 136.388 123.589 136.172 124.621 136.172C125.641 136.172 126.529 136.388 127.285 136.82C128.053 137.24 128.611 137.846 128.959 138.638L126.781 139.808C126.277 138.92 125.551 138.476 124.603 138.476C123.871 138.476 123.265 138.716 122.785 139.196C122.305 139.676 122.065 140.33 122.065 141.158C122.065 141.986 122.305 142.64 122.785 143.12C123.265 143.6 123.871 143.84 124.603 143.84C125.563 143.84 126.289 143.396 126.781 142.508L128.959 143.696C128.611 144.464 128.053 145.064 127.285 145.496C126.529 145.928 125.641 146.144 124.621 146.144ZM139.529 141.194C139.529 141.23 139.511 141.482 139.475 141.95H132.149C132.281 142.55 132.593 143.024 133.085 143.372C133.577 143.72 134.189 143.894 134.921 143.894C135.425 143.894 135.869 143.822 136.253 143.678C136.649 143.522 137.015 143.282 137.351 142.958L138.845 144.578C137.933 145.622 136.601 146.144 134.849 146.144C133.757 146.144 132.791 145.934 131.951 145.514C131.111 145.082 130.463 144.488 130.007 143.732C129.551 142.976 129.323 142.118 129.323 141.158C129.323 140.21 129.545 139.358 129.989 138.602C130.445 137.834 131.063 137.24 131.843 136.82C132.635 136.388 133.517 136.172 134.489 136.172C135.437 136.172 136.295 136.376 137.063 136.784C137.831 137.192 138.431 137.78 138.863 138.548C139.307 139.304 139.529 140.186 139.529 141.194ZM134.507 138.296C133.871 138.296 133.337 138.476 132.905 138.836C132.473 139.196 132.209 139.688 132.113 140.312H136.883C136.787 139.7 136.523 139.214 136.091 138.854C135.659 138.482 135.131 138.296 134.507 138.296ZM144.246 146.144C143.442 146.144 142.656 146.048 141.888 145.856C141.12 145.652 140.508 145.4 140.052 145.1L140.988 143.084C141.42 143.36 141.942 143.588 142.554 143.768C143.166 143.936 143.766 144.02 144.354 144.02C145.542 144.02 146.136 143.726 146.136 143.138C146.136 142.862 145.974 142.664 145.65 142.544C145.326 142.424 144.828 142.322 144.156 142.238C143.364 142.118 142.71 141.98 142.194 141.824C141.678 141.668 141.228 141.392 140.844 140.996C140.472 140.6 140.286 140.036 140.286 139.304C140.286 138.692 140.46 138.152 140.808 137.684C141.168 137.204 141.684 136.832 142.356 136.568C143.04 136.304 143.844 136.172 144.768 136.172C145.452 136.172 146.13 136.25 146.802 136.406C147.486 136.55 148.05 136.754 148.494 137.018L147.558 139.016C146.706 138.536 145.776 138.296 144.768 138.296C144.168 138.296 143.718 138.38 143.418 138.548C143.118 138.716 142.968 138.932 142.968 139.196C142.968 139.496 143.13 139.706 143.454 139.826C143.778 139.946 144.294 140.06 145.002 140.168C145.794 140.3 146.442 140.444 146.946 140.6C147.45 140.744 147.888 141.014 148.26 141.41C148.632 141.806 148.818 142.358 148.818 143.066C148.818 143.666 148.638 144.2 148.278 144.668C147.918 145.136 147.39 145.502 146.694 145.766C146.01 146.018 145.194 146.144 144.246 146.144Z" fill="white"/>
<path d="M127.877 41.9386H146.813V24.0373C146.813 22.6269 145.68 21.48 144.286 21.48H127.861C126.338 21.48 124.071 22.5016 124.071 25.316V43.2173C124.071 46.0317 126.338 47.0533 127.861 47.0533H146.813V44.496H127.877C127.293 44.4806 126.598 44.2479 126.598 43.2173C126.598 43.0882 126.609 42.9731 126.628 42.8682C126.77 42.1317 127.366 41.9514 127.877 41.9386ZM131.207 28.6942C131.733 28.1688 132.442 27.8741 133.181 27.8741C133.92 27.8741 134.629 28.1688 135.155 28.6942L135.438 28.9742L135.72 28.6942C136.246 28.1687 136.956 27.874 137.695 27.874C138.434 27.874 139.143 28.1687 139.669 28.6942C139.93 28.9482 140.138 29.2529 140.28 29.5901C140.422 29.9272 140.495 30.2899 140.495 30.6563C140.495 31.0228 140.422 31.3854 140.28 31.7226C140.138 32.0597 139.93 32.3644 139.669 32.6184L135.439 36.824L131.208 32.6184C130.947 32.3646 130.739 32.06 130.597 31.7229C130.455 31.3858 130.382 31.0231 130.382 30.6566C130.382 30.2901 130.455 29.9274 130.596 29.5902C130.738 29.253 130.946 28.9482 131.207 28.6942Z" fill="white"/>
<path d="M85.1129 51C78.366 51 71.7706 53.0087 66.1608 56.7722C60.551 60.5356 56.1786 65.8847 53.5967 72.1431C51.0148 78.4015 50.3392 85.288 51.6555 91.9318C52.9717 98.5757 56.2207 104.678 60.9915 109.468C65.7622 114.258 71.8406 117.52 78.4578 118.842C85.0751 120.163 91.934 119.485 98.1674 116.893C104.401 114.301 109.728 109.911 113.477 104.278C117.225 98.6459 119.226 92.024 119.226 85.25C119.226 80.7522 118.343 76.2985 116.629 72.1431C114.915 67.9877 112.402 64.212 109.234 61.0316C106.067 57.8512 102.306 55.3283 98.1674 53.6071C94.0286 51.8859 89.5927 51 85.1129 51V51ZM85.1129 112.65C79.7154 112.65 74.4391 111.043 69.9512 108.032C65.4634 105.021 61.9655 100.742 59.8999 95.7355C57.8344 90.7288 57.294 85.2196 58.347 79.9045C59.4 74.5894 61.9991 69.7072 65.8157 65.8753C69.6324 62.0433 74.495 59.4337 79.7888 58.3765C85.0826 57.3192 90.5698 57.8619 95.5565 59.9357C100.543 62.0095 104.805 65.5215 107.804 70.0274C110.803 74.5333 112.403 79.8308 112.403 85.25C112.403 92.5169 109.528 99.4862 104.41 104.625C99.2922 109.763 92.3508 112.65 85.1129 112.65V112.65Z" fill="white"/>
<path d="M95.3468 81.825H74.8791C73.9743 81.825 73.1067 82.1858 72.4669 82.8281C71.8272 83.4704 71.4678 84.3416 71.4678 85.25C71.4678 86.1583 71.8272 87.0295 72.4669 87.6718C73.1067 88.3141 73.9743 88.6749 74.8791 88.6749H95.3468C96.2515 88.6749 97.1192 88.3141 97.7589 87.6718C98.3987 87.0295 98.7581 86.1583 98.7581 85.25C98.7581 84.3416 98.3987 83.4704 97.7589 82.8281C97.1192 82.1858 96.2515 81.825 95.3468 81.825Z" fill="white"/>
<defs>
<filter id="filter0_dd" x="0.459229" y="0" width="168.081" height="169" filterUnits="userSpaceOnUse" color-interpolation-filters="sRGB">
<feFlood flood-opacity="0" result="BackgroundImageFix"/>
<feColorMatrix in="SourceAlpha" type="matrix" values="0 0 0 0 0 0 0 0 0 0 0 0 0 0 0 0 0 0 127 0"/>
<feOffset dx="-4" dy="-4"/>
<feGaussianBlur stdDeviation="6"/>
<feColorMatrix type="matrix" values="0 0 0 0 1 0 0 0 0 1 0 0 0 0 1 0 0 0 0.5 0"/>
<feBlend mode="normal" in2="BackgroundImageFix" result="effect1_dropShadow"/>
<feColorMatrix in="SourceAlpha" type="matrix" values="0 0 0 0 0 0 0 0 0 0 0 0 0 0 0 0 0 0 127 0"/>
<feOffset dx="4" dy="4"/>
<feGaussianBlur stdDeviation="6"/>
<feColorMatrix type="matrix" values="0 0 0 0 0 0 0 0 0 0 0 0 0 0 0 0 0 0 0.25 0"/>
<feBlend mode="normal" in2="effect1_dropShadow" result="effect2_dropShadow"/>
<feBlend mode="normal" in="SourceGraphic" in2="effect2_dropShadow" result="shape"/>
</filter>
</defs>
</svg>
