<svg width="198" height="198" viewBox="0 0 198 198" fill="none" xmlns="http://www.w3.org/2000/svg">
<g filter="url(#filter0_dd)">
<rect x="16" y="16" width="166" height="166" rx="10" fill="#F45D58"/>
</g>
<path d="M80.5983 154.403C82.265 154.403 83.6066 154.903 84.6233 155.903C85.6566 156.903 86.1733 158.387 86.1733 160.353V168.053H82.2733V160.953C82.2733 159.887 82.04 159.095 81.5733 158.578C81.1066 158.045 80.4316 157.778 79.5483 157.778C78.565 157.778 77.7816 158.087 77.1983 158.703C76.615 159.303 76.3233 160.203 76.3233 161.403V168.053H72.4233V149.503H76.3233V156.003C76.84 155.487 77.465 155.095 78.1983 154.828C78.9316 154.545 79.7316 154.403 80.5983 154.403ZM102.62 161.378C102.62 161.428 102.595 161.778 102.545 162.428H92.3699C92.5533 163.262 92.9866 163.92 93.6699 164.403C94.3533 164.887 95.2033 165.128 96.2199 165.128C96.9199 165.128 97.5366 165.028 98.0699 164.828C98.6199 164.612 99.1283 164.278 99.5949 163.828L101.67 166.078C100.403 167.528 98.5533 168.253 96.1199 168.253C94.6033 168.253 93.2616 167.962 92.0949 167.378C90.9283 166.778 90.0283 165.953 89.3949 164.903C88.7616 163.853 88.4449 162.662 88.4449 161.328C88.4449 160.012 88.7533 158.828 89.3699 157.778C90.0033 156.712 90.8616 155.887 91.9449 155.303C93.0449 154.703 94.2699 154.403 95.6199 154.403C96.9366 154.403 98.1283 154.687 99.1949 155.253C100.262 155.82 101.095 156.637 101.695 157.703C102.312 158.753 102.62 159.978 102.62 161.378ZM95.6449 157.353C94.7616 157.353 94.0199 157.603 93.4199 158.103C92.8199 158.603 92.4533 159.287 92.3199 160.153H98.9449C98.8116 159.303 98.4449 158.628 97.8449 158.128C97.2449 157.612 96.5116 157.353 95.6449 157.353ZM104.806 149.503H108.706V168.053H104.806V149.503ZM119.866 154.403C121.116 154.403 122.249 154.695 123.266 155.278C124.299 155.845 125.108 156.653 125.691 157.703C126.274 158.737 126.566 159.945 126.566 161.328C126.566 162.712 126.274 163.928 125.691 164.978C125.108 166.012 124.299 166.82 123.266 167.403C122.249 167.97 121.116 168.253 119.866 168.253C118.149 168.253 116.799 167.712 115.816 166.628V172.903H111.916V154.603H115.641V156.153C116.608 154.987 118.016 154.403 119.866 154.403ZM119.191 165.053C120.191 165.053 121.008 164.72 121.641 164.053C122.291 163.37 122.616 162.462 122.616 161.328C122.616 160.195 122.291 159.295 121.641 158.628C121.008 157.945 120.191 157.603 119.191 157.603C118.191 157.603 117.366 157.945 116.716 158.628C116.083 159.295 115.766 160.195 115.766 161.328C115.766 162.462 116.083 163.37 116.716 164.053C117.366 164.72 118.191 165.053 119.191 165.053Z" fill="white"/>
<path d="M120.677 46.8349C114.635 42.4783 107.045 40.3 97.908 40.3C90.9597 40.3 85.0926 41.8317 80.3279 44.9004C72.7648 49.7022 68.7474 57.8589 68.2598 69.3599H85.7869C85.7869 66.005 86.7674 62.7879 88.7178 59.6715C90.6735 56.5657 93.9913 55.0128 98.6712 55.0128C103.431 55.0128 106.711 56.2742 108.497 58.7917C110.294 61.3198 111.19 64.1129 111.19 67.1763C111.19 69.8475 109.854 72.2908 108.238 74.5062C107.274 75.8816 106.091 77.0885 104.734 78.0784C104.734 78.0784 95.2315 84.1734 91.0604 89.0706C88.6436 91.9061 88.4263 96.162 88.209 102.257C88.1984 102.692 88.3627 103.593 89.8785 103.593H103.505C104.862 103.593 105.142 102.591 105.158 102.14C105.254 99.925 105.498 98.7855 105.906 97.5029C106.669 95.0808 108.757 92.9714 111.094 91.1482L115.917 87.8251C120.274 84.4278 123.745 81.6453 125.282 79.4617C127.901 75.8789 129.745 71.4587 129.745 66.2117C129.74 57.6522 126.719 51.2021 120.677 46.8349V46.8349ZM97.6271 114.097C91.5904 113.912 86.6084 118.093 86.4176 124.644C86.2321 131.184 90.965 135.515 97.007 135.689C103.309 135.875 108.158 131.836 108.354 125.286C108.534 118.735 103.934 114.283 97.6271 114.097V114.097Z" fill="white"/>
<defs>
<filter id="filter0_dd" x="0" y="0" width="198" height="198" filterUnits="userSpaceOnUse" color-interpolation-filters="sRGB">
<feFlood flood-opacity="0" result="BackgroundImageFix"/>
<feColorMatrix in="SourceAlpha" type="matrix" values="0 0 0 0 0 0 0 0 0 0 0 0 0 0 0 0 0 0 127 0"/>
<feOffset dx="-4" dy="-4"/>
<feGaussianBlur stdDeviation="6"/>
<feColorMatrix type="matrix" values="0 0 0 0 1 0 0 0 0 1 0 0 0 0 1 0 0 0 0.5 0"/>
<feBlend mode="normal" in2="BackgroundImageFix" result="effect1_dropShadow"/>
<feColorMatrix in="SourceAlpha" type="matrix" values="0 0 0 0 0 0 0 0 0 0 0 0 0 0 0 0 0 0 127 0"/>
<feOffset dx="4" dy="4"/>
<feGaussianBlur stdDeviation="6"/>
<feColorMatrix type="matrix" values="0 0 0 0 0 0 0 0 0 0 0 0 0 0 0 0 0 0 0.25 0"/>
<feBlend mode="normal" in2="effect1_dropShadow" result="effect2_dropShadow"/>
<feBlend mode="normal" in="SourceGraphic" in2="effect2_dropShadow" result="shape"/>
</filter>
</defs>
</svg>
