<svg width="185" height="185" viewBox="0 0 185 185" fill="none" xmlns="http://www.w3.org/2000/svg">
<g filter="url(#filter0_dd)">
<rect x="16" y="16" width="153" height="153" rx="10" fill="#F45D58"/>
</g>
<path d="M77.9016 143.08C79.235 143.08 80.3083 143.48 81.1216 144.28C81.9483 145.08 82.3616 146.267 82.3616 147.84V154H79.2416V148.32C79.2416 147.467 79.055 146.833 78.6816 146.42C78.3083 145.993 77.7683 145.78 77.0616 145.78C76.275 145.78 75.6483 146.027 75.1816 146.52C74.715 147 74.4816 147.72 74.4816 148.68V154H71.3616V139.16H74.4816V144.36C74.895 143.947 75.395 143.633 75.9816 143.42C76.5683 143.193 77.2083 143.08 77.9016 143.08ZM95.437 148.66C95.437 148.7 95.417 148.98 95.377 149.5H87.237C87.3836 150.167 87.7303 150.693 88.277 151.08C88.8236 151.467 89.5036 151.66 90.317 151.66C90.877 151.66 91.3703 151.58 91.797 151.42C92.237 151.247 92.6436 150.98 93.017 150.62L94.677 152.42C93.6636 153.58 92.1836 154.16 90.237 154.16C89.0236 154.16 87.9503 153.927 87.017 153.46C86.0836 152.98 85.3636 152.32 84.857 151.48C84.3503 150.64 84.097 149.687 84.097 148.62C84.097 147.567 84.3436 146.62 84.837 145.78C85.3436 144.927 86.0303 144.267 86.897 143.8C87.777 143.32 88.757 143.08 89.837 143.08C90.8903 143.08 91.8436 143.307 92.697 143.76C93.5503 144.213 94.217 144.867 94.697 145.72C95.1903 146.56 95.437 147.54 95.437 148.66ZM89.857 145.44C89.1503 145.44 88.557 145.64 88.077 146.04C87.597 146.44 87.3036 146.987 87.197 147.68H92.497C92.3903 147 92.097 146.46 91.617 146.06C91.137 145.647 90.5503 145.44 89.857 145.44ZM97.1041 139.16H100.224V154H97.1041V139.16ZM109.07 143.08C110.07 143.08 110.976 143.313 111.79 143.78C112.616 144.233 113.263 144.88 113.73 145.72C114.196 146.547 114.43 147.513 114.43 148.62C114.43 149.727 114.196 150.7 113.73 151.54C113.263 152.367 112.616 153.013 111.79 153.48C110.976 153.933 110.07 154.16 109.07 154.16C107.696 154.16 106.616 153.727 105.83 152.86V157.88H102.71V143.24H105.69V144.48C106.463 143.547 107.59 143.08 109.07 143.08ZM108.53 151.6C109.33 151.6 109.983 151.333 110.49 150.8C111.01 150.253 111.27 149.527 111.27 148.62C111.27 147.713 111.01 146.993 110.49 146.46C109.983 145.913 109.33 145.64 108.53 145.64C107.73 145.64 107.07 145.913 106.55 146.46C106.043 146.993 105.79 147.713 105.79 148.62C105.79 149.527 106.043 150.253 106.55 150.8C107.07 151.333 107.73 151.6 108.53 151.6Z" fill="white"/>
<path d="M114.677 36.8349C108.635 32.4783 101.045 30.3 91.908 30.3C84.9597 30.3 79.0926 31.8317 74.3279 34.9004C66.7648 39.7022 62.7474 47.8589 62.2598 59.3599H79.7869C79.7869 56.005 80.7674 52.7879 82.7178 49.6715C84.6735 46.5657 87.9913 45.0128 92.6712 45.0128C97.4306 45.0128 100.711 46.2742 102.497 48.7917C104.294 51.3198 105.19 54.1129 105.19 57.1763C105.19 59.8475 103.854 62.2908 102.238 64.5062C101.274 65.8815 100.091 67.0885 98.7344 68.0784C98.7344 68.0784 89.2315 74.1734 85.0604 79.0706C82.6436 81.9061 82.4263 86.162 82.209 92.257C82.1984 92.6916 82.3627 93.5926 83.8785 93.5926H97.5048C98.8616 93.5926 99.1425 92.5909 99.1584 92.1404C99.2538 89.925 99.4976 88.7855 99.9057 87.5029C100.669 85.0808 102.757 82.9714 105.094 81.1482L109.917 77.8251C114.274 74.4278 117.745 71.6453 119.282 69.4617C121.901 65.8789 123.745 61.4587 123.745 56.2117C123.74 47.6522 120.719 41.2021 114.677 36.8349ZM91.6271 104.097C85.5904 103.912 80.6084 108.093 80.4176 114.644C80.2321 121.184 84.965 125.514 91.007 125.689C97.3087 125.875 102.158 121.836 102.354 115.285C102.534 108.735 97.9341 104.283 91.6271 104.097Z" fill="white"/>
<defs>
<filter id="filter0_dd" x="0" y="0" width="185" height="185" filterUnits="userSpaceOnUse" color-interpolation-filters="sRGB">
<feFlood flood-opacity="0" result="BackgroundImageFix"/>
<feColorMatrix in="SourceAlpha" type="matrix" values="0 0 0 0 0 0 0 0 0 0 0 0 0 0 0 0 0 0 127 0"/>
<feOffset dx="-4" dy="-4"/>
<feGaussianBlur stdDeviation="6"/>
<feColorMatrix type="matrix" values="0 0 0 0 1 0 0 0 0 1 0 0 0 0 1 0 0 0 0.5 0"/>
<feBlend mode="normal" in2="BackgroundImageFix" result="effect1_dropShadow"/>
<feColorMatrix in="SourceAlpha" type="matrix" values="0 0 0 0 0 0 0 0 0 0 0 0 0 0 0 0 0 0 127 0"/>
<feOffset dx="4" dy="4"/>
<feGaussianBlur stdDeviation="6"/>
<feColorMatrix type="matrix" values="0 0 0 0 0 0 0 0 0 0 0 0 0 0 0 0 0 0 0.25 0"/>
<feBlend mode="normal" in2="effect1_dropShadow" result="effect2_dropShadow"/>
<feBlend mode="normal" in="SourceGraphic" in2="effect2_dropShadow" result="shape"/>
</filter>
</defs>
</svg>
