<svg width="198" height="198" viewBox="0 0 198 198" fill="none" xmlns="http://www.w3.org/2000/svg">
<g filter="url(#filter0_dd)">
<rect x="16" y="16" width="166" height="166" rx="10" fill="#177B7D"/>
</g>
<path fill-rule="evenodd" clip-rule="evenodd" d="M59.0625 125.75C59.0625 125.75 51 125.75 51 117.688C51 109.625 59.0625 85.4375 99.375 85.4375C139.688 85.4375 147.75 109.625 147.75 117.688C147.75 125.75 139.688 125.75 139.688 125.75H59.0625ZM99.375 77.375C105.79 77.375 111.942 74.8267 116.478 70.2906C121.014 65.7546 123.562 59.6024 123.562 53.1875C123.562 46.7726 121.014 40.6204 116.478 36.0844C111.942 31.5483 105.79 29 99.375 29C92.9601 29 86.8079 31.5483 82.2719 36.0844C77.7358 40.6204 75.1875 46.7726 75.1875 53.1875C75.1875 59.6024 77.7358 65.7546 82.2719 70.2906C86.8079 74.8267 92.9601 77.375 99.375 77.375V77.375Z" fill="white"/>
<path d="M66.44 154.35C67.69 154.35 68.8234 154.642 69.84 155.225C70.8734 155.792 71.6817 156.6 72.265 157.65C72.8484 158.683 73.14 159.892 73.14 161.275C73.14 162.658 72.8484 163.875 72.265 164.925C71.6817 165.958 70.8734 166.767 69.84 167.35C68.8234 167.917 67.69 168.2 66.44 168.2C64.7234 168.2 63.3734 167.658 62.39 166.575V172.85H58.49V154.55H62.215V156.1C63.1817 154.933 64.59 154.35 66.44 154.35ZM65.765 165C66.765 165 67.5817 164.667 68.215 164C68.865 163.317 69.19 162.408 69.19 161.275C69.19 160.142 68.865 159.242 68.215 158.575C67.5817 157.892 66.765 157.55 65.765 157.55C64.765 157.55 63.94 157.892 63.29 158.575C62.6567 159.242 62.34 160.142 62.34 161.275C62.34 162.408 62.6567 163.317 63.29 164C63.94 164.667 64.765 165 65.765 165ZM79.0658 156.325C79.5324 155.675 80.1574 155.183 80.9408 154.85C81.7408 154.517 82.6574 154.35 83.6908 154.35V157.95C83.2575 157.917 82.9658 157.9 82.8158 157.9C81.6991 157.9 80.8241 158.217 80.1908 158.85C79.5574 159.467 79.2408 160.4 79.2408 161.65V168H75.3408V154.55H79.0658V156.325ZM91.8777 168.2C90.461 168.2 89.186 167.908 88.0527 167.325C86.936 166.725 86.061 165.9 85.4277 164.85C84.7943 163.8 84.4777 162.608 84.4777 161.275C84.4777 159.942 84.7943 158.75 85.4277 157.7C86.061 156.65 86.936 155.833 88.0527 155.25C89.186 154.65 90.461 154.35 91.8777 154.35C93.2943 154.35 94.561 154.65 95.6777 155.25C96.7943 155.833 97.6693 156.65 98.3027 157.7C98.936 158.75 99.2527 159.942 99.2527 161.275C99.2527 162.608 98.936 163.8 98.3027 164.85C97.6693 165.9 96.7943 166.725 95.6777 167.325C94.561 167.908 93.2943 168.2 91.8777 168.2ZM91.8777 165C92.8777 165 93.6943 164.667 94.3277 164C94.9777 163.317 95.3027 162.408 95.3027 161.275C95.3027 160.142 94.9777 159.242 94.3277 158.575C93.6943 157.892 92.8777 157.55 91.8777 157.55C90.8777 157.55 90.0527 157.892 89.4027 158.575C88.7527 159.242 88.4277 160.142 88.4277 161.275C88.4277 162.408 88.7527 163.317 89.4027 164C90.0527 164.667 90.8777 165 91.8777 165ZM105.724 154.85H109.174V157.85H105.824V168H101.924V157.85H99.8495V154.85H101.924V154.25C101.924 152.717 102.374 151.5 103.274 150.6C104.191 149.7 105.474 149.25 107.124 149.25C107.708 149.25 108.258 149.317 108.774 149.45C109.308 149.567 109.749 149.742 110.099 149.975L109.074 152.8C108.624 152.483 108.099 152.325 107.499 152.325C106.316 152.325 105.724 152.975 105.724 154.275V154.85ZM113.124 154.55H117.024V168H113.124V154.55ZM115.074 152.675C114.358 152.675 113.774 152.467 113.324 152.05C112.874 151.633 112.649 151.117 112.649 150.5C112.649 149.883 112.874 149.367 113.324 148.95C113.774 148.533 114.358 148.325 115.074 148.325C115.791 148.325 116.374 148.525 116.824 148.925C117.274 149.325 117.499 149.825 117.499 150.425C117.499 151.075 117.274 151.617 116.824 152.05C116.374 152.467 115.791 152.675 115.074 152.675ZM120.229 149.45H124.129V168H120.229V149.45ZM140.513 161.325C140.513 161.375 140.488 161.725 140.438 162.375H130.263C130.447 163.208 130.88 163.867 131.563 164.35C132.247 164.833 133.097 165.075 134.113 165.075C134.813 165.075 135.43 164.975 135.963 164.775C136.513 164.558 137.022 164.225 137.488 163.775L139.563 166.025C138.297 167.475 136.447 168.2 134.013 168.2C132.497 168.2 131.155 167.908 129.988 167.325C128.822 166.725 127.922 165.9 127.288 164.85C126.655 163.8 126.338 162.608 126.338 161.275C126.338 159.958 126.647 158.775 127.263 157.725C127.897 156.658 128.755 155.833 129.838 155.25C130.938 154.65 132.163 154.35 133.513 154.35C134.83 154.35 136.022 154.633 137.088 155.2C138.155 155.767 138.988 156.583 139.588 157.65C140.205 158.7 140.513 159.925 140.513 161.325ZM133.538 157.3C132.655 157.3 131.913 157.55 131.313 158.05C130.713 158.55 130.347 159.233 130.213 160.1H136.838C136.705 159.25 136.338 158.575 135.738 158.075C135.138 157.558 134.405 157.3 133.538 157.3Z" fill="white"/>
<defs>
<filter id="filter0_dd" x="0" y="0" width="198" height="198" filterUnits="userSpaceOnUse" color-interpolation-filters="sRGB">
<feFlood flood-opacity="0" result="BackgroundImageFix"/>
<feColorMatrix in="SourceAlpha" type="matrix" values="0 0 0 0 0 0 0 0 0 0 0 0 0 0 0 0 0 0 127 0"/>
<feOffset dx="-4" dy="-4"/>
<feGaussianBlur stdDeviation="6"/>
<feColorMatrix type="matrix" values="0 0 0 0 1 0 0 0 0 1 0 0 0 0 1 0 0 0 0.5 0"/>
<feBlend mode="normal" in2="BackgroundImageFix" result="effect1_dropShadow"/>
<feColorMatrix in="SourceAlpha" type="matrix" values="0 0 0 0 0 0 0 0 0 0 0 0 0 0 0 0 0 0 127 0"/>
<feOffset dx="4" dy="4"/>
<feGaussianBlur stdDeviation="6"/>
<feColorMatrix type="matrix" values="0 0 0 0 0 0 0 0 0 0 0 0 0 0 0 0 0 0 0.25 0"/>
<feBlend mode="normal" in2="effect1_dropShadow" result="effect2_dropShadow"/>
<feBlend mode="normal" in="SourceGraphic" in2="effect2_dropShadow" result="shape"/>
</filter>
</defs>
</svg>
