<svg width="168" height="168" viewBox="0 0 168 168" fill="none" xmlns="http://www.w3.org/2000/svg">
<g filter="url(#filter0_dd)">
<rect x="16" y="16" width="136" height="136" rx="10" fill="#177B7D"/>
</g>
<path fill-rule="evenodd" clip-rule="evenodd" d="M50.7121 117.932C50.7121 117.932 44.1067 117.932 44.1067 111.326C44.1067 104.721 50.7121 84.9046 83.7392 84.9046C116.766 84.9046 123.372 104.721 123.372 111.326C123.372 117.932 116.766 117.932 116.766 117.932H50.7121ZM83.7392 78.2992C88.9948 78.2992 94.0352 76.2114 97.7514 72.4952C101.468 68.7789 103.555 63.7386 103.555 58.483C103.555 53.2274 101.468 48.187 97.7514 44.4707C94.0352 40.7545 88.9948 38.6667 83.7392 38.6667C78.4836 38.6667 73.4433 40.7545 69.727 44.4707C66.0107 48.187 63.923 53.2274 63.923 58.483C63.923 63.7386 66.0107 68.7789 69.727 72.4952C73.4433 76.2114 78.4836 78.2992 83.7392 78.2992Z" fill="white"/>
<path d="M60.8438 129.582C61.7438 129.582 62.5598 129.792 63.2918 130.212C64.0358 130.62 64.6178 131.202 65.0378 131.958C65.4578 132.702 65.6678 133.572 65.6678 134.568C65.6678 135.564 65.4578 136.44 65.0378 137.196C64.6178 137.94 64.0358 138.522 63.2918 138.942C62.5598 139.35 61.7438 139.554 60.8438 139.554C59.6078 139.554 58.6358 139.164 57.9278 138.384V142.902H55.1198V129.726H57.8018V130.842C58.4978 130.002 59.5118 129.582 60.8438 129.582ZM60.3578 137.25C61.0778 137.25 61.6658 137.01 62.1218 136.53C62.5898 136.038 62.8238 135.384 62.8238 134.568C62.8238 133.752 62.5898 133.104 62.1218 132.624C61.6658 132.132 61.0778 131.886 60.3578 131.886C59.6378 131.886 59.0438 132.132 58.5758 132.624C58.1198 133.104 57.8918 133.752 57.8918 134.568C57.8918 135.384 58.1198 136.038 58.5758 136.53C59.0438 137.01 59.6378 137.25 60.3578 137.25ZM69.8196 131.004C70.1556 130.536 70.6056 130.182 71.1696 129.942C71.7456 129.702 72.4056 129.582 73.1496 129.582V132.174C72.8376 132.15 72.6276 132.138 72.5196 132.138C71.7156 132.138 71.0856 132.366 70.6296 132.822C70.1736 133.266 69.9456 133.938 69.9456 134.838V139.41H67.1376V129.726H69.8196V131.004ZM78.9293 139.554C77.9093 139.554 76.9913 139.344 76.1753 138.924C75.3713 138.492 74.7413 137.898 74.2853 137.142C73.8293 136.386 73.6013 135.528 73.6013 134.568C73.6013 133.608 73.8293 132.75 74.2853 131.994C74.7413 131.238 75.3713 130.65 76.1753 130.23C76.9913 129.798 77.9093 129.582 78.9293 129.582C79.9493 129.582 80.8613 129.798 81.6653 130.23C82.4693 130.65 83.0993 131.238 83.5553 131.994C84.0113 132.75 84.2393 133.608 84.2393 134.568C84.2393 135.528 84.0113 136.386 83.5553 137.142C83.0993 137.898 82.4693 138.492 81.6653 138.924C80.8613 139.344 79.9493 139.554 78.9293 139.554ZM78.9293 137.25C79.6493 137.25 80.2373 137.01 80.6933 136.53C81.1613 136.038 81.3953 135.384 81.3953 134.568C81.3953 133.752 81.1613 133.104 80.6933 132.624C80.2373 132.132 79.6493 131.886 78.9293 131.886C78.2093 131.886 77.6153 132.132 77.1473 132.624C76.6793 133.104 76.4453 133.752 76.4453 134.568C76.4453 135.384 76.6793 136.038 77.1473 136.53C77.6153 137.01 78.2093 137.25 78.9293 137.25ZM88.7842 129.942H91.2682V132.102H88.8562V139.41H86.0482V132.102H84.5542V129.942H86.0482V129.51C86.0482 128.406 86.3722 127.53 87.0202 126.882C87.6802 126.234 88.6042 125.91 89.7922 125.91C90.2122 125.91 90.6082 125.958 90.9802 126.054C91.3642 126.138 91.6822 126.264 91.9342 126.432L91.1962 128.466C90.8722 128.238 90.4942 128.124 90.0622 128.124C89.2102 128.124 88.7842 128.592 88.7842 129.528V129.942ZM94.1122 129.726H96.9202V139.41H94.1122V129.726ZM95.5162 128.376C95.0002 128.376 94.5802 128.226 94.2562 127.926C93.9322 127.626 93.7702 127.254 93.7702 126.81C93.7702 126.366 93.9322 125.994 94.2562 125.694C94.5802 125.394 95.0002 125.244 95.5162 125.244C96.0322 125.244 96.4522 125.388 96.7762 125.676C97.1002 125.964 97.2622 126.324 97.2622 126.756C97.2622 127.224 97.1002 127.614 96.7762 127.926C96.4522 128.226 96.0322 128.376 95.5162 128.376ZM99.1126 126.054H101.921V139.41H99.1126V126.054ZM113.603 134.604C113.603 134.64 113.585 134.892 113.549 135.36H106.223C106.355 135.96 106.667 136.434 107.159 136.782C107.651 137.13 108.263 137.304 108.995 137.304C109.499 137.304 109.943 137.232 110.327 137.088C110.723 136.932 111.089 136.692 111.425 136.368L112.919 137.988C112.007 139.032 110.675 139.554 108.923 139.554C107.831 139.554 106.865 139.344 106.025 138.924C105.185 138.492 104.537 137.898 104.081 137.142C103.625 136.386 103.397 135.528 103.397 134.568C103.397 133.62 103.619 132.768 104.063 132.012C104.519 131.244 105.137 130.65 105.917 130.23C106.709 129.798 107.591 129.582 108.563 129.582C109.511 129.582 110.369 129.786 111.137 130.194C111.905 130.602 112.505 131.19 112.937 131.958C113.381 132.714 113.603 133.596 113.603 134.604ZM108.581 131.706C107.945 131.706 107.411 131.886 106.979 132.246C106.547 132.606 106.283 133.098 106.187 133.722H110.957C110.861 133.11 110.597 132.624 110.165 132.264C109.733 131.892 109.205 131.706 108.581 131.706Z" fill="white"/>
<defs>
<filter id="filter0_dd" x="0" y="0" width="168" height="168" filterUnits="userSpaceOnUse" color-interpolation-filters="sRGB">
<feFlood flood-opacity="0" result="BackgroundImageFix"/>
<feColorMatrix in="SourceAlpha" type="matrix" values="0 0 0 0 0 0 0 0 0 0 0 0 0 0 0 0 0 0 127 0"/>
<feOffset dx="-4" dy="-4"/>
<feGaussianBlur stdDeviation="6"/>
<feColorMatrix type="matrix" values="0 0 0 0 1 0 0 0 0 1 0 0 0 0 1 0 0 0 0.5 0"/>
<feBlend mode="normal" in2="BackgroundImageFix" result="effect1_dropShadow"/>
<feColorMatrix in="SourceAlpha" type="matrix" values="0 0 0 0 0 0 0 0 0 0 0 0 0 0 0 0 0 0 127 0"/>
<feOffset dx="4" dy="4"/>
<feGaussianBlur stdDeviation="6"/>
<feColorMatrix type="matrix" values="0 0 0 0 0 0 0 0 0 0 0 0 0 0 0 0 0 0 0.25 0"/>
<feBlend mode="normal" in2="effect1_dropShadow" result="effect2_dropShadow"/>
<feBlend mode="normal" in="SourceGraphic" in2="effect2_dropShadow" result="shape"/>
</filter>
</defs>
</svg>
