<svg width="198" height="198" viewBox="0 0 198 198" fill="none" xmlns="http://www.w3.org/2000/svg">
<path d="M16 26C16 20.4772 20.4772 16 26 16H172C177.523 16 182 20.4772 182 26V172C182 177.523 177.523 182 172 182H26C20.4772 182 16 177.523 16 172V26Z" fill="#F6F5F4"/>
<g filter="url(#filter0_dd)">
<rect x="16" y="16" width="166" height="166" rx="10" fill="#F9BE7F"/>
</g>
<path d="M46.2747 168.053L42.8997 163.178H42.6997H39.1747V168.053H35.1247V150.553H42.6997C44.2497 150.553 45.5913 150.812 46.7247 151.328C47.8747 151.845 48.758 152.578 49.3747 153.528C49.9913 154.478 50.2997 155.603 50.2997 156.903C50.2997 158.203 49.983 159.328 49.3497 160.278C48.733 161.212 47.8497 161.928 46.6997 162.428L50.6247 168.053H46.2747ZM46.1997 156.903C46.1997 155.92 45.883 155.17 45.2497 154.653C44.6163 154.12 43.6913 153.853 42.4747 153.853H39.1747V159.953H42.4747C43.6913 159.953 44.6163 159.687 45.2497 159.153C45.883 158.62 46.1997 157.87 46.1997 156.903ZM65.9985 161.378C65.9985 161.428 65.9735 161.778 65.9235 162.428H55.7485C55.9318 163.262 56.3651 163.92 57.0485 164.403C57.7318 164.887 58.5818 165.128 59.5985 165.128C60.2985 165.128 60.9151 165.028 61.4485 164.828C61.9985 164.612 62.5068 164.278 62.9735 163.828L65.0485 166.078C63.7818 167.528 61.9318 168.253 59.4985 168.253C57.9818 168.253 56.6401 167.962 55.4735 167.378C54.3068 166.778 53.4068 165.953 52.7735 164.903C52.1401 163.853 51.8235 162.662 51.8235 161.328C51.8235 160.012 52.1318 158.828 52.7485 157.778C53.3818 156.712 54.2401 155.887 55.3235 155.303C56.4235 154.703 57.6485 154.403 58.9985 154.403C60.3151 154.403 61.5068 154.687 62.5735 155.253C63.6401 155.82 64.4735 156.637 65.0735 157.703C65.6901 158.753 65.9985 159.978 65.9985 161.378ZM59.0235 157.353C58.1401 157.353 57.3985 157.603 56.7985 158.103C56.1985 158.603 55.8318 159.287 55.6985 160.153H62.3235C62.1901 159.303 61.8235 158.628 61.2235 158.128C60.6235 157.612 59.8901 157.353 59.0235 157.353ZM72.7099 168.253C71.5933 168.253 70.5016 168.12 69.4349 167.853C68.3683 167.57 67.5183 167.22 66.8849 166.803L68.1849 164.003C68.7849 164.387 69.5099 164.703 70.3599 164.953C71.2099 165.187 72.0433 165.303 72.8599 165.303C74.5099 165.303 75.3349 164.895 75.3349 164.078C75.3349 163.695 75.1099 163.42 74.6599 163.253C74.2099 163.087 73.5183 162.945 72.5849 162.828C71.4849 162.662 70.5766 162.47 69.8599 162.253C69.1433 162.037 68.5183 161.653 67.9849 161.103C67.4683 160.553 67.2099 159.77 67.2099 158.753C67.2099 157.903 67.4516 157.153 67.9349 156.503C68.4349 155.837 69.1516 155.32 70.0849 154.953C71.0349 154.587 72.1516 154.403 73.4349 154.403C74.3849 154.403 75.3266 154.512 76.2599 154.728C77.2099 154.928 77.9933 155.212 78.6099 155.578L77.3099 158.353C76.1266 157.687 74.8349 157.353 73.4349 157.353C72.6016 157.353 71.9766 157.47 71.5599 157.703C71.1433 157.937 70.9349 158.237 70.9349 158.603C70.9349 159.02 71.1599 159.312 71.6099 159.478C72.0599 159.645 72.7766 159.803 73.7599 159.953C74.8599 160.137 75.7599 160.337 76.4599 160.553C77.1599 160.753 77.7683 161.128 78.2849 161.678C78.8016 162.228 79.0599 162.995 79.0599 163.978C79.0599 164.812 78.8099 165.553 78.3099 166.203C77.8099 166.853 77.0766 167.362 76.1099 167.728C75.1599 168.078 74.0266 168.253 72.7099 168.253ZM87.4562 168.253C86.0395 168.253 84.7645 167.962 83.6312 167.378C82.5145 166.778 81.6395 165.953 81.0062 164.903C80.3729 163.853 80.0562 162.662 80.0562 161.328C80.0562 159.995 80.3729 158.803 81.0062 157.753C81.6395 156.703 82.5145 155.887 83.6312 155.303C84.7645 154.703 86.0395 154.403 87.4562 154.403C88.8729 154.403 90.1395 154.703 91.2562 155.303C92.3729 155.887 93.2479 156.703 93.8812 157.753C94.5145 158.803 94.8312 159.995 94.8312 161.328C94.8312 162.662 94.5145 163.853 93.8812 164.903C93.2479 165.953 92.3729 166.778 91.2562 167.378C90.1395 167.962 88.8729 168.253 87.4562 168.253ZM87.4562 165.053C88.4562 165.053 89.2729 164.72 89.9062 164.053C90.5562 163.37 90.8812 162.462 90.8812 161.328C90.8812 160.195 90.5562 159.295 89.9062 158.628C89.2729 157.945 88.4562 157.603 87.4562 157.603C86.4562 157.603 85.6312 157.945 84.9812 158.628C84.3312 159.295 84.0062 160.195 84.0062 161.328C84.0062 162.462 84.3312 163.37 84.9812 164.053C85.6312 164.72 86.4562 165.053 87.4562 165.053ZM110.578 154.603V168.053H106.878V166.453C106.361 167.037 105.745 167.487 105.028 167.803C104.311 168.103 103.536 168.253 102.703 168.253C100.936 168.253 99.5364 167.745 98.503 166.728C97.4697 165.712 96.953 164.203 96.953 162.203V154.603H100.853V161.628C100.853 163.795 101.761 164.878 103.578 164.878C104.511 164.878 105.261 164.578 105.828 163.978C106.395 163.362 106.678 162.453 106.678 161.253V154.603H110.578ZM117.506 156.378C117.973 155.728 118.598 155.237 119.381 154.903C120.181 154.57 121.098 154.403 122.131 154.403V158.003C121.698 157.97 121.406 157.953 121.256 157.953C120.139 157.953 119.264 158.27 118.631 158.903C117.998 159.52 117.681 160.453 117.681 161.703V168.053H113.781V154.603H117.506V156.378ZM130.418 168.253C128.985 168.253 127.693 167.962 126.543 167.378C125.41 166.778 124.518 165.953 123.868 164.903C123.235 163.853 122.918 162.662 122.918 161.328C122.918 159.995 123.235 158.803 123.868 157.753C124.518 156.703 125.41 155.887 126.543 155.303C127.693 154.703 128.985 154.403 130.418 154.403C131.835 154.403 133.068 154.703 134.118 155.303C135.185 155.887 135.96 156.728 136.443 157.828L133.418 159.453C132.718 158.22 131.71 157.603 130.393 157.603C129.376 157.603 128.535 157.937 127.868 158.603C127.201 159.27 126.868 160.178 126.868 161.328C126.868 162.478 127.201 163.387 127.868 164.053C128.535 164.72 129.376 165.053 130.393 165.053C131.726 165.053 132.735 164.437 133.418 163.203L136.443 164.853C135.96 165.92 135.185 166.753 134.118 167.353C133.068 167.953 131.835 168.253 130.418 168.253ZM151.283 161.378C151.283 161.428 151.258 161.778 151.208 162.428H141.033C141.216 163.262 141.649 163.92 142.333 164.403C143.016 164.887 143.866 165.128 144.883 165.128C145.583 165.128 146.199 165.028 146.733 164.828C147.283 164.612 147.791 164.278 148.258 163.828L150.333 166.078C149.066 167.528 147.216 168.253 144.783 168.253C143.266 168.253 141.924 167.962 140.758 167.378C139.591 166.778 138.691 165.953 138.058 164.903C137.424 163.853 137.108 162.662 137.108 161.328C137.108 160.012 137.416 158.828 138.033 157.778C138.666 156.712 139.524 155.887 140.608 155.303C141.708 154.703 142.933 154.403 144.283 154.403C145.599 154.403 146.791 154.687 147.858 155.253C148.924 155.82 149.758 156.637 150.358 157.703C150.974 158.753 151.283 159.978 151.283 161.378ZM144.308 157.353C143.424 157.353 142.683 157.603 142.083 158.103C141.483 158.603 141.116 159.287 140.983 160.153H147.608C147.474 159.303 147.108 158.628 146.508 158.128C145.908 157.612 145.174 157.353 144.308 157.353ZM157.994 168.253C156.877 168.253 155.786 168.12 154.719 167.853C153.652 167.57 152.802 167.22 152.169 166.803L153.469 164.003C154.069 164.387 154.794 164.703 155.644 164.953C156.494 165.187 157.327 165.303 158.144 165.303C159.794 165.303 160.619 164.895 160.619 164.078C160.619 163.695 160.394 163.42 159.944 163.253C159.494 163.087 158.802 162.945 157.869 162.828C156.769 162.662 155.861 162.47 155.144 162.253C154.427 162.037 153.802 161.653 153.269 161.103C152.752 160.553 152.494 159.77 152.494 158.753C152.494 157.903 152.736 157.153 153.219 156.503C153.719 155.837 154.436 155.32 155.369 154.953C156.319 154.587 157.436 154.403 158.719 154.403C159.669 154.403 160.611 154.512 161.544 154.728C162.494 154.928 163.277 155.212 163.894 155.578L162.594 158.353C161.411 157.687 160.119 157.353 158.719 157.353C157.886 157.353 157.261 157.47 156.844 157.703C156.427 157.937 156.219 158.237 156.219 158.603C156.219 159.02 156.444 159.312 156.894 159.478C157.344 159.645 158.061 159.803 159.044 159.953C160.144 160.137 161.044 160.337 161.744 160.553C162.444 160.753 163.052 161.128 163.569 161.678C164.086 162.228 164.344 162.995 164.344 163.978C164.344 164.812 164.094 165.553 163.594 166.203C163.094 166.853 162.361 167.362 161.394 167.728C160.444 168.078 159.311 168.253 157.994 168.253Z" fill="white"/>
<path d="M69.06 111H144V41C144 35.485 139.515 31 134 31H69C62.97 31 54 34.995 54 46V116C54 127.005 62.97 131 69 131H144V121H69.06C66.75 120.94 64 120.03 64 116C64 115.495 64.045 115.045 64.12 114.635C64.68 111.755 67.04 111.05 69.06 111V111ZM82.24 59.21C84.3212 57.1553 87.128 56.0032 90.0525 56.0032C92.977 56.0032 95.7838 57.1553 97.865 59.21L98.985 60.305L100.1 59.21C102.182 57.155 104.99 56.0028 107.915 56.0028C110.84 56.0028 113.648 57.155 115.73 59.21C116.763 60.2032 117.584 61.3948 118.146 62.7131C118.707 64.0315 118.996 65.4496 118.996 66.8825C118.996 68.3154 118.707 69.7335 118.146 71.0519C117.584 72.3702 116.763 73.5618 115.73 74.555L98.99 91L82.245 74.555C81.2113 73.5625 80.3887 72.3713 79.8267 71.0531C79.2646 69.7348 78.9747 68.3166 78.9742 66.8836C78.9738 65.4505 79.2628 64.0321 79.824 62.7135C80.3852 61.3949 81.2069 60.2032 82.24 59.21V59.21Z" fill="white"/>
<defs>
<filter id="filter0_dd" x="0" y="0" width="198" height="198" filterUnits="userSpaceOnUse" color-interpolation-filters="sRGB">
<feFlood flood-opacity="0" result="BackgroundImageFix"/>
<feColorMatrix in="SourceAlpha" type="matrix" values="0 0 0 0 0 0 0 0 0 0 0 0 0 0 0 0 0 0 127 0"/>
<feOffset dx="-4" dy="-4"/>
<feGaussianBlur stdDeviation="6"/>
<feColorMatrix type="matrix" values="0 0 0 0 1 0 0 0 0 1 0 0 0 0 1 0 0 0 0.5 0"/>
<feBlend mode="normal" in2="BackgroundImageFix" result="effect1_dropShadow"/>
<feColorMatrix in="SourceAlpha" type="matrix" values="0 0 0 0 0 0 0 0 0 0 0 0 0 0 0 0 0 0 127 0"/>
<feOffset dx="4" dy="4"/>
<feGaussianBlur stdDeviation="6"/>
<feColorMatrix type="matrix" values="0 0 0 0 0 0 0 0 0 0 0 0 0 0 0 0 0 0 0.25 0"/>
<feBlend mode="normal" in2="effect1_dropShadow" result="effect2_dropShadow"/>
<feBlend mode="normal" in="SourceGraphic" in2="effect2_dropShadow" result="shape"/>
</filter>
</defs>
</svg>
