<svg width="185" height="185" viewBox="0 0 185 185" fill="none" xmlns="http://www.w3.org/2000/svg">
<path d="M16 26C16 20.4772 20.4772 16 26 16H159C164.523 16 169 20.4772 169 26V159C169 164.523 164.523 169 159 169H26C20.4772 169 16 164.523 16 159V26Z" fill="#F6F5F4"/>
<g filter="url(#filter0_dd)">
<rect x="16" y="16" width="153" height="153" rx="10" fill="#F9BE7F"/>
</g>
<path d="M47.6225 144.66C47.9958 144.14 48.4958 143.747 49.1225 143.48C49.7625 143.213 50.4958 143.08 51.3225 143.08V145.96C50.9758 145.933 50.7425 145.92 50.6225 145.92C49.7292 145.92 49.0292 146.173 48.5225 146.68C48.0158 147.173 47.7625 147.92 47.7625 148.92V154H44.6425V143.24H47.6225V144.66ZM63.21 148.66C63.21 148.7 63.19 148.98 63.15 149.5H55.01C55.1567 150.167 55.5033 150.693 56.05 151.08C56.5967 151.467 57.2767 151.66 58.09 151.66C58.65 151.66 59.1433 151.58 59.57 151.42C60.01 151.247 60.4167 150.98 60.79 150.62L62.45 152.42C61.4367 153.58 59.9567 154.16 58.01 154.16C56.7967 154.16 55.7233 153.927 54.79 153.46C53.8567 152.98 53.1367 152.32 52.63 151.48C52.1233 150.64 51.87 149.687 51.87 148.62C51.87 147.567 52.1167 146.62 52.61 145.78C53.1167 144.927 53.8033 144.267 54.67 143.8C55.55 143.32 56.53 143.08 57.61 143.08C58.6633 143.08 59.6167 143.307 60.47 143.76C61.3233 144.213 61.99 144.867 62.47 145.72C62.9633 146.56 63.21 147.54 63.21 148.66ZM57.63 145.44C56.9233 145.44 56.33 145.64 55.85 146.04C55.37 146.44 55.0767 146.987 54.97 147.68H60.27C60.1633 147 59.87 146.46 59.39 146.06C58.91 145.647 58.3233 145.44 57.63 145.44ZM68.4972 154.16C67.6039 154.16 66.7305 154.053 65.8772 153.84C65.0239 153.613 64.3439 153.333 63.8372 153L64.8772 150.76C65.3572 151.067 65.9372 151.32 66.6172 151.52C67.2972 151.707 67.9639 151.8 68.6172 151.8C69.9372 151.8 70.5972 151.473 70.5972 150.82C70.5972 150.513 70.4172 150.293 70.0572 150.16C69.6972 150.027 69.1439 149.913 68.3972 149.82C67.5172 149.687 66.7905 149.533 66.2172 149.36C65.6439 149.187 65.1439 148.88 64.7172 148.44C64.3039 148 64.0972 147.373 64.0972 146.56C64.0972 145.88 64.2905 145.28 64.6772 144.76C65.0772 144.227 65.6505 143.813 66.3972 143.52C67.1572 143.227 68.0505 143.08 69.0772 143.08C69.8372 143.08 70.5905 143.167 71.3372 143.34C72.0972 143.5 72.7239 143.727 73.2172 144.02L72.1772 146.24C71.2305 145.707 70.1972 145.44 69.0772 145.44C68.4105 145.44 67.9105 145.533 67.5772 145.72C67.2439 145.907 67.0772 146.147 67.0772 146.44C67.0772 146.773 67.2572 147.007 67.6172 147.14C67.9772 147.273 68.5505 147.4 69.3372 147.52C70.2172 147.667 70.9372 147.827 71.4972 148C72.0572 148.16 72.5439 148.46 72.9572 148.9C73.3705 149.34 73.5772 149.953 73.5772 150.74C73.5772 151.407 73.3772 152 72.9772 152.52C72.5772 153.04 71.9905 153.447 71.2172 153.74C70.4572 154.02 69.5505 154.16 68.4972 154.16ZM80.2122 154.16C79.0789 154.16 78.0589 153.927 77.1522 153.46C76.2589 152.98 75.5589 152.32 75.0522 151.48C74.5455 150.64 74.2922 149.687 74.2922 148.62C74.2922 147.553 74.5455 146.6 75.0522 145.76C75.5589 144.92 76.2589 144.267 77.1522 143.8C78.0589 143.32 79.0789 143.08 80.2122 143.08C81.3455 143.08 82.3589 143.32 83.2522 143.8C84.1455 144.267 84.8455 144.92 85.3522 145.76C85.8589 146.6 86.1122 147.553 86.1122 148.62C86.1122 149.687 85.8589 150.64 85.3522 151.48C84.8455 152.32 84.1455 152.98 83.2522 153.46C82.3589 153.927 81.3455 154.16 80.2122 154.16ZM80.2122 151.6C81.0122 151.6 81.6655 151.333 82.1722 150.8C82.6922 150.253 82.9522 149.527 82.9522 148.62C82.9522 147.713 82.6922 146.993 82.1722 146.46C81.6655 145.913 81.0122 145.64 80.2122 145.64C79.4122 145.64 78.7522 145.913 78.2322 146.46C77.7122 146.993 77.4522 147.713 77.4522 148.62C77.4522 149.527 77.7122 150.253 78.2322 150.8C78.7522 151.333 79.4122 151.6 80.2122 151.6ZM98.6277 143.24V154H95.6677V152.72C95.2543 153.187 94.761 153.547 94.1877 153.8C93.6143 154.04 92.9943 154.16 92.3277 154.16C90.9143 154.16 89.7943 153.753 88.9677 152.94C88.141 152.127 87.7277 150.92 87.7277 149.32V143.24H90.8477V148.86C90.8477 150.593 91.5743 151.46 93.0277 151.46C93.7743 151.46 94.3743 151.22 94.8277 150.74C95.281 150.247 95.5077 149.52 95.5077 148.56V143.24H98.6277ZM104.088 144.66C104.461 144.14 104.961 143.747 105.588 143.48C106.228 143.213 106.961 143.08 107.788 143.08V145.96C107.441 145.933 107.208 145.92 107.088 145.92C106.195 145.92 105.495 146.173 104.988 146.68C104.481 147.173 104.228 147.92 104.228 148.92V154H101.108V143.24H104.088V144.66ZM114.336 154.16C113.189 154.16 112.156 153.927 111.236 153.46C110.329 152.98 109.616 152.32 109.096 151.48C108.589 150.64 108.336 149.687 108.336 148.62C108.336 147.553 108.589 146.6 109.096 145.76C109.616 144.92 110.329 144.267 111.236 143.8C112.156 143.32 113.189 143.08 114.336 143.08C115.469 143.08 116.456 143.32 117.296 143.8C118.149 144.267 118.769 144.94 119.156 145.82L116.736 147.12C116.176 146.133 115.369 145.64 114.316 145.64C113.502 145.64 112.829 145.907 112.296 146.44C111.762 146.973 111.496 147.7 111.496 148.62C111.496 149.54 111.762 150.267 112.296 150.8C112.829 151.333 113.502 151.6 114.316 151.6C115.382 151.6 116.189 151.107 116.736 150.12L119.156 151.44C118.769 152.293 118.149 152.96 117.296 153.44C116.456 153.92 115.469 154.16 114.336 154.16ZM130.945 148.66C130.945 148.7 130.925 148.98 130.885 149.5H122.745C122.892 150.167 123.239 150.693 123.785 151.08C124.332 151.467 125.012 151.66 125.825 151.66C126.385 151.66 126.879 151.58 127.305 151.42C127.745 151.247 128.152 150.98 128.525 150.62L130.185 152.42C129.172 153.58 127.692 154.16 125.745 154.16C124.532 154.16 123.459 153.927 122.525 153.46C121.592 152.98 120.872 152.32 120.365 151.48C119.859 150.64 119.605 149.687 119.605 148.62C119.605 147.567 119.852 146.62 120.345 145.78C120.852 144.927 121.539 144.267 122.405 143.8C123.285 143.32 124.265 143.08 125.345 143.08C126.399 143.08 127.352 143.307 128.205 143.76C129.059 144.213 129.725 144.867 130.205 145.72C130.699 146.56 130.945 147.54 130.945 148.66ZM125.365 145.44C124.659 145.44 124.065 145.64 123.585 146.04C123.105 146.44 122.812 146.987 122.705 147.68H128.005C127.899 147 127.605 146.46 127.125 146.06C126.645 145.647 126.059 145.44 125.365 145.44ZM136.233 154.16C135.339 154.16 134.466 154.053 133.613 153.84C132.759 153.613 132.079 153.333 131.573 153L132.613 150.76C133.093 151.067 133.673 151.32 134.353 151.52C135.033 151.707 135.699 151.8 136.353 151.8C137.673 151.8 138.333 151.473 138.333 150.82C138.333 150.513 138.153 150.293 137.793 150.16C137.433 150.027 136.879 149.913 136.133 149.82C135.253 149.687 134.526 149.533 133.953 149.36C133.379 149.187 132.879 148.88 132.453 148.44C132.039 148 131.833 147.373 131.833 146.56C131.833 145.88 132.026 145.28 132.413 144.76C132.813 144.227 133.386 143.813 134.133 143.52C134.893 143.227 135.786 143.08 136.813 143.08C137.573 143.08 138.326 143.167 139.073 143.34C139.833 143.5 140.459 143.727 140.953 144.02L139.913 146.24C138.966 145.707 137.933 145.44 136.813 145.44C136.146 145.44 135.646 145.533 135.313 145.72C134.979 145.907 134.813 146.147 134.813 146.44C134.813 146.773 134.993 147.007 135.353 147.14C135.713 147.273 136.286 147.4 137.073 147.52C137.953 147.667 138.673 147.827 139.233 148C139.793 148.16 140.279 148.46 140.693 148.9C141.106 149.34 141.313 149.953 141.313 150.74C141.313 151.407 141.113 152 140.713 152.52C140.313 153.04 139.726 153.447 138.953 153.74C138.193 154.02 137.286 154.16 136.233 154.16Z" fill="white"/>
<path d="M65.7058 110.952H134.777V46.4337C134.777 41.3506 130.643 37.2169 125.56 37.2169H65.6505C60.0927 37.2169 51.8252 40.899 51.8252 51.0422V115.56C51.8252 125.703 60.0927 129.386 65.6505 129.386H134.777V120.169H65.7058C63.5767 120.113 61.0421 119.275 61.0421 115.56C61.0421 115.095 61.0835 114.68 61.1527 114.302C61.6688 111.648 63.844 110.998 65.7058 110.952V110.952ZM77.8536 63.2176C79.7718 61.3239 82.3588 60.262 85.0543 60.262C87.7498 60.262 90.3368 61.3239 92.255 63.2176L93.2873 64.2269L94.315 63.2176C96.2339 61.3236 98.8217 60.2616 101.518 60.2616C104.214 60.2616 106.802 61.3236 108.721 63.2176C109.673 64.1331 110.43 65.2313 110.947 66.4464C111.465 67.6616 111.731 68.9686 111.731 70.2893C111.731 71.6099 111.465 72.917 110.947 74.1321C110.43 75.3473 109.673 76.4455 108.721 77.3609L93.2919 92.5181L77.8582 77.3609C76.9055 76.4461 76.1473 75.3483 75.6293 74.1333C75.1113 72.9182 74.844 71.6111 74.8436 70.2903C74.8432 68.9694 75.1096 67.6621 75.6268 66.4468C76.1441 65.2314 76.9015 64.1331 77.8536 63.2176V63.2176Z" fill="white"/>
<defs>
<filter id="filter0_dd" x="0" y="0" width="185" height="185" filterUnits="userSpaceOnUse" color-interpolation-filters="sRGB">
<feFlood flood-opacity="0" result="BackgroundImageFix"/>
<feColorMatrix in="SourceAlpha" type="matrix" values="0 0 0 0 0 0 0 0 0 0 0 0 0 0 0 0 0 0 127 0"/>
<feOffset dx="-4" dy="-4"/>
<feGaussianBlur stdDeviation="6"/>
<feColorMatrix type="matrix" values="0 0 0 0 1 0 0 0 0 1 0 0 0 0 1 0 0 0 0.5 0"/>
<feBlend mode="normal" in2="BackgroundImageFix" result="effect1_dropShadow"/>
<feColorMatrix in="SourceAlpha" type="matrix" values="0 0 0 0 0 0 0 0 0 0 0 0 0 0 0 0 0 0 127 0"/>
<feOffset dx="4" dy="4"/>
<feGaussianBlur stdDeviation="6"/>
<feColorMatrix type="matrix" values="0 0 0 0 0 0 0 0 0 0 0 0 0 0 0 0 0 0 0.25 0"/>
<feBlend mode="normal" in2="effect1_dropShadow" result="effect2_dropShadow"/>
<feBlend mode="normal" in="SourceGraphic" in2="effect2_dropShadow" result="shape"/>
</filter>
</defs>
</svg>
