<svg width="166" height="166" viewBox="0 0 166 166" fill="none" xmlns="http://www.w3.org/2000/svg">
<path d="M0 10C0 4.47716 4.47715 0 10 0H156C161.523 0 166 4.47715 166 10V156C166 161.523 161.523 166 156 166H10C4.47716 166 0 161.523 0 156V10Z" fill="#F9BE7F"/>
<path d="M26.4931 140.378C26.9598 139.728 27.5848 139.237 28.3681 138.903C29.1681 138.57 30.0848 138.403 31.1181 138.403V142.003C30.6848 141.97 30.3931 141.953 30.2431 141.953C29.1265 141.953 28.2515 142.27 27.6181 142.903C26.9848 143.52 26.6681 144.453 26.6681 145.703V152.053H22.7681V138.603H26.4931V140.378ZM46.08 145.378C46.08 145.428 46.055 145.778 46.005 146.428H35.83C36.0133 147.262 36.4467 147.92 37.13 148.403C37.8133 148.887 38.6633 149.128 39.68 149.128C40.38 149.128 40.9967 149.028 41.53 148.828C42.08 148.612 42.5883 148.278 43.055 147.828L45.13 150.078C43.8633 151.528 42.0133 152.253 39.58 152.253C38.0633 152.253 36.7217 151.962 35.555 151.378C34.3883 150.778 33.4883 149.953 32.855 148.903C32.2217 147.853 31.905 146.662 31.905 145.328C31.905 144.012 32.2133 142.828 32.83 141.778C33.4633 140.712 34.3217 139.887 35.405 139.303C36.505 138.703 37.73 138.403 39.08 138.403C40.3967 138.403 41.5883 138.687 42.655 139.253C43.7217 139.82 44.555 140.637 45.155 141.703C45.7717 142.753 46.08 143.978 46.08 145.378ZM39.105 141.353C38.2217 141.353 37.48 141.603 36.88 142.103C36.28 142.603 35.9133 143.287 35.78 144.153H42.405C42.2717 143.303 41.905 142.628 41.305 142.128C40.705 141.612 39.9717 141.353 39.105 141.353ZM52.7915 152.253C51.6748 152.253 50.5832 152.12 49.5165 151.853C48.4498 151.57 47.5998 151.22 46.9665 150.803L48.2665 148.003C48.8665 148.387 49.5915 148.703 50.4415 148.953C51.2915 149.187 52.1248 149.303 52.9415 149.303C54.5915 149.303 55.4165 148.895 55.4165 148.078C55.4165 147.695 55.1915 147.42 54.7415 147.253C54.2915 147.087 53.5998 146.945 52.6665 146.828C51.5665 146.662 50.6582 146.47 49.9415 146.253C49.2248 146.037 48.5998 145.653 48.0665 145.103C47.5498 144.553 47.2915 143.77 47.2915 142.753C47.2915 141.903 47.5332 141.153 48.0165 140.503C48.5165 139.837 49.2332 139.32 50.1665 138.953C51.1165 138.587 52.2332 138.403 53.5165 138.403C54.4665 138.403 55.4082 138.512 56.3415 138.728C57.2915 138.928 58.0748 139.212 58.6915 139.578L57.3915 142.353C56.2082 141.687 54.9165 141.353 53.5165 141.353C52.6832 141.353 52.0582 141.47 51.6415 141.703C51.2248 141.937 51.0165 142.237 51.0165 142.603C51.0165 143.02 51.2415 143.312 51.6915 143.478C52.1415 143.645 52.8582 143.803 53.8415 143.953C54.9415 144.137 55.8415 144.337 56.5415 144.553C57.2415 144.753 57.8498 145.128 58.3665 145.678C58.8832 146.228 59.1415 146.995 59.1415 147.978C59.1415 148.812 58.8915 149.553 58.3915 150.203C57.8915 150.853 57.1582 151.362 56.1915 151.728C55.2415 152.078 54.1082 152.253 52.7915 152.253ZM67.5377 152.253C66.1211 152.253 64.8461 151.962 63.7127 151.378C62.5961 150.778 61.7211 149.953 61.0877 148.903C60.4544 147.853 60.1377 146.662 60.1377 145.328C60.1377 143.995 60.4544 142.803 61.0877 141.753C61.7211 140.703 62.5961 139.887 63.7127 139.303C64.8461 138.703 66.1211 138.403 67.5377 138.403C68.9544 138.403 70.2211 138.703 71.3377 139.303C72.4544 139.887 73.3294 140.703 73.9627 141.753C74.5961 142.803 74.9127 143.995 74.9127 145.328C74.9127 146.662 74.5961 147.853 73.9627 148.903C73.3294 149.953 72.4544 150.778 71.3377 151.378C70.2211 151.962 68.9544 152.253 67.5377 152.253ZM67.5377 149.053C68.5377 149.053 69.3544 148.72 69.9877 148.053C70.6377 147.37 70.9627 146.462 70.9627 145.328C70.9627 144.195 70.6377 143.295 69.9877 142.628C69.3544 141.945 68.5377 141.603 67.5377 141.603C66.5377 141.603 65.7127 141.945 65.0627 142.628C64.4127 143.295 64.0877 144.195 64.0877 145.328C64.0877 146.462 64.4127 147.37 65.0627 148.053C65.7127 148.72 66.5377 149.053 67.5377 149.053ZM90.6596 138.603V152.053H86.9596V150.453C86.4429 151.037 85.8262 151.487 85.1096 151.803C84.3929 152.103 83.6179 152.253 82.7846 152.253C81.0179 152.253 79.6179 151.745 78.5846 150.728C77.5512 149.712 77.0346 148.203 77.0346 146.203V138.603H80.9346V145.628C80.9346 147.795 81.8429 148.878 83.6596 148.878C84.5929 148.878 85.3429 148.578 85.9096 147.978C86.4762 147.362 86.7596 146.453 86.7596 145.253V138.603H90.6596ZM97.5877 140.378C98.0543 139.728 98.6793 139.237 99.4627 138.903C100.263 138.57 101.179 138.403 102.213 138.403V142.003C101.779 141.97 101.488 141.953 101.338 141.953C100.221 141.953 99.346 142.27 98.7127 142.903C98.0793 143.52 97.7627 144.453 97.7627 145.703V152.053H93.8627V138.603H97.5877V140.378ZM110.5 152.253C109.066 152.253 107.775 151.962 106.625 151.378C105.491 150.778 104.6 149.953 103.95 148.903C103.316 147.853 103 146.662 103 145.328C103 143.995 103.316 142.803 103.95 141.753C104.6 140.703 105.491 139.887 106.625 139.303C107.775 138.703 109.066 138.403 110.5 138.403C111.916 138.403 113.15 138.703 114.2 139.303C115.266 139.887 116.041 140.728 116.525 141.828L113.5 143.453C112.8 142.22 111.791 141.603 110.475 141.603C109.458 141.603 108.616 141.937 107.95 142.603C107.283 143.27 106.95 144.178 106.95 145.328C106.95 146.478 107.283 147.387 107.95 148.053C108.616 148.72 109.458 149.053 110.475 149.053C111.808 149.053 112.816 148.437 113.5 147.203L116.525 148.853C116.041 149.92 115.266 150.753 114.2 151.353C113.15 151.953 111.916 152.253 110.5 152.253ZM131.364 145.378C131.364 145.428 131.339 145.778 131.289 146.428H121.114C121.297 147.262 121.731 147.92 122.414 148.403C123.097 148.887 123.947 149.128 124.964 149.128C125.664 149.128 126.281 149.028 126.814 148.828C127.364 148.612 127.872 148.278 128.339 147.828L130.414 150.078C129.147 151.528 127.297 152.253 124.864 152.253C123.347 152.253 122.006 151.962 120.839 151.378C119.672 150.778 118.772 149.953 118.139 148.903C117.506 147.853 117.189 146.662 117.189 145.328C117.189 144.012 117.497 142.828 118.114 141.778C118.747 140.712 119.606 139.887 120.689 139.303C121.789 138.703 123.014 138.403 124.364 138.403C125.681 138.403 126.872 138.687 127.939 139.253C129.006 139.82 129.839 140.637 130.439 141.703C131.056 142.753 131.364 143.978 131.364 145.378ZM124.389 141.353C123.506 141.353 122.764 141.603 122.164 142.103C121.564 142.603 121.197 143.287 121.064 144.153H127.689C127.556 143.303 127.189 142.628 126.589 142.128C125.989 141.612 125.256 141.353 124.389 141.353ZM138.076 152.253C136.959 152.253 135.867 152.12 134.801 151.853C133.734 151.57 132.884 151.22 132.251 150.803L133.551 148.003C134.151 148.387 134.876 148.703 135.726 148.953C136.576 149.187 137.409 149.303 138.226 149.303C139.876 149.303 140.701 148.895 140.701 148.078C140.701 147.695 140.476 147.42 140.026 147.253C139.576 147.087 138.884 146.945 137.951 146.828C136.851 146.662 135.942 146.47 135.226 146.253C134.509 146.037 133.884 145.653 133.351 145.103C132.834 144.553 132.576 143.77 132.576 142.753C132.576 141.903 132.817 141.153 133.301 140.503C133.801 139.837 134.517 139.32 135.451 138.953C136.401 138.587 137.517 138.403 138.801 138.403C139.751 138.403 140.692 138.512 141.626 138.728C142.576 138.928 143.359 139.212 143.976 139.578L142.676 142.353C141.492 141.687 140.201 141.353 138.801 141.353C137.967 141.353 137.342 141.47 136.926 141.703C136.509 141.937 136.301 142.237 136.301 142.603C136.301 143.02 136.526 143.312 136.976 143.478C137.426 143.645 138.142 143.803 139.126 143.953C140.226 144.137 141.126 144.337 141.826 144.553C142.526 144.753 143.134 145.128 143.651 145.678C144.167 146.228 144.426 146.995 144.426 147.978C144.426 148.812 144.176 149.553 143.676 150.203C143.176 150.853 142.442 151.362 141.476 151.728C140.526 152.078 139.392 152.253 138.076 152.253Z" fill="white"/>
<path d="M53.06 95H128V25C128 19.485 123.515 15 118 15H53C46.97 15 38 18.995 38 30V100C38 111.005 46.97 115 53 115H128V105H53.06C50.75 104.94 48 104.03 48 100C48 99.495 48.045 99.045 48.12 98.635C48.68 95.755 51.04 95.05 53.06 95V95ZM66.24 43.21C68.3212 41.1553 71.128 40.0032 74.0525 40.0032C76.977 40.0032 79.7838 41.1553 81.865 43.21L82.985 44.305L84.1 43.21C86.182 41.155 88.9896 40.0028 91.915 40.0028C94.8404 40.0028 97.648 41.155 99.73 43.21C100.763 44.2032 101.584 45.3948 102.146 46.7131C102.707 48.0315 102.996 49.4496 102.996 50.8825C102.996 52.3154 102.707 53.7335 102.146 55.0519C101.584 56.3702 100.763 57.5618 99.73 58.555L82.99 75L66.245 58.555C65.2113 57.5625 64.3887 56.3713 63.8267 55.0531C63.2646 53.7348 62.9747 52.3166 62.9742 50.8836C62.9738 49.4505 63.2628 48.0321 63.824 46.7135C64.3852 45.3949 65.2069 44.2032 66.24 43.21V43.21Z" fill="white"/>
</svg>
