<svg width="162" height="161" viewBox="0 0 162 161" fill="none" xmlns="http://www.w3.org/2000/svg">
<path d="M16 26C16 20.4771 20.4772 16 26 16H136C141.523 16 146 20.4772 146 26V135C146 140.523 141.523 145 136 145H26C20.4772 145 16 140.523 16 135V26Z" fill="#F6F5F4"/>
<g filter="url(#filter0_dd)">
<rect x="16" y="16" width="130" height="129" rx="10" fill="#F9BE7F"/>
</g>
<path d="M36.1225 124.621C36.4958 124.101 36.9958 123.707 37.6225 123.441C38.2625 123.174 38.9958 123.041 39.8225 123.041V125.921C39.4758 125.894 39.2425 125.881 39.1225 125.881C38.2292 125.881 37.5292 126.134 37.0225 126.641C36.5158 127.134 36.2625 127.881 36.2625 128.881V133.961H33.1425V123.201H36.1225V124.621ZM51.71 128.621C51.71 128.661 51.69 128.941 51.65 129.461H43.51C43.6567 130.127 44.0033 130.654 44.55 131.041C45.0967 131.427 45.7767 131.621 46.59 131.621C47.15 131.621 47.6433 131.541 48.07 131.381C48.51 131.207 48.9167 130.941 49.29 130.581L50.95 132.381C49.9367 133.541 48.4567 134.121 46.51 134.121C45.2967 134.121 44.2233 133.887 43.29 133.421C42.3567 132.941 41.6367 132.281 41.13 131.441C40.6233 130.601 40.37 129.647 40.37 128.581C40.37 127.527 40.6167 126.581 41.11 125.741C41.6167 124.887 42.3033 124.227 43.17 123.761C44.05 123.281 45.03 123.041 46.11 123.041C47.1633 123.041 48.1167 123.267 48.97 123.721C49.8233 124.174 50.49 124.827 50.97 125.681C51.4633 126.521 51.71 127.501 51.71 128.621ZM46.13 125.401C45.4233 125.401 44.83 125.601 44.35 126.001C43.87 126.401 43.5767 126.947 43.47 127.641H48.77C48.6633 126.961 48.37 126.421 47.89 126.021C47.41 125.607 46.8233 125.401 46.13 125.401ZM56.9972 134.121C56.1039 134.121 55.2305 134.014 54.3772 133.801C53.5239 133.574 52.8439 133.294 52.3372 132.961L53.3772 130.721C53.8572 131.027 54.4372 131.281 55.1172 131.481C55.7972 131.667 56.4639 131.761 57.1172 131.761C58.4372 131.761 59.0972 131.434 59.0972 130.781C59.0972 130.474 58.9172 130.254 58.5572 130.121C58.1972 129.987 57.6439 129.874 56.8972 129.781C56.0172 129.647 55.2905 129.494 54.7172 129.321C54.1439 129.147 53.6439 128.841 53.2172 128.401C52.8039 127.961 52.5972 127.334 52.5972 126.521C52.5972 125.841 52.7905 125.241 53.1772 124.721C53.5772 124.187 54.1505 123.774 54.8972 123.481C55.6572 123.187 56.5505 123.041 57.5772 123.041C58.3372 123.041 59.0905 123.127 59.8372 123.301C60.5972 123.461 61.2239 123.687 61.7172 123.981L60.6772 126.201C59.7305 125.667 58.6972 125.401 57.5772 125.401C56.9105 125.401 56.4105 125.494 56.0772 125.681C55.7439 125.867 55.5772 126.107 55.5772 126.401C55.5772 126.734 55.7572 126.967 56.1172 127.101C56.4772 127.234 57.0505 127.361 57.8372 127.481C58.7172 127.627 59.4372 127.787 59.9972 127.961C60.5572 128.121 61.0439 128.421 61.4572 128.861C61.8705 129.301 62.0772 129.914 62.0772 130.701C62.0772 131.367 61.8772 131.961 61.4772 132.481C61.0772 133.001 60.4905 133.407 59.7172 133.701C58.9572 133.981 58.0505 134.121 56.9972 134.121ZM68.7122 134.121C67.5789 134.121 66.5589 133.887 65.6522 133.421C64.7589 132.941 64.0589 132.281 63.5522 131.441C63.0455 130.601 62.7922 129.647 62.7922 128.581C62.7922 127.514 63.0455 126.561 63.5522 125.721C64.0589 124.881 64.7589 124.227 65.6522 123.761C66.5589 123.281 67.5789 123.041 68.7122 123.041C69.8455 123.041 70.8589 123.281 71.7522 123.761C72.6455 124.227 73.3455 124.881 73.8522 125.721C74.3589 126.561 74.6122 127.514 74.6122 128.581C74.6122 129.647 74.3589 130.601 73.8522 131.441C73.3455 132.281 72.6455 132.941 71.7522 133.421C70.8589 133.887 69.8455 134.121 68.7122 134.121ZM68.7122 131.561C69.5122 131.561 70.1655 131.294 70.6722 130.761C71.1922 130.214 71.4522 129.487 71.4522 128.581C71.4522 127.674 71.1922 126.954 70.6722 126.421C70.1655 125.874 69.5122 125.601 68.7122 125.601C67.9122 125.601 67.2522 125.874 66.7322 126.421C66.2122 126.954 65.9522 127.674 65.9522 128.581C65.9522 129.487 66.2122 130.214 66.7322 130.761C67.2522 131.294 67.9122 131.561 68.7122 131.561ZM87.1277 123.201V133.961H84.1677V132.681C83.7543 133.147 83.261 133.507 82.6877 133.761C82.1143 134.001 81.4943 134.121 80.8277 134.121C79.4143 134.121 78.2943 133.714 77.4677 132.901C76.641 132.087 76.2277 130.881 76.2277 129.281V123.201H79.3477V128.821C79.3477 130.554 80.0743 131.421 81.5277 131.421C82.2743 131.421 82.8743 131.181 83.3277 130.701C83.781 130.207 84.0077 129.481 84.0077 128.521V123.201H87.1277ZM92.5881 124.621C92.9615 124.101 93.4615 123.707 94.0881 123.441C94.7281 123.174 95.4615 123.041 96.2881 123.041V125.921C95.9415 125.894 95.7081 125.881 95.5881 125.881C94.6948 125.881 93.9948 126.134 93.4881 126.641C92.9815 127.134 92.7281 127.881 92.7281 128.881V133.961H89.6081V123.201H92.5881V124.621ZM102.836 134.121C101.689 134.121 100.656 133.887 99.7356 133.421C98.829 132.941 98.1156 132.281 97.5956 131.441C97.089 130.601 96.8356 129.647 96.8356 128.581C96.8356 127.514 97.089 126.561 97.5956 125.721C98.1156 124.881 98.829 124.227 99.7356 123.761C100.656 123.281 101.689 123.041 102.836 123.041C103.969 123.041 104.956 123.281 105.796 123.761C106.649 124.227 107.269 124.901 107.656 125.781L105.236 127.081C104.676 126.094 103.869 125.601 102.816 125.601C102.002 125.601 101.329 125.867 100.796 126.401C100.262 126.934 99.9956 127.661 99.9956 128.581C99.9956 129.501 100.262 130.227 100.796 130.761C101.329 131.294 102.002 131.561 102.816 131.561C103.882 131.561 104.689 131.067 105.236 130.081L107.656 131.401C107.269 132.254 106.649 132.921 105.796 133.401C104.956 133.881 103.969 134.121 102.836 134.121ZM119.445 128.621C119.445 128.661 119.425 128.941 119.385 129.461H111.245C111.392 130.127 111.739 130.654 112.285 131.041C112.832 131.427 113.512 131.621 114.325 131.621C114.885 131.621 115.379 131.541 115.805 131.381C116.245 131.207 116.652 130.941 117.025 130.581L118.685 132.381C117.672 133.541 116.192 134.121 114.245 134.121C113.032 134.121 111.959 133.887 111.025 133.421C110.092 132.941 109.372 132.281 108.865 131.441C108.359 130.601 108.105 129.647 108.105 128.581C108.105 127.527 108.352 126.581 108.845 125.741C109.352 124.887 110.039 124.227 110.905 123.761C111.785 123.281 112.765 123.041 113.845 123.041C114.899 123.041 115.852 123.267 116.705 123.721C117.559 124.174 118.225 124.827 118.705 125.681C119.199 126.521 119.445 127.501 119.445 128.621ZM113.865 125.401C113.159 125.401 112.565 125.601 112.085 126.001C111.605 126.401 111.312 126.947 111.205 127.641H116.505C116.399 126.961 116.105 126.421 115.625 126.021C115.145 125.607 114.559 125.401 113.865 125.401ZM124.733 134.121C123.839 134.121 122.966 134.014 122.113 133.801C121.259 133.574 120.579 133.294 120.073 132.961L121.113 130.721C121.593 131.027 122.173 131.281 122.853 131.481C123.533 131.667 124.199 131.761 124.853 131.761C126.173 131.761 126.833 131.434 126.833 130.781C126.833 130.474 126.653 130.254 126.293 130.121C125.933 129.987 125.379 129.874 124.633 129.781C123.753 129.647 123.026 129.494 122.453 129.321C121.879 129.147 121.379 128.841 120.953 128.401C120.539 127.961 120.333 127.334 120.333 126.521C120.333 125.841 120.526 125.241 120.913 124.721C121.313 124.187 121.886 123.774 122.633 123.481C123.393 123.187 124.286 123.041 125.313 123.041C126.073 123.041 126.826 123.127 127.573 123.301C128.333 123.461 128.959 123.687 129.453 123.981L128.413 126.201C127.466 125.667 126.433 125.401 125.313 125.401C124.646 125.401 124.146 125.494 123.813 125.681C123.479 125.867 123.313 126.107 123.313 126.401C123.313 126.734 123.493 126.967 123.853 127.101C124.213 127.234 124.786 127.361 125.573 127.481C126.453 127.627 127.173 127.787 127.733 127.961C128.293 128.121 128.779 128.421 129.193 128.861C129.606 129.301 129.813 129.914 129.813 130.701C129.813 131.367 129.613 131.961 129.213 132.481C128.813 133.001 128.226 133.407 127.453 133.701C126.693 133.981 125.786 134.121 124.733 134.121Z" fill="white"/>

<path d="M59.5326 60.6656C59.2895 60.6656 59.0844 60.7582 58.9173 60.9435C58.7502 61.1287 58.6667 61.3603 58.6667 61.6382V63.6762C58.6667 63.9232 58.7502 64.1393 58.9173 64.3246C59.0844 64.5099 59.2895 64.6025 59.5326 64.6025H86.9674C87.2105 64.6025 87.4156 64.5099 87.5827 64.3246C87.7498 64.1393 87.8333 63.9232 87.8333 63.6762V61.6382C87.8333 61.3603 87.7498 61.1287 87.5827 60.9435C87.4156 60.7582 87.2105 60.6656 86.9674 60.6656H59.5326ZM82 30.0037C79.9644 29.942 78.2099 30.6445 76.7363 32.1112C75.2628 33.5779 74.526 35.3456 74.526 37.4145V43.2041C74.526 43.8834 74.4425 44.4392 74.2754 44.8715C74.1083 45.3038 73.8424 45.6434 73.4779 45.8905C73.1133 46.1375 72.7639 46.3073 72.4297 46.3999C72.0955 46.4926 71.6246 46.5852 71.0169 46.6778C69.5282 46.8631 68.275 47.5038 67.2572 48.6C66.2394 49.6962 65.7305 51.4022 65.7305 53.718H98.2695C98.2695 51.4022 97.7606 49.6962 96.7428 48.6C95.725 47.5038 94.4718 46.8631 92.9831 46.6778C92.3754 46.5852 91.9045 46.4926 91.5703 46.3999C91.2361 46.3073 90.8867 46.1375 90.5221 45.8905C90.1576 45.6434 89.8917 45.3038 89.7246 44.8715C89.5575 44.4392 89.474 43.8834 89.474 43.2041V37.4145C89.474 35.3456 88.7372 33.5779 87.2637 32.1112C85.7901 30.6445 84.0356 29.942 82 30.0037ZM82 35.9323C82.7292 35.9941 83.352 36.3028 83.8685 36.8587C84.385 37.4145 84.6432 38.1092 84.6432 38.9429C84.6432 39.7149 84.385 40.3787 83.8685 40.9345C83.352 41.4903 82.7292 41.7991 82 41.8609C81.2708 41.7991 80.648 41.4903 80.1315 40.9345C79.615 40.3787 79.3568 39.7149 79.3568 38.9429C79.3568 38.1092 79.615 37.4145 80.1315 36.8587C80.648 36.3028 81.2708 35.9941 82 35.9323ZM112.716 35.9323C113.871 35.9323 114.873 36.3646 115.724 37.2292C116.575 38.0938 117 39.1127 117 40.2861V108.65C117 109.823 116.575 110.842 115.724 111.707C114.873 112.571 113.871 113.004 112.716 113.004H51.2839C50.1293 113.004 49.1267 112.571 48.276 111.707C47.4253 110.842 47 109.823 47 108.65V40.2861C47 39.1127 47.4253 38.0938 48.276 37.2292C49.1267 36.3646 50.1293 35.9323 51.2839 35.9323H70.3333V38.9429C70.3637 39.7766 70.1055 40.4714 69.5586 41.0272C69.0117 41.583 68.3129 41.8609 67.4622 41.8609H56.707C55.6437 41.8609 54.7322 42.2469 53.9727 43.0188C53.2131 43.7908 52.8333 44.7171 52.8333 45.7978V103.138C52.8333 104.219 53.2131 105.145 53.9727 105.917C54.7322 106.689 55.6437 107.075 56.707 107.075H107.293C108.356 107.075 109.268 106.689 110.027 105.917C110.787 105.145 111.167 104.219 111.167 103.138V45.7978C111.167 44.7171 110.787 43.7908 110.027 43.0188C109.268 42.2469 108.356 41.8609 107.293 41.8609H96.6289C95.7478 41.8609 95.0263 41.583 94.4642 41.0272C93.9021 40.4714 93.6363 39.7766 93.6667 38.9429V35.9323H112.716ZM60.0794 72.4301C59.7148 72.4301 59.3882 72.5304 59.0996 72.7311C58.811 72.9318 58.6667 73.1557 58.6667 73.4027V75.4407C58.6667 75.7186 58.811 75.9502 59.0996 76.1354C59.3882 76.3207 59.7148 76.4133 60.0794 76.4133H103.921C104.285 76.4133 104.612 76.3207 104.9 76.1354C105.189 75.9502 105.333 75.7186 105.333 75.4407V73.4027C105.333 73.1557 105.189 72.9318 104.9 72.7311C104.612 72.5304 104.285 72.4301 103.921 72.4301H60.0794ZM59.7604 84.3799C59.487 84.3799 59.2363 84.4725 59.0085 84.6578C58.7806 84.843 58.6667 85.0746 58.6667 85.3525V87.3905C58.6667 87.6375 58.7806 87.8536 59.0085 88.0389C59.2363 88.2242 59.487 88.3168 59.7604 88.3168H92.5729C92.8464 88.3168 93.097 88.2242 93.3249 88.0389C93.5527 87.8536 93.6667 87.6375 93.6667 87.3905V85.3525C93.6667 85.0746 93.5527 84.843 93.3249 84.6578C93.097 84.4725 92.8464 84.3799 92.5729 84.3799H59.7604ZM59.8971 96.1444C59.5933 96.1444 59.3123 96.2447 59.054 96.4454C58.7958 96.6461 58.6667 96.87 58.6667 97.117V99.155C58.6667 99.4329 58.7958 99.6644 59.054 99.8497C59.3123 100.035 59.5933 100.128 59.8971 100.128H98.2695C98.5734 100.128 98.8544 100.035 99.1126 99.8497C99.3709 99.6644 99.5 99.4329 99.5 99.155V97.117C99.5 96.87 99.3709 96.6461 99.1126 96.4454C98.8544 96.2447 98.5734 96.1444 98.2695 96.1444H59.8971Z" fill="white"/>

<defs>
<filter id="filter0_dd" x="0" y="0" width="162" height="161" filterUnits="userSpaceOnUse" color-interpolation-filters="sRGB">
<feFlood flood-opacity="0" result="BackgroundImageFix"/>
<feColorMatrix in="SourceAlpha" type="matrix" values="0 0 0 0 0 0 0 0 0 0 0 0 0 0 0 0 0 0 127 0"/>
<feOffset dx="-4" dy="-4"/>
<feGaussianBlur stdDeviation="6"/>
<feColorMatrix type="matrix" values="0 0 0 0 1 0 0 0 0 1 0 0 0 0 1 0 0 0 0.5 0"/>
<feBlend mode="normal" in2="BackgroundImageFix" result="effect1_dropShadow"/>
<feColorMatrix in="SourceAlpha" type="matrix" values="0 0 0 0 0 0 0 0 0 0 0 0 0 0 0 0 0 0 127 0"/>
<feOffset dx="4" dy="4"/>
<feGaussianBlur stdDeviation="6"/>
<feColorMatrix type="matrix" values="0 0 0 0 0 0 0 0 0 0 0 0 0 0 0 0 0 0 0.25 0"/>
<feBlend mode="normal" in2="effect1_dropShadow" result="effect2_dropShadow"/>
<feBlend mode="normal" in="SourceGraphic" in2="effect2_dropShadow" result="shape"/>
</filter>
<clipPath id="clip0">
<rect width="70" height="83" fill="white" transform="translate(47 30)"/>
</clipPath>
</defs>
</svg>
