<svg width="198" height="198" viewBox="0 0 198 198" fill="none" xmlns="http://www.w3.org/2000/svg">
<g filter="url(#filter0_dd)">
<rect x="16" y="16" width="166" height="166" rx="10" fill="#55BB99"/>
</g>
<path d="M37.6061 154.603L31.9311 168.053H27.9061L22.2561 154.603H26.2811L30.0061 163.753L33.8561 154.603H37.6061ZM38.7875 154.603H42.6875V168.053H38.7875V154.603ZM40.7375 152.728C40.0208 152.728 39.4375 152.52 38.9875 152.103C38.5375 151.687 38.3125 151.17 38.3125 150.553C38.3125 149.937 38.5375 149.42 38.9875 149.003C39.4375 148.587 40.0208 148.378 40.7375 148.378C41.4542 148.378 42.0375 148.578 42.4875 148.978C42.9375 149.378 43.1625 149.878 43.1625 150.478C43.1625 151.128 42.9375 151.67 42.4875 152.103C42.0375 152.52 41.4542 152.728 40.7375 152.728ZM50.422 168.253C49.3054 168.253 48.2137 168.12 47.147 167.853C46.0804 167.57 45.2304 167.22 44.597 166.803L45.897 164.003C46.497 164.387 47.222 164.703 48.072 164.953C48.922 165.187 49.7554 165.303 50.572 165.303C52.222 165.303 53.047 164.895 53.047 164.078C53.047 163.695 52.822 163.42 52.372 163.253C51.922 163.087 51.2304 162.945 50.297 162.828C49.197 162.662 48.2887 162.47 47.572 162.253C46.8554 162.037 46.2304 161.653 45.697 161.103C45.1804 160.553 44.922 159.77 44.922 158.753C44.922 157.903 45.1637 157.153 45.647 156.503C46.147 155.837 46.8637 155.32 47.797 154.953C48.747 154.587 49.8637 154.403 51.147 154.403C52.097 154.403 53.0387 154.512 53.972 154.728C54.922 154.928 55.7054 155.212 56.322 155.578L55.022 158.353C53.8387 157.687 52.547 157.353 51.147 157.353C50.3137 157.353 49.6887 157.47 49.272 157.703C48.8554 157.937 48.647 158.237 48.647 158.603C48.647 159.02 48.872 159.312 49.322 159.478C49.772 159.645 50.4887 159.803 51.472 159.953C52.572 160.137 53.472 160.337 54.172 160.553C54.872 160.753 55.4804 161.128 55.997 161.678C56.5137 162.228 56.772 162.995 56.772 163.978C56.772 164.812 56.522 165.553 56.022 166.203C55.522 166.853 54.7887 167.362 53.822 167.728C52.872 168.078 51.7387 168.253 50.422 168.253ZM58.7683 154.603H62.6683V168.053H58.7683V154.603ZM60.7183 152.728C60.0016 152.728 59.4183 152.52 58.9683 152.103C58.5183 151.687 58.2933 151.17 58.2933 150.553C58.2933 149.937 58.5183 149.42 58.9683 149.003C59.4183 148.587 60.0016 148.378 60.7183 148.378C61.4349 148.378 62.0183 148.578 62.4683 148.978C62.9183 149.378 63.1433 149.878 63.1433 150.478C63.1433 151.128 62.9183 151.67 62.4683 152.103C62.0183 152.52 61.4349 152.728 60.7183 152.728ZM74.5528 167.403C74.1695 167.687 73.6945 167.903 73.1278 168.053C72.5778 168.187 71.9945 168.253 71.3778 168.253C69.7778 168.253 68.5361 167.845 67.6528 167.028C66.7861 166.212 66.3528 165.012 66.3528 163.428V157.903H64.2778V154.903H66.3528V151.628H70.2528V154.903H73.6028V157.903H70.2528V163.378C70.2528 163.945 70.3945 164.387 70.6778 164.703C70.9778 165.003 71.3945 165.153 71.9278 165.153C72.5445 165.153 73.0695 164.987 73.5028 164.653L74.5528 167.403ZM87.5271 168.253C86.4105 168.253 85.3188 168.12 84.2521 167.853C83.1855 167.57 82.3355 167.22 81.7021 166.803L83.0021 164.003C83.6021 164.387 84.3271 164.703 85.1771 164.953C86.0271 165.187 86.8605 165.303 87.6771 165.303C89.3271 165.303 90.1521 164.895 90.1521 164.078C90.1521 163.695 89.9271 163.42 89.4771 163.253C89.0271 163.087 88.3355 162.945 87.4021 162.828C86.3021 162.662 85.3938 162.47 84.6771 162.253C83.9605 162.037 83.3355 161.653 82.8021 161.103C82.2855 160.553 82.0271 159.77 82.0271 158.753C82.0271 157.903 82.2688 157.153 82.7521 156.503C83.2521 155.837 83.9688 155.32 84.9021 154.953C85.8521 154.587 86.9688 154.403 88.2521 154.403C89.2021 154.403 90.1438 154.512 91.0771 154.728C92.0271 154.928 92.8105 155.212 93.4271 155.578L92.1271 158.353C90.9438 157.687 89.6521 157.353 88.2521 157.353C87.4188 157.353 86.7938 157.47 86.3771 157.703C85.9605 157.937 85.7521 158.237 85.7521 158.603C85.7521 159.02 85.9771 159.312 86.4271 159.478C86.8771 159.645 87.5938 159.803 88.5771 159.953C89.6771 160.137 90.5771 160.337 91.2771 160.553C91.9771 160.753 92.5855 161.128 93.1021 161.678C93.6188 162.228 93.8771 162.995 93.8771 163.978C93.8771 164.812 93.6271 165.553 93.1271 166.203C92.6271 166.853 91.8938 167.362 90.9271 167.728C89.9771 168.078 88.8438 168.253 87.5271 168.253ZM109.048 161.378C109.048 161.428 109.023 161.778 108.973 162.428H98.7984C98.9817 163.262 99.4151 163.92 100.098 164.403C100.782 164.887 101.632 165.128 102.648 165.128C103.348 165.128 103.965 165.028 104.498 164.828C105.048 164.612 105.557 164.278 106.023 163.828L108.098 166.078C106.832 167.528 104.982 168.253 102.548 168.253C101.032 168.253 99.6901 167.962 98.5234 167.378C97.3567 166.778 96.4567 165.953 95.8234 164.903C95.1901 163.853 94.8734 162.662 94.8734 161.328C94.8734 160.012 95.1817 158.828 95.7984 157.778C96.4317 156.712 97.2901 155.887 98.3734 155.303C99.4734 154.703 100.698 154.403 102.048 154.403C103.365 154.403 104.557 154.687 105.623 155.253C106.69 155.82 107.523 156.637 108.123 157.703C108.74 158.753 109.048 159.978 109.048 161.378ZM102.073 157.353C101.19 157.353 100.448 157.603 99.8484 158.103C99.2484 158.603 98.8817 159.287 98.7484 160.153H105.373C105.24 159.303 104.873 158.628 104.273 158.128C103.673 157.612 102.94 157.353 102.073 157.353ZM115.76 168.253C114.643 168.253 113.552 168.12 112.485 167.853C111.418 167.57 110.568 167.22 109.935 166.803L111.235 164.003C111.835 164.387 112.56 164.703 113.41 164.953C114.26 165.187 115.093 165.303 115.91 165.303C117.56 165.303 118.385 164.895 118.385 164.078C118.385 163.695 118.16 163.42 117.71 163.253C117.26 163.087 116.568 162.945 115.635 162.828C114.535 162.662 113.627 162.47 112.91 162.253C112.193 162.037 111.568 161.653 111.035 161.103C110.518 160.553 110.26 159.77 110.26 158.753C110.26 157.903 110.502 157.153 110.985 156.503C111.485 155.837 112.202 155.32 113.135 154.953C114.085 154.587 115.202 154.403 116.485 154.403C117.435 154.403 118.377 154.512 119.31 154.728C120.26 154.928 121.043 155.212 121.66 155.578L120.36 158.353C119.177 157.687 117.885 157.353 116.485 157.353C115.652 157.353 115.027 157.47 114.61 157.703C114.193 157.937 113.985 158.237 113.985 158.603C113.985 159.02 114.21 159.312 114.66 159.478C115.11 159.645 115.827 159.803 116.81 159.953C117.91 160.137 118.81 160.337 119.51 160.553C120.21 160.753 120.818 161.128 121.335 161.678C121.852 162.228 122.11 162.995 122.11 163.978C122.11 164.812 121.86 165.553 121.36 166.203C120.86 166.853 120.127 167.362 119.16 167.728C118.21 168.078 117.077 168.253 115.76 168.253ZM128.631 168.253C127.514 168.253 126.423 168.12 125.356 167.853C124.289 167.57 123.439 167.22 122.806 166.803L124.106 164.003C124.706 164.387 125.431 164.703 126.281 164.953C127.131 165.187 127.964 165.303 128.781 165.303C130.431 165.303 131.256 164.895 131.256 164.078C131.256 163.695 131.031 163.42 130.581 163.253C130.131 163.087 129.439 162.945 128.506 162.828C127.406 162.662 126.498 162.47 125.781 162.253C125.064 162.037 124.439 161.653 123.906 161.103C123.389 160.553 123.131 159.77 123.131 158.753C123.131 157.903 123.373 157.153 123.856 156.503C124.356 155.837 125.073 155.32 126.006 154.953C126.956 154.587 128.073 154.403 129.356 154.403C130.306 154.403 131.248 154.512 132.181 154.728C133.131 154.928 133.914 155.212 134.531 155.578L133.231 158.353C132.048 157.687 130.756 157.353 129.356 157.353C128.523 157.353 127.898 157.47 127.481 157.703C127.064 157.937 126.856 158.237 126.856 158.603C126.856 159.02 127.081 159.312 127.531 159.478C127.981 159.645 128.698 159.803 129.681 159.953C130.781 160.137 131.681 160.337 132.381 160.553C133.081 160.753 133.689 161.128 134.206 161.678C134.723 162.228 134.981 162.995 134.981 163.978C134.981 164.812 134.731 165.553 134.231 166.203C133.731 166.853 132.998 167.362 132.031 167.728C131.081 168.078 129.948 168.253 128.631 168.253ZM136.977 154.603H140.877V168.053H136.977V154.603ZM138.927 152.728C138.211 152.728 137.627 152.52 137.177 152.103C136.727 151.687 136.502 151.17 136.502 150.553C136.502 149.937 136.727 149.42 137.177 149.003C137.627 148.587 138.211 148.378 138.927 148.378C139.644 148.378 140.227 148.578 140.677 148.978C141.127 149.378 141.352 149.878 141.352 150.478C141.352 151.128 141.127 151.67 140.677 152.103C140.227 152.52 139.644 152.728 138.927 152.728ZM150.487 168.253C149.07 168.253 147.795 167.962 146.662 167.378C145.545 166.778 144.67 165.953 144.037 164.903C143.404 163.853 143.087 162.662 143.087 161.328C143.087 159.995 143.404 158.803 144.037 157.753C144.67 156.703 145.545 155.887 146.662 155.303C147.795 154.703 149.07 154.403 150.487 154.403C151.904 154.403 153.17 154.703 154.287 155.303C155.404 155.887 156.279 156.703 156.912 157.753C157.545 158.803 157.862 159.995 157.862 161.328C157.862 162.662 157.545 163.853 156.912 164.903C156.279 165.953 155.404 166.778 154.287 167.378C153.17 167.962 151.904 168.253 150.487 168.253ZM150.487 165.053C151.487 165.053 152.304 164.72 152.937 164.053C153.587 163.37 153.912 162.462 153.912 161.328C153.912 160.195 153.587 159.295 152.937 158.628C152.304 157.945 151.487 157.603 150.487 157.603C149.487 157.603 148.662 157.945 148.012 158.628C147.362 159.295 147.037 160.195 147.037 161.328C147.037 162.462 147.362 163.37 148.012 164.053C148.662 164.72 149.487 165.053 150.487 165.053ZM168.234 154.403C169.9 154.403 171.242 154.903 172.259 155.903C173.292 156.903 173.809 158.387 173.809 160.353V168.053H169.909V160.953C169.909 159.887 169.675 159.095 169.209 158.578C168.742 158.045 168.067 157.778 167.184 157.778C166.2 157.778 165.417 158.087 164.834 158.703C164.25 159.303 163.959 160.203 163.959 161.403V168.053H160.059V154.603H163.784V156.178C164.3 155.612 164.942 155.178 165.709 154.878C166.475 154.562 167.317 154.403 168.234 154.403Z" fill="white"/>
<path d="M120.667 52.1667C120.667 58.0456 118.331 63.6838 114.174 67.8409C110.017 71.9979 104.379 74.3333 98.5 74.3333C92.621 74.3333 86.9829 71.9979 82.8258 67.8409C78.6687 63.6838 76.3333 58.0456 76.3333 52.1667C76.3333 46.2877 78.6687 40.6495 82.8258 36.4925C86.9829 32.3354 92.621 30 98.5 30C104.379 30 110.017 32.3354 114.174 36.4925C118.331 40.6495 120.667 46.2877 120.667 52.1667V52.1667ZM157.611 66.9444C157.611 70.8638 156.054 74.6225 153.283 77.3939C150.511 80.1653 146.753 81.7222 142.833 81.7222C138.914 81.7222 135.155 80.1653 132.384 77.3939C129.612 74.6225 128.056 70.8638 128.056 66.9444C128.056 63.0251 129.612 59.2663 132.384 56.495C135.155 53.7236 138.914 52.1667 142.833 52.1667C146.753 52.1667 150.511 53.7236 153.283 56.495C156.054 59.2663 157.611 63.0251 157.611 66.9444V66.9444ZM128.056 118.667C128.056 110.828 124.942 103.31 119.399 97.7677C113.856 92.225 106.339 89.1111 98.5 89.1111C90.6614 89.1111 83.1438 92.225 77.6011 97.7677C72.0583 103.31 68.9444 110.828 68.9444 118.667V140.833H128.056V118.667ZM68.9444 66.9444C68.9444 70.8638 67.3875 74.6225 64.6161 77.3939C61.8448 80.1653 58.086 81.7222 54.1667 81.7222C50.2474 81.7222 46.4886 80.1653 43.7172 77.3939C40.9458 74.6225 39.3889 70.8638 39.3889 66.9444C39.3889 63.0251 40.9458 59.2663 43.7172 56.495C46.4886 53.7236 50.2474 52.1667 54.1667 52.1667C58.086 52.1667 61.8448 53.7236 64.6161 56.495C67.3875 59.2663 68.9444 63.0251 68.9444 66.9444V66.9444ZM142.833 140.833V118.667C142.844 111.154 140.937 103.764 137.292 97.1946C140.568 96.3562 143.992 96.2772 147.303 96.9634C150.614 97.6497 153.724 99.0831 156.397 101.154C159.07 103.226 161.234 105.88 162.725 108.915C164.216 111.95 164.994 115.285 165 118.667V140.833H142.833ZM59.7083 97.1946C56.0637 103.764 54.1563 111.154 54.1667 118.667V140.833H32V118.667C31.9986 115.283 32.7719 111.944 34.2606 108.905C35.7493 105.866 37.914 103.209 40.5887 101.136C43.2634 99.0632 46.3772 97.6303 49.6913 96.9472C53.0054 96.264 56.432 96.3486 59.7083 97.1946V97.1946Z" fill="white"/>
<defs>
<filter id="filter0_dd" x="0" y="0" width="198" height="198" filterUnits="userSpaceOnUse" color-interpolation-filters="sRGB">
<feFlood flood-opacity="0" result="BackgroundImageFix"/>
<feColorMatrix in="SourceAlpha" type="matrix" values="0 0 0 0 0 0 0 0 0 0 0 0 0 0 0 0 0 0 127 0"/>
<feOffset dx="-4" dy="-4"/>
<feGaussianBlur stdDeviation="6"/>
<feColorMatrix type="matrix" values="0 0 0 0 1 0 0 0 0 1 0 0 0 0 1 0 0 0 0.5 0"/>
<feBlend mode="normal" in2="BackgroundImageFix" result="effect1_dropShadow"/>
<feColorMatrix in="SourceAlpha" type="matrix" values="0 0 0 0 0 0 0 0 0 0 0 0 0 0 0 0 0 0 127 0"/>
<feOffset dx="4" dy="4"/>
<feGaussianBlur stdDeviation="6"/>
<feColorMatrix type="matrix" values="0 0 0 0 0 0 0 0 0 0 0 0 0 0 0 0 0 0 0.25 0"/>
<feBlend mode="normal" in2="effect1_dropShadow" result="effect2_dropShadow"/>
<feBlend mode="normal" in="SourceGraphic" in2="effect2_dropShadow" result="shape"/>
</filter>
</defs>
</svg>
