<svg width="162" height="162" viewBox="0 0 162 162" fill="none" xmlns="http://www.w3.org/2000/svg">
<g filter="url(#filter0_dd)">
<rect x="16" y="16" width="130" height="130" rx="10" fill="#55BB99"/>
</g>
<path d="M22.8013 139.04C21.7079 139.04 20.8746 138.84 20.3013 138.44L21.1413 136.18C21.5013 136.433 21.9413 136.56 22.4613 136.56C22.8613 136.56 23.1746 136.427 23.4013 136.16C23.6279 135.907 23.7413 135.52 23.7413 135V124.24H26.8613V134.98C26.8613 136.233 26.5013 137.22 25.7813 137.94C25.0746 138.673 24.0813 139.04 22.8013 139.04ZM25.3013 122.74C24.7279 122.74 24.2613 122.573 23.9013 122.24C23.5413 121.907 23.3613 121.493 23.3613 121C23.3613 120.507 23.5413 120.093 23.9013 119.76C24.2613 119.427 24.7279 119.26 25.3013 119.26C25.8746 119.26 26.3413 119.42 26.7013 119.74C27.0613 120.06 27.2413 120.46 27.2413 120.94C27.2413 121.46 27.0613 121.893 26.7013 122.24C26.3413 122.573 25.8746 122.74 25.3013 122.74ZM34.4441 135.16C33.3107 135.16 32.2907 134.927 31.3841 134.46C30.4907 133.98 29.7907 133.32 29.2841 132.48C28.7774 131.64 28.5241 130.687 28.5241 129.62C28.5241 128.553 28.7774 127.6 29.2841 126.76C29.7907 125.92 30.4907 125.267 31.3841 124.8C32.2907 124.32 33.3107 124.08 34.4441 124.08C35.5774 124.08 36.5907 124.32 37.4841 124.8C38.3774 125.267 39.0774 125.92 39.5841 126.76C40.0907 127.6 40.3441 128.553 40.3441 129.62C40.3441 130.687 40.0907 131.64 39.5841 132.48C39.0774 133.32 38.3774 133.98 37.4841 134.46C36.5907 134.927 35.5774 135.16 34.4441 135.16ZM34.4441 132.6C35.2441 132.6 35.8974 132.333 36.4041 131.8C36.9241 131.253 37.1841 130.527 37.1841 129.62C37.1841 128.713 36.9241 127.993 36.4041 127.46C35.8974 126.913 35.2441 126.64 34.4441 126.64C33.6441 126.64 32.9841 126.913 32.4641 127.46C31.9441 127.993 31.6841 128.713 31.6841 129.62C31.6841 130.527 31.9441 131.253 32.4641 131.8C32.9841 132.333 33.6441 132.6 34.4441 132.6ZM42.0195 124.24H45.1395V135H42.0195V124.24ZM43.5795 122.74C43.0062 122.74 42.5395 122.573 42.1795 122.24C41.8195 121.907 41.6395 121.493 41.6395 121C41.6395 120.507 41.8195 120.093 42.1795 119.76C42.5395 119.427 43.0062 119.26 43.5795 119.26C44.1529 119.26 44.6195 119.42 44.9795 119.74C45.3395 120.06 45.5195 120.46 45.5195 120.94C45.5195 121.46 45.3395 121.893 44.9795 122.24C44.6195 122.573 44.1529 122.74 43.5795 122.74ZM54.1652 124.08C55.4985 124.08 56.5718 124.48 57.3852 125.28C58.2118 126.08 58.6252 127.267 58.6252 128.84V135H55.5052V129.32C55.5052 128.467 55.3185 127.833 54.9452 127.42C54.5718 126.993 54.0318 126.78 53.3252 126.78C52.5385 126.78 51.9118 127.027 51.4452 127.52C50.9785 128 50.7452 128.72 50.7452 129.68V135H47.6252V124.24H50.6052V125.5C51.0185 125.047 51.5318 124.7 52.1452 124.46C52.7585 124.207 53.4318 124.08 54.1652 124.08ZM69.9173 135.16C69.024 135.16 68.1507 135.053 67.2973 134.84C66.444 134.613 65.764 134.333 65.2573 134L66.2973 131.76C66.7773 132.067 67.3573 132.32 68.0373 132.52C68.7173 132.707 69.384 132.8 70.0373 132.8C71.3573 132.8 72.0173 132.473 72.0173 131.82C72.0173 131.513 71.8373 131.293 71.4773 131.16C71.1173 131.027 70.564 130.913 69.8173 130.82C68.9373 130.687 68.2107 130.533 67.6373 130.36C67.064 130.187 66.564 129.88 66.1373 129.44C65.724 129 65.5173 128.373 65.5173 127.56C65.5173 126.88 65.7107 126.28 66.0973 125.76C66.4973 125.227 67.0707 124.813 67.8173 124.52C68.5773 124.227 69.4707 124.08 70.4973 124.08C71.2573 124.08 72.0107 124.167 72.7573 124.34C73.5173 124.5 74.144 124.727 74.6373 125.02L73.5973 127.24C72.6507 126.707 71.6173 126.44 70.4973 126.44C69.8307 126.44 69.3307 126.533 68.9973 126.72C68.664 126.907 68.4973 127.147 68.4973 127.44C68.4973 127.773 68.6773 128.007 69.0373 128.14C69.3973 128.273 69.9707 128.4 70.7573 128.52C71.6373 128.667 72.3573 128.827 72.9173 129C73.4773 129.16 73.964 129.46 74.3773 129.9C74.7907 130.34 74.9973 130.953 74.9973 131.74C74.9973 132.407 74.7973 133 74.3973 133.52C73.9973 134.04 73.4107 134.447 72.6373 134.74C71.8773 135.02 70.9707 135.16 69.9173 135.16ZM87.0523 129.66C87.0523 129.7 87.0323 129.98 86.9923 130.5H78.8523C78.999 131.167 79.3457 131.693 79.8923 132.08C80.439 132.467 81.119 132.66 81.9323 132.66C82.4923 132.66 82.9857 132.58 83.4123 132.42C83.8523 132.247 84.259 131.98 84.6323 131.62L86.2923 133.42C85.279 134.58 83.799 135.16 81.8523 135.16C80.639 135.16 79.5657 134.927 78.6323 134.46C77.699 133.98 76.979 133.32 76.4723 132.48C75.9657 131.64 75.7123 130.687 75.7123 129.62C75.7123 128.567 75.959 127.62 76.4523 126.78C76.959 125.927 77.6457 125.267 78.5123 124.8C79.3923 124.32 80.3723 124.08 81.4523 124.08C82.5057 124.08 83.459 124.307 84.3123 124.76C85.1657 125.213 85.8323 125.867 86.3123 126.72C86.8057 127.56 87.0523 128.54 87.0523 129.66ZM81.4723 126.44C80.7657 126.44 80.1723 126.64 79.6923 127.04C79.2123 127.44 78.919 127.987 78.8123 128.68H84.1123C84.0057 128 83.7123 127.46 83.2323 127.06C82.7523 126.647 82.1657 126.44 81.4723 126.44ZM92.3395 135.16C91.4462 135.16 90.5729 135.053 89.7195 134.84C88.8662 134.613 88.1862 134.333 87.6795 134L88.7195 131.76C89.1995 132.067 89.7795 132.32 90.4595 132.52C91.1395 132.707 91.8062 132.8 92.4595 132.8C93.7795 132.8 94.4395 132.473 94.4395 131.82C94.4395 131.513 94.2595 131.293 93.8995 131.16C93.5395 131.027 92.9862 130.913 92.2395 130.82C91.3595 130.687 90.6329 130.533 90.0595 130.36C89.4862 130.187 88.9862 129.88 88.5595 129.44C88.1462 129 87.9395 128.373 87.9395 127.56C87.9395 126.88 88.1329 126.28 88.5195 125.76C88.9195 125.227 89.4929 124.813 90.2395 124.52C90.9995 124.227 91.8929 124.08 92.9195 124.08C93.6795 124.08 94.4329 124.167 95.1795 124.34C95.9395 124.5 96.5662 124.727 97.0595 125.02L96.0195 127.24C95.0729 126.707 94.0395 126.44 92.9195 126.44C92.2529 126.44 91.7529 126.533 91.4195 126.72C91.0862 126.907 90.9195 127.147 90.9195 127.44C90.9195 127.773 91.0995 128.007 91.4595 128.14C91.8195 128.273 92.3929 128.4 93.1795 128.52C94.0595 128.667 94.7795 128.827 95.3395 129C95.8995 129.16 96.3862 129.46 96.7995 129.9C97.2129 130.34 97.4195 130.953 97.4195 131.74C97.4195 132.407 97.2195 133 96.8195 133.52C96.4195 134.04 95.8329 134.447 95.0595 134.74C94.2995 135.02 93.3929 135.16 92.3395 135.16ZM102.555 135.16C101.661 135.16 100.788 135.053 99.9345 134.84C99.0812 134.613 98.4012 134.333 97.8945 134L98.9345 131.76C99.4145 132.067 99.9945 132.32 100.675 132.52C101.355 132.707 102.021 132.8 102.675 132.8C103.995 132.8 104.655 132.473 104.655 131.82C104.655 131.513 104.475 131.293 104.115 131.16C103.755 131.027 103.201 130.913 102.455 130.82C101.575 130.687 100.848 130.533 100.275 130.36C99.7012 130.187 99.2012 129.88 98.7745 129.44C98.3612 129 98.1545 128.373 98.1545 127.56C98.1545 126.88 98.3479 126.28 98.7345 125.76C99.1345 125.227 99.7079 124.813 100.455 124.52C101.215 124.227 102.108 124.08 103.135 124.08C103.895 124.08 104.648 124.167 105.395 124.34C106.155 124.5 106.781 124.727 107.275 125.02L106.235 127.24C105.288 126.707 104.255 126.44 103.135 126.44C102.468 126.44 101.968 126.533 101.635 126.72C101.301 126.907 101.135 127.147 101.135 127.44C101.135 127.773 101.315 128.007 101.675 128.14C102.035 128.273 102.608 128.4 103.395 128.52C104.275 128.667 104.995 128.827 105.555 129C106.115 129.16 106.601 129.46 107.015 129.9C107.428 130.34 107.635 130.953 107.635 131.74C107.635 132.407 107.435 133 107.035 133.52C106.635 134.04 106.048 134.447 105.275 134.74C104.515 135.02 103.608 135.16 102.555 135.16ZM109.15 124.24H112.27V135H109.15V124.24ZM110.71 122.74C110.136 122.74 109.67 122.573 109.31 122.24C108.95 121.907 108.77 121.493 108.77 121C108.77 120.507 108.95 120.093 109.31 119.76C109.67 119.427 110.136 119.26 110.71 119.26C111.283 119.26 111.75 119.42 112.11 119.74C112.47 120.06 112.65 120.46 112.65 120.94C112.65 121.46 112.47 121.893 112.11 122.24C111.75 122.573 111.283 122.74 110.71 122.74ZM119.875 135.16C118.742 135.16 117.722 134.927 116.815 134.46C115.922 133.98 115.222 133.32 114.715 132.48C114.208 131.64 113.955 130.687 113.955 129.62C113.955 128.553 114.208 127.6 114.715 126.76C115.222 125.92 115.922 125.267 116.815 124.8C117.722 124.32 118.742 124.08 119.875 124.08C121.008 124.08 122.022 124.32 122.915 124.8C123.808 125.267 124.508 125.92 125.015 126.76C125.522 127.6 125.775 128.553 125.775 129.62C125.775 130.687 125.522 131.64 125.015 132.48C124.508 133.32 123.808 133.98 122.915 134.46C122.022 134.927 121.008 135.16 119.875 135.16ZM119.875 132.6C120.675 132.6 121.328 132.333 121.835 131.8C122.355 131.253 122.615 130.527 122.615 129.62C122.615 128.713 122.355 127.993 121.835 127.46C121.328 126.913 120.675 126.64 119.875 126.64C119.075 126.64 118.415 126.913 117.895 127.46C117.375 127.993 117.115 128.713 117.115 129.62C117.115 130.527 117.375 131.253 117.895 131.8C118.415 132.333 119.075 132.6 119.875 132.6ZM133.991 124.08C135.324 124.08 136.397 124.48 137.211 125.28C138.037 126.08 138.451 127.267 138.451 128.84V135H135.331V129.32C135.331 128.467 135.144 127.833 134.771 127.42C134.397 126.993 133.857 126.78 133.151 126.78C132.364 126.78 131.737 127.027 131.271 127.52C130.804 128 130.571 128.72 130.571 129.68V135H127.451V124.24H130.431V125.5C130.844 125.047 131.357 124.7 131.971 124.46C132.584 124.207 133.257 124.08 133.991 124.08Z" fill="white"/>
<g clip-path="url(#clip0)">
<path d="M63.8747 90.25C63.52 90.25 63.1652 90.302 62.8268 90.4118C60.903 91.0367 58.8798 91.4375 56.7497 91.4375C54.6197 91.4375 52.5965 91.0367 50.6712 90.4118C50.3328 90.302 49.9795 90.25 49.6248 90.25C40.4127 90.25 32.9508 97.7431 32.9998 106.967C33.0205 110.865 36.2253 114 40.1248 114H73.3747C77.2742 114 80.479 110.865 80.4997 106.967C80.5487 97.7431 73.0868 90.25 63.8747 90.25ZM56.7497 85.5C64.6199 85.5 70.9997 79.1202 70.9997 71.25C70.9997 63.3798 64.6199 57 56.7497 57C48.8796 57 42.4998 63.3798 42.4998 71.25C42.4998 79.1202 48.8796 85.5 56.7497 85.5ZM120.875 38H63.8747C59.9456 38 56.7497 41.3027 56.7497 45.361V52.25C60.2262 52.25 63.4443 53.2564 66.2497 54.8922V47.5H118.5V90.25H109V80.75H89.9997V90.25H78.6829C81.518 92.7274 83.5991 95.999 84.5744 99.75H120.875C124.804 99.75 128 96.4473 128 92.389V45.361C128 41.3027 124.804 38 120.875 38Z" fill="white"/>
</g>
<defs>
<filter id="filter0_dd" x="0" y="0" width="162" height="162" filterUnits="userSpaceOnUse" color-interpolation-filters="sRGB">
<feFlood flood-opacity="0" result="BackgroundImageFix"/>
<feColorMatrix in="SourceAlpha" type="matrix" values="0 0 0 0 0 0 0 0 0 0 0 0 0 0 0 0 0 0 127 0"/>
<feOffset dx="-4" dy="-4"/>
<feGaussianBlur stdDeviation="6"/>
<feColorMatrix type="matrix" values="0 0 0 0 1 0 0 0 0 1 0 0 0 0 1 0 0 0 0.5 0"/>
<feBlend mode="normal" in2="BackgroundImageFix" result="effect1_dropShadow"/>
<feColorMatrix in="SourceAlpha" type="matrix" values="0 0 0 0 0 0 0 0 0 0 0 0 0 0 0 0 0 0 127 0"/>
<feOffset dx="4" dy="4"/>
<feGaussianBlur stdDeviation="6"/>
<feColorMatrix type="matrix" values="0 0 0 0 0 0 0 0 0 0 0 0 0 0 0 0 0 0 0.25 0"/>
<feBlend mode="normal" in2="effect1_dropShadow" result="effect2_dropShadow"/>
<feBlend mode="normal" in="SourceGraphic" in2="effect2_dropShadow" result="shape"/>
</filter>
<clipPath id="clip0">
<rect width="95" height="76" fill="white" transform="translate(33 38)"/>
</clipPath>
</defs>
</svg>
