<svg width="162" height="162" viewBox="0 0 162 162" fill="none" xmlns="http://www.w3.org/2000/svg">
<g filter="url(#filter0_dd)">
<rect x="16" y="16" width="130" height="130" rx="10" fill="#55BB99"/>
</g>
<path d="M32.3769 123.952L27.8369 134.712H24.6169L20.0969 123.952H23.3169L26.2969 131.272L29.3769 123.952H32.3769ZM33.24 123.952H36.36V134.712H33.24V123.952ZM34.8 122.452C34.2267 122.452 33.76 122.286 33.4 121.952C33.04 121.619 32.86 121.206 32.86 120.712C32.86 120.219 33.04 119.806 33.4 119.472C33.76 119.139 34.2267 118.972 34.8 118.972C35.3733 118.972 35.84 119.132 36.2 119.452C36.56 119.772 36.74 120.172 36.74 120.652C36.74 121.172 36.56 121.606 36.2 121.952C35.84 122.286 35.3733 122.452 34.8 122.452ZM42.4656 134.872C41.5723 134.872 40.699 134.766 39.8456 134.552C38.9923 134.326 38.3123 134.046 37.8056 133.712L38.8456 131.472C39.3256 131.779 39.9056 132.032 40.5856 132.232C41.2656 132.419 41.9323 132.512 42.5856 132.512C43.9056 132.512 44.5656 132.186 44.5656 131.532C44.5656 131.226 44.3856 131.006 44.0256 130.872C43.6656 130.739 43.1123 130.626 42.3656 130.532C41.4856 130.399 40.759 130.246 40.1856 130.072C39.6123 129.899 39.1123 129.592 38.6856 129.152C38.2723 128.712 38.0656 128.086 38.0656 127.272C38.0656 126.592 38.259 125.992 38.6456 125.472C39.0456 124.939 39.619 124.526 40.3656 124.232C41.1256 123.939 42.019 123.792 43.0456 123.792C43.8056 123.792 44.559 123.879 45.3056 124.052C46.0656 124.212 46.6923 124.439 47.1856 124.732L46.1456 126.952C45.199 126.419 44.1656 126.152 43.0456 126.152C42.379 126.152 41.879 126.246 41.5456 126.432C41.2123 126.619 41.0456 126.859 41.0456 127.152C41.0456 127.486 41.2256 127.719 41.5856 127.852C41.9456 127.986 42.519 128.112 43.3056 128.232C44.1856 128.379 44.9056 128.539 45.4656 128.712C46.0256 128.872 46.5123 129.172 46.9256 129.612C47.339 130.052 47.5456 130.666 47.5456 131.452C47.5456 132.119 47.3456 132.712 46.9456 133.232C46.5456 133.752 45.959 134.159 45.1856 134.452C44.4256 134.732 43.519 134.872 42.4656 134.872ZM49.0606 123.952H52.1806V134.712H49.0606V123.952ZM50.6206 122.452C50.0473 122.452 49.5806 122.286 49.2206 121.952C48.8606 121.619 48.6806 121.206 48.6806 120.712C48.6806 120.219 48.8606 119.806 49.2206 119.472C49.5806 119.139 50.0473 118.972 50.6206 118.972C51.194 118.972 51.6606 119.132 52.0206 119.452C52.3806 119.772 52.5606 120.172 52.5606 120.652C52.5606 121.172 52.3806 121.606 52.0206 121.952C51.6606 122.286 51.194 122.452 50.6206 122.452ZM61.6063 134.192C61.2996 134.419 60.9196 134.592 60.4663 134.712C60.0263 134.819 59.5596 134.872 59.0663 134.872C57.7862 134.872 56.7929 134.546 56.0862 133.892C55.3929 133.239 55.0462 132.279 55.0462 131.012V126.592H53.3862V124.192H55.0462V121.572H58.1662V124.192H60.8462V126.592H58.1662V130.972C58.1662 131.426 58.2796 131.779 58.5062 132.032C58.7462 132.272 59.0796 132.392 59.5062 132.392C59.9996 132.392 60.4196 132.259 60.7662 131.992L61.6063 134.192ZM71.8217 134.872C70.9284 134.872 70.0551 134.766 69.2017 134.552C68.3484 134.326 67.6684 134.046 67.1617 133.712L68.2017 131.472C68.6817 131.779 69.2617 132.032 69.9417 132.232C70.6217 132.419 71.2884 132.512 71.9417 132.512C73.2617 132.512 73.9217 132.186 73.9217 131.532C73.9217 131.226 73.7417 131.006 73.3817 130.872C73.0217 130.739 72.4684 130.626 71.7217 130.532C70.8417 130.399 70.1151 130.246 69.5417 130.072C68.9684 129.899 68.4684 129.592 68.0417 129.152C67.6284 128.712 67.4217 128.086 67.4217 127.272C67.4217 126.592 67.6151 125.992 68.0017 125.472C68.4017 124.939 68.9751 124.526 69.7217 124.232C70.4817 123.939 71.3751 123.792 72.4017 123.792C73.1617 123.792 73.9151 123.879 74.6617 124.052C75.4217 124.212 76.0484 124.439 76.5417 124.732L75.5017 126.952C74.5551 126.419 73.5217 126.152 72.4017 126.152C71.7351 126.152 71.2351 126.246 70.9017 126.432C70.5684 126.619 70.4017 126.859 70.4017 127.152C70.4017 127.486 70.5817 127.719 70.9417 127.852C71.3017 127.986 71.8751 128.112 72.6617 128.232C73.5417 128.379 74.2617 128.539 74.8217 128.712C75.3817 128.872 75.8684 129.172 76.2817 129.612C76.6951 130.052 76.9017 130.666 76.9017 131.452C76.9017 132.119 76.7017 132.712 76.3017 133.232C75.9017 133.752 75.3151 134.159 74.5417 134.452C73.7817 134.732 72.8751 134.872 71.8217 134.872ZM88.9567 129.372C88.9567 129.412 88.9367 129.692 88.8967 130.212H80.7567C80.9034 130.879 81.2501 131.406 81.7967 131.792C82.3434 132.179 83.0234 132.372 83.8367 132.372C84.3967 132.372 84.8901 132.292 85.3167 132.132C85.7567 131.959 86.1634 131.692 86.5367 131.332L88.1967 133.132C87.1834 134.292 85.7034 134.872 83.7567 134.872C82.5434 134.872 81.4701 134.639 80.5367 134.172C79.6034 133.692 78.8834 133.032 78.3767 132.192C77.8701 131.352 77.6167 130.399 77.6167 129.332C77.6167 128.279 77.8634 127.332 78.3567 126.492C78.8634 125.639 79.5501 124.979 80.4167 124.512C81.2967 124.032 82.2767 123.792 83.3567 123.792C84.4101 123.792 85.3634 124.019 86.2167 124.472C87.0701 124.926 87.7367 125.579 88.2167 126.432C88.7101 127.272 88.9567 128.252 88.9567 129.372ZM83.3767 126.152C82.6701 126.152 82.0767 126.352 81.5967 126.752C81.1167 127.152 80.8234 127.699 80.7167 128.392H86.0167C85.9101 127.712 85.6167 127.172 85.1367 126.772C84.6567 126.359 84.0701 126.152 83.3767 126.152ZM94.2439 134.872C93.3506 134.872 92.4772 134.766 91.6239 134.552C90.7706 134.326 90.0906 134.046 89.5839 133.712L90.6239 131.472C91.1039 131.779 91.6839 132.032 92.3639 132.232C93.0439 132.419 93.7106 132.512 94.3639 132.512C95.6839 132.512 96.3439 132.186 96.3439 131.532C96.3439 131.226 96.1639 131.006 95.8039 130.872C95.4439 130.739 94.8906 130.626 94.1439 130.532C93.2639 130.399 92.5372 130.246 91.9639 130.072C91.3906 129.899 90.8906 129.592 90.4639 129.152C90.0506 128.712 89.8439 128.086 89.8439 127.272C89.8439 126.592 90.0372 125.992 90.4239 125.472C90.8239 124.939 91.3972 124.526 92.1439 124.232C92.9039 123.939 93.7972 123.792 94.8239 123.792C95.5839 123.792 96.3372 123.879 97.0839 124.052C97.8439 124.212 98.4706 124.439 98.9639 124.732L97.9239 126.952C96.9772 126.419 95.9439 126.152 94.8239 126.152C94.1572 126.152 93.6572 126.246 93.3239 126.432C92.9906 126.619 92.8239 126.859 92.8239 127.152C92.8239 127.486 93.0039 127.719 93.3639 127.852C93.7239 127.986 94.2972 128.112 95.0839 128.232C95.9639 128.379 96.6839 128.539 97.2439 128.712C97.8039 128.872 98.2906 129.172 98.7039 129.612C99.1172 130.052 99.3239 130.666 99.3239 131.452C99.3239 132.119 99.1239 132.712 98.7239 133.232C98.3239 133.752 97.7372 134.159 96.9639 134.452C96.2039 134.732 95.2972 134.872 94.2439 134.872ZM104.459 134.872C103.566 134.872 102.692 134.766 101.839 134.552C100.986 134.326 100.306 134.046 99.7989 133.712L100.839 131.472C101.319 131.779 101.899 132.032 102.579 132.232C103.259 132.419 103.926 132.512 104.579 132.512C105.899 132.512 106.559 132.186 106.559 131.532C106.559 131.226 106.379 131.006 106.019 130.872C105.659 130.739 105.106 130.626 104.359 130.532C103.479 130.399 102.752 130.246 102.179 130.072C101.606 129.899 101.106 129.592 100.679 129.152C100.266 128.712 100.059 128.086 100.059 127.272C100.059 126.592 100.252 125.992 100.639 125.472C101.039 124.939 101.612 124.526 102.359 124.232C103.119 123.939 104.012 123.792 105.039 123.792C105.799 123.792 106.552 123.879 107.299 124.052C108.059 124.212 108.686 124.439 109.179 124.732L108.139 126.952C107.192 126.419 106.159 126.152 105.039 126.152C104.372 126.152 103.872 126.246 103.539 126.432C103.206 126.619 103.039 126.859 103.039 127.152C103.039 127.486 103.219 127.719 103.579 127.852C103.939 127.986 104.512 128.112 105.299 128.232C106.179 128.379 106.899 128.539 107.459 128.712C108.019 128.872 108.506 129.172 108.919 129.612C109.332 130.052 109.539 130.666 109.539 131.452C109.539 132.119 109.339 132.712 108.939 133.232C108.539 133.752 107.952 134.159 107.179 134.452C106.419 134.732 105.512 134.872 104.459 134.872ZM111.054 123.952H114.174V134.712H111.054V123.952ZM112.614 122.452C112.041 122.452 111.574 122.286 111.214 121.952C110.854 121.619 110.674 121.206 110.674 120.712C110.674 120.219 110.854 119.806 111.214 119.472C111.574 119.139 112.041 118.972 112.614 118.972C113.187 118.972 113.654 119.132 114.014 119.452C114.374 119.772 114.554 120.172 114.554 120.652C114.554 121.172 114.374 121.606 114.014 121.952C113.654 122.286 113.187 122.452 112.614 122.452ZM121.78 134.872C120.646 134.872 119.626 134.639 118.72 134.172C117.826 133.692 117.126 133.032 116.62 132.192C116.113 131.352 115.86 130.399 115.86 129.332C115.86 128.266 116.113 127.312 116.62 126.472C117.126 125.632 117.826 124.979 118.72 124.512C119.626 124.032 120.646 123.792 121.78 123.792C122.913 123.792 123.926 124.032 124.82 124.512C125.713 124.979 126.413 125.632 126.92 126.472C127.426 127.312 127.68 128.266 127.68 129.332C127.68 130.399 127.426 131.352 126.92 132.192C126.413 133.032 125.713 133.692 124.82 134.172C123.926 134.639 122.913 134.872 121.78 134.872ZM121.78 132.312C122.58 132.312 123.233 132.046 123.74 131.512C124.26 130.966 124.52 130.239 124.52 129.332C124.52 128.426 124.26 127.706 123.74 127.172C123.233 126.626 122.58 126.352 121.78 126.352C120.98 126.352 120.32 126.626 119.8 127.172C119.28 127.706 119.02 128.426 119.02 129.332C119.02 130.239 119.28 130.966 119.8 131.512C120.32 132.046 120.98 132.312 121.78 132.312ZM135.895 123.792C137.228 123.792 138.302 124.192 139.115 124.992C139.942 125.792 140.355 126.979 140.355 128.552V134.712H137.235V129.032C137.235 128.179 137.048 127.546 136.675 127.132C136.302 126.706 135.762 126.492 135.055 126.492C134.268 126.492 133.642 126.739 133.175 127.232C132.708 127.712 132.475 128.432 132.475 129.392V134.712H129.355V123.952H132.335V125.212C132.748 124.759 133.262 124.412 133.875 124.172C134.488 123.919 135.162 123.792 135.895 123.792Z" fill="white"/>
<path d="M99.0325 44.4052C99.0325 49.0092 97.2036 53.4247 93.948 56.6802C90.6925 59.9357 86.2771 61.7647 81.673 61.7647C77.069 61.7647 72.6536 59.9357 69.3981 56.6802C66.1425 53.4247 64.3136 49.0092 64.3136 44.4052C64.3136 39.8012 66.1425 35.3858 69.3981 32.1302C72.6536 28.8747 77.069 27.0458 81.673 27.0458C86.2771 27.0458 90.6925 28.8747 93.948 32.1302C97.2036 35.3858 99.0325 39.8012 99.0325 44.4052V44.4052ZM127.965 55.9782C127.965 59.0475 126.746 61.9911 124.575 64.1615C122.405 66.3318 119.461 67.5511 116.392 67.5511C113.323 67.5511 110.379 66.3318 108.209 64.1615C106.038 61.9911 104.819 59.0475 104.819 55.9782C104.819 52.9088 106.038 49.9652 108.209 47.7949C110.379 45.6245 113.323 44.4052 116.392 44.4052C119.461 44.4052 122.405 45.6245 124.575 47.7949C126.746 49.9652 127.965 52.9088 127.965 55.9782V55.9782ZM104.819 96.4835C104.819 90.3449 102.38 84.4576 98.0397 80.1169C93.699 75.7762 87.8117 73.3376 81.673 73.3376C75.5344 73.3376 69.6471 75.7762 65.3064 80.1169C60.9657 84.4576 58.5271 90.3449 58.5271 96.4835V113.843H104.819V96.4835ZM58.5271 55.9782C58.5271 59.0475 57.3078 61.9911 55.1375 64.1615C52.9671 66.3318 50.0235 67.5511 46.9542 67.5511C43.8848 67.5511 40.9412 66.3318 38.7708 64.1615C36.6005 61.9911 35.3812 59.0475 35.3812 55.9782C35.3812 52.9088 36.6005 49.9652 38.7708 47.7949C40.9412 45.6245 43.8848 44.4052 46.9542 44.4052C50.0235 44.4052 52.9671 45.6245 55.1375 47.7949C57.3078 49.9652 58.5271 52.9088 58.5271 55.9782V55.9782ZM116.392 113.843V96.4835C116.4 90.6003 114.906 84.8124 112.052 79.668C114.617 79.0115 117.299 78.9496 119.892 79.487C122.485 80.0244 124.921 81.147 127.014 82.7691C129.107 84.3911 130.802 86.4698 131.97 88.8466C133.137 91.2234 133.747 93.8354 133.751 96.4835V113.843H116.392ZM51.294 79.668C48.4398 84.8125 46.9461 90.6004 46.9542 96.4835V113.843H29.5947V96.4835C29.5936 93.8336 30.1992 91.2185 31.3651 88.8388C32.531 86.459 34.2262 84.3778 36.3208 82.7546C38.4155 81.1314 40.8539 80.0093 43.4494 79.4743C46.0448 78.9393 48.7282 79.0055 51.294 79.668V79.668Z" fill="white"/>
<defs>
<filter id="filter0_dd" x="0" y="0" width="162" height="162" filterUnits="userSpaceOnUse" color-interpolation-filters="sRGB">
<feFlood flood-opacity="0" result="BackgroundImageFix"/>
<feColorMatrix in="SourceAlpha" type="matrix" values="0 0 0 0 0 0 0 0 0 0 0 0 0 0 0 0 0 0 127 0"/>
<feOffset dx="-4" dy="-4"/>
<feGaussianBlur stdDeviation="6"/>
<feColorMatrix type="matrix" values="0 0 0 0 1 0 0 0 0 1 0 0 0 0 1 0 0 0 0.5 0"/>
<feBlend mode="normal" in2="BackgroundImageFix" result="effect1_dropShadow"/>
<feColorMatrix in="SourceAlpha" type="matrix" values="0 0 0 0 0 0 0 0 0 0 0 0 0 0 0 0 0 0 127 0"/>
<feOffset dx="4" dy="4"/>
<feGaussianBlur stdDeviation="6"/>
<feColorMatrix type="matrix" values="0 0 0 0 0 0 0 0 0 0 0 0 0 0 0 0 0 0 0.25 0"/>
<feBlend mode="normal" in2="effect1_dropShadow" result="effect2_dropShadow"/>
<feBlend mode="normal" in="SourceGraphic" in2="effect2_dropShadow" result="shape"/>
</filter>
</defs>
</svg>
