<svg width="185" height="185" viewBox="0 0 185 185" fill="none" xmlns="http://www.w3.org/2000/svg">
<g filter="url(#filter0_dd)">
<rect x="16" y="16" width="153" height="153" rx="10" fill="#55BB99"/>
</g>
<path d="M43.8769 143.24L39.3369 154H36.1169L31.5969 143.24H34.8169L37.7969 150.56L40.8769 143.24H43.8769ZM44.74 143.24H47.86V154H44.74V143.24ZM46.3 141.74C45.7267 141.74 45.26 141.573 44.9 141.24C44.54 140.907 44.36 140.493 44.36 140C44.36 139.507 44.54 139.093 44.9 138.76C45.26 138.427 45.7267 138.26 46.3 138.26C46.8733 138.26 47.34 138.42 47.7 138.74C48.06 139.06 48.24 139.46 48.24 139.94C48.24 140.46 48.06 140.893 47.7 141.24C47.34 141.573 46.8733 141.74 46.3 141.74ZM53.9656 154.16C53.0723 154.16 52.199 154.053 51.3456 153.84C50.4923 153.613 49.8123 153.333 49.3056 153L50.3456 150.76C50.8256 151.067 51.4056 151.32 52.0856 151.52C52.7656 151.707 53.4323 151.8 54.0856 151.8C55.4056 151.8 56.0656 151.473 56.0656 150.82C56.0656 150.513 55.8856 150.293 55.5256 150.16C55.1656 150.027 54.6123 149.913 53.8656 149.82C52.9856 149.687 52.259 149.533 51.6856 149.36C51.1123 149.187 50.6123 148.88 50.1856 148.44C49.7723 148 49.5656 147.373 49.5656 146.56C49.5656 145.88 49.759 145.28 50.1456 144.76C50.5456 144.227 51.119 143.813 51.8656 143.52C52.6256 143.227 53.519 143.08 54.5456 143.08C55.3056 143.08 56.059 143.167 56.8056 143.34C57.5656 143.5 58.1923 143.727 58.6856 144.02L57.6456 146.24C56.699 145.707 55.6656 145.44 54.5456 145.44C53.879 145.44 53.379 145.533 53.0456 145.72C52.7123 145.907 52.5456 146.147 52.5456 146.44C52.5456 146.773 52.7256 147.007 53.0856 147.14C53.4456 147.273 54.019 147.4 54.8056 147.52C55.6856 147.667 56.4056 147.827 56.9656 148C57.5256 148.16 58.0123 148.46 58.4256 148.9C58.839 149.34 59.0456 149.953 59.0456 150.74C59.0456 151.407 58.8456 152 58.4456 152.52C58.0456 153.04 57.459 153.447 56.6856 153.74C55.9256 154.02 55.019 154.16 53.9656 154.16ZM60.5606 143.24H63.6806V154H60.5606V143.24ZM62.1206 141.74C61.5473 141.74 61.0806 141.573 60.7206 141.24C60.3606 140.907 60.1806 140.493 60.1806 140C60.1806 139.507 60.3606 139.093 60.7206 138.76C61.0806 138.427 61.5473 138.26 62.1206 138.26C62.694 138.26 63.1606 138.42 63.5206 138.74C63.8806 139.06 64.0606 139.46 64.0606 139.94C64.0606 140.46 63.8806 140.893 63.5206 141.24C63.1606 141.573 62.694 141.74 62.1206 141.74ZM73.1063 153.48C72.7996 153.707 72.4196 153.88 71.9663 154C71.5263 154.107 71.0596 154.16 70.5663 154.16C69.2862 154.16 68.2929 153.833 67.5862 153.18C66.8929 152.527 66.5462 151.567 66.5462 150.3V145.88H64.8862V143.48H66.5462V140.86H69.6662V143.48H72.3462V145.88H69.6662V150.26C69.6662 150.713 69.7796 151.067 70.0062 151.32C70.2462 151.56 70.5796 151.68 71.0062 151.68C71.4996 151.68 71.9196 151.547 72.2662 151.28L73.1063 153.48ZM83.3217 154.16C82.4284 154.16 81.5551 154.053 80.7017 153.84C79.8484 153.613 79.1684 153.333 78.6617 153L79.7017 150.76C80.1817 151.067 80.7617 151.32 81.4417 151.52C82.1217 151.707 82.7884 151.8 83.4417 151.8C84.7617 151.8 85.4217 151.473 85.4217 150.82C85.4217 150.513 85.2417 150.293 84.8817 150.16C84.5217 150.027 83.9684 149.913 83.2217 149.82C82.3417 149.687 81.6151 149.533 81.0417 149.36C80.4684 149.187 79.9684 148.88 79.5417 148.44C79.1284 148 78.9217 147.373 78.9217 146.56C78.9217 145.88 79.1151 145.28 79.5017 144.76C79.9017 144.227 80.4751 143.813 81.2217 143.52C81.9817 143.227 82.8751 143.08 83.9017 143.08C84.6617 143.08 85.4151 143.167 86.1617 143.34C86.9217 143.5 87.5484 143.727 88.0417 144.02L87.0017 146.24C86.0551 145.707 85.0217 145.44 83.9017 145.44C83.2351 145.44 82.7351 145.533 82.4017 145.72C82.0684 145.907 81.9017 146.147 81.9017 146.44C81.9017 146.773 82.0817 147.007 82.4417 147.14C82.8017 147.273 83.3751 147.4 84.1617 147.52C85.0417 147.667 85.7617 147.827 86.3217 148C86.8817 148.16 87.3684 148.46 87.7817 148.9C88.1951 149.34 88.4017 149.953 88.4017 150.74C88.4017 151.407 88.2017 152 87.8017 152.52C87.4017 153.04 86.8151 153.447 86.0417 153.74C85.2817 154.02 84.3751 154.16 83.3217 154.16ZM100.457 148.66C100.457 148.7 100.437 148.98 100.397 149.5H92.2567C92.4034 150.167 92.75 150.693 93.2967 151.08C93.8434 151.467 94.5234 151.66 95.3367 151.66C95.8967 151.66 96.39 151.58 96.8167 151.42C97.2567 151.247 97.6634 150.98 98.0367 150.62L99.6967 152.42C98.6834 153.58 97.2034 154.16 95.2567 154.16C94.0434 154.16 92.97 153.927 92.0367 153.46C91.1034 152.98 90.3834 152.32 89.8767 151.48C89.37 150.64 89.1167 149.687 89.1167 148.62C89.1167 147.567 89.3634 146.62 89.8567 145.78C90.3634 144.927 91.05 144.267 91.9167 143.8C92.7967 143.32 93.7767 143.08 94.8567 143.08C95.91 143.08 96.8634 143.307 97.7167 143.76C98.57 144.213 99.2367 144.867 99.7167 145.72C100.21 146.56 100.457 147.54 100.457 148.66ZM94.8767 145.44C94.17 145.44 93.5767 145.64 93.0967 146.04C92.6167 146.44 92.3234 146.987 92.2167 147.68H97.5167C97.41 147 97.1167 146.46 96.6367 146.06C96.1567 145.647 95.57 145.44 94.8767 145.44ZM105.744 154.16C104.851 154.16 103.977 154.053 103.124 153.84C102.271 153.613 101.591 153.333 101.084 153L102.124 150.76C102.604 151.067 103.184 151.32 103.864 151.52C104.544 151.707 105.211 151.8 105.864 151.8C107.184 151.8 107.844 151.473 107.844 150.82C107.844 150.513 107.664 150.293 107.304 150.16C106.944 150.027 106.391 149.913 105.644 149.82C104.764 149.687 104.037 149.533 103.464 149.36C102.891 149.187 102.391 148.88 101.964 148.44C101.551 148 101.344 147.373 101.344 146.56C101.344 145.88 101.537 145.28 101.924 144.76C102.324 144.227 102.897 143.813 103.644 143.52C104.404 143.227 105.297 143.08 106.324 143.08C107.084 143.08 107.837 143.167 108.584 143.34C109.344 143.5 109.971 143.727 110.464 144.02L109.424 146.24C108.477 145.707 107.444 145.44 106.324 145.44C105.657 145.44 105.157 145.533 104.824 145.72C104.491 145.907 104.324 146.147 104.324 146.44C104.324 146.773 104.504 147.007 104.864 147.14C105.224 147.273 105.797 147.4 106.584 147.52C107.464 147.667 108.184 147.827 108.744 148C109.304 148.16 109.791 148.46 110.204 148.9C110.617 149.34 110.824 149.953 110.824 150.74C110.824 151.407 110.624 152 110.224 152.52C109.824 153.04 109.237 153.447 108.464 153.74C107.704 154.02 106.797 154.16 105.744 154.16ZM115.959 154.16C115.066 154.16 114.192 154.053 113.339 153.84C112.486 153.613 111.806 153.333 111.299 153L112.339 150.76C112.819 151.067 113.399 151.32 114.079 151.52C114.759 151.707 115.426 151.8 116.079 151.8C117.399 151.8 118.059 151.473 118.059 150.82C118.059 150.513 117.879 150.293 117.519 150.16C117.159 150.027 116.606 149.913 115.859 149.82C114.979 149.687 114.252 149.533 113.679 149.36C113.106 149.187 112.606 148.88 112.179 148.44C111.766 148 111.559 147.373 111.559 146.56C111.559 145.88 111.752 145.28 112.139 144.76C112.539 144.227 113.112 143.813 113.859 143.52C114.619 143.227 115.512 143.08 116.539 143.08C117.299 143.08 118.052 143.167 118.799 143.34C119.559 143.5 120.186 143.727 120.679 144.02L119.639 146.24C118.692 145.707 117.659 145.44 116.539 145.44C115.872 145.44 115.372 145.533 115.039 145.72C114.706 145.907 114.539 146.147 114.539 146.44C114.539 146.773 114.719 147.007 115.079 147.14C115.439 147.273 116.012 147.4 116.799 147.52C117.679 147.667 118.399 147.827 118.959 148C119.519 148.16 120.006 148.46 120.419 148.9C120.832 149.34 121.039 149.953 121.039 150.74C121.039 151.407 120.839 152 120.439 152.52C120.039 153.04 119.452 153.447 118.679 153.74C117.919 154.02 117.012 154.16 115.959 154.16ZM122.554 143.24H125.674V154H122.554V143.24ZM124.114 141.74C123.541 141.74 123.074 141.573 122.714 141.24C122.354 140.907 122.174 140.493 122.174 140C122.174 139.507 122.354 139.093 122.714 138.76C123.074 138.427 123.541 138.26 124.114 138.26C124.687 138.26 125.154 138.42 125.514 138.74C125.874 139.06 126.054 139.46 126.054 139.94C126.054 140.46 125.874 140.893 125.514 141.24C125.154 141.573 124.687 141.74 124.114 141.74ZM133.28 154.16C132.146 154.16 131.126 153.927 130.22 153.46C129.326 152.98 128.626 152.32 128.12 151.48C127.613 150.64 127.36 149.687 127.36 148.62C127.36 147.553 127.613 146.6 128.12 145.76C128.626 144.92 129.326 144.267 130.22 143.8C131.126 143.32 132.146 143.08 133.28 143.08C134.413 143.08 135.426 143.32 136.32 143.8C137.213 144.267 137.913 144.92 138.42 145.76C138.926 146.6 139.18 147.553 139.18 148.62C139.18 149.687 138.926 150.64 138.42 151.48C137.913 152.32 137.213 152.98 136.32 153.46C135.426 153.927 134.413 154.16 133.28 154.16ZM133.28 151.6C134.08 151.6 134.733 151.333 135.24 150.8C135.76 150.253 136.02 149.527 136.02 148.62C136.02 147.713 135.76 146.993 135.24 146.46C134.733 145.913 134.08 145.64 133.28 145.64C132.48 145.64 131.82 145.913 131.3 146.46C130.78 146.993 130.52 147.713 130.52 148.62C130.52 149.527 130.78 150.253 131.3 150.8C131.82 151.333 132.48 151.6 133.28 151.6ZM147.395 143.08C148.728 143.08 149.802 143.48 150.615 144.28C151.442 145.08 151.855 146.267 151.855 147.84V154H148.735V148.32C148.735 147.467 148.548 146.833 148.175 146.42C147.802 145.993 147.262 145.78 146.555 145.78C145.768 145.78 145.142 146.027 144.675 146.52C144.208 147 143.975 147.72 143.975 148.68V154H140.855V143.24H143.835V144.5C144.248 144.047 144.762 143.7 145.375 143.46C145.988 143.207 146.662 143.08 147.395 143.08Z" fill="white"/>
<path d="M113.723 49.4307C113.723 54.8493 111.57 60.0459 107.739 63.8774C103.907 67.7089 98.7107 69.8614 93.2922 69.8614C87.8736 69.8614 82.677 67.7089 78.8455 63.8774C75.014 60.0459 72.8615 54.8493 72.8615 49.4307C72.8615 44.0122 75.014 38.8155 78.8455 34.984C82.677 31.1525 87.8736 29 93.2922 29C98.7107 29 103.907 31.1525 107.739 34.984C111.57 38.8155 113.723 44.0122 113.723 49.4307V49.4307ZM147.774 63.0512C147.774 66.6636 146.339 70.128 143.785 72.6823C141.23 75.2367 137.766 76.6717 134.154 76.6717C130.541 76.6717 127.077 75.2367 124.522 72.6823C121.968 70.128 120.533 66.6636 120.533 63.0512C120.533 59.4388 121.968 55.9744 124.522 53.4201C127.077 50.8657 130.541 49.4307 134.154 49.4307C137.766 49.4307 141.23 50.8657 143.785 53.4201C146.339 55.9744 147.774 59.4388 147.774 63.0512V63.0512ZM120.533 110.723C120.533 103.498 117.663 96.5693 112.554 91.4606C107.446 86.352 100.517 83.4819 93.2922 83.4819C86.0674 83.4819 79.1386 86.352 74.0299 91.4606C68.9212 96.5693 66.0512 103.498 66.0512 110.723V131.154H120.533V110.723ZM66.0512 63.0512C66.0512 66.6636 64.6162 70.128 62.0619 72.6823C59.5075 75.2367 56.0431 76.6717 52.4307 76.6717C48.8183 76.6717 45.3539 75.2367 42.7996 72.6823C40.2453 70.128 38.8102 66.6636 38.8102 63.0512C38.8102 59.4388 40.2453 55.9744 42.7996 53.4201C45.3539 50.8657 48.8183 49.4307 52.4307 49.4307C56.0431 49.4307 59.5075 50.8657 62.0619 53.4201C64.6162 55.9744 66.0512 59.4388 66.0512 63.0512V63.0512ZM134.154 131.154V110.723C134.163 103.799 132.405 96.9868 129.046 90.9323C132.065 90.1597 135.221 90.0868 138.273 90.7193C141.325 91.3518 144.192 92.673 146.655 94.582C149.119 96.4911 151.113 98.9375 152.488 101.735C153.862 104.532 154.579 107.606 154.584 110.723V131.154H134.154ZM57.5384 90.9323C54.1792 96.987 52.4212 103.799 52.4307 110.723V131.154H32V110.723C31.9987 107.604 32.7114 104.526 34.0836 101.726C35.4557 98.9249 37.4509 96.4754 39.9161 94.565C42.3814 92.6546 45.2512 91.334 48.3058 90.7043C51.3604 90.0746 54.5186 90.1526 57.5384 90.9323V90.9323Z" fill="white"/>
<defs>
<filter id="filter0_dd" x="0" y="0" width="185" height="185" filterUnits="userSpaceOnUse" color-interpolation-filters="sRGB">
<feFlood flood-opacity="0" result="BackgroundImageFix"/>
<feColorMatrix in="SourceAlpha" type="matrix" values="0 0 0 0 0 0 0 0 0 0 0 0 0 0 0 0 0 0 127 0"/>
<feOffset dx="-4" dy="-4"/>
<feGaussianBlur stdDeviation="6"/>
<feColorMatrix type="matrix" values="0 0 0 0 1 0 0 0 0 1 0 0 0 0 1 0 0 0 0.5 0"/>
<feBlend mode="normal" in2="BackgroundImageFix" result="effect1_dropShadow"/>
<feColorMatrix in="SourceAlpha" type="matrix" values="0 0 0 0 0 0 0 0 0 0 0 0 0 0 0 0 0 0 127 0"/>
<feOffset dx="4" dy="4"/>
<feGaussianBlur stdDeviation="6"/>
<feColorMatrix type="matrix" values="0 0 0 0 0 0 0 0 0 0 0 0 0 0 0 0 0 0 0.25 0"/>
<feBlend mode="normal" in2="effect1_dropShadow" result="effect2_dropShadow"/>
<feBlend mode="normal" in="SourceGraphic" in2="effect2_dropShadow" result="shape"/>
</filter>
</defs>
</svg>
