<svg width="162" height="162" viewBox="0 0 162 162" fill="none" xmlns="http://www.w3.org/2000/svg">
<g filter="url(#filter0_dd)">
<rect x="16" y="16" width="130" height="130" rx="10" fill="#FDFDFD"/>
</g>
<path d="M55.3899 137.18C54.3199 137.18 53.3499 136.95 52.4799 136.49C51.6199 136.02 50.9399 135.375 50.4399 134.555C49.9499 133.725 49.7049 132.79 49.7049 131.75C49.7049 130.71 49.9499 129.78 50.4399 128.96C50.9399 128.13 51.6199 127.485 52.4799 127.025C53.3499 126.555 54.3249 126.32 55.4049 126.32C56.3149 126.32 57.1349 126.48 57.8649 126.8C58.6049 127.12 59.2249 127.58 59.7249 128.18L58.1649 129.62C57.4549 128.8 56.5749 128.39 55.5249 128.39C54.8749 128.39 54.2949 128.535 53.7849 128.825C53.2749 129.105 52.8749 129.5 52.5849 130.01C52.3049 130.52 52.1649 131.1 52.1649 131.75C52.1649 132.4 52.3049 132.98 52.5849 133.49C52.8749 134 53.2749 134.4 53.7849 134.69C54.2949 134.97 54.8749 135.11 55.5249 135.11C56.5749 135.11 57.4549 134.695 58.1649 133.865L59.7249 135.305C59.2249 135.915 58.6049 136.38 57.8649 136.7C57.1249 137.02 56.2999 137.18 55.3899 137.18ZM64.5226 137.12C63.6726 137.12 62.9076 136.945 62.2276 136.595C61.5576 136.235 61.0326 135.74 60.6526 135.11C60.2726 134.48 60.0826 133.765 60.0826 132.965C60.0826 132.165 60.2726 131.45 60.6526 130.82C61.0326 130.19 61.5576 129.7 62.2276 129.35C62.9076 128.99 63.6726 128.81 64.5226 128.81C65.3726 128.81 66.1326 128.99 66.8026 129.35C67.4726 129.7 67.9976 130.19 68.3776 130.82C68.7576 131.45 68.9476 132.165 68.9476 132.965C68.9476 133.765 68.7576 134.48 68.3776 135.11C67.9976 135.74 67.4726 136.235 66.8026 136.595C66.1326 136.945 65.3726 137.12 64.5226 137.12ZM64.5226 135.2C65.1226 135.2 65.6126 135 65.9926 134.6C66.3826 134.19 66.5776 133.645 66.5776 132.965C66.5776 132.285 66.3826 131.745 65.9926 131.345C65.6126 130.935 65.1226 130.73 64.5226 130.73C63.9226 130.73 63.4276 130.935 63.0376 131.345C62.6476 131.745 62.4526 132.285 62.4526 132.965C62.4526 133.645 62.6476 134.19 63.0376 134.6C63.4276 135 63.9226 135.2 64.5226 135.2ZM78.0619 128.93L74.6569 137H72.2419L68.8519 128.93H71.2669L73.5019 134.42L75.8119 128.93H78.0619ZM78.7768 128.93H81.1168V137H78.7768V128.93ZM79.9468 127.805C79.5168 127.805 79.1668 127.68 78.8968 127.43C78.6268 127.18 78.4918 126.87 78.4918 126.5C78.4918 126.13 78.6268 125.82 78.8968 125.57C79.1668 125.32 79.5168 125.195 79.9468 125.195C80.3768 125.195 80.7268 125.315 80.9968 125.555C81.2668 125.795 81.4018 126.095 81.4018 126.455C81.4018 126.845 81.2668 127.17 80.9968 127.43C80.7268 127.68 80.3768 127.805 79.9468 127.805ZM91.2685 125.87V137H89.0335V136.07C88.4535 136.77 87.6135 137.12 86.5135 137.12C85.7535 137.12 85.0635 136.95 84.4435 136.61C83.8335 136.27 83.3535 135.785 83.0035 135.155C82.6535 134.525 82.4785 133.795 82.4785 132.965C82.4785 132.135 82.6535 131.405 83.0035 130.775C83.3535 130.145 83.8335 129.66 84.4435 129.32C85.0635 128.98 85.7535 128.81 86.5135 128.81C87.5435 128.81 88.3485 129.135 88.9285 129.785V125.87H91.2685ZM86.9185 135.2C87.5085 135.2 87.9985 135 88.3885 134.6C88.7785 134.19 88.9735 133.645 88.9735 132.965C88.9735 132.285 88.7785 131.745 88.3885 131.345C87.9985 130.935 87.5085 130.73 86.9185 130.73C86.3185 130.73 85.8235 130.935 85.4335 131.345C85.0435 131.745 84.8485 132.285 84.8485 132.965C84.8485 133.645 85.0435 134.19 85.4335 134.6C85.8235 135 86.3185 135.2 86.9185 135.2ZM101.129 135.05V137H94.0942V135.05H96.5392V128.45H94.2892V126.5H98.9842V135.05H101.129ZM107.252 126.32C108.762 126.32 109.942 126.775 110.792 127.685C111.652 128.585 112.082 129.86 112.082 131.51C112.082 132.61 111.852 133.59 111.392 134.45C110.932 135.3 110.272 135.97 109.412 136.46C108.552 136.94 107.542 137.18 106.382 137.18C105.812 137.18 105.267 137.12 104.747 137C104.237 136.87 103.802 136.69 103.442 136.46L104.342 134.63C104.602 134.82 104.907 134.965 105.257 135.065C105.617 135.155 105.992 135.2 106.382 135.2C107.352 135.2 108.132 134.925 108.722 134.375C109.322 133.815 109.637 133.045 109.667 132.065C109.357 132.385 108.957 132.635 108.467 132.815C107.977 132.995 107.432 133.085 106.832 133.085C106.112 133.085 105.467 132.95 104.897 132.68C104.327 132.4 103.877 132.015 103.547 131.525C103.217 131.025 103.052 130.455 103.052 129.815C103.052 129.125 103.232 128.515 103.592 127.985C103.952 127.455 104.447 127.045 105.077 126.755C105.717 126.465 106.442 126.32 107.252 126.32ZM107.372 131.285C107.922 131.285 108.382 131.14 108.752 130.85C109.132 130.55 109.322 130.165 109.322 129.695C109.322 129.255 109.142 128.885 108.782 128.585C108.422 128.275 107.942 128.12 107.342 128.12C106.802 128.12 106.357 128.265 106.007 128.555C105.657 128.845 105.482 129.225 105.482 129.695C105.482 130.175 105.657 130.56 106.007 130.85C106.357 131.14 106.812 131.285 107.372 131.285Z" fill="#5B5B5B"/>
<path d="M71.9091 60.0909C70.8303 60.0909 69.7757 60.4108 68.8787 61.0102C67.9817 61.6095 67.2826 62.4614 66.8697 63.4581C66.4569 64.4548 66.3489 65.5515 66.5594 66.6096C66.7698 67.6677 67.2893 68.6396 68.0521 69.4024C68.815 70.1652 69.7869 70.6847 70.845 70.8952C71.903 71.1057 72.9998 70.9976 73.9965 70.5848C74.9931 70.172 75.845 69.4728 76.4444 68.5758C77.0437 67.6788 77.3636 66.6243 77.3636 65.5455C77.3636 64.0988 76.789 62.7114 75.766 61.6885C74.7431 60.6656 73.3557 60.0909 71.9091 60.0909ZM70.0909 78.2727C69.3717 78.2727 68.6687 78.486 68.0707 78.8856C67.4727 79.2851 67.0066 79.8531 66.7313 80.5175C66.4561 81.182 66.3841 81.9131 66.5244 82.6185C66.6647 83.3239 67.0111 83.9718 67.5196 84.4804C68.0282 84.9889 68.6761 85.3353 69.3815 85.4756C70.0869 85.6159 70.818 85.5439 71.4825 85.2687C72.1469 84.9934 72.7149 84.5273 73.1144 83.9293C73.514 83.3314 73.7273 82.6283 73.7273 81.9091C73.7273 80.9447 73.3442 80.0197 72.6622 79.3378C71.9803 78.6558 71.0553 78.2727 70.0909 78.2727ZM91.9091 56.4545C91.1899 56.4545 90.4868 56.6678 89.8888 57.0674C89.2908 57.467 88.8248 58.0349 88.5495 58.6993C88.2743 59.3638 88.2023 60.0949 88.3426 60.8003C88.4829 61.5057 88.8292 62.1537 89.3378 62.6622C89.8463 63.1708 90.4943 63.5171 91.1997 63.6574C91.9051 63.7977 92.6362 63.7257 93.3007 63.4505C93.9651 63.1752 94.533 62.7092 94.9326 62.1112C95.3322 61.5132 95.5455 60.8101 95.5455 60.0909C95.5455 59.1265 95.1623 58.2016 94.4804 57.5196C93.7984 56.8377 92.8735 56.4545 91.9091 56.4545ZM90.0909 71C89.0121 71 87.9575 71.3199 87.0605 71.9193C86.1635 72.5186 85.4644 73.3705 85.0516 74.3672C84.6387 75.3639 84.5307 76.4606 84.7412 77.5187C84.9516 78.5768 85.4711 79.5487 86.234 80.3115C86.9968 81.0743 87.9687 81.5938 89.0268 81.8043C90.0849 82.0148 91.1816 81.9067 92.1783 81.4939C93.175 81.081 94.0268 80.3819 94.6262 79.4849C95.2256 78.5879 95.5455 77.5334 95.5455 76.4545C95.5455 75.0079 94.9708 73.6205 93.9479 72.5976C92.9249 71.5747 91.5375 71 90.0909 71ZM117.364 67.3636H113.513C112.827 61.2281 110.411 55.4141 106.545 50.6L109.284 47.8582C109.946 47.1724 110.313 46.2538 110.304 45.3004C110.296 44.3469 109.914 43.4349 109.239 42.7607C108.565 42.0864 107.653 41.704 106.7 41.6957C105.746 41.6874 104.828 42.054 104.142 42.7164L101.404 45.4545C96.5885 41.5888 90.7731 39.1724 84.6364 38.4873V34.6364C84.6364 33.6719 84.2532 32.747 83.5713 32.0651C82.8893 31.3831 81.9644 31 81 31C80.0356 31 79.1107 31.3831 78.4287 32.0651C77.7468 32.747 77.3636 33.6719 77.3636 34.6364V38.4873C71.2281 39.1731 65.4141 41.5895 60.6 45.4545L57.8582 42.7164C57.1724 42.054 56.2538 41.6874 55.3004 41.6957C54.3469 41.704 53.4349 42.0864 52.7607 42.7607C52.0864 43.4349 51.704 44.3469 51.6957 45.3004C51.6874 46.2538 52.054 47.1724 52.7164 47.8582L55.4545 50.5964C51.5888 55.4115 49.1724 61.2269 48.4873 67.3636H44.6364C43.6719 67.3636 42.747 67.7468 42.0651 68.4287C41.3831 69.1107 41 70.0356 41 71C41 71.9644 41.3831 72.8893 42.0651 73.5713C42.747 74.2532 43.6719 74.6364 44.6364 74.6364H48.4873C49.1731 80.7719 51.5895 86.5859 55.4545 91.4L52.7164 94.1418C52.3691 94.4773 52.092 94.8785 51.9015 95.3222C51.7109 95.7658 51.6106 96.243 51.6064 96.7258C51.6022 97.2086 51.6942 97.6875 51.877 98.1344C52.0599 98.5813 52.3299 98.9873 52.6713 99.3287C53.0127 99.6701 53.4187 99.9401 53.8656 100.123C54.3125 100.306 54.7914 100.398 55.2742 100.394C55.757 100.389 56.2342 100.289 56.6778 100.099C57.1215 99.908 57.5227 99.6309 57.8582 99.2836L60.5964 96.5455C65.4115 100.411 71.2269 102.828 77.3636 103.513V107.364C77.3636 108.328 77.7468 109.253 78.4287 109.935C79.1107 110.617 80.0356 111 81 111C81.9644 111 82.8893 110.617 83.5713 109.935C84.2532 109.253 84.6364 108.328 84.6364 107.364V103.513C90.7719 102.827 96.5859 100.411 101.4 96.5455L104.142 99.2836C104.828 99.946 105.746 100.313 106.7 100.304C107.653 100.296 108.565 99.9136 109.239 99.2393C109.914 98.5651 110.296 97.6531 110.304 96.6996C110.313 95.7462 109.946 94.8276 109.284 94.1418L106.545 91.4036C110.411 86.5885 112.828 80.7731 113.513 74.6364H117.364C118.328 74.6364 119.253 74.2532 119.935 73.5713C120.617 72.8893 121 71.9644 121 71C121 70.0356 120.617 69.1107 119.935 68.4287C119.253 67.7468 118.328 67.3636 117.364 67.3636ZM102.818 74.6364H106.164C105.372 80.0643 102.849 85.0917 98.9705 88.9705C95.0917 92.8492 90.0643 95.3721 84.6364 96.1636V89.1818C84.6364 88.2174 84.2532 87.2925 83.5713 86.6105C82.8893 85.9286 81.9644 85.5455 81 85.5455C80.0356 85.5455 79.1107 85.9286 78.4287 86.6105C77.7468 87.2925 77.3636 88.2174 77.3636 89.1818V96.1636C71.9357 95.3721 66.9083 92.8492 63.0295 88.9705C59.1508 85.0917 56.6279 80.0643 55.8364 74.6364H59.1818C60.1462 74.6364 61.0712 74.2532 61.7531 73.5713C62.4351 72.8893 62.8182 71.9644 62.8182 71C62.8182 70.0356 62.4351 69.1107 61.7531 68.4287C61.0712 67.7468 60.1462 67.3636 59.1818 67.3636H55.8364C56.6279 61.9357 59.1508 56.9083 63.0295 53.0295C66.9083 49.1508 71.9357 46.6279 77.3636 45.8364V52.8182C77.3636 53.7826 77.7468 54.7075 78.4287 55.3895C79.1107 56.0714 80.0356 56.4545 81 56.4545C81.9644 56.4545 82.8893 56.0714 83.5713 55.3895C84.2532 54.7075 84.6364 53.7826 84.6364 52.8182V45.8364C90.0643 46.6279 95.0917 49.1508 98.9705 53.0295C102.849 56.9083 105.372 61.9357 106.164 67.3636H102.818C101.854 67.3636 100.929 67.7468 100.247 68.4287C99.5649 69.1107 99.1818 70.0356 99.1818 71C99.1818 71.9644 99.5649 72.8893 100.247 73.5713C100.929 74.2532 101.854 74.6364 102.818 74.6364Z" fill="#6E62FF"/>
<defs>
<filter id="filter0_dd" x="0" y="0" width="162" height="162" filterUnits="userSpaceOnUse" color-interpolation-filters="sRGB">
<feFlood flood-opacity="0" result="BackgroundImageFix"/>
<feColorMatrix in="SourceAlpha" type="matrix" values="0 0 0 0 0 0 0 0 0 0 0 0 0 0 0 0 0 0 127 0"/>
<feOffset dx="-4" dy="-4"/>
<feGaussianBlur stdDeviation="6"/>
<feColorMatrix type="matrix" values="0 0 0 0 1 0 0 0 0 1 0 0 0 0 1 0 0 0 0.5 0"/>
<feBlend mode="normal" in2="BackgroundImageFix" result="effect1_dropShadow"/>
<feColorMatrix in="SourceAlpha" type="matrix" values="0 0 0 0 0 0 0 0 0 0 0 0 0 0 0 0 0 0 127 0"/>
<feOffset dx="4" dy="4"/>
<feGaussianBlur stdDeviation="6"/>
<feColorMatrix type="matrix" values="0 0 0 0 0.383333 0 0 0 0 0.383333 0 0 0 0 0.383333 0 0 0 0.5 0"/>
<feBlend mode="normal" in2="effect1_dropShadow" result="effect2_dropShadow"/>
<feBlend mode="normal" in="SourceGraphic" in2="effect2_dropShadow" result="shape"/>
</filter>
</defs>
</svg>
