<svg width="162" height="162" viewBox="0 0 162 162" fill="none" xmlns="http://www.w3.org/2000/svg">
<g filter="url(#filter0_dd)">
<rect x="16" y="16" width="130" height="130" rx="10" fill="#FDFDFD"/>
<rect x="17" y="17" width="128" height="128" rx="9" stroke="#4CAF50" stroke-width="2"/>
<rect x="17" y="17" width="128" height="128" rx="9" stroke="url(#paint0_linear)" stroke-width="2"/>
</g>
<path d="M62.086 128.8H64.306V133.06C63.736 133.49 63.076 133.82 62.326 134.05C61.576 134.28 60.821 134.395 60.061 134.395C58.971 134.395 57.991 134.165 57.121 133.705C56.251 133.235 55.566 132.59 55.066 131.77C54.576 130.94 54.331 130.005 54.331 128.965C54.331 127.925 54.576 126.995 55.066 126.175C55.566 125.345 56.256 124.7 57.136 124.24C58.016 123.77 59.006 123.535 60.106 123.535C61.026 123.535 61.861 123.69 62.611 124C63.361 124.31 63.991 124.76 64.501 125.35L62.941 126.79C62.191 126 61.286 125.605 60.226 125.605C59.556 125.605 58.961 125.745 58.441 126.025C57.921 126.305 57.516 126.7 57.226 127.21C56.936 127.72 56.791 128.305 56.791 128.965C56.791 129.615 56.936 130.195 57.226 130.705C57.516 131.215 57.916 131.615 58.426 131.905C58.946 132.185 59.536 132.325 60.196 132.325C60.896 132.325 61.526 132.175 62.086 131.875V128.8ZM69.9983 134.335C69.1483 134.335 68.3833 134.16 67.7033 133.81C67.0333 133.45 66.5083 132.955 66.1283 132.325C65.7483 131.695 65.5583 130.98 65.5583 130.18C65.5583 129.38 65.7483 128.665 66.1283 128.035C66.5083 127.405 67.0333 126.915 67.7033 126.565C68.3833 126.205 69.1483 126.025 69.9983 126.025C70.8483 126.025 71.6083 126.205 72.2783 126.565C72.9483 126.915 73.4733 127.405 73.8533 128.035C74.2333 128.665 74.4233 129.38 74.4233 130.18C74.4233 130.98 74.2333 131.695 73.8533 132.325C73.4733 132.955 72.9483 133.45 72.2783 133.81C71.6083 134.16 70.8483 134.335 69.9983 134.335ZM69.9983 132.415C70.5983 132.415 71.0883 132.215 71.4683 131.815C71.8583 131.405 72.0533 130.86 72.0533 130.18C72.0533 129.5 71.8583 128.96 71.4683 128.56C71.0883 128.15 70.5983 127.945 69.9983 127.945C69.3983 127.945 68.9033 128.15 68.5133 128.56C68.1233 128.96 67.9283 129.5 67.9283 130.18C67.9283 130.86 68.1233 131.405 68.5133 131.815C68.9033 132.215 69.3983 132.415 69.9983 132.415ZM79.5874 134.335C78.7374 134.335 77.9724 134.16 77.2924 133.81C76.6224 133.45 76.0974 132.955 75.7174 132.325C75.3374 131.695 75.1474 130.98 75.1474 130.18C75.1474 129.38 75.3374 128.665 75.7174 128.035C76.0974 127.405 76.6224 126.915 77.2924 126.565C77.9724 126.205 78.7374 126.025 79.5874 126.025C80.4374 126.025 81.1974 126.205 81.8674 126.565C82.5374 126.915 83.0624 127.405 83.4424 128.035C83.8224 128.665 84.0124 129.38 84.0124 130.18C84.0124 130.98 83.8224 131.695 83.4424 132.325C83.0624 132.955 82.5374 133.45 81.8674 133.81C81.1974 134.16 80.4374 134.335 79.5874 134.335ZM79.5874 132.415C80.1874 132.415 80.6774 132.215 81.0574 131.815C81.4474 131.405 81.6424 130.86 81.6424 130.18C81.6424 129.5 81.4474 128.96 81.0574 128.56C80.6774 128.15 80.1874 127.945 79.5874 127.945C78.9874 127.945 78.4924 128.15 78.1024 128.56C77.7124 128.96 77.5174 129.5 77.5174 130.18C77.5174 130.86 77.7124 131.405 78.1024 131.815C78.4924 132.215 78.9874 132.415 79.5874 132.415ZM93.6615 126.145V132.865C93.6615 134.345 93.2765 135.445 92.5065 136.165C91.7365 136.885 90.6115 137.245 89.1315 137.245C88.3515 137.245 87.6115 137.15 86.9115 136.96C86.2115 136.77 85.6315 136.495 85.1715 136.135L86.1015 134.455C86.4415 134.735 86.8715 134.955 87.3915 135.115C87.9115 135.285 88.4315 135.37 88.9515 135.37C89.7615 135.37 90.3565 135.185 90.7365 134.815C91.1265 134.455 91.3215 133.905 91.3215 133.165V132.82C90.7115 133.49 89.8615 133.825 88.7715 133.825C88.0315 133.825 87.3515 133.665 86.7315 133.345C86.1215 133.015 85.6365 132.555 85.2765 131.965C84.9165 131.375 84.7365 130.695 84.7365 129.925C84.7365 129.155 84.9165 128.475 85.2765 127.885C85.6365 127.295 86.1215 126.84 86.7315 126.52C87.3515 126.19 88.0315 126.025 88.7715 126.025C89.9415 126.025 90.8315 126.41 91.4415 127.18V126.145H93.6615ZM89.2365 131.905C89.8565 131.905 90.3615 131.725 90.7515 131.365C91.1515 130.995 91.3515 130.515 91.3515 129.925C91.3515 129.335 91.1515 128.86 90.7515 128.5C90.3615 128.13 89.8565 127.945 89.2365 127.945C88.6165 127.945 88.1065 128.13 87.7065 128.5C87.3065 128.86 87.1065 129.335 87.1065 129.925C87.1065 130.515 87.3065 130.995 87.7065 131.365C88.1065 131.725 88.6165 131.905 89.2365 131.905ZM95.5994 123.085H97.9394V134.215H95.5994V123.085ZM107.776 130.21C107.776 130.24 107.761 130.45 107.731 130.84H101.626C101.736 131.34 101.996 131.735 102.406 132.025C102.816 132.315 103.326 132.46 103.936 132.46C104.356 132.46 104.726 132.4 105.046 132.28C105.376 132.15 105.681 131.95 105.961 131.68L107.206 133.03C106.446 133.9 105.336 134.335 103.876 134.335C102.966 134.335 102.161 134.16 101.461 133.81C100.761 133.45 100.221 132.955 99.8411 132.325C99.4611 131.695 99.2711 130.98 99.2711 130.18C99.2711 129.39 99.4561 128.68 99.8261 128.05C100.206 127.41 100.721 126.915 101.371 126.565C102.031 126.205 102.766 126.025 103.576 126.025C104.366 126.025 105.081 126.195 105.721 126.535C106.361 126.875 106.861 127.365 107.221 128.005C107.591 128.635 107.776 129.37 107.776 130.21ZM103.591 127.795C103.061 127.795 102.616 127.945 102.256 128.245C101.896 128.545 101.676 128.955 101.596 129.475H105.571C105.491 128.965 105.271 128.56 104.911 128.26C104.551 127.95 104.111 127.795 103.591 127.795Z" fill="#5B5B5B"/>
<path d="M111.142 66.3797H108.625V66.25H80.5V78.75H98.1609C95.5844 86.0266 88.6609 91.25 80.5 91.25C70.1453 91.25 61.75 82.8547 61.75 72.5C61.75 62.1453 70.1453 53.75 80.5 53.75C85.2797 53.75 89.6281 55.5531 92.9391 58.4984L101.778 49.6594C96.1969 44.4578 88.7313 41.25 80.5 41.25C63.2422 41.25 49.25 55.2422 49.25 72.5C49.25 89.7578 63.2422 103.75 80.5 103.75C97.7578 103.75 111.75 89.7578 111.75 72.5C111.75 70.4047 111.534 68.3594 111.142 66.3797Z" fill="#FFC107"/>
<path d="M52.853 57.9547L63.1202 65.4844C65.8983 58.6063 72.6265 53.75 80.4999 53.75C85.2796 53.75 89.628 55.5531 92.939 58.4984L101.778 49.6594C96.1968 44.4578 88.7312 41.25 80.4999 41.25C68.4968 41.25 58.0874 48.0266 52.853 57.9547Z" fill="#FF3D00"/>
<path d="M80.5 103.75C88.5719 103.75 95.9062 100.661 101.452 95.6375L91.7797 87.4531C88.5368 89.9193 84.5741 91.2532 80.5 91.25C72.3719 91.25 65.4703 86.0672 62.8703 78.8344L52.6797 86.6859C57.8516 96.8062 68.3547 103.75 80.5 103.75Z" fill="#4CAF50"/>
<path d="M111.142 66.3797H108.625V66.25H80.5V78.75H98.1609C96.9284 82.2131 94.7084 85.2393 91.775 87.4547L91.7797 87.4516L101.452 95.6359C100.767 96.2578 111.75 88.125 111.75 72.5C111.75 70.4047 111.534 68.3594 111.142 66.3797Z" fill="#1976D2"/>
<defs>
<filter id="filter0_dd" x="0" y="0" width="162" height="162" filterUnits="userSpaceOnUse" color-interpolation-filters="sRGB">
<feFlood flood-opacity="0" result="BackgroundImageFix"/>
<feColorMatrix in="SourceAlpha" type="matrix" values="0 0 0 0 0 0 0 0 0 0 0 0 0 0 0 0 0 0 127 0"/>
<feOffset dx="-4" dy="-4"/>
<feGaussianBlur stdDeviation="6"/>
<feColorMatrix type="matrix" values="0 0 0 0 1 0 0 0 0 1 0 0 0 0 1 0 0 0 0.5 0"/>
<feBlend mode="normal" in2="BackgroundImageFix" result="effect1_dropShadow"/>
<feColorMatrix in="SourceAlpha" type="matrix" values="0 0 0 0 0 0 0 0 0 0 0 0 0 0 0 0 0 0 127 0"/>
<feOffset dx="4" dy="4"/>
<feGaussianBlur stdDeviation="6"/>
<feColorMatrix type="matrix" values="0 0 0 0 0.383333 0 0 0 0 0.383333 0 0 0 0 0.383333 0 0 0 0.5 0"/>
<feBlend mode="normal" in2="effect1_dropShadow" result="effect2_dropShadow"/>
<feBlend mode="normal" in="SourceGraphic" in2="effect2_dropShadow" result="shape"/>
</filter>
<linearGradient id="paint0_linear" x1="81" y1="16" x2="81" y2="146" gradientUnits="userSpaceOnUse">
<stop stop-color="#FF3D00"/>
<stop offset="1" stop-color="white" stop-opacity="0"/>
</linearGradient>
</defs>
</svg>
