<svg width="162" height="162" viewBox="0 0 162 162" fill="none" xmlns="http://www.w3.org/2000/svg">
<g filter="url(#filter0_dd)">
<rect x="16" y="16" width="130" height="130" rx="10" fill="#FDFDFD"/>
<rect x="17" y="17" width="128" height="128" rx="9" stroke="#F37F13" stroke-width="2"/>
</g>
<path fill-rule="evenodd" clip-rule="evenodd" d="M114 40.5H48C46.5413 40.5 45.1424 41.0795 44.1109 42.1109C43.0795 43.1424 42.5 44.5413 42.5 46V101C42.5 102.459 43.0795 103.858 44.1109 104.889C45.1424 105.921 46.5413 106.5 48 106.5H114C115.459 106.5 116.858 105.921 117.889 104.889C118.921 103.858 119.5 102.459 119.5 101V46C119.5 44.5413 118.921 43.1424 117.889 42.1109C116.858 41.0795 115.459 40.5 114 40.5V40.5ZM48 35C45.0826 35 42.2847 36.1589 40.2218 38.2218C38.1589 40.2847 37 43.0826 37 46V101C37 103.917 38.1589 106.715 40.2218 108.778C42.2847 110.841 45.0826 112 48 112H114C115.445 112 116.875 111.715 118.21 111.163C119.544 110.61 120.757 109.8 121.778 108.778C122.8 107.757 123.61 106.544 124.163 105.21C124.715 103.875 125 102.445 125 101V46C125 43.0826 123.841 40.2847 121.778 38.2218C119.715 36.1589 116.917 35 114 35H48V35Z" fill="#F37F13"/>
<path d="M95.553 71.5527C95.9615 71.1454 96.4877 70.8768 97.0572 70.785C97.6268 70.6932 98.2107 70.7829 98.7265 71.0412L119.5 81.7497V106.5H42.5V95.4997L57.053 82.5527C57.5025 82.1049 58.0931 81.8262 58.7247 81.7641C59.3562 81.7019 59.9898 81.8601 60.518 82.2117L75.148 91.9633L95.553 71.5582V71.5527Z" fill="#F37F13"/>
<path fill-rule="evenodd" clip-rule="evenodd" d="M61.75 68C62.8334 68 63.9062 67.7866 64.9071 67.372C65.9081 66.9574 66.8175 66.3497 67.5836 65.5836C68.3497 64.8175 68.9574 63.9081 69.372 62.9071C69.7866 61.9062 70 60.8334 70 59.75C70 58.6666 69.7866 57.5938 69.372 56.5929C68.9574 55.5919 68.3497 54.6825 67.5836 53.9164C66.8175 53.1503 65.9081 52.5426 64.9071 52.128C63.9062 51.7134 62.8334 51.5 61.75 51.5C59.562 51.5 57.4635 52.3692 55.9164 53.9164C54.3692 55.4635 53.5 57.562 53.5 59.75C53.5 61.938 54.3692 64.0365 55.9164 65.5836C57.4635 67.1308 59.562 68 61.75 68V68Z" fill="#F37F13"/>
<path d="M57.7421 126.5H60.1721V137H57.7421V126.5ZM72.594 128.81C73.604 128.81 74.404 129.11 74.994 129.71C75.594 130.3 75.894 131.19 75.894 132.38V137H73.554V132.74C73.554 132.1 73.419 131.625 73.149 131.315C72.889 130.995 72.514 130.835 72.024 130.835C71.474 130.835 71.039 131.015 70.719 131.375C70.399 131.725 70.239 132.25 70.239 132.95V137H67.899V132.74C67.899 131.47 67.389 130.835 66.369 130.835C65.829 130.835 65.399 131.015 65.079 131.375C64.759 131.725 64.599 132.25 64.599 132.95V137H62.259V128.93H64.494V129.86C64.794 129.52 65.159 129.26 65.589 129.08C66.029 128.9 66.509 128.81 67.029 128.81C67.599 128.81 68.114 128.925 68.574 129.155C69.034 129.375 69.404 129.7 69.684 130.13C70.014 129.71 70.429 129.385 70.929 129.155C71.439 128.925 71.994 128.81 72.594 128.81ZM81.0064 128.81C82.2564 128.81 83.2164 129.11 83.8864 129.71C84.5564 130.3 84.8914 131.195 84.8914 132.395V137H82.7014V135.995C82.2614 136.745 81.4414 137.12 80.2414 137.12C79.6214 137.12 79.0814 137.015 78.6214 136.805C78.1714 136.595 77.8264 136.305 77.5864 135.935C77.3464 135.565 77.2264 135.145 77.2264 134.675C77.2264 133.925 77.5064 133.335 78.0664 132.905C78.6364 132.475 79.5114 132.26 80.6914 132.26H82.5514C82.5514 131.75 82.3964 131.36 82.0864 131.09C81.7764 130.81 81.3114 130.67 80.6914 130.67C80.2614 130.67 79.8364 130.74 79.4164 130.88C79.0064 131.01 78.6564 131.19 78.3664 131.42L77.5264 129.785C77.9664 129.475 78.4914 129.235 79.1014 129.065C79.7214 128.895 80.3564 128.81 81.0064 128.81ZM80.8264 135.545C81.2264 135.545 81.5814 135.455 81.8914 135.275C82.2014 135.085 82.4214 134.81 82.5514 134.45V133.625H80.9464C79.9864 133.625 79.5064 133.94 79.5064 134.57C79.5064 134.87 79.6214 135.11 79.8514 135.29C80.0914 135.46 80.4164 135.545 80.8264 135.545ZM95.1821 128.93V135.65C95.1821 137.13 94.7971 138.23 94.0271 138.95C93.2571 139.67 92.1321 140.03 90.6521 140.03C89.8721 140.03 89.1321 139.935 88.4321 139.745C87.7321 139.555 87.1521 139.28 86.6921 138.92L87.6221 137.24C87.9621 137.52 88.3921 137.74 88.9121 137.9C89.4321 138.07 89.9521 138.155 90.4721 138.155C91.2821 138.155 91.8771 137.97 92.2571 137.6C92.6471 137.24 92.8421 136.69 92.8421 135.95V135.605C92.2321 136.275 91.3821 136.61 90.2921 136.61C89.5521 136.61 88.8721 136.45 88.2521 136.13C87.6421 135.8 87.1571 135.34 86.7971 134.75C86.4371 134.16 86.2571 133.48 86.2571 132.71C86.2571 131.94 86.4371 131.26 86.7971 130.67C87.1571 130.08 87.6421 129.625 88.2521 129.305C88.8721 128.975 89.5521 128.81 90.2921 128.81C91.4621 128.81 92.3521 129.195 92.9621 129.965V128.93H95.1821ZM90.7571 134.69C91.3771 134.69 91.8821 134.51 92.2721 134.15C92.6721 133.78 92.8721 133.3 92.8721 132.71C92.8721 132.12 92.6721 131.645 92.2721 131.285C91.8821 130.915 91.3771 130.73 90.7571 130.73C90.1371 130.73 89.6271 130.915 89.2271 131.285C88.8271 131.645 88.6271 132.12 88.6271 132.71C88.6271 133.3 88.8271 133.78 89.2271 134.15C89.6271 134.51 90.1371 134.69 90.7571 134.69ZM105.025 132.995C105.025 133.025 105.01 133.235 104.98 133.625H98.875C98.985 134.125 99.245 134.52 99.655 134.81C100.065 135.1 100.575 135.245 101.185 135.245C101.605 135.245 101.975 135.185 102.295 135.065C102.625 134.935 102.93 134.735 103.21 134.465L104.455 135.815C103.695 136.685 102.585 137.12 101.125 137.12C100.215 137.12 99.41 136.945 98.71 136.595C98.01 136.235 97.47 135.74 97.09 135.11C96.71 134.48 96.52 133.765 96.52 132.965C96.52 132.175 96.705 131.465 97.075 130.835C97.455 130.195 97.97 129.7 98.62 129.35C99.28 128.99 100.015 128.81 100.825 128.81C101.615 128.81 102.33 128.98 102.97 129.32C103.61 129.66 104.11 130.15 104.47 130.79C104.84 131.42 105.025 132.155 105.025 132.995ZM100.84 130.58C100.31 130.58 99.865 130.73 99.505 131.03C99.145 131.33 98.925 131.74 98.845 132.26H102.82C102.74 131.75 102.52 131.345 102.16 131.045C101.8 130.735 101.36 130.58 100.84 130.58Z" fill="#5B5B5B"/>
<defs>
<filter id="filter0_dd" x="0" y="0" width="162" height="162" filterUnits="userSpaceOnUse" color-interpolation-filters="sRGB">
<feFlood flood-opacity="0" result="BackgroundImageFix"/>
<feColorMatrix in="SourceAlpha" type="matrix" values="0 0 0 0 0 0 0 0 0 0 0 0 0 0 0 0 0 0 127 0"/>
<feOffset dx="-4" dy="-4"/>
<feGaussianBlur stdDeviation="6"/>
<feColorMatrix type="matrix" values="0 0 0 0 1 0 0 0 0 1 0 0 0 0 1 0 0 0 0.5 0"/>
<feBlend mode="normal" in2="BackgroundImageFix" result="effect1_dropShadow"/>
<feColorMatrix in="SourceAlpha" type="matrix" values="0 0 0 0 0 0 0 0 0 0 0 0 0 0 0 0 0 0 127 0"/>
<feOffset dx="4" dy="4"/>
<feGaussianBlur stdDeviation="6"/>
<feColorMatrix type="matrix" values="0 0 0 0 0.383333 0 0 0 0 0.383333 0 0 0 0 0.383333 0 0 0 0.5 0"/>
<feBlend mode="normal" in2="effect1_dropShadow" result="effect2_dropShadow"/>
<feBlend mode="normal" in="SourceGraphic" in2="effect2_dropShadow" result="shape"/>
</filter>
</defs>
</svg>
