<svg width="162" height="162" viewBox="0 0 162 162" fill="none" xmlns="http://www.w3.org/2000/svg">
<g filter="url(#filter0_dd)">
<rect x="16" y="16" width="130" height="130" rx="10" fill="#FDFDFD"/>
<rect x="17" y="17" width="128" height="128" rx="9" stroke="#FFC107" stroke-width="2"/>
</g>
<path d="M64.9951 131.18C63.9051 131.18 62.9201 130.945 62.0401 130.475C61.1701 130.005 60.4851 129.36 59.9851 128.54C59.4951 127.71 59.2501 126.78 59.2501 125.75C59.2501 124.72 59.4951 123.795 59.9851 122.975C60.4851 122.145 61.1701 121.495 62.0401 121.025C62.9201 120.555 63.9051 120.32 64.9951 120.32C66.0851 120.32 67.0651 120.555 67.9351 121.025C68.8051 121.495 69.4901 122.145 69.9901 122.975C70.4901 123.795 70.7401 124.72 70.7401 125.75C70.7401 126.78 70.4901 127.71 69.9901 128.54C69.4901 129.36 68.8051 130.005 67.9351 130.475C67.0651 130.945 66.0851 131.18 64.9951 131.18ZM64.9951 129.11C65.6151 129.11 66.1751 128.97 66.6751 128.69C67.1751 128.4 67.5651 128 67.8451 127.49C68.1351 126.98 68.2801 126.4 68.2801 125.75C68.2801 125.1 68.1351 124.52 67.8451 124.01C67.5651 123.5 67.1751 123.105 66.6751 122.825C66.1751 122.535 65.6151 122.39 64.9951 122.39C64.3751 122.39 63.8151 122.535 63.3151 122.825C62.8151 123.105 62.4201 123.5 62.1301 124.01C61.8501 124.52 61.7101 125.1 61.7101 125.75C61.7101 126.4 61.8501 126.98 62.1301 127.49C62.4201 128 62.8151 128.4 63.3151 128.69C63.8151 128.97 64.3751 129.11 64.9951 129.11ZM77.4395 130.61C77.2095 130.78 76.9245 130.91 76.5845 131C76.2545 131.08 75.9045 131.12 75.5345 131.12C74.5745 131.12 73.8295 130.875 73.2995 130.385C72.7795 129.895 72.5195 129.175 72.5195 128.225V124.91H71.2745V123.11H72.5195V121.145H74.8595V123.11H76.8695V124.91H74.8595V128.195C74.8595 128.535 74.9445 128.8 75.1145 128.99C75.2945 129.17 75.5445 129.26 75.8645 129.26C76.2345 129.26 76.5495 129.16 76.8095 128.96L77.4395 130.61ZM83.4181 122.81C84.4181 122.81 85.2231 123.11 85.8331 123.71C86.4531 124.31 86.7631 125.2 86.7631 126.38V131H84.4231V126.74C84.4231 126.1 84.2831 125.625 84.0031 125.315C83.7231 124.995 83.3181 124.835 82.7881 124.835C82.1981 124.835 81.7281 125.02 81.3781 125.39C81.0281 125.75 80.8531 126.29 80.8531 127.01V131H78.5131V119.87H80.8531V123.77C81.1631 123.46 81.5381 123.225 81.9781 123.065C82.4181 122.895 82.8981 122.81 83.4181 122.81ZM96.6371 126.995C96.6371 127.025 96.6221 127.235 96.5921 127.625H90.4871C90.5971 128.125 90.8571 128.52 91.2671 128.81C91.6771 129.1 92.1871 129.245 92.7971 129.245C93.2171 129.245 93.5871 129.185 93.9071 129.065C94.2371 128.935 94.5421 128.735 94.8221 128.465L96.0671 129.815C95.3071 130.685 94.1971 131.12 92.7371 131.12C91.8271 131.12 91.0221 130.945 90.3221 130.595C89.6221 130.235 89.0821 129.74 88.7021 129.11C88.3221 128.48 88.1321 127.765 88.1321 126.965C88.1321 126.175 88.3171 125.465 88.6871 124.835C89.0671 124.195 89.5821 123.7 90.2321 123.35C90.8921 122.99 91.6271 122.81 92.4371 122.81C93.2271 122.81 93.9421 122.98 94.5821 123.32C95.2221 123.66 95.7221 124.15 96.0821 124.79C96.4521 125.42 96.6371 126.155 96.6371 126.995ZM92.4521 124.58C91.9221 124.58 91.4771 124.73 91.1171 125.03C90.7571 125.33 90.5371 125.74 90.4571 126.26H94.4321C94.3521 125.75 94.1321 125.345 93.7721 125.045C93.4121 124.735 92.9721 124.58 92.4521 124.58ZM100.19 123.995C100.47 123.605 100.845 123.31 101.315 123.11C101.795 122.91 102.345 122.81 102.965 122.81V124.97C102.705 124.95 102.53 124.94 102.44 124.94C101.77 124.94 101.245 125.13 100.865 125.51C100.485 125.88 100.295 126.44 100.295 127.19V131H97.955V122.93H100.19V123.995Z" fill="#5B5B5B"/>
<path d="M74.4285 64.0191C68.3551 74.8163 85.3607 82.7793 75.7782 86.8283C66.1956 90.8772 61.6068 81.9695 56.883 70.4974C52.0243 59.1604 55.9383 46.6086 65.5208 42.5596C74.9684 38.6456 82.3915 49.8477 74.4285 64.0191Z" fill="#FFC107"/>
<path d="M70.1096 34.5966C70.1096 31.4924 72.2691 29.8728 74.8334 30.0078C77.3977 30.0078 79.5572 31.6274 79.5572 34.7316C79.5572 39.1854 77.3977 41.4799 74.8334 41.3449C72.2691 41.3449 70.1096 39.1854 70.1096 34.5966Z" fill="#FFC107"/>
<path d="M62.1465 36.2161C61.8766 33.9217 63.2263 32.707 64.9808 32.4371C66.8703 32.1671 68.4899 32.9769 68.8948 35.2713C69.4347 38.5105 68.085 40.265 66.1955 40.535C64.441 40.6699 62.6864 39.3203 62.1465 36.2161Z" fill="#FFC107"/>
<path d="M56.3431 39.9952C55.8032 38.1057 56.883 36.891 58.3676 36.3511C59.9872 35.9462 61.4718 36.4861 62.0116 38.3756C62.8214 41.0749 61.8767 42.8295 60.2571 43.2344C58.6375 43.6393 57.1529 42.8295 56.3431 39.9952Z" fill="#FFC107"/>
<path d="M53.2388 45.3939C52.564 44.0442 53.2388 42.8295 54.4535 42.4246C55.6682 42.0197 56.8829 42.1547 57.4228 43.6393C58.2325 45.6638 57.8277 47.0134 56.613 47.5533C55.3983 48.0932 54.0486 47.4183 53.2388 45.3939Z" fill="#FFC107"/>
<path d="M51.2145 50.1176C50.6746 49.0379 51.2145 48.0931 52.1592 47.6882C53.104 47.2833 54.0487 47.5533 54.5886 48.633C55.2634 50.2526 54.8585 51.3323 53.9138 51.7372C53.104 52.1421 52.0243 51.7372 51.2145 50.1176Z" fill="#FFC107"/>
<path d="M85.6304 86.9632C89.5444 98.7051 71.4591 103.429 80.0968 109.097C88.7346 114.766 94.943 106.938 101.691 96.5457C108.44 86.1534 106.955 73.1967 98.3172 67.5281C89.8144 61.8596 80.3668 71.4421 85.6304 86.9632Z" fill="#FFC107"/>
<path d="M95.2131 58.7554C95.753 55.6512 93.9984 53.7617 91.4341 53.3568C88.8697 52.9519 86.4404 54.0316 85.9005 57.1358C85.0907 61.5897 86.8453 64.154 89.4096 64.5589C91.839 64.9638 94.4033 63.2092 95.2131 58.7554Z" fill="#FFC107"/>
<path d="M102.771 61.7248C103.446 59.5653 102.366 58.0807 100.612 57.4059C98.8573 56.731 96.9678 57.2709 96.293 59.4303C95.2132 62.5345 96.158 64.4241 97.9125 65.0989C99.6671 65.7737 101.692 64.829 102.771 61.7248Z" fill="#FFC107"/>
<path d="M107.765 66.5835C108.71 64.829 107.9 63.3444 106.416 62.6695C104.931 61.9947 103.311 62.2646 102.367 64.0192C101.152 66.5835 101.692 68.3381 103.176 69.1479C104.661 69.8227 106.551 69.1479 107.765 66.5835Z" fill="#FFC107"/>
<path d="M109.924 72.5218C110.734 71.3071 110.329 70.0924 109.25 69.2826C108.17 68.6078 106.955 68.6078 106.011 69.8225C104.796 71.5771 105.066 73.0617 106.145 73.8715C107.225 74.6813 108.575 74.2764 109.924 72.5218Z" fill="#FFC107"/>
<path d="M110.869 77.5156C111.544 76.4359 111.274 75.4912 110.329 74.9513C109.385 74.4114 108.44 74.4114 107.765 75.4912C106.82 76.9758 106.955 78.0555 107.765 78.7303C108.71 79.1352 109.925 78.8653 110.869 77.5156Z" fill="#FFC107"/>
<defs>
<filter id="filter0_dd" x="0" y="0" width="162" height="162" filterUnits="userSpaceOnUse" color-interpolation-filters="sRGB">
<feFlood flood-opacity="0" result="BackgroundImageFix"/>
<feColorMatrix in="SourceAlpha" type="matrix" values="0 0 0 0 0 0 0 0 0 0 0 0 0 0 0 0 0 0 127 0"/>
<feOffset dx="-4" dy="-4"/>
<feGaussianBlur stdDeviation="6"/>
<feColorMatrix type="matrix" values="0 0 0 0 1 0 0 0 0 1 0 0 0 0 1 0 0 0 0.5 0"/>
<feBlend mode="normal" in2="BackgroundImageFix" result="effect1_dropShadow"/>
<feColorMatrix in="SourceAlpha" type="matrix" values="0 0 0 0 0 0 0 0 0 0 0 0 0 0 0 0 0 0 127 0"/>
<feOffset dx="4" dy="4"/>
<feGaussianBlur stdDeviation="6"/>
<feColorMatrix type="matrix" values="0 0 0 0 0.383333 0 0 0 0 0.383333 0 0 0 0 0.383333 0 0 0 0.5 0"/>
<feBlend mode="normal" in2="effect1_dropShadow" result="effect2_dropShadow"/>
<feBlend mode="normal" in="SourceGraphic" in2="effect2_dropShadow" result="shape"/>
</filter>
</defs>
</svg>
