<svg width="162" height="162" viewBox="0 0 162 162" fill="none" xmlns="http://www.w3.org/2000/svg">
<g filter="url(#filter0_dd)">
<rect x="16" y="16" width="130" height="130" rx="10" fill="#FDFDFD"/>
</g>
<path d="M70.1237 122.5C71.0538 122.5 71.8588 122.655 72.5388 122.965C73.2288 123.275 73.7588 123.715 74.1288 124.285C74.4988 124.855 74.6838 125.53 74.6838 126.31C74.6838 127.08 74.4988 127.755 74.1288 128.335C73.7588 128.905 73.2288 129.345 72.5388 129.655C71.8588 129.955 71.0538 130.105 70.1237 130.105H68.0087V133H65.5787V122.5H70.1237ZM69.9887 128.125C70.7187 128.125 71.2738 127.97 71.6538 127.66C72.0338 127.34 72.2238 126.89 72.2238 126.31C72.2238 125.72 72.0338 125.27 71.6538 124.96C71.2738 124.64 70.7187 124.48 69.9887 124.48H68.0087V128.125H69.9887ZM76.1786 122.5H80.9486C82.0886 122.5 83.0936 122.72 83.9636 123.16C84.8436 123.59 85.5236 124.2 86.0036 124.99C86.4936 125.78 86.7386 126.7 86.7386 127.75C86.7386 128.8 86.4936 129.72 86.0036 130.51C85.5236 131.3 84.8436 131.915 83.9636 132.355C83.0936 132.785 82.0886 133 80.9486 133H76.1786V122.5ZM80.8286 131.005C81.8786 131.005 82.7136 130.715 83.3336 130.135C83.9636 129.545 84.2786 128.75 84.2786 127.75C84.2786 126.75 83.9636 125.96 83.3336 125.38C82.7136 124.79 81.8786 124.495 80.8286 124.495H78.6086V131.005H80.8286ZM90.7612 124.45V127.225H95.6212V129.175H90.7612V133H88.3312V122.5H96.2662V124.45H90.7612Z" fill="#5B5B5B"/>
<path d="M67.3122 75.8268C66.6376 75.8268 66.1829 75.8928 65.9482 75.9588V80.2781C66.2269 80.3441 66.5752 80.3625 67.0556 80.3625C68.8119 80.3625 69.8936 79.4751 69.8936 77.9754C69.8936 76.6334 68.9622 75.8268 67.3122 75.8268ZM80.0979 75.8708C79.3646 75.8708 78.8879 75.9368 78.6056 76.0028V85.5728C78.8879 85.6388 79.3426 85.6388 79.7532 85.6388C82.7489 85.6608 84.6996 84.0108 84.6996 80.5201C84.7216 77.4768 82.9432 75.8708 80.0979 75.8708Z" fill="#EE1111"/>
<path d="M88.3334 29.3334H59.0001C57.0552 29.3334 55.1899 30.106 53.8146 31.4813C52.4394 32.8565 51.6667 34.7218 51.6667 36.6667V95.3334C51.6667 97.2783 52.4394 99.1436 53.8146 100.519C55.1899 101.894 57.0552 102.667 59.0001 102.667H103C104.945 102.667 106.81 101.894 108.186 100.519C109.561 99.1436 110.333 97.2783 110.333 95.3334V51.3334L88.3334 29.3334ZM71.8261 81.3634C70.6931 82.4267 69.0211 82.9034 67.0741 82.9034C66.6966 82.9075 66.3192 82.8854 65.9447 82.8374V88.066H62.6667V73.634C64.1461 73.4134 65.6409 73.3128 67.1364 73.3334C69.1787 73.3334 70.6307 73.722 71.6097 74.503C72.5411 75.2437 73.1717 76.4574 73.1717 77.8874C73.1681 79.3247 72.6914 80.5384 71.8261 81.3634ZM85.7851 86.3317C84.2451 87.6114 81.9021 88.22 79.0384 88.22C77.3224 88.22 76.1087 88.11 75.2837 88V73.6377C76.7636 73.4217 78.2579 73.32 79.7534 73.3334C82.5291 73.3334 84.3331 73.832 85.7411 74.8954C87.2627 76.0247 88.2161 77.825 88.2161 80.41C88.2161 83.2077 87.1931 85.14 85.7851 86.3317ZM99.3334 76.1567H93.7161V79.497H98.9667V82.1884H93.7161V88.0697H90.3941V73.4434H99.3334V76.1567ZM88.3334 55H84.6667V36.6667L103 55H88.3334Z" fill="#EE1111"/>
<defs>
<filter id="filter0_dd" x="0" y="0" width="162" height="162" filterUnits="userSpaceOnUse" color-interpolation-filters="sRGB">
<feFlood flood-opacity="0" result="BackgroundImageFix"/>
<feColorMatrix in="SourceAlpha" type="matrix" values="0 0 0 0 0 0 0 0 0 0 0 0 0 0 0 0 0 0 127 0"/>
<feOffset dx="-4" dy="-4"/>
<feGaussianBlur stdDeviation="6"/>
<feColorMatrix type="matrix" values="0 0 0 0 1 0 0 0 0 1 0 0 0 0 1 0 0 0 0.5 0"/>
<feBlend mode="normal" in2="BackgroundImageFix" result="effect1_dropShadow"/>
<feColorMatrix in="SourceAlpha" type="matrix" values="0 0 0 0 0 0 0 0 0 0 0 0 0 0 0 0 0 0 127 0"/>
<feOffset dx="4" dy="4"/>
<feGaussianBlur stdDeviation="6"/>
<feColorMatrix type="matrix" values="0 0 0 0 0.383333 0 0 0 0 0.383333 0 0 0 0 0.383333 0 0 0 0.5 0"/>
<feBlend mode="normal" in2="effect1_dropShadow" result="effect2_dropShadow"/>
<feBlend mode="normal" in="SourceGraphic" in2="effect2_dropShadow" result="shape"/>
</filter>
</defs>
</svg>
