<svg width="78" height="80" viewBox="0 0 78 80" fill="none" xmlns="http://www.w3.org/2000/svg">
<path d="M31.999 0C49.678 0 64 14.329 64 32C64.0091 37.8215 62.4223 43.5342 59.412 48.517L74.927 64.032L74.873 64.086C76.529 65.671 77.546 67.921 77.546 70.464C77.547 75.377 73.633 79.219 68.725 79.218C66.218 79.217 63.976 78.214 62.376 76.582L62.337 76.621L46.329 60.612C41.8824 62.8446 36.9747 64.005 31.999 64C14.319 64 0 49.673 0 32C0 14.329 14.32 0 31.999 0V0ZM31.805 51.417C42.855 51.417 51.806 42.463 51.806 31.417C51.806 20.373 42.855 11.417 31.805 11.417C20.755 11.417 11.806 20.372 11.806 31.417C11.805 42.463 20.755 51.417 31.805 51.417Z" fill="#979797"/>
</svg>
