<svg width="162" height="162" viewBox="0 0 162 162" fill="none" xmlns="http://www.w3.org/2000/svg">
<g filter="url(#filter0_dd)">
<rect x="16" y="16" width="130" height="130" rx="10" fill="#FDFDFD"/>
<rect x="17" y="17" width="128" height="128" rx="9" stroke="#16A5C5" stroke-width="2"/>
</g>
<path d="M119 74.75C119 77.3847 118.493 79.8547 117.48 82.16C116.492 84.44 115.137 86.4413 113.414 88.164C111.691 89.8867 109.677 91.2547 107.372 92.268C105.067 93.256 102.609 93.75 100 93.75C98.3787 93.75 96.77 93.5473 95.174 93.142C94.946 95.2447 94.3633 97.1953 93.426 98.994C92.4633 100.818 91.2347 102.401 89.74 103.744C88.2707 105.087 86.586 106.125 84.686 106.86C82.7607 107.62 80.7467 108 78.644 108C76.3387 108 74.1727 107.557 72.146 106.67C70.1447 105.809 68.384 104.631 66.864 103.136C65.3693 101.641 64.1913 99.8807 63.33 97.854C62.4433 95.8273 62 93.674 62 91.394V90.178C62.076 89.798 62.1393 89.4053 62.19 89H46.154C45.318 89 44.5707 88.696 43.912 88.088C43.304 87.4293 43 86.682 43 85.846V54.154C43 53.318 43.304 52.5707 43.912 51.912C44.5707 51.304 45.318 51 46.154 51H57.364C57.668 48.3147 58.4407 45.7813 59.682 43.4C60.898 41.1453 62.4687 39.1693 64.394 37.472C66.294 35.7493 68.46 34.4067 70.892 33.444C73.324 32.4813 75.908 32 78.644 32C81.5827 32 84.344 32.5573 86.928 33.672C89.5373 34.812 91.8047 36.3447 93.73 38.27C95.6553 40.1953 97.188 42.4627 98.328 45.072C99.4427 47.656 100 50.43 100 53.394V54.572C100 54.952 99.9493 55.3447 99.848 55.75C102.483 55.75 104.953 56.244 107.258 57.232C109.589 58.22 111.603 59.5753 113.3 61.298C115.099 62.9953 116.492 64.9967 117.48 67.302C118.493 69.6327 119 72.1153 119 74.75ZM78.606 36.75C76.554 36.75 74.6033 37.1173 72.754 37.852C70.8793 38.5613 69.1947 39.5493 67.7 40.816C66.2813 42.0827 65.078 43.5773 64.09 45.3C63.1273 47.0733 62.494 48.9733 62.19 51H77.846C78.682 51 79.4293 51.3167 80.088 51.95C80.696 52.5833 81 53.318 81 54.154V69.81L81.684 69.696C82.1147 68.1253 82.748 66.6307 83.584 65.212C84.3947 63.768 85.3953 62.476 86.586 61.336C87.726 60.196 89.0307 59.1953 90.5 58.334C91.868 57.498 93.35 56.8647 94.946 56.434C95.1487 55.3447 95.25 54.3313 95.25 53.394C95.25 51.0887 94.8067 48.9227 93.92 46.896C93.0587 44.8947 91.868 43.1467 90.348 41.652C88.8533 40.1573 87.1053 38.9667 85.104 38.08C83.0773 37.1933 80.9113 36.75 78.606 36.75ZM62.38 82.35C63.52 82.35 64.66 82.236 65.8 82.008C66.864 81.78 67.8267 81.3873 68.688 80.83C69.5493 80.298 70.246 79.5887 70.778 78.702C71.2593 77.79 71.5 76.6753 71.5 75.358C71.5 74.0153 71.2467 72.9007 70.74 72.014C70.1827 71.1273 69.486 70.38 68.65 69.772C67.814 69.1893 66.9147 68.708 65.952 68.328L63.216 67.226C62.4053 66.8967 61.7087 66.5547 61.126 66.2C60.5687 65.82 60.29 65.3387 60.29 64.756C60.29 64.3507 60.442 64.0087 60.746 63.73C61.05 63.4767 61.4047 63.2867 61.81 63.16C62.2153 62.9827 62.6333 62.8687 63.064 62.818C63.52 62.7927 63.9 62.78 64.204 62.78C65.4453 62.78 66.56 62.932 67.548 63.236C68.5107 63.5653 69.5113 64.0467 70.55 64.68V59.056C69.9167 58.8787 69.3593 58.7267 68.878 58.6C68.3713 58.4733 67.8773 58.372 67.396 58.296C66.8893 58.22 66.3573 58.1567 65.8 58.106C65.2933 58.0807 64.7233 58.068 64.09 58.068C63.0007 58.068 61.886 58.182 60.746 58.41C59.606 58.6633 58.5673 59.0687 57.63 59.626C56.7433 60.2087 55.996 60.918 55.388 61.754C54.8053 62.6407 54.514 63.73 54.514 65.022C54.514 66.2887 54.7927 67.3147 55.35 68.1C55.9073 68.9867 56.604 69.734 57.44 70.342C58.276 70.9247 59.1627 71.444 60.1 71.9L62.836 73.002C63.6973 73.3567 64.4067 73.724 64.964 74.104C65.5213 74.5093 65.8 74.9907 65.8 75.548C65.8 76.0293 65.6607 76.4093 65.382 76.688C65.1287 76.9667 64.7993 77.1693 64.394 77.296C64.0647 77.4987 63.6593 77.6 63.178 77.6H62C60.5053 77.6 59.188 77.372 58.048 76.916C56.8827 76.4093 55.7173 75.7507 54.552 74.94V80.868C57.06 81.856 59.6693 82.35 62.38 82.35ZM78.606 103.25C80.202 103.25 81.7347 102.933 83.204 102.3C84.648 101.692 85.9147 100.856 87.004 99.792C88.068 98.7027 88.9167 97.436 89.55 95.992C90.1833 94.548 90.5 93.0153 90.5 91.394C90.5 89.9753 90.2593 88.62 89.778 87.328C89.322 86.036 88.676 84.8833 87.84 83.87C86.9787 82.8313 85.9653 81.9573 84.8 81.248C83.66 80.5387 82.3933 80.032 81 79.728V85.846C81 86.682 80.696 87.4293 80.088 88.088C79.4293 88.696 78.682 89 77.846 89H66.978C66.826 89.7853 66.75 90.5833 66.75 91.394C66.75 93.0153 67.0667 94.548 67.7 95.992C68.308 97.436 69.144 98.7027 70.208 99.792C71.2973 100.856 72.564 101.692 74.008 102.3C75.452 102.933 76.9847 103.25 78.606 103.25ZM100 89C101.951 89 103.787 88.6327 105.51 87.898C107.258 87.1633 108.778 86.1373 110.07 84.82C111.362 83.528 112.388 82.0207 113.148 80.298C113.883 78.5753 114.25 76.726 114.25 74.75C114.25 72.85 113.883 71.0133 113.148 69.24C112.388 67.492 111.362 65.972 110.07 64.68C108.778 63.388 107.258 62.362 105.51 61.602C103.787 60.8673 101.951 60.5 100 60.5C98.0493 60.5 96.2127 60.88 94.49 61.64C92.7673 62.4 91.26 63.426 89.968 64.718C88.676 66.01 87.65 67.5173 86.89 69.24C86.13 71.0133 85.75 72.85 85.75 74.75V75.548L85.826 76.384C86.9913 76.9413 88.068 77.6253 89.056 78.436C90.0187 79.2467 90.9053 80.146 91.716 81.134C92.476 82.1473 93.1347 83.2367 93.692 84.402C94.224 85.5673 94.6293 86.7707 94.908 88.012C96.58 88.6707 98.2773 89 100 89Z" fill="#16A5C5"/>
<path d="M43.4889 135.18C42.6589 135.18 41.8539 135.07 41.0739 134.85C40.3039 134.62 39.6839 134.325 39.2139 133.965L40.0389 132.135C40.4889 132.465 41.0239 132.73 41.6439 132.93C42.2639 133.13 42.8839 133.23 43.5039 133.23C44.1939 133.23 44.7039 133.13 45.0339 132.93C45.3639 132.72 45.5289 132.445 45.5289 132.105C45.5289 131.855 45.4289 131.65 45.2289 131.49C45.0389 131.32 44.7889 131.185 44.4789 131.085C44.1789 130.985 43.7689 130.875 43.2489 130.755C42.4489 130.565 41.7939 130.375 41.2839 130.185C40.7739 129.995 40.3339 129.69 39.9639 129.27C39.6039 128.85 39.4239 128.29 39.4239 127.59C39.4239 126.98 39.5889 126.43 39.9189 125.94C40.2489 125.44 40.7439 125.045 41.4039 124.755C42.0739 124.465 42.8889 124.32 43.8489 124.32C44.5189 124.32 45.1739 124.4 45.8139 124.56C46.4539 124.72 47.0139 124.95 47.4939 125.25L46.7439 127.095C45.7739 126.545 44.8039 126.27 43.8339 126.27C43.1539 126.27 42.6489 126.38 42.3189 126.6C41.9989 126.82 41.8389 127.11 41.8389 127.47C41.8389 127.83 42.0239 128.1 42.3939 128.28C42.7739 128.45 43.3489 128.62 44.1189 128.79C44.9189 128.98 45.5739 129.17 46.0839 129.36C46.5939 129.55 47.0289 129.85 47.3889 130.26C47.7589 130.67 47.9439 131.225 47.9439 131.925C47.9439 132.525 47.7739 133.075 47.4339 133.575C47.1039 134.065 46.6039 134.455 45.9339 134.745C45.2639 135.035 44.4489 135.18 43.4889 135.18ZM54.1043 126.81C55.1043 126.81 55.9093 127.11 56.5193 127.71C57.1393 128.31 57.4493 129.2 57.4493 130.38V135H55.1093V130.74C55.1093 130.1 54.9693 129.625 54.6893 129.315C54.4093 128.995 54.0043 128.835 53.4743 128.835C52.8843 128.835 52.4143 129.02 52.0643 129.39C51.7143 129.75 51.5393 130.29 51.5393 131.01V135H49.1993V123.87H51.5393V127.77C51.8493 127.46 52.2243 127.225 52.6643 127.065C53.1043 126.895 53.5843 126.81 54.1043 126.81ZM62.5854 126.81C63.8354 126.81 64.7954 127.11 65.4654 127.71C66.1354 128.3 66.4704 129.195 66.4704 130.395V135H64.2804V133.995C63.8404 134.745 63.0204 135.12 61.8204 135.12C61.2004 135.12 60.6604 135.015 60.2004 134.805C59.7504 134.595 59.4054 134.305 59.1654 133.935C58.9254 133.565 58.8054 133.145 58.8054 132.675C58.8054 131.925 59.0854 131.335 59.6454 130.905C60.2154 130.475 61.0904 130.26 62.2704 130.26H64.1304C64.1304 129.75 63.9754 129.36 63.6654 129.09C63.3554 128.81 62.8904 128.67 62.2704 128.67C61.8404 128.67 61.4154 128.74 60.9954 128.88C60.5854 129.01 60.2354 129.19 59.9454 129.42L59.1054 127.785C59.5454 127.475 60.0704 127.235 60.6804 127.065C61.3004 126.895 61.9354 126.81 62.5854 126.81ZM62.4054 133.545C62.8054 133.545 63.1604 133.455 63.4704 133.275C63.7804 133.085 64.0004 132.81 64.1304 132.45V131.625H62.5254C61.5654 131.625 61.0854 131.94 61.0854 132.57C61.0854 132.87 61.2004 133.11 61.4304 133.29C61.6704 133.46 61.9954 133.545 62.4054 133.545ZM70.5832 127.995C70.8632 127.605 71.2382 127.31 71.7082 127.11C72.1882 126.91 72.7382 126.81 73.3582 126.81V128.97C73.0982 128.95 72.9232 128.94 72.8332 128.94C72.1632 128.94 71.6382 129.13 71.2582 129.51C70.8782 129.88 70.6882 130.44 70.6882 131.19V135H68.3482V126.93H70.5832V127.995ZM82.3413 130.995C82.3413 131.025 82.3263 131.235 82.2963 131.625H76.1913C76.3013 132.125 76.5613 132.52 76.9713 132.81C77.3813 133.1 77.8913 133.245 78.5013 133.245C78.9213 133.245 79.2913 133.185 79.6113 133.065C79.9413 132.935 80.2463 132.735 80.5263 132.465L81.7713 133.815C81.0113 134.685 79.9013 135.12 78.4413 135.12C77.5313 135.12 76.7263 134.945 76.0263 134.595C75.3263 134.235 74.7863 133.74 74.4063 133.11C74.0263 132.48 73.8363 131.765 73.8363 130.965C73.8363 130.175 74.0213 129.465 74.3913 128.835C74.7713 128.195 75.2863 127.7 75.9363 127.35C76.5963 126.99 77.3313 126.81 78.1413 126.81C78.9313 126.81 79.6463 126.98 80.2863 127.32C80.9263 127.66 81.4263 128.15 81.7863 128.79C82.1563 129.42 82.3413 130.155 82.3413 130.995ZM78.1563 128.58C77.6263 128.58 77.1813 128.73 76.8213 129.03C76.4613 129.33 76.2413 129.74 76.1613 130.26H80.1363C80.0563 129.75 79.8363 129.345 79.4763 129.045C79.1163 128.735 78.6763 128.58 78.1563 128.58ZM88.4292 126.81C89.1792 126.81 89.8592 126.985 90.4692 127.335C91.0892 127.675 91.5742 128.16 91.9242 128.79C92.2742 129.41 92.4492 130.135 92.4492 130.965C92.4492 131.795 92.2742 132.525 91.9242 133.155C91.5742 133.775 91.0892 134.26 90.4692 134.61C89.8592 134.95 89.1792 135.12 88.4292 135.12C87.3992 135.12 86.5892 134.795 85.9992 134.145V137.91H83.6592V126.93H85.8942V127.86C86.4742 127.16 87.3192 126.81 88.4292 126.81ZM88.0242 133.2C88.6242 133.2 89.1142 133 89.4942 132.6C89.8842 132.19 90.0792 131.645 90.0792 130.965C90.0792 130.285 89.8842 129.745 89.4942 129.345C89.1142 128.935 88.6242 128.73 88.0242 128.73C87.4242 128.73 86.9292 128.935 86.5392 129.345C86.1592 129.745 85.9692 130.285 85.9692 130.965C85.9692 131.645 86.1592 132.19 86.5392 132.6C86.9292 133 87.4242 133.2 88.0242 133.2ZM97.6157 135.12C96.7657 135.12 96.0007 134.945 95.3207 134.595C94.6507 134.235 94.1257 133.74 93.7457 133.11C93.3657 132.48 93.1757 131.765 93.1757 130.965C93.1757 130.165 93.3657 129.45 93.7457 128.82C94.1257 128.19 94.6507 127.7 95.3207 127.35C96.0007 126.99 96.7657 126.81 97.6157 126.81C98.4657 126.81 99.2257 126.99 99.8957 127.35C100.566 127.7 101.091 128.19 101.471 128.82C101.851 129.45 102.041 130.165 102.041 130.965C102.041 131.765 101.851 132.48 101.471 133.11C101.091 133.74 100.566 134.235 99.8957 134.595C99.2257 134.945 98.4657 135.12 97.6157 135.12ZM97.6157 133.2C98.2157 133.2 98.7057 133 99.0857 132.6C99.4757 132.19 99.6707 131.645 99.6707 130.965C99.6707 130.285 99.4757 129.745 99.0857 129.345C98.7057 128.935 98.2157 128.73 97.6157 128.73C97.0157 128.73 96.5207 128.935 96.1307 129.345C95.7407 129.745 95.5457 130.285 95.5457 130.965C95.5457 131.645 95.7407 132.19 96.1307 132.6C96.5207 133 97.0157 133.2 97.6157 133.2ZM103.365 126.93H105.705V135H103.365V126.93ZM104.535 125.805C104.105 125.805 103.755 125.68 103.485 125.43C103.215 125.18 103.08 124.87 103.08 124.5C103.08 124.13 103.215 123.82 103.485 123.57C103.755 123.32 104.105 123.195 104.535 123.195C104.965 123.195 105.315 123.315 105.585 123.555C105.855 123.795 105.99 124.095 105.99 124.455C105.99 124.845 105.855 125.17 105.585 125.43C105.315 125.68 104.965 125.805 104.535 125.805ZM112.541 126.81C113.541 126.81 114.346 127.11 114.956 127.71C115.576 128.31 115.886 129.2 115.886 130.38V135H113.546V130.74C113.546 130.1 113.406 129.625 113.126 129.315C112.846 128.995 112.441 128.835 111.911 128.835C111.321 128.835 110.851 129.02 110.501 129.39C110.151 129.75 109.976 130.29 109.976 131.01V135H107.636V126.93H109.871V127.875C110.181 127.535 110.566 127.275 111.026 127.095C111.486 126.905 111.991 126.81 112.541 126.81ZM122.973 134.61C122.743 134.78 122.458 134.91 122.118 135C121.788 135.08 121.438 135.12 121.068 135.12C120.108 135.12 119.363 134.875 118.833 134.385C118.313 133.895 118.053 133.175 118.053 132.225V128.91H116.808V127.11H118.053V125.145H120.393V127.11H122.403V128.91H120.393V132.195C120.393 132.535 120.478 132.8 120.648 132.99C120.828 133.17 121.078 133.26 121.398 133.26C121.768 133.26 122.083 133.16 122.343 132.96L122.973 134.61Z" fill="#5B5B5B"/>
<defs>
<filter id="filter0_dd" x="0" y="0" width="162" height="162" filterUnits="userSpaceOnUse" color-interpolation-filters="sRGB">
<feFlood flood-opacity="0" result="BackgroundImageFix"/>
<feColorMatrix in="SourceAlpha" type="matrix" values="0 0 0 0 0 0 0 0 0 0 0 0 0 0 0 0 0 0 127 0"/>
<feOffset dx="-4" dy="-4"/>
<feGaussianBlur stdDeviation="6"/>
<feColorMatrix type="matrix" values="0 0 0 0 1 0 0 0 0 1 0 0 0 0 1 0 0 0 0.5 0"/>
<feBlend mode="normal" in2="BackgroundImageFix" result="effect1_dropShadow"/>
<feColorMatrix in="SourceAlpha" type="matrix" values="0 0 0 0 0 0 0 0 0 0 0 0 0 0 0 0 0 0 127 0"/>
<feOffset dx="4" dy="4"/>
<feGaussianBlur stdDeviation="6"/>
<feColorMatrix type="matrix" values="0 0 0 0 0.383333 0 0 0 0 0.383333 0 0 0 0 0.383333 0 0 0 0.5 0"/>
<feBlend mode="normal" in2="effect1_dropShadow" result="effect2_dropShadow"/>
<feBlend mode="normal" in="SourceGraphic" in2="effect2_dropShadow" result="shape"/>
</filter>
</defs>
</svg>
