<svg width="162" height="162" viewBox="0 0 162 162" fill="none" xmlns="http://www.w3.org/2000/svg">
<g filter="url(#filter0_dd)">
<rect x="16" y="16" width="130" height="130" rx="10" fill="#FDFDFD"/>
<rect x="17" y="17" width="128" height="128" rx="9" stroke="#FF8A8A" stroke-width="2"/>
</g>
<path d="M41 39.9048H73C73 37.8083 73.8429 35.7977 75.3431 34.3153C76.8434 32.8328 78.8783 32 81 32C83.1217 32 85.1566 32.8328 86.6569 34.3153C88.1571 35.7977 89 37.8083 89 39.9048H121V47.8095H117V91.2857H94L101 115H93L86 91.2857H76L69 115H61L68 91.2857H45V47.8095H41V39.9048ZM53 47.8095V83.381H109V47.8095H53ZM80.4 74.8833C80.2185 75.0695 80.0011 75.2178 79.7607 75.3196C79.5202 75.4215 79.2616 75.4747 79 75.4762C78.4696 75.4762 77.9609 75.268 77.5858 74.8974C77.2107 74.5268 77 74.0241 77 73.5V57.6905C77 57.1664 77.2107 56.6637 77.5858 56.2931C77.9609 55.9225 78.4696 55.7143 79 55.7143C79.56 55.7143 80.04 55.9514 80.4 56.3071L86 61.801C87.28 63.0657 88.56 64.3305 88.56 65.5952C88.56 66.86 87.28 68.1248 86 69.3895L80.4 74.8833V74.8833Z" fill="#FF8A8A"/>
<path d="M46.3938 137.18C45.5638 137.18 44.7588 137.07 43.9788 136.85C43.2088 136.62 42.5888 136.325 42.1188 135.965L42.9438 134.135C43.3938 134.465 43.9288 134.73 44.5488 134.93C45.1688 135.13 45.7888 135.23 46.4088 135.23C47.0988 135.23 47.6088 135.13 47.9388 134.93C48.2688 134.72 48.4338 134.445 48.4338 134.105C48.4338 133.855 48.3338 133.65 48.1338 133.49C47.9438 133.32 47.6938 133.185 47.3838 133.085C47.0838 132.985 46.6738 132.875 46.1538 132.755C45.3538 132.565 44.6988 132.375 44.1888 132.185C43.6788 131.995 43.2388 131.69 42.8688 131.27C42.5088 130.85 42.3288 130.29 42.3288 129.59C42.3288 128.98 42.4938 128.43 42.8238 127.94C43.1538 127.44 43.6488 127.045 44.3088 126.755C44.9788 126.465 45.7938 126.32 46.7538 126.32C47.4238 126.32 48.0788 126.4 48.7188 126.56C49.3588 126.72 49.9188 126.95 50.3988 127.25L49.6488 129.095C48.6788 128.545 47.7088 128.27 46.7388 128.27C46.0588 128.27 45.5538 128.38 45.2238 128.6C44.9038 128.82 44.7438 129.11 44.7438 129.47C44.7438 129.83 44.9288 130.1 45.2988 130.28C45.6788 130.45 46.2538 130.62 47.0238 130.79C47.8238 130.98 48.4788 131.17 48.9888 131.36C49.4988 131.55 49.9338 131.85 50.2938 132.26C50.6638 132.67 50.8488 133.225 50.8488 133.925C50.8488 134.525 50.6788 135.075 50.3388 135.575C50.0088 136.065 49.5088 136.455 48.8388 136.745C48.1688 137.035 47.3538 137.18 46.3938 137.18ZM52.1042 125.87H54.4442V137H52.1042V125.87ZM56.3759 128.93H58.7159V137H56.3759V128.93ZM57.5459 127.805C57.1159 127.805 56.7659 127.68 56.4959 127.43C56.2259 127.18 56.0909 126.87 56.0909 126.5C56.0909 126.13 56.2259 125.82 56.4959 125.57C56.7659 125.32 57.1159 125.195 57.5459 125.195C57.9759 125.195 58.3259 125.315 58.5959 125.555C58.8659 125.795 59.0009 126.095 59.0009 126.455C59.0009 126.845 58.8659 127.17 58.5959 127.43C58.3259 127.68 57.9759 127.805 57.5459 127.805ZM68.8676 125.87V137H66.6326V136.07C66.0526 136.77 65.2126 137.12 64.1126 137.12C63.3526 137.12 62.6626 136.95 62.0426 136.61C61.4326 136.27 60.9526 135.785 60.6026 135.155C60.2526 134.525 60.0776 133.795 60.0776 132.965C60.0776 132.135 60.2526 131.405 60.6026 130.775C60.9526 130.145 61.4326 129.66 62.0426 129.32C62.6626 128.98 63.3526 128.81 64.1126 128.81C65.1426 128.81 65.9476 129.135 66.5276 129.785V125.87H68.8676ZM64.5176 135.2C65.1076 135.2 65.5976 135 65.9876 134.6C66.3776 134.19 66.5726 133.645 66.5726 132.965C66.5726 132.285 66.3776 131.745 65.9876 131.345C65.5976 130.935 65.1076 130.73 64.5176 130.73C63.9176 130.73 63.4226 130.935 63.0326 131.345C62.6426 131.745 62.4476 132.285 62.4476 132.965C62.4476 133.645 62.6426 134.19 63.0326 134.6C63.4226 135 63.9176 135.2 64.5176 135.2ZM78.6984 132.995C78.6984 133.025 78.6834 133.235 78.6534 133.625H72.5484C72.6584 134.125 72.9184 134.52 73.3284 134.81C73.7384 135.1 74.2484 135.245 74.8584 135.245C75.2784 135.245 75.6484 135.185 75.9684 135.065C76.2984 134.935 76.6034 134.735 76.8834 134.465L78.1284 135.815C77.3684 136.685 76.2584 137.12 74.7984 137.12C73.8884 137.12 73.0834 136.945 72.3834 136.595C71.6834 136.235 71.1434 135.74 70.7634 135.11C70.3834 134.48 70.1934 133.765 70.1934 132.965C70.1934 132.175 70.3784 131.465 70.7484 130.835C71.1284 130.195 71.6434 129.7 72.2934 129.35C72.9534 128.99 73.6884 128.81 74.4984 128.81C75.2884 128.81 76.0034 128.98 76.6434 129.32C77.2834 129.66 77.7834 130.15 78.1434 130.79C78.5134 131.42 78.6984 132.155 78.6984 132.995ZM74.5134 130.58C73.9834 130.58 73.5384 130.73 73.1784 131.03C72.8184 131.33 72.5984 131.74 72.5184 132.26H76.4934C76.4134 131.75 76.1934 131.345 75.8334 131.045C75.4734 130.735 75.0334 130.58 74.5134 130.58ZM82.7313 137.12C82.0613 137.12 81.4063 137.04 80.7663 136.88C80.1263 136.71 79.6163 136.5 79.2363 136.25L80.0163 134.57C80.3763 134.8 80.8113 134.99 81.3213 135.14C81.8313 135.28 82.3313 135.35 82.8213 135.35C83.8113 135.35 84.3063 135.105 84.3063 134.615C84.3063 134.385 84.1713 134.22 83.9013 134.12C83.6313 134.02 83.2163 133.935 82.6563 133.865C81.9963 133.765 81.4513 133.65 81.0213 133.52C80.5913 133.39 80.2163 133.16 79.8963 132.83C79.5863 132.5 79.4313 132.03 79.4313 131.42C79.4313 130.91 79.5763 130.46 79.8663 130.07C80.1663 129.67 80.5963 129.36 81.1563 129.14C81.7263 128.92 82.3963 128.81 83.1663 128.81C83.7363 128.81 84.3013 128.875 84.8613 129.005C85.4313 129.125 85.9013 129.295 86.2713 129.515L85.4913 131.18C84.7813 130.78 84.0063 130.58 83.1663 130.58C82.6663 130.58 82.2913 130.65 82.0413 130.79C81.7913 130.93 81.6663 131.11 81.6663 131.33C81.6663 131.58 81.8013 131.755 82.0713 131.855C82.3413 131.955 82.7713 132.05 83.3613 132.14C84.0213 132.25 84.5613 132.37 84.9813 132.5C85.4013 132.62 85.7663 132.845 86.0763 133.175C86.3863 133.505 86.5413 133.965 86.5413 134.555C86.5413 135.055 86.3913 135.5 86.0913 135.89C85.7913 136.28 85.3513 136.585 84.7713 136.805C84.2013 137.015 83.5213 137.12 82.7313 137.12ZM92.65 128.81C93.65 128.81 94.455 129.11 95.065 129.71C95.685 130.31 95.995 131.2 95.995 132.38V137H93.655V132.74C93.655 132.1 93.515 131.625 93.235 131.315C92.955 130.995 92.55 130.835 92.02 130.835C91.43 130.835 90.96 131.02 90.61 131.39C90.26 131.75 90.085 132.29 90.085 133.01V137H87.745V125.87H90.085V129.77C90.395 129.46 90.77 129.225 91.21 129.065C91.65 128.895 92.13 128.81 92.65 128.81ZM101.804 137.12C100.954 137.12 100.189 136.945 99.509 136.595C98.839 136.235 98.314 135.74 97.934 135.11C97.554 134.48 97.364 133.765 97.364 132.965C97.364 132.165 97.554 131.45 97.934 130.82C98.314 130.19 98.839 129.7 99.509 129.35C100.189 128.99 100.954 128.81 101.804 128.81C102.654 128.81 103.414 128.99 104.084 129.35C104.754 129.7 105.279 130.19 105.659 130.82C106.039 131.45 106.229 132.165 106.229 132.965C106.229 133.765 106.039 134.48 105.659 135.11C105.279 135.74 104.754 136.235 104.084 136.595C103.414 136.945 102.654 137.12 101.804 137.12ZM101.804 135.2C102.404 135.2 102.894 135 103.274 134.6C103.664 134.19 103.859 133.645 103.859 132.965C103.859 132.285 103.664 131.745 103.274 131.345C102.894 130.935 102.404 130.73 101.804 130.73C101.204 130.73 100.709 130.935 100.319 131.345C99.929 131.745 99.734 132.285 99.734 132.965C99.734 133.645 99.929 134.19 100.319 134.6C100.709 135 101.204 135.2 101.804 135.2ZM120.293 128.93L117.368 137H115.118L113.303 131.99L111.428 137H109.178L106.268 128.93H108.473L110.378 134.39L112.358 128.93H114.338L116.258 134.39L118.223 128.93H120.293Z" fill="#5B5B5B"/>
<defs>
<filter id="filter0_dd" x="0" y="0" width="162" height="162" filterUnits="userSpaceOnUse" color-interpolation-filters="sRGB">
<feFlood flood-opacity="0" result="BackgroundImageFix"/>
<feColorMatrix in="SourceAlpha" type="matrix" values="0 0 0 0 0 0 0 0 0 0 0 0 0 0 0 0 0 0 127 0"/>
<feOffset dx="-4" dy="-4"/>
<feGaussianBlur stdDeviation="6"/>
<feColorMatrix type="matrix" values="0 0 0 0 1 0 0 0 0 1 0 0 0 0 1 0 0 0 0.5 0"/>
<feBlend mode="normal" in2="BackgroundImageFix" result="effect1_dropShadow"/>
<feColorMatrix in="SourceAlpha" type="matrix" values="0 0 0 0 0 0 0 0 0 0 0 0 0 0 0 0 0 0 127 0"/>
<feOffset dx="4" dy="4"/>
<feGaussianBlur stdDeviation="6"/>
<feColorMatrix type="matrix" values="0 0 0 0 0.383333 0 0 0 0 0.383333 0 0 0 0 0.383333 0 0 0 0.5 0"/>
<feBlend mode="normal" in2="effect1_dropShadow" result="effect2_dropShadow"/>
<feBlend mode="normal" in="SourceGraphic" in2="effect2_dropShadow" result="shape"/>
</filter>
</defs>
</svg>
