<svg width="162" height="162" viewBox="0 0 162 162" fill="none" xmlns="http://www.w3.org/2000/svg">
<g filter="url(#filter0_dd)">
<rect x="16" y="16" width="130" height="130" rx="10" fill="#FDFDFD"/>
<rect x="17" y="17" width="128" height="128" rx="9" stroke="#32CBA6" stroke-width="2"/>
</g>
<path d="M66.5059 123.715L63.0709 134.215H60.4609L58.1509 127.105L55.7659 134.215H53.1709L49.7209 123.715H52.2409L54.6109 131.095L57.0859 123.715H59.3359L61.7359 131.155L64.1809 123.715H66.5059ZM74.7619 130.21C74.7619 130.24 74.7469 130.45 74.7169 130.84H68.6119C68.7219 131.34 68.9819 131.735 69.3919 132.025C69.8019 132.315 70.3119 132.46 70.9219 132.46C71.3419 132.46 71.7119 132.4 72.0319 132.28C72.3619 132.15 72.6669 131.95 72.9469 131.68L74.1919 133.03C73.4319 133.9 72.3219 134.335 70.8619 134.335C69.9519 134.335 69.1469 134.16 68.4469 133.81C67.7469 133.45 67.2069 132.955 66.8269 132.325C66.4469 131.695 66.2569 130.98 66.2569 130.18C66.2569 129.39 66.4419 128.68 66.8119 128.05C67.1919 127.41 67.7069 126.915 68.3569 126.565C69.0169 126.205 69.7519 126.025 70.5619 126.025C71.3519 126.025 72.0669 126.195 72.7069 126.535C73.3469 126.875 73.8469 127.365 74.2069 128.005C74.5769 128.635 74.7619 129.37 74.7619 130.21ZM70.5769 127.795C70.0469 127.795 69.6019 127.945 69.2419 128.245C68.8819 128.545 68.6619 128.955 68.5819 129.475H72.5569C72.4769 128.965 72.2569 128.56 71.8969 128.26C71.5369 127.95 71.0969 127.795 70.5769 127.795ZM80.8498 126.025C81.5998 126.025 82.2798 126.2 82.8898 126.55C83.5098 126.89 83.9948 127.375 84.3448 128.005C84.6948 128.625 84.8698 129.35 84.8698 130.18C84.8698 131.01 84.6948 131.74 84.3448 132.37C83.9948 132.99 83.5098 133.475 82.8898 133.825C82.2798 134.165 81.5998 134.335 80.8498 134.335C79.7398 134.335 78.8948 133.985 78.3148 133.285V134.215H76.0798V123.085H78.4198V127C79.0098 126.35 79.8198 126.025 80.8498 126.025ZM80.4448 132.415C81.0448 132.415 81.5348 132.215 81.9148 131.815C82.3048 131.405 82.4998 130.86 82.4998 130.18C82.4998 129.5 82.3048 128.96 81.9148 128.56C81.5348 128.15 81.0448 127.945 80.4448 127.945C79.8448 127.945 79.3498 128.15 78.9598 128.56C78.5798 128.96 78.3898 129.5 78.3898 130.18C78.3898 130.86 78.5798 131.405 78.9598 131.815C79.3498 132.215 79.8448 132.415 80.4448 132.415ZM88.9112 134.335C88.2412 134.335 87.5862 134.255 86.9462 134.095C86.3062 133.925 85.7962 133.715 85.4162 133.465L86.1962 131.785C86.5562 132.015 86.9912 132.205 87.5012 132.355C88.0112 132.495 88.5112 132.565 89.0012 132.565C89.9912 132.565 90.4862 132.32 90.4862 131.83C90.4862 131.6 90.3512 131.435 90.0812 131.335C89.8112 131.235 89.3962 131.15 88.8362 131.08C88.1762 130.98 87.6312 130.865 87.2012 130.735C86.7712 130.605 86.3962 130.375 86.0762 130.045C85.7662 129.715 85.6112 129.245 85.6112 128.635C85.6112 128.125 85.7562 127.675 86.0462 127.285C86.3462 126.885 86.7762 126.575 87.3362 126.355C87.9062 126.135 88.5762 126.025 89.3462 126.025C89.9162 126.025 90.4812 126.09 91.0412 126.22C91.6112 126.34 92.0812 126.51 92.4512 126.73L91.6712 128.395C90.9612 127.995 90.1862 127.795 89.3462 127.795C88.8462 127.795 88.4712 127.865 88.2212 128.005C87.9712 128.145 87.8462 128.325 87.8462 128.545C87.8462 128.795 87.9812 128.97 88.2512 129.07C88.5212 129.17 88.9512 129.265 89.5412 129.355C90.2012 129.465 90.7412 129.585 91.1612 129.715C91.5812 129.835 91.9462 130.06 92.2562 130.39C92.5662 130.72 92.7212 131.18 92.7212 131.77C92.7212 132.27 92.5712 132.715 92.2712 133.105C91.9712 133.495 91.5312 133.8 90.9512 134.02C90.3812 134.23 89.7012 134.335 88.9112 134.335ZM93.925 126.145H96.265V134.215H93.925V126.145ZM95.095 125.02C94.665 125.02 94.315 124.895 94.045 124.645C93.775 124.395 93.64 124.085 93.64 123.715C93.64 123.345 93.775 123.035 94.045 122.785C94.315 122.535 94.665 122.41 95.095 122.41C95.525 122.41 95.875 122.53 96.145 122.77C96.415 123.01 96.55 123.31 96.55 123.67C96.55 124.06 96.415 124.385 96.145 124.645C95.875 124.895 95.525 125.02 95.095 125.02ZM103.402 133.825C103.172 133.995 102.887 134.125 102.547 134.215C102.217 134.295 101.867 134.335 101.497 134.335C100.537 134.335 99.7917 134.09 99.2617 133.6C98.7417 133.11 98.4817 132.39 98.4817 131.44V128.125H97.2367V126.325H98.4817V124.36H100.822V126.325H102.832V128.125H100.822V131.41C100.822 131.75 100.907 132.015 101.077 132.205C101.257 132.385 101.507 132.475 101.827 132.475C102.197 132.475 102.512 132.375 102.772 132.175L103.402 133.825ZM112.131 130.21C112.131 130.24 112.116 130.45 112.086 130.84H105.981C106.091 131.34 106.351 131.735 106.761 132.025C107.171 132.315 107.681 132.46 108.291 132.46C108.711 132.46 109.081 132.4 109.401 132.28C109.731 132.15 110.036 131.95 110.316 131.68L111.561 133.03C110.801 133.9 109.691 134.335 108.231 134.335C107.321 134.335 106.516 134.16 105.816 133.81C105.116 133.45 104.576 132.955 104.196 132.325C103.816 131.695 103.626 130.98 103.626 130.18C103.626 129.39 103.811 128.68 104.181 128.05C104.561 127.41 105.076 126.915 105.726 126.565C106.386 126.205 107.121 126.025 107.931 126.025C108.721 126.025 109.436 126.195 110.076 126.535C110.716 126.875 111.216 127.365 111.576 128.005C111.946 128.635 112.131 129.37 112.131 130.21ZM107.946 127.795C107.416 127.795 106.971 127.945 106.611 128.245C106.251 128.545 106.031 128.955 105.951 129.475H109.926C109.846 128.965 109.626 128.56 109.266 128.26C108.906 127.95 108.466 127.795 107.946 127.795Z" fill="#5B5B5B"/>
<g filter="url(#filter1_d)">
<path d="M81 35C71.9826 35 63.3346 38.5821 56.9584 44.9584C50.5821 51.3346 47 59.9826 47 69C47 78.0174 50.5821 86.6654 56.9584 93.0416C63.3346 99.4179 71.9826 103 81 103C90.0174 103 98.6654 99.4179 105.042 93.0416C111.418 86.6654 115 78.0174 115 69C115 59.9826 111.418 51.3346 105.042 44.9584C98.6654 38.5821 90.0174 35 81 35ZM51.1933 71.5689H60.6756C60.8267 75.0067 61.3064 78.4218 62.1111 81.7689H53.9511C52.4294 78.5611 51.4954 75.1064 51.1933 71.5689ZM83.5689 51.1689V39.4956C87.2095 40.8791 90.201 43.5741 91.9556 47.0511C92.73 48.362 93.4138 49.7258 93.9956 51.1311L83.5689 51.1689ZM95.7333 56.2689C96.6098 59.6047 97.1311 63.0236 97.2822 66.4689H83.5689V56.2689H95.7333ZM78.4311 39.4956V51.1689H68.0044C68.5872 49.7624 69.2689 48.399 70.0444 47.0889C71.7915 43.5977 74.784 40.8883 78.4311 39.4956ZM78.4311 56.2689V66.4689H64.7556C64.9067 63.0236 65.428 59.6047 66.3044 56.2689H78.4311ZM60.6756 66.4311H51.1933C51.4954 62.8936 52.4294 59.4389 53.9511 56.2311H62.1111C61.3049 59.5769 60.8241 62.9928 60.6756 66.4311ZM64.7556 71.5689H78.4311V81.7689H66.3044C65.4281 78.4334 64.9089 75.0142 64.7556 71.5689ZM78.4689 86.68V98.3533C74.8283 96.9698 71.8368 94.2748 70.0822 90.7978C69.3067 89.4877 68.625 88.1243 68.0422 86.7178L78.4689 86.68ZM83.5689 98.3533V86.8689H93.9956C93.4128 88.2754 92.7311 89.6388 91.9556 90.9489C90.201 94.4259 87.2095 97.1209 83.5689 98.5044V98.3533ZM83.5689 81.58V71.38H97.2444C97.0911 74.8253 96.5719 78.2445 95.6956 81.58H83.5689ZM101.362 71.38H110.844C110.542 74.9175 109.608 78.3722 108.087 81.58H99.8889C100.682 78.2933 101.162 74.9424 101.324 71.5689L101.362 71.38ZM101.362 66.28C101.189 62.9038 100.696 59.5517 99.8889 56.2689H108.049C109.571 59.48 110.504 62.9329 110.807 66.4689L101.362 66.28ZM105.14 51.1689H98.3778C97.1542 47.7322 95.3808 44.5171 93.1267 41.6489C97.8277 43.7591 101.911 47.0362 104.989 51.1689H105.14ZM68.8733 41.6489C66.6192 44.5171 64.8458 47.7322 63.6222 51.1689H57.0111C60.0889 47.0362 64.1723 43.7591 68.8733 41.6489ZM56.9733 86.9822H63.6222C64.8458 90.4189 66.6192 93.634 68.8733 96.5022C64.1593 94.3603 60.0747 91.0431 57.0111 86.8689L56.9733 86.9822ZM93.0889 96.5022C95.343 93.634 97.1165 90.4189 98.34 86.9822H104.989C101.892 91.0596 97.8105 94.2834 93.1267 96.3511L93.0889 96.5022Z" fill="#32CBA6"/>
</g>
<defs>
<filter id="filter0_dd" x="0" y="0" width="162" height="162" filterUnits="userSpaceOnUse" color-interpolation-filters="sRGB">
<feFlood flood-opacity="0" result="BackgroundImageFix"/>
<feColorMatrix in="SourceAlpha" type="matrix" values="0 0 0 0 0 0 0 0 0 0 0 0 0 0 0 0 0 0 127 0"/>
<feOffset dx="-4" dy="-4"/>
<feGaussianBlur stdDeviation="6"/>
<feColorMatrix type="matrix" values="0 0 0 0 1 0 0 0 0 1 0 0 0 0 1 0 0 0 0.5 0"/>
<feBlend mode="normal" in2="BackgroundImageFix" result="effect1_dropShadow"/>
<feColorMatrix in="SourceAlpha" type="matrix" values="0 0 0 0 0 0 0 0 0 0 0 0 0 0 0 0 0 0 127 0"/>
<feOffset dx="4" dy="4"/>
<feGaussianBlur stdDeviation="6"/>
<feColorMatrix type="matrix" values="0 0 0 0 0.383333 0 0 0 0 0.383333 0 0 0 0 0.383333 0 0 0 0.5 0"/>
<feBlend mode="normal" in2="effect1_dropShadow" result="effect2_dropShadow"/>
<feBlend mode="normal" in="SourceGraphic" in2="effect2_dropShadow" result="shape"/>
</filter>
<filter id="filter1_d" x="43" y="35" width="76" height="76" filterUnits="userSpaceOnUse" color-interpolation-filters="sRGB">
<feFlood flood-opacity="0" result="BackgroundImageFix"/>
<feColorMatrix in="SourceAlpha" type="matrix" values="0 0 0 0 0 0 0 0 0 0 0 0 0 0 0 0 0 0 127 0"/>
<feOffset dy="4"/>
<feGaussianBlur stdDeviation="2"/>
<feColorMatrix type="matrix" values="0 0 0 0 0 0 0 0 0 0 0 0 0 0 0 0 0 0 0.1 0"/>
<feBlend mode="normal" in2="BackgroundImageFix" result="effect1_dropShadow"/>
<feBlend mode="normal" in="SourceGraphic" in2="effect1_dropShadow" result="shape"/>
</filter>
</defs>
</svg>
