<svg width="162" height="162" viewBox="0 0 162 162" fill="none" xmlns="http://www.w3.org/2000/svg">
<g filter="url(#filter0_dd)">
<rect x="16" y="16" width="130" height="130" rx="10" fill="#FDFDFD"/>
</g>
<path d="M58.1884 122.564L54.7534 133.064H52.1434L49.8334 125.954L47.4484 133.064H44.8534L41.4034 122.564H43.9234L46.2934 129.944L48.7684 122.564H51.0184L53.4184 130.004L55.8634 122.564H58.1884ZM64.2647 124.874C65.2647 124.874 66.0697 125.174 66.6797 125.774C67.2997 126.374 67.6097 127.264 67.6097 128.444V133.064H65.2697V128.804C65.2697 128.164 65.1297 127.689 64.8497 127.379C64.5697 127.059 64.1647 126.899 63.6347 126.899C63.0447 126.899 62.5747 127.084 62.2247 127.454C61.8747 127.814 61.6997 128.354 61.6997 129.074V133.064H59.3597V121.934H61.6997V125.834C62.0097 125.524 62.3847 125.289 62.8247 125.129C63.2647 124.959 63.7447 124.874 64.2647 124.874ZM72.7458 124.874C73.9958 124.874 74.9558 125.174 75.6258 125.774C76.2958 126.364 76.6308 127.259 76.6308 128.459V133.064H74.4408V132.059C74.0008 132.809 73.1808 133.184 71.9808 133.184C71.3608 133.184 70.8208 133.079 70.3608 132.869C69.9108 132.659 69.5658 132.369 69.3258 131.999C69.0858 131.629 68.9658 131.209 68.9658 130.739C68.9658 129.989 69.2458 129.399 69.8058 128.969C70.3758 128.539 71.2508 128.324 72.4308 128.324H74.2908C74.2908 127.814 74.1358 127.424 73.8258 127.154C73.5158 126.874 73.0508 126.734 72.4308 126.734C72.0008 126.734 71.5758 126.804 71.1558 126.944C70.7458 127.074 70.3958 127.254 70.1058 127.484L69.2658 125.849C69.7058 125.539 70.2308 125.299 70.8408 125.129C71.4608 124.959 72.0958 124.874 72.7458 124.874ZM72.5658 131.609C72.9658 131.609 73.3208 131.519 73.6308 131.339C73.9408 131.149 74.1608 130.874 74.2908 130.514V129.689H72.6858C71.7258 129.689 71.2458 130.004 71.2458 130.634C71.2458 130.934 71.3608 131.174 71.5908 131.354C71.8308 131.524 72.1558 131.609 72.5658 131.609ZM83.7136 132.674C83.4836 132.844 83.1986 132.974 82.8586 133.064C82.5286 133.144 82.1786 133.184 81.8086 133.184C80.8486 133.184 80.1036 132.939 79.5736 132.449C79.0536 131.959 78.7936 131.239 78.7936 130.289V126.974H77.5486V125.174H78.7936V123.209H81.1336V125.174H83.1436V126.974H81.1336V130.259C81.1336 130.599 81.2186 130.864 81.3886 131.054C81.5686 131.234 81.8186 131.324 82.1386 131.324C82.5086 131.324 82.8236 131.224 83.0836 131.024L83.7136 132.674ZM87.5021 133.184C86.8321 133.184 86.1771 133.104 85.5371 132.944C84.8971 132.774 84.3871 132.564 84.0071 132.314L84.7871 130.634C85.1471 130.864 85.5821 131.054 86.0921 131.204C86.6021 131.344 87.1021 131.414 87.5921 131.414C88.5821 131.414 89.0771 131.169 89.0771 130.679C89.0771 130.449 88.9421 130.284 88.6721 130.184C88.4021 130.084 87.9871 129.999 87.4271 129.929C86.7671 129.829 86.2221 129.714 85.7921 129.584C85.3621 129.454 84.9871 129.224 84.6671 128.894C84.3571 128.564 84.2021 128.094 84.2021 127.484C84.2021 126.974 84.3471 126.524 84.6371 126.134C84.9371 125.734 85.3671 125.424 85.9271 125.204C86.4971 124.984 87.1671 124.874 87.9371 124.874C88.5071 124.874 89.0721 124.939 89.6321 125.069C90.2021 125.189 90.6721 125.359 91.0421 125.579L90.2621 127.244C89.5521 126.844 88.7771 126.644 87.9371 126.644C87.4371 126.644 87.0621 126.714 86.8121 126.854C86.5621 126.994 86.4371 127.174 86.4371 127.394C86.4371 127.644 86.5721 127.819 86.8421 127.919C87.1121 128.019 87.5421 128.114 88.1321 128.204C88.7921 128.314 89.3321 128.434 89.7521 128.564C90.1721 128.684 90.5371 128.909 90.8471 129.239C91.1571 129.569 91.3121 130.029 91.3121 130.619C91.3121 131.119 91.1621 131.564 90.8621 131.954C90.5621 132.344 90.1221 132.649 89.5421 132.869C88.9721 133.079 88.2921 133.184 87.5021 133.184ZM95.7709 124.874C97.0209 124.874 97.9809 125.174 98.6509 125.774C99.3209 126.364 99.6559 127.259 99.6559 128.459V133.064H97.4659V132.059C97.0259 132.809 96.2059 133.184 95.0059 133.184C94.3859 133.184 93.8459 133.079 93.3859 132.869C92.9359 132.659 92.5909 132.369 92.3509 131.999C92.1109 131.629 91.9909 131.209 91.9909 130.739C91.9909 129.989 92.2709 129.399 92.8309 128.969C93.4009 128.539 94.2759 128.324 95.4559 128.324H97.3159C97.3159 127.814 97.1609 127.424 96.8509 127.154C96.5409 126.874 96.0759 126.734 95.4559 126.734C95.0259 126.734 94.6009 126.804 94.1809 126.944C93.7709 127.074 93.4209 127.254 93.1309 127.484L92.2909 125.849C92.7309 125.539 93.2559 125.299 93.8659 125.129C94.4859 124.959 95.1209 124.874 95.7709 124.874ZM95.5909 131.609C95.9909 131.609 96.3459 131.519 96.6559 131.339C96.9659 131.149 97.1859 130.874 97.3159 130.514V129.689H95.7109C94.7509 129.689 94.2709 130.004 94.2709 130.634C94.2709 130.934 94.3859 131.174 94.6159 131.354C94.8559 131.524 95.1809 131.609 95.5909 131.609ZM106.304 124.874C107.054 124.874 107.734 125.049 108.344 125.399C108.964 125.739 109.449 126.224 109.799 126.854C110.149 127.474 110.324 128.199 110.324 129.029C110.324 129.859 110.149 130.589 109.799 131.219C109.449 131.839 108.964 132.324 108.344 132.674C107.734 133.014 107.054 133.184 106.304 133.184C105.274 133.184 104.464 132.859 103.874 132.209V135.974H101.534V124.994H103.769V125.924C104.349 125.224 105.194 124.874 106.304 124.874ZM105.899 131.264C106.499 131.264 106.989 131.064 107.369 130.664C107.759 130.254 107.954 129.709 107.954 129.029C107.954 128.349 107.759 127.809 107.369 127.409C106.989 126.999 106.499 126.794 105.899 126.794C105.299 126.794 104.804 126.999 104.414 127.409C104.034 127.809 103.844 128.349 103.844 129.029C103.844 129.709 104.034 130.254 104.414 130.664C104.804 131.064 105.299 131.264 105.899 131.264ZM116.42 124.874C117.17 124.874 117.85 125.049 118.46 125.399C119.08 125.739 119.565 126.224 119.915 126.854C120.265 127.474 120.44 128.199 120.44 129.029C120.44 129.859 120.265 130.589 119.915 131.219C119.565 131.839 119.08 132.324 118.46 132.674C117.85 133.014 117.17 133.184 116.42 133.184C115.39 133.184 114.58 132.859 113.99 132.209V135.974H111.65V124.994H113.885V125.924C114.465 125.224 115.31 124.874 116.42 124.874ZM116.015 131.264C116.615 131.264 117.105 131.064 117.485 130.664C117.875 130.254 118.07 129.709 118.07 129.029C118.07 128.349 117.875 127.809 117.485 127.409C117.105 126.999 116.615 126.794 116.015 126.794C115.415 126.794 114.92 126.999 114.53 127.409C114.15 127.809 113.96 128.349 113.96 129.029C113.96 129.709 114.15 130.254 114.53 130.664C114.92 131.064 115.415 131.264 116.015 131.264Z" fill="#5B5B5B"/>
<g clip-path="url(#clip0)">
<g filter="url(#filter1_f)">
<path d="M44.8447 108.249L49.8706 89.9823C46.7804 84.6372 45.1333 78.5654 45.1503 72.3582C45.1503 52.9072 61.0433 37.093 80.5702 37.093C90.0448 37.093 98.9423 40.7633 105.616 47.4273C112.305 54.0912 115.99 62.954 115.973 72.3751C115.973 91.8258 100.08 107.64 80.5532 107.64H80.5362C74.6103 107.64 68.7861 106.152 63.6073 103.344L44.8447 108.249ZM64.4903 96.9506L65.56 97.5935C70.0767 100.266 75.2555 101.669 80.5362 101.686H80.5532C96.769 101.686 109.979 88.5445 109.979 72.3751C109.979 64.5439 106.923 57.1866 101.37 51.6386C95.8181 46.091 88.4147 43.0466 80.5532 43.0466C64.3204 43.0466 51.1102 56.1885 51.1102 72.3579C51.1102 77.8889 52.6553 83.2843 55.6099 87.9526L56.306 89.0689L53.3347 99.8768L64.4903 96.9506Z" fill="black" fill-opacity="0.24"/>
</g>
<path d="M46.4514 106.364L51.2473 88.9414C48.29 83.8312 46.7344 78.036 46.7365 72.1376C46.7365 53.5963 61.8958 38.5128 80.4923 38.5128C89.531 38.5128 97.9996 42.0206 104.372 48.3679C110.744 54.7154 114.249 63.1677 114.249 72.1543C114.249 90.6953 99.0894 105.779 80.4926 105.779H80.4759C74.8246 105.779 69.274 104.359 64.3439 101.686L46.4514 106.364V106.364Z" fill="url(#paint0_linear)"/>
<path d="M45.2275 107.583L50.191 89.5429C47.1392 84.2646 45.5123 78.2678 45.5293 72.1376C45.5293 52.9283 61.2251 37.3102 80.5098 37.3102C89.8666 37.3102 98.6533 40.9347 105.244 47.516C111.851 54.0973 115.49 62.8502 115.473 72.1542C115.473 91.3636 99.7771 106.982 80.4925 106.982H80.4761C74.635 106.979 68.8874 105.521 63.7572 102.739L45.2275 107.583V107.583ZM64.6291 96.4248L65.6855 97.0595C70.1463 99.6988 75.2606 101.085 80.4761 101.102H80.4928C96.507 101.102 109.554 88.1231 109.554 72.1542C109.554 64.4205 106.535 57.1542 101.052 51.6755C95.5681 46.1967 88.2567 43.1899 80.4928 43.1899C64.4615 43.1899 51.4153 56.1687 51.4153 72.1376C51.4153 77.5998 52.9411 82.9283 55.8591 87.5383L56.5467 88.6408L53.612 99.3145L64.6291 96.4248Z" fill="white"/>
<path d="M71.7561 57.5552C71.1019 56.1019 70.4143 56.0683 69.7941 56.0517C69.2911 56.035 68.7042 56.035 68.1171 56.035C67.5303 56.035 66.5911 56.2522 65.7863 57.1206C64.9812 57.9894 62.7341 60.0941 62.7341 64.3872C62.7341 68.6631 65.8701 72.8056 66.306 73.3901C66.7419 73.9749 72.3596 83.045 81.2304 86.5361C88.6088 89.4427 90.1182 88.8579 91.7111 88.7076C93.3209 88.5573 96.8761 86.6029 97.6138 84.5651C98.3348 82.5273 98.3348 80.79 98.1168 80.4226C97.8989 80.0549 97.3121 79.8381 96.4399 79.4035C95.568 78.9693 91.2751 76.8646 90.4704 76.564C89.6653 76.2634 89.0785 76.1298 88.5083 76.9983C87.9212 77.8667 86.2446 79.8211 85.7413 80.406C85.2382 80.9905 84.7185 81.0573 83.8463 80.6231C82.9745 80.1888 80.1573 79.2699 76.8204 76.2967C74.2211 73.9916 72.4604 71.1351 71.9571 70.2667C71.4541 69.3982 71.907 68.9301 72.3429 68.4961C72.7285 68.1118 73.2148 67.4771 73.651 66.976C74.087 66.4749 74.2378 66.1075 74.5229 65.5227C74.808 64.9381 74.6738 64.4371 74.4558 64.0028C74.2378 63.5683 72.5275 59.2755 71.7561 57.5552Z" fill="white"/>
</g>
<defs>
<filter id="filter0_dd" x="0" y="0" width="162" height="162" filterUnits="userSpaceOnUse" color-interpolation-filters="sRGB">
<feFlood flood-opacity="0" result="BackgroundImageFix"/>
<feColorMatrix in="SourceAlpha" type="matrix" values="0 0 0 0 0 0 0 0 0 0 0 0 0 0 0 0 0 0 127 0"/>
<feOffset dx="-4" dy="-4"/>
<feGaussianBlur stdDeviation="6"/>
<feColorMatrix type="matrix" values="0 0 0 0 1 0 0 0 0 1 0 0 0 0 1 0 0 0 0.5 0"/>
<feBlend mode="normal" in2="BackgroundImageFix" result="effect1_dropShadow"/>
<feColorMatrix in="SourceAlpha" type="matrix" values="0 0 0 0 0 0 0 0 0 0 0 0 0 0 0 0 0 0 127 0"/>
<feOffset dx="4" dy="4"/>
<feGaussianBlur stdDeviation="6"/>
<feColorMatrix type="matrix" values="0 0 0 0 0.383333 0 0 0 0 0.383333 0 0 0 0 0.383333 0 0 0 0.5 0"/>
<feBlend mode="normal" in2="effect1_dropShadow" result="effect2_dropShadow"/>
<feBlend mode="normal" in="SourceGraphic" in2="effect2_dropShadow" result="shape"/>
</filter>
<filter id="filter1_f" x="38.8447" y="31.093" width="83.1285" height="83.156" filterUnits="userSpaceOnUse" color-interpolation-filters="sRGB">
<feFlood flood-opacity="0" result="BackgroundImageFix"/>
<feBlend mode="normal" in="SourceGraphic" in2="BackgroundImageFix" result="shape"/>
<feGaussianBlur stdDeviation="3" result="effect1_foregroundBlur"/>
</filter>
<linearGradient id="paint0_linear" x1="80.3487" y1="106.359" x2="80.3487" y2="38.5087" gradientUnits="userSpaceOnUse">
<stop stop-color="#20B01D"/>
<stop offset="1" stop-color="#87CE86"/>
</linearGradient>
<clipPath id="clip0">
<rect width="75" height="75" fill="white" transform="translate(43 35)"/>
</clipPath>
</defs>
</svg>
