<svg width="162" height="162" viewBox="0 0 162 162" fill="none" xmlns="http://www.w3.org/2000/svg">
<g filter="url(#filter0_dd)">
<rect x="16" y="16" width="130" height="130" rx="10" fill="#FDFDFD"/>
</g>
<path d="M54.1964 130.495V134.215H51.7664V130.465L47.7014 123.715H50.2814L53.0864 128.38L55.8914 123.715H58.2764L54.1964 130.495ZM61.8346 134.335C60.9846 134.335 60.2196 134.16 59.5396 133.81C58.8696 133.45 58.3446 132.955 57.9646 132.325C57.5846 131.695 57.3946 130.98 57.3946 130.18C57.3946 129.38 57.5846 128.665 57.9646 128.035C58.3446 127.405 58.8696 126.915 59.5396 126.565C60.2196 126.205 60.9846 126.025 61.8346 126.025C62.6846 126.025 63.4446 126.205 64.1146 126.565C64.7846 126.915 65.3096 127.405 65.6896 128.035C66.0696 128.665 66.2596 129.38 66.2596 130.18C66.2596 130.98 66.0696 131.695 65.6896 132.325C65.3096 132.955 64.7846 133.45 64.1146 133.81C63.4446 134.16 62.6846 134.335 61.8346 134.335ZM61.8346 132.415C62.4346 132.415 62.9246 132.215 63.3046 131.815C63.6946 131.405 63.8896 130.86 63.8896 130.18C63.8896 129.5 63.6946 128.96 63.3046 128.56C62.9246 128.15 62.4346 127.945 61.8346 127.945C61.2346 127.945 60.7396 128.15 60.3496 128.56C59.9596 128.96 59.7646 129.5 59.7646 130.18C59.7646 130.86 59.9596 131.405 60.3496 131.815C60.7396 132.215 61.2346 132.415 61.8346 132.415ZM75.7137 126.145V134.215H73.4937V133.255C73.1837 133.605 72.8137 133.875 72.3837 134.065C71.9537 134.245 71.4887 134.335 70.9887 134.335C69.9287 134.335 69.0887 134.03 68.4687 133.42C67.8487 132.81 67.5387 131.905 67.5387 130.705V126.145H69.8787V130.36C69.8787 131.66 70.4237 132.31 71.5137 132.31C72.0737 132.31 72.5237 132.13 72.8637 131.77C73.2037 131.4 73.3737 130.855 73.3737 130.135V126.145H75.7137ZM79.0147 125.695H75.6547V123.715H84.8047V125.695H81.4447V134.215H79.0147V125.695ZM93.6614 126.145V134.215H91.4414V133.255C91.1314 133.605 90.7614 133.875 90.3314 134.065C89.9014 134.245 89.4364 134.335 88.9364 134.335C87.8764 134.335 87.0364 134.03 86.4164 133.42C85.7964 132.81 85.4864 131.905 85.4864 130.705V126.145H87.8264V130.36C87.8264 131.66 88.3714 132.31 89.4614 132.31C90.0214 132.31 90.4714 132.13 90.8114 131.77C91.1514 131.4 91.3214 130.855 91.3214 130.135V126.145H93.6614ZM100.359 126.025C101.109 126.025 101.789 126.2 102.399 126.55C103.019 126.89 103.504 127.375 103.854 128.005C104.204 128.625 104.379 129.35 104.379 130.18C104.379 131.01 104.204 131.74 103.854 132.37C103.504 132.99 103.019 133.475 102.399 133.825C101.789 134.165 101.109 134.335 100.359 134.335C99.2493 134.335 98.4043 133.985 97.8243 133.285V134.215H95.5893V123.085H97.9293V127C98.5193 126.35 99.3293 126.025 100.359 126.025ZM99.9543 132.415C100.554 132.415 101.044 132.215 101.424 131.815C101.814 131.405 102.009 130.86 102.009 130.18C102.009 129.5 101.814 128.96 101.424 128.56C101.044 128.15 100.554 127.945 99.9543 127.945C99.3543 127.945 98.8593 128.15 98.4693 128.56C98.0893 128.96 97.8993 129.5 97.8993 130.18C97.8993 130.86 98.0893 131.405 98.4693 131.815C98.8593 132.215 99.3543 132.415 99.9543 132.415ZM113.611 130.21C113.611 130.24 113.596 130.45 113.566 130.84H107.461C107.571 131.34 107.831 131.735 108.241 132.025C108.651 132.315 109.161 132.46 109.771 132.46C110.191 132.46 110.561 132.4 110.881 132.28C111.211 132.15 111.516 131.95 111.796 131.68L113.041 133.03C112.281 133.9 111.171 134.335 109.711 134.335C108.801 134.335 107.996 134.16 107.296 133.81C106.596 133.45 106.056 132.955 105.676 132.325C105.296 131.695 105.106 130.98 105.106 130.18C105.106 129.39 105.291 128.68 105.661 128.05C106.041 127.41 106.556 126.915 107.206 126.565C107.866 126.205 108.601 126.025 109.411 126.025C110.201 126.025 110.916 126.195 111.556 126.535C112.196 126.875 112.696 127.365 113.056 128.005C113.426 128.635 113.611 129.37 113.611 130.21ZM109.426 127.795C108.896 127.795 108.451 127.945 108.091 128.245C107.731 128.545 107.511 128.955 107.431 129.475H111.406C111.326 128.965 111.106 128.56 110.746 128.26C110.386 127.95 109.946 127.795 109.426 127.795Z" fill="#5B5B5B"/>
<path d="M72.5593 80.96L93.3734 70.22L72.5593 59.39V80.96V80.96Z" fill="white"/>
<path opacity="0.12" d="M72.5593 59.39L90.8167 71.54L93.3734 70.22L72.5593 59.39V59.39Z" fill="#420000"/>
<path d="M118.188 55.64C118.188 55.64 117.437 50.36 115.121 48.02C112.205 44.96 108.928 44.96 107.394 44.78C96.661 44 80.515 44 80.515 44H80.485C80.485 44 64.3393 44 53.5455 44.78C52.0422 44.96 48.7649 44.96 45.8184 48.02C43.5334 50.36 42.7817 55.64 42.7817 55.64C42.7817 55.64 42 61.88 42 68.09V73.91C42 80.12 42.7817 86.33 42.7817 86.33C42.7817 86.33 43.5334 91.61 45.8485 93.95C48.7649 97.01 52.6134 96.92 54.3272 97.22C60.4908 97.82 80.485 98 80.485 98C80.485 98 96.6607 97.97 107.424 97.19C108.928 97.01 112.205 97.01 115.152 93.95C117.467 91.61 118.218 86.33 118.218 86.33C118.218 86.33 119 80.12 119 73.91V68.09C118.97 61.88 118.188 55.64 118.188 55.64ZM72.5476 80.96V59.39L93.3533 70.22L72.5473 80.96H72.5476Z" fill="#F15E5E"/>
<defs>
<filter id="filter0_dd" x="0" y="0" width="162" height="162" filterUnits="userSpaceOnUse" color-interpolation-filters="sRGB">
<feFlood flood-opacity="0" result="BackgroundImageFix"/>
<feColorMatrix in="SourceAlpha" type="matrix" values="0 0 0 0 0 0 0 0 0 0 0 0 0 0 0 0 0 0 127 0"/>
<feOffset dx="-4" dy="-4"/>
<feGaussianBlur stdDeviation="6"/>
<feColorMatrix type="matrix" values="0 0 0 0 1 0 0 0 0 1 0 0 0 0 1 0 0 0 0.5 0"/>
<feBlend mode="normal" in2="BackgroundImageFix" result="effect1_dropShadow"/>
<feColorMatrix in="SourceAlpha" type="matrix" values="0 0 0 0 0 0 0 0 0 0 0 0 0 0 0 0 0 0 127 0"/>
<feOffset dx="4" dy="4"/>
<feGaussianBlur stdDeviation="6"/>
<feColorMatrix type="matrix" values="0 0 0 0 0.383333 0 0 0 0 0.383333 0 0 0 0 0.383333 0 0 0 0.5 0"/>
<feBlend mode="normal" in2="effect1_dropShadow" result="effect2_dropShadow"/>
<feBlend mode="normal" in="SourceGraphic" in2="effect2_dropShadow" result="shape"/>
</filter>
<linearGradient id="paint0_linear" x1="80.4846" y1="44" x2="80.4846" y2="98.0162" gradientUnits="userSpaceOnUse">
<stop stop-color="#F15E5E"/>
<stop offset="1" stop-color="#DC0505"/>
</linearGradient>
</defs>
</svg>
