<svg width="162" height="162" viewBox="0 0 162 162" fill="none" xmlns="http://www.w3.org/2000/svg">
<g filter="url(#filter0_dd)">
<rect x="16" y="16" width="130" height="130" rx="10" fill="#FDFDFD"/>
<rect x="17" y="17" width="128" height="128" rx="9" stroke="#ED4D4D" stroke-width="2"/>
</g>
<path d="M54.1964 130.28V134H51.7664V130.25L47.7014 123.5H50.2814L53.0864 128.165L55.8914 123.5H58.2764L54.1964 130.28ZM61.8346 134.12C60.9846 134.12 60.2196 133.945 59.5396 133.595C58.8696 133.235 58.3446 132.74 57.9646 132.11C57.5846 131.48 57.3946 130.765 57.3946 129.965C57.3946 129.165 57.5846 128.45 57.9646 127.82C58.3446 127.19 58.8696 126.7 59.5396 126.35C60.2196 125.99 60.9846 125.81 61.8346 125.81C62.6846 125.81 63.4446 125.99 64.1146 126.35C64.7846 126.7 65.3096 127.19 65.6896 127.82C66.0696 128.45 66.2596 129.165 66.2596 129.965C66.2596 130.765 66.0696 131.48 65.6896 132.11C65.3096 132.74 64.7846 133.235 64.1146 133.595C63.4446 133.945 62.6846 134.12 61.8346 134.12ZM61.8346 132.2C62.4346 132.2 62.9246 132 63.3046 131.6C63.6946 131.19 63.8896 130.645 63.8896 129.965C63.8896 129.285 63.6946 128.745 63.3046 128.345C62.9246 127.935 62.4346 127.73 61.8346 127.73C61.2346 127.73 60.7396 127.935 60.3496 128.345C59.9596 128.745 59.7646 129.285 59.7646 129.965C59.7646 130.645 59.9596 131.19 60.3496 131.6C60.7396 132 61.2346 132.2 61.8346 132.2ZM75.7137 125.93V134H73.4937V133.04C73.1837 133.39 72.8137 133.66 72.3837 133.85C71.9537 134.03 71.4887 134.12 70.9887 134.12C69.9287 134.12 69.0887 133.815 68.4687 133.205C67.8487 132.595 67.5387 131.69 67.5387 130.49V125.93H69.8787V130.145C69.8787 131.445 70.4237 132.095 71.5137 132.095C72.0737 132.095 72.5237 131.915 72.8637 131.555C73.2037 131.185 73.3737 130.64 73.3737 129.92V125.93H75.7137ZM79.0147 125.48H75.6547V123.5H84.8047V125.48H81.4447V134H79.0147V125.48ZM93.6614 125.93V134H91.4414V133.04C91.1314 133.39 90.7614 133.66 90.3314 133.85C89.9014 134.03 89.4364 134.12 88.9364 134.12C87.8764 134.12 87.0364 133.815 86.4164 133.205C85.7964 132.595 85.4864 131.69 85.4864 130.49V125.93H87.8264V130.145C87.8264 131.445 88.3714 132.095 89.4614 132.095C90.0214 132.095 90.4714 131.915 90.8114 131.555C91.1514 131.185 91.3214 130.64 91.3214 129.92V125.93H93.6614ZM100.359 125.81C101.109 125.81 101.789 125.985 102.399 126.335C103.019 126.675 103.504 127.16 103.854 127.79C104.204 128.41 104.379 129.135 104.379 129.965C104.379 130.795 104.204 131.525 103.854 132.155C103.504 132.775 103.019 133.26 102.399 133.61C101.789 133.95 101.109 134.12 100.359 134.12C99.2493 134.12 98.4043 133.77 97.8243 133.07V134H95.5893V122.87H97.9293V126.785C98.5193 126.135 99.3293 125.81 100.359 125.81ZM99.9543 132.2C100.554 132.2 101.044 132 101.424 131.6C101.814 131.19 102.009 130.645 102.009 129.965C102.009 129.285 101.814 128.745 101.424 128.345C101.044 127.935 100.554 127.73 99.9543 127.73C99.3543 127.73 98.8593 127.935 98.4693 128.345C98.0893 128.745 97.8993 129.285 97.8993 129.965C97.8993 130.645 98.0893 131.19 98.4693 131.6C98.8593 132 99.3543 132.2 99.9543 132.2ZM113.611 129.995C113.611 130.025 113.596 130.235 113.566 130.625H107.461C107.571 131.125 107.831 131.52 108.241 131.81C108.651 132.1 109.161 132.245 109.771 132.245C110.191 132.245 110.561 132.185 110.881 132.065C111.211 131.935 111.516 131.735 111.796 131.465L113.041 132.815C112.281 133.685 111.171 134.12 109.711 134.12C108.801 134.12 107.996 133.945 107.296 133.595C106.596 133.235 106.056 132.74 105.676 132.11C105.296 131.48 105.106 130.765 105.106 129.965C105.106 129.175 105.291 128.465 105.661 127.835C106.041 127.195 106.556 126.7 107.206 126.35C107.866 125.99 108.601 125.81 109.411 125.81C110.201 125.81 110.916 125.98 111.556 126.32C112.196 126.66 112.696 127.15 113.056 127.79C113.426 128.42 113.611 129.155 113.611 129.995ZM109.426 127.58C108.896 127.58 108.451 127.73 108.091 128.03C107.731 128.33 107.511 128.74 107.431 129.26H111.406C111.326 128.75 111.106 128.345 110.746 128.045C110.386 127.735 109.946 127.58 109.426 127.58Z" fill="#5B5B5B"/>
<path d="M72.5593 82.96L93.3734 72.22L72.5593 61.39V82.96Z" fill="white"/>
<path opacity="0.12" d="M72.5593 61.39L90.8167 73.54L93.3734 72.22L72.5593 61.39Z" fill="#420000"/>
<path d="M118.188 57.64C118.188 57.64 117.437 52.36 115.121 50.02C112.205 46.96 108.928 46.96 107.394 46.78C96.661 46 80.515 46 80.515 46H80.485C80.485 46 64.3393 46 53.5455 46.78C52.0422 46.96 48.7649 46.96 45.8184 50.02C43.5334 52.36 42.7817 57.64 42.7817 57.64C42.7817 57.64 42 63.88 42 70.09V75.91C42 82.12 42.7817 88.33 42.7817 88.33C42.7817 88.33 43.5334 93.61 45.8485 95.95C48.7649 99.01 52.6134 98.92 54.3272 99.22C60.4908 99.82 80.485 100 80.485 100C80.485 100 96.6607 99.97 107.424 99.19C108.928 99.01 112.205 99.01 115.152 95.95C117.467 93.61 118.218 88.33 118.218 88.33C118.218 88.33 119 82.12 119 75.91V70.09C118.97 63.88 118.188 57.64 118.188 57.64ZM72.5476 82.96V61.39L93.3533 72.22L72.5473 82.96H72.5476Z" fill="url(#paint0_linear)"/>
<defs>
<filter id="filter0_dd" x="0" y="0" width="162" height="162" filterUnits="userSpaceOnUse" color-interpolation-filters="sRGB">
<feFlood flood-opacity="0" result="BackgroundImageFix"/>
<feColorMatrix in="SourceAlpha" type="matrix" values="0 0 0 0 0 0 0 0 0 0 0 0 0 0 0 0 0 0 127 0"/>
<feOffset dx="-4" dy="-4"/>
<feGaussianBlur stdDeviation="6"/>
<feColorMatrix type="matrix" values="0 0 0 0 1 0 0 0 0 1 0 0 0 0 1 0 0 0 0.5 0"/>
<feBlend mode="normal" in2="BackgroundImageFix" result="effect1_dropShadow"/>
<feColorMatrix in="SourceAlpha" type="matrix" values="0 0 0 0 0 0 0 0 0 0 0 0 0 0 0 0 0 0 127 0"/>
<feOffset dx="4" dy="4"/>
<feGaussianBlur stdDeviation="6"/>
<feColorMatrix type="matrix" values="0 0 0 0 0.383333 0 0 0 0 0.383333 0 0 0 0 0.383333 0 0 0 0.5 0"/>
<feBlend mode="normal" in2="effect1_dropShadow" result="effect2_dropShadow"/>
<feBlend mode="normal" in="SourceGraphic" in2="effect2_dropShadow" result="shape"/>
</filter>
<linearGradient id="paint0_linear" x1="80.4846" y1="46" x2="80.4846" y2="100.016" gradientUnits="userSpaceOnUse">
<stop stop-color="#F15E5E"/>
<stop offset="1" stop-color="#DC0505"/>
</linearGradient>
</defs>
</svg>
