<svg width="162" height="162" viewBox="0 0 162 162" fill="none" xmlns="http://www.w3.org/2000/svg">
<g filter="url(#filter0_dd)">
<rect x="16" y="16" width="130" height="130" rx="10" fill="#FDFDFD"/>
</g>
<path d="M67.9342 131.02V133H58.7542V131.425L64.5142 124.48H58.8742V122.5H67.7092V124.075L61.9642 131.02H67.9342ZM72.8252 133.12C71.9752 133.12 71.2102 132.945 70.5302 132.595C69.8602 132.235 69.3352 131.74 68.9552 131.11C68.5752 130.48 68.3852 129.765 68.3852 128.965C68.3852 128.165 68.5752 127.45 68.9552 126.82C69.3352 126.19 69.8602 125.7 70.5302 125.35C71.2102 124.99 71.9752 124.81 72.8252 124.81C73.6752 124.81 74.4352 124.99 75.1052 125.35C75.7752 125.7 76.3002 126.19 76.6802 126.82C77.0602 127.45 77.2502 128.165 77.2502 128.965C77.2502 129.765 77.0602 130.48 76.6802 131.11C76.3002 131.74 75.7752 132.235 75.1052 132.595C74.4352 132.945 73.6752 133.12 72.8252 133.12ZM72.8252 131.2C73.4252 131.2 73.9152 131 74.2952 130.6C74.6852 130.19 74.8802 129.645 74.8802 128.965C74.8802 128.285 74.6852 127.745 74.2952 127.345C73.9152 126.935 73.4252 126.73 72.8252 126.73C72.2252 126.73 71.7302 126.935 71.3402 127.345C70.9502 127.745 70.7552 128.285 70.7552 128.965C70.7552 129.645 70.9502 130.19 71.3402 130.6C71.7302 131 72.2252 131.2 72.8252 131.2ZM82.4143 133.12C81.5643 133.12 80.7993 132.945 80.1193 132.595C79.4493 132.235 78.9243 131.74 78.5443 131.11C78.1643 130.48 77.9743 129.765 77.9743 128.965C77.9743 128.165 78.1643 127.45 78.5443 126.82C78.9243 126.19 79.4493 125.7 80.1193 125.35C80.7993 124.99 81.5643 124.81 82.4143 124.81C83.2643 124.81 84.0243 124.99 84.6943 125.35C85.3643 125.7 85.8893 126.19 86.2693 126.82C86.6493 127.45 86.8393 128.165 86.8393 128.965C86.8393 129.765 86.6493 130.48 86.2693 131.11C85.8893 131.74 85.3643 132.235 84.6943 132.595C84.0243 132.945 83.2643 133.12 82.4143 133.12ZM82.4143 131.2C83.0143 131.2 83.5043 131 83.8843 130.6C84.2743 130.19 84.4693 129.645 84.4693 128.965C84.4693 128.285 84.2743 127.745 83.8843 127.345C83.5043 126.935 83.0143 126.73 82.4143 126.73C81.8143 126.73 81.3193 126.935 80.9293 127.345C80.5393 127.745 80.3443 128.285 80.3443 128.965C80.3443 129.645 80.5393 130.19 80.9293 130.6C81.3193 131 81.8143 131.2 82.4143 131.2ZM98.4984 124.81C99.5084 124.81 100.308 125.11 100.898 125.71C101.498 126.3 101.798 127.19 101.798 128.38V133H99.4584V128.74C99.4584 128.1 99.3234 127.625 99.0534 127.315C98.7934 126.995 98.4184 126.835 97.9284 126.835C97.3784 126.835 96.9434 127.015 96.6234 127.375C96.3034 127.725 96.1434 128.25 96.1434 128.95V133H93.8034V128.74C93.8034 127.47 93.2934 126.835 92.2734 126.835C91.7334 126.835 91.3034 127.015 90.9834 127.375C90.6634 127.725 90.5034 128.25 90.5034 128.95V133H88.1634V124.93H90.3984V125.86C90.6984 125.52 91.0634 125.26 91.4934 125.08C91.9334 124.9 92.4134 124.81 92.9334 124.81C93.5034 124.81 94.0184 124.925 94.4784 125.155C94.9384 125.375 95.3084 125.7 95.5884 126.13C95.9184 125.71 96.3334 125.385 96.8334 125.155C97.3434 124.925 97.8984 124.81 98.4984 124.81Z" fill="#5B5B5B"/>
<path d="M50.5391 88.0878L49.4478 88.0393H39.6387L52.7135 74.9645L52.6609 73.8732C52.6404 73.0275 52.2953 72.2221 51.6971 71.6239C51.0989 71.0257 50.2935 70.6806 49.4478 70.6601L48.3566 70.6076H32.0161L32.0727 71.6988C32.2101 73.4691 33.4994 74.8109 35.2818 74.9119L36.373 74.9645H46.1862L33.1033 88.0393L33.1599 89.1265C33.2205 90.8765 34.623 92.279 36.373 92.3437L37.4643 92.3962H53.8088L53.7522 91.3049C53.6067 89.5145 52.3376 88.205 50.5391 88.0918V88.0878ZM63.6219 70.6076H63.6058C60.7175 70.6092 57.9481 71.7579 55.9066 73.8011C53.8651 75.8442 52.7187 78.6146 52.7195 81.5029C52.7204 84.3912 53.8683 87.1609 55.9109 89.2029C57.9535 91.245 60.7235 92.3922 63.6118 92.3922C66.5001 92.3922 69.2702 91.245 71.3128 89.2029C73.3554 87.1609 74.5033 84.3912 74.5041 81.5029C74.5049 78.6146 73.3585 75.8442 71.3171 73.8011C69.2756 71.7579 66.5062 70.6092 63.6179 70.6076H63.6219ZM68.2335 86.1235C67.6322 86.7555 66.9105 87.2609 66.111 87.6098C65.3114 87.9586 64.4501 88.144 63.5778 88.155C62.7056 88.1659 61.8399 88.0023 61.0318 87.6736C60.2237 87.3449 59.4896 86.8579 58.8726 86.2411C58.2556 85.6244 57.7683 84.8905 57.4393 84.0826C57.1102 83.2747 56.9462 82.4091 56.9567 81.5368C56.9673 80.6645 57.1523 79.8031 57.5009 79.0034C57.8494 78.2037 58.3544 77.4818 58.9862 76.8802C60.2219 75.7035 61.8687 75.0564 63.575 75.0771C65.2813 75.0978 66.9119 75.7846 68.1187 76.991C69.3256 78.1973 70.0131 79.8276 70.0346 81.5339C70.056 83.2402 69.4097 84.8872 68.2335 86.1235V86.1235ZM120.258 70.6116C119.023 70.6125 117.803 70.8757 116.678 71.3836C115.552 71.8915 114.548 72.6327 113.731 73.558C112.913 72.6287 111.907 71.8844 110.78 71.3749C109.652 70.8654 108.429 70.6024 107.191 70.6035C105.451 70.601 103.749 71.1221 102.309 72.0989C101.46 71.1572 99.5604 70.6035 98.4773 70.6035V92.3962L99.5685 92.3437C101.387 92.2224 102.709 90.9331 102.782 89.1265L102.834 88.0352V80.4086L102.891 79.3174C102.931 78.5009 103.052 77.7734 103.424 77.1349C103.711 76.6397 104.092 76.2058 104.547 75.8579C105.001 75.5101 105.519 75.2552 106.072 75.1077C106.625 74.9602 107.201 74.923 107.768 74.9983C108.336 75.0736 108.882 75.2599 109.378 75.5465C110.035 75.9275 110.581 76.4736 110.962 77.1308C111.338 77.7775 111.447 78.5009 111.495 79.3133L111.552 80.4086V88.0352L111.605 89.1224C111.714 90.9008 113.019 92.2264 114.818 92.3396L115.909 92.3922V80.4086L115.957 79.3174C115.998 78.509 116.119 77.7654 116.499 77.1227C117.708 75.0453 120.375 74.334 122.452 75.5465C123.11 75.9286 123.656 76.4762 124.037 77.1349C124.409 77.7815 124.522 78.5212 124.566 79.3174L124.623 80.4086V88.0352L124.675 89.1224C124.789 90.9129 126.09 92.2345 127.893 92.3396L128.984 92.3922V79.3174C128.983 78.1722 128.756 77.0384 128.317 75.9809C127.877 74.9233 127.234 73.9627 126.423 73.1538C125.613 72.345 124.65 71.7038 123.592 71.2669C122.533 70.83 121.399 70.606 120.254 70.6076L120.258 70.6116ZM78.7903 73.7964C77.736 74.7979 76.8929 76.0003 76.3105 77.3327C75.7281 78.6651 75.4183 80.1006 75.3993 81.5546C75.3804 83.0086 75.6526 84.4517 76.2001 85.7988C76.7475 87.1459 77.559 88.3699 78.5869 89.3985C79.6147 90.4271 80.838 91.2396 82.1847 91.7881C83.5314 92.3366 84.9743 92.61 86.4283 92.5922C87.8823 92.5744 89.318 92.2657 90.6509 91.6844C91.9837 91.103 93.1868 90.2608 94.1891 89.2073C96.1481 87.1482 97.2251 84.4051 97.1903 81.5632C97.1554 78.7212 96.0116 76.0053 94.0027 73.9948C91.9937 71.9843 89.2788 70.8383 86.4368 70.8013C83.5949 70.7642 80.851 71.839 78.7903 73.7964V73.7964ZM91.1134 86.1235C90.5091 86.7439 89.7876 87.238 88.9909 87.5773C88.1941 87.9166 87.3379 88.0942 86.4719 88.0999C85.6059 88.1056 84.7474 87.9392 83.9463 87.6104C83.1451 87.2817 82.4172 86.797 81.8049 86.1847C81.1925 85.5723 80.7079 84.8444 80.3791 84.0433C80.0503 83.2421 79.884 82.3836 79.8897 81.5177C79.8953 80.6517 80.073 79.7954 80.4123 78.9987C80.7515 78.2019 81.2457 77.4804 81.866 76.8762C83.0977 75.6764 84.7525 75.01 86.4719 75.0213C88.1913 75.0326 89.8371 75.7207 91.053 76.9366C92.2689 78.1524 92.9569 79.7982 92.9682 81.5177C92.9795 83.2371 92.3131 84.8918 91.1134 86.1235V86.1235Z" fill="#253AFC"/>
<defs>
<filter id="filter0_dd" x="0" y="0" width="162" height="162" filterUnits="userSpaceOnUse" color-interpolation-filters="sRGB">
<feFlood flood-opacity="0" result="BackgroundImageFix"/>
<feColorMatrix in="SourceAlpha" type="matrix" values="0 0 0 0 0 0 0 0 0 0 0 0 0 0 0 0 0 0 127 0"/>
<feOffset dx="-4" dy="-4"/>
<feGaussianBlur stdDeviation="6"/>
<feColorMatrix type="matrix" values="0 0 0 0 1 0 0 0 0 1 0 0 0 0 1 0 0 0 0.5 0"/>
<feBlend mode="normal" in2="BackgroundImageFix" result="effect1_dropShadow"/>
<feColorMatrix in="SourceAlpha" type="matrix" values="0 0 0 0 0 0 0 0 0 0 0 0 0 0 0 0 0 0 127 0"/>
<feOffset dx="4" dy="4"/>
<feGaussianBlur stdDeviation="6"/>
<feColorMatrix type="matrix" values="0 0 0 0 0.383333 0 0 0 0 0.383333 0 0 0 0 0.383333 0 0 0 0.5 0"/>
<feBlend mode="normal" in2="effect1_dropShadow" result="effect2_dropShadow"/>
<feBlend mode="normal" in="SourceGraphic" in2="effect2_dropShadow" result="shape"/>
</filter>
</defs>
</svg>
