<svg width="162" height="162" viewBox="0 0 162 162" fill="none" xmlns="http://www.w3.org/2000/svg">
<g filter="url(#filter0_dd)">
<rect x="16" y="16" width="130" height="130" rx="10" fill="#FDFDFD"/>
</g>
<path d="M67.9342 131.02V133H58.7542V131.425L64.5142 124.48H58.8742V122.5H67.7092V124.075L61.9642 131.02H67.9342ZM72.8252 133.12C71.9752 133.12 71.2102 132.945 70.5302 132.595C69.8602 132.235 69.3352 131.74 68.9552 131.11C68.5752 130.48 68.3852 129.765 68.3852 128.965C68.3852 128.165 68.5752 127.45 68.9552 126.82C69.3352 126.19 69.8602 125.7 70.5302 125.35C71.2102 124.99 71.9752 124.81 72.8252 124.81C73.6752 124.81 74.4352 124.99 75.1052 125.35C75.7752 125.7 76.3002 126.19 76.6802 126.82C77.0602 127.45 77.2502 128.165 77.2502 128.965C77.2502 129.765 77.0602 130.48 76.6802 131.11C76.3002 131.74 75.7752 132.235 75.1052 132.595C74.4352 132.945 73.6752 133.12 72.8252 133.12ZM72.8252 131.2C73.4252 131.2 73.9152 131 74.2952 130.6C74.6852 130.19 74.8802 129.645 74.8802 128.965C74.8802 128.285 74.6852 127.745 74.2952 127.345C73.9152 126.935 73.4252 126.73 72.8252 126.73C72.2252 126.73 71.7302 126.935 71.3402 127.345C70.9502 127.745 70.7552 128.285 70.7552 128.965C70.7552 129.645 70.9502 130.19 71.3402 130.6C71.7302 131 72.2252 131.2 72.8252 131.2ZM82.4143 133.12C81.5643 133.12 80.7993 132.945 80.1193 132.595C79.4493 132.235 78.9243 131.74 78.5443 131.11C78.1643 130.48 77.9743 129.765 77.9743 128.965C77.9743 128.165 78.1643 127.45 78.5443 126.82C78.9243 126.19 79.4493 125.7 80.1193 125.35C80.7993 124.99 81.5643 124.81 82.4143 124.81C83.2643 124.81 84.0243 124.99 84.6943 125.35C85.3643 125.7 85.8893 126.19 86.2693 126.82C86.6493 127.45 86.8393 128.165 86.8393 128.965C86.8393 129.765 86.6493 130.48 86.2693 131.11C85.8893 131.74 85.3643 132.235 84.6943 132.595C84.0243 132.945 83.2643 133.12 82.4143 133.12ZM82.4143 131.2C83.0143 131.2 83.5043 131 83.8843 130.6C84.2743 130.19 84.4693 129.645 84.4693 128.965C84.4693 128.285 84.2743 127.745 83.8843 127.345C83.5043 126.935 83.0143 126.73 82.4143 126.73C81.8143 126.73 81.3193 126.935 80.9293 127.345C80.5393 127.745 80.3443 128.285 80.3443 128.965C80.3443 129.645 80.5393 130.19 80.9293 130.6C81.3193 131 81.8143 131.2 82.4143 131.2ZM98.4984 124.81C99.5084 124.81 100.308 125.11 100.898 125.71C101.498 126.3 101.798 127.19 101.798 128.38V133H99.4584V128.74C99.4584 128.1 99.3234 127.625 99.0534 127.315C98.7934 126.995 98.4184 126.835 97.9284 126.835C97.3784 126.835 96.9434 127.015 96.6234 127.375C96.3034 127.725 96.1434 128.25 96.1434 128.95V133H93.8034V128.74C93.8034 127.47 93.2934 126.835 92.2734 126.835C91.7334 126.835 91.3034 127.015 90.9834 127.375C90.6634 127.725 90.5034 128.25 90.5034 128.95V133H88.1634V124.93H90.3984V125.86C90.6984 125.52 91.0634 125.26 91.4934 125.08C91.9334 124.9 92.4134 124.81 92.9334 124.81C93.5034 124.81 94.0184 124.925 94.4784 125.155C94.9384 125.375 95.3084 125.7 95.5884 126.13C95.9184 125.71 96.3334 125.385 96.8334 125.155C97.3434 124.925 97.8984 124.81 98.4984 124.81Z" fill="#5B5B5B"/>
<path d="M50.5391 86.0878L49.4478 86.0393H39.6387L52.7135 72.9645L52.6609 71.8732C52.6404 71.0275 52.2953 70.2221 51.6971 69.6239C51.0989 69.0257 50.2935 68.6806 49.4478 68.6601L48.3566 68.6076H32.0161L32.0727 69.6988C32.2101 71.4691 33.4994 72.8109 35.2818 72.9119L36.373 72.9645H46.1862L33.1033 86.0393L33.1599 87.1265C33.2205 88.8765 34.623 90.279 36.373 90.3437L37.4643 90.3962H53.8088L53.7522 89.3049C53.6067 87.5145 52.3376 86.205 50.5391 86.0918V86.0878ZM63.6219 68.6076H63.6058C60.7175 68.6092 57.9481 69.7579 55.9066 71.8011C53.8651 73.8442 52.7187 76.6146 52.7195 79.5029C52.7204 82.3912 53.8683 85.1609 55.9109 87.2029C57.9535 89.245 60.7235 90.3922 63.6118 90.3922C66.5001 90.3922 69.2702 89.245 71.3128 87.2029C73.3554 85.1609 74.5033 82.3912 74.5041 79.5029C74.5049 76.6146 73.3585 73.8442 71.3171 71.8011C69.2756 69.7579 66.5062 68.6092 63.6179 68.6076H63.6219ZM68.2335 84.1235C67.6322 84.7555 66.9105 85.2609 66.111 85.6098C65.3114 85.9586 64.4501 86.144 63.5778 86.155C62.7056 86.1659 61.8399 86.0023 61.0318 85.6736C60.2237 85.3449 59.4896 84.8579 58.8726 84.2411C58.2556 83.6244 57.7683 82.8905 57.4393 82.0826C57.1102 81.2747 56.9462 80.4091 56.9567 79.5368C56.9673 78.6645 57.1523 77.8031 57.5009 77.0034C57.8494 76.2037 58.3544 75.4818 58.9862 74.8802C60.2219 73.7035 61.8687 73.0564 63.575 73.0771C65.2813 73.0978 66.9119 73.7846 68.1187 74.991C69.3256 76.1973 70.0131 77.8276 70.0346 79.5339C70.056 81.2402 69.4097 82.8872 68.2335 84.1235ZM120.258 68.6116C119.023 68.6125 117.803 68.8757 116.678 69.3836C115.552 69.8915 114.548 70.6327 113.731 71.558C112.913 70.6287 111.907 69.8844 110.78 69.3749C109.652 68.8654 108.429 68.6024 107.191 68.6035C105.451 68.601 103.749 69.1221 102.309 70.0989C101.46 69.1572 99.5604 68.6035 98.4773 68.6035V90.3962L99.5685 90.3437C101.387 90.2224 102.709 88.9331 102.782 87.1265L102.834 86.0352V78.4086L102.891 77.3174C102.931 76.5009 103.052 75.7734 103.424 75.1349C103.711 74.6397 104.092 74.2058 104.547 73.8579C105.001 73.5101 105.519 73.2552 106.072 73.1077C106.625 72.9602 107.201 72.923 107.768 72.9983C108.336 73.0736 108.882 73.2599 109.378 73.5465C110.035 73.9275 110.581 74.4736 110.962 75.1308C111.338 75.7775 111.447 76.5009 111.495 77.3133L111.552 78.4086V86.0352L111.605 87.1224C111.714 88.9008 113.019 90.2264 114.818 90.3396L115.909 90.3922V78.4086L115.957 77.3174C115.998 76.509 116.119 75.7654 116.499 75.1227C117.708 73.0453 120.375 72.334 122.452 73.5465C123.11 73.9286 123.656 74.4762 124.037 75.1349C124.409 75.7815 124.522 76.5212 124.566 77.3174L124.623 78.4086V86.0352L124.675 87.1224C124.789 88.9129 126.09 90.2345 127.893 90.3396L128.984 90.3922V77.3174C128.983 76.1722 128.756 75.0384 128.317 73.9809C127.877 72.9233 127.234 71.9627 126.423 71.1538C125.613 70.345 124.65 69.7038 123.592 69.2669C122.533 68.83 121.399 68.606 120.254 68.6076L120.258 68.6116ZM78.7903 71.7964C77.736 72.7979 76.8929 74.0003 76.3105 75.3327C75.7281 76.6651 75.4183 78.1006 75.3993 79.5546C75.3804 81.0086 75.6526 82.4517 76.2001 83.7988C76.7475 85.1459 77.559 86.3699 78.5869 87.3985C79.6147 88.4271 80.838 89.2396 82.1847 89.7881C83.5314 90.3366 84.9743 90.61 86.4283 90.5922C87.8823 90.5744 89.318 90.2657 90.6509 89.6844C91.9837 89.103 93.1868 88.2608 94.1891 87.2073C96.1481 85.1482 97.2251 82.4051 97.1903 79.5632C97.1554 76.7212 96.0116 74.0053 94.0027 71.9948C91.9937 69.9843 89.2788 68.8383 86.4368 68.8013C83.5949 68.7642 80.851 69.839 78.7903 71.7964ZM91.1134 84.1235C90.5091 84.7439 89.7876 85.238 88.9909 85.5773C88.1941 85.9166 87.3379 86.0942 86.4719 86.0999C85.6059 86.1056 84.7474 85.9392 83.9463 85.6104C83.1451 85.2817 82.4172 84.797 81.8049 84.1847C81.1925 83.5723 80.7079 82.8444 80.3791 82.0433C80.0503 81.2421 79.884 80.3836 79.8897 79.5177C79.8953 78.6517 80.073 77.7954 80.4123 76.9987C80.7515 76.2019 81.2457 75.4804 81.866 74.8762C83.0978 73.6764 84.7525 73.01 86.4719 73.0213C88.1913 73.0326 89.8371 73.7207 91.053 74.9366C92.2689 76.1524 92.9569 77.7982 92.9682 79.5177C92.9795 81.2371 92.3131 82.8918 91.1134 84.1235Z" fill="#253AFC"/>
<defs>
<filter id="filter0_dd" x="0" y="0" width="162" height="162" filterUnits="userSpaceOnUse" color-interpolation-filters="sRGB">
<feFlood flood-opacity="0" result="BackgroundImageFix"/>
<feColorMatrix in="SourceAlpha" type="matrix" values="0 0 0 0 0 0 0 0 0 0 0 0 0 0 0 0 0 0 127 0"/>
<feOffset dx="-4" dy="-4"/>
<feGaussianBlur stdDeviation="6"/>
<feColorMatrix type="matrix" values="0 0 0 0 1 0 0 0 0 1 0 0 0 0 1 0 0 0 0.5 0"/>
<feBlend mode="normal" in2="BackgroundImageFix" result="effect1_dropShadow"/>
<feColorMatrix in="SourceAlpha" type="matrix" values="0 0 0 0 0 0 0 0 0 0 0 0 0 0 0 0 0 0 127 0"/>
<feOffset dx="4" dy="4"/>
<feGaussianBlur stdDeviation="6"/>
<feColorMatrix type="matrix" values="0 0 0 0 0.383333 0 0 0 0 0.383333 0 0 0 0 0.383333 0 0 0 0.5 0"/>
<feBlend mode="normal" in2="effect1_dropShadow" result="effect2_dropShadow"/>
<feBlend mode="normal" in="SourceGraphic" in2="effect2_dropShadow" result="shape"/>
</filter>
</defs>
</svg>
