<svg width="98" height="98" viewBox="0 0 98 98" fill="none" xmlns="http://www.w3.org/2000/svg">
<path d="M90.5828 48.3301L53.6031 11.3695L51.1244 8.89082C50.5596 8.32977 49.7959 8.01489 48.9998 8.01489C48.2037 8.01489 47.44 8.32977 46.8752 8.89082L7.4168 48.3301C6.8381 48.9065 6.38074 49.5931 6.07172 50.3492C5.7627 51.1053 5.60828 51.9156 5.61758 52.7324C5.65587 56.1012 8.45997 58.7904 11.8287 58.7904H15.8961V89.9609H82.1035V58.7904H86.257C87.8936 58.7904 89.4344 58.1492 90.5924 56.9912C91.1626 56.4228 91.6144 55.747 91.9216 55.0028C92.2288 54.2587 92.3853 53.4609 92.382 52.6559C92.382 51.0289 91.7408 49.4881 90.5828 48.3301V48.3301ZM54.3592 83.0703H43.6404V63.5469H54.3592V83.0703ZM75.2129 51.8998V83.0703H60.4842V61.25C60.4842 59.135 58.7711 57.4219 56.6561 57.4219H41.3436C39.2285 57.4219 37.5154 59.135 37.5154 61.25V83.0703H22.7867V51.8998H13.5992L49.0094 16.5184L51.2201 18.7291L84.41 51.8998H75.2129Z" fill="#0DC5FF"/>
</svg>
