<svg width="50" height="43" viewBox="0 0 50 43" fill="none" xmlns="http://www.w3.org/2000/svg">
<path d="M46.875 18.4308H9.8125L21.1563 5.04054C21.6867 4.41336 21.9419 3.60478 21.8657 2.79269C21.7895 1.98059 21.3882 1.2315 20.75 0.710211C20.1118 0.188918 19.2891 -0.0618783 18.4627 0.0129956C17.6364 0.0878695 16.8742 0.482281 16.3437 1.10946L0.71875 19.5364C0.613627 19.6829 0.519623 19.8369 0.4375 19.9971C0.4375 20.1506 0.437501 20.2427 0.218751 20.3963C0.0771052 20.7484 0.002941 21.1233 0 21.5019C0.002941 21.8806 0.0771052 22.2554 0.218751 22.6075C0.218751 22.7611 0.21875 22.8532 0.4375 23.0068C0.519623 23.1669 0.613627 23.3209 0.71875 23.4675L16.3437 41.8944C16.6376 42.2411 17.0055 42.5199 17.4214 42.7109C17.8373 42.902 18.2909 43.0007 18.75 43C19.4802 43.0014 20.1878 42.7515 20.75 42.2936C21.0664 42.0358 21.328 41.7192 21.5197 41.3618C21.7115 41.0045 21.8296 40.6136 21.8673 40.2113C21.905 39.8091 21.8617 39.4034 21.7396 39.0177C21.6176 38.6319 21.4194 38.2736 21.1563 37.9633L9.8125 24.5731H46.875C47.7038 24.5731 48.4987 24.2495 49.0847 23.6736C49.6708 23.0976 50 22.3164 50 21.5019C50 20.6874 49.6708 19.9062 49.0847 19.3303C48.4987 18.7543 47.7038 18.4308 46.875 18.4308Z" fill="#32CBA6"/>
</svg>
