<svg width="65" height="65" viewBox="0 0 65 65" fill="none" xmlns="http://www.w3.org/2000/svg">
<path d="M60.0808 32.0556L35.5535 7.54099L33.9094 5.89695C33.5348 5.52483 33.0283 5.31598 32.5003 5.31598C31.9723 5.31598 31.4657 5.52483 31.0911 5.89695L4.9197 32.0556C4.53586 32.438 4.23251 32.8933 4.02755 33.3948C3.82259 33.8963 3.72017 34.4338 3.72634 34.9756C3.75173 37.2099 5.61159 38.9936 7.84597 38.9936H10.5437V59.6679H54.4568V38.9936H57.2117C58.2971 38.9936 59.3191 38.5683 60.0872 37.8003C60.4654 37.4233 60.765 36.975 60.9688 36.4814C61.1725 35.9879 61.2763 35.4588 61.2742 34.9248C61.2742 33.8457 60.8489 32.8237 60.0808 32.0556V32.0556ZM36.055 55.0976H28.9456V42.1484H36.055V55.0976ZM49.8865 34.4233V55.0976H40.1175V40.625C40.1175 39.2221 38.9812 38.0859 37.5784 38.0859H27.4221C26.0193 38.0859 24.8831 39.2221 24.8831 40.625V55.0976H15.114V34.4233H9.02028L32.5066 10.956L33.9729 12.4223L55.9866 34.4233H49.8865Z" fill="#39FFBD"/>
</svg>
