<svg width="162" height="162" viewBox="0 0 162 162" fill="none" xmlns="http://www.w3.org/2000/svg">
<g filter="url(#filter0_dd)">
<rect x="16" y="16" width="130" height="130" rx="10" fill="#FDFDFD"/>
</g>
<path d="M58.1884 122.564L54.7534 133.064H52.1434L49.8334 125.954L47.4484 133.064H44.8534L41.4034 122.564H43.9234L46.2934 129.944L48.7684 122.564H51.0184L53.4184 130.004L55.8634 122.564H58.1884ZM64.2647 124.874C65.2647 124.874 66.0697 125.174 66.6797 125.774C67.2997 126.374 67.6097 127.264 67.6097 128.444V133.064H65.2697V128.804C65.2697 128.164 65.1297 127.689 64.8497 127.379C64.5697 127.059 64.1647 126.899 63.6347 126.899C63.0447 126.899 62.5747 127.084 62.2247 127.454C61.8747 127.814 61.6997 128.354 61.6997 129.074V133.064H59.3597V121.934H61.6997V125.834C62.0097 125.524 62.3847 125.289 62.8247 125.129C63.2647 124.959 63.7447 124.874 64.2647 124.874ZM72.7458 124.874C73.9958 124.874 74.9558 125.174 75.6258 125.774C76.2958 126.364 76.6308 127.259 76.6308 128.459V133.064H74.4408V132.059C74.0008 132.809 73.1808 133.184 71.9808 133.184C71.3608 133.184 70.8208 133.079 70.3608 132.869C69.9108 132.659 69.5658 132.369 69.3258 131.999C69.0858 131.629 68.9658 131.209 68.9658 130.739C68.9658 129.989 69.2458 129.399 69.8058 128.969C70.3758 128.539 71.2508 128.324 72.4308 128.324H74.2908C74.2908 127.814 74.1358 127.424 73.8258 127.154C73.5158 126.874 73.0508 126.734 72.4308 126.734C72.0008 126.734 71.5758 126.804 71.1558 126.944C70.7458 127.074 70.3958 127.254 70.1058 127.484L69.2658 125.849C69.7058 125.539 70.2308 125.299 70.8408 125.129C71.4608 124.959 72.0958 124.874 72.7458 124.874ZM72.5658 131.609C72.9658 131.609 73.3208 131.519 73.6308 131.339C73.9408 131.149 74.1608 130.874 74.2908 130.514V129.689H72.6858C71.7258 129.689 71.2458 130.004 71.2458 130.634C71.2458 130.934 71.3608 131.174 71.5908 131.354C71.8308 131.524 72.1558 131.609 72.5658 131.609ZM83.7136 132.674C83.4836 132.844 83.1986 132.974 82.8586 133.064C82.5286 133.144 82.1786 133.184 81.8086 133.184C80.8486 133.184 80.1036 132.939 79.5736 132.449C79.0536 131.959 78.7936 131.239 78.7936 130.289V126.974H77.5486V125.174H78.7936V123.209H81.1336V125.174H83.1436V126.974H81.1336V130.259C81.1336 130.599 81.2186 130.864 81.3886 131.054C81.5686 131.234 81.8186 131.324 82.1386 131.324C82.5086 131.324 82.8236 131.224 83.0836 131.024L83.7136 132.674ZM87.5021 133.184C86.8321 133.184 86.1771 133.104 85.5371 132.944C84.8971 132.774 84.3871 132.564 84.0071 132.314L84.7871 130.634C85.1471 130.864 85.5821 131.054 86.0921 131.204C86.6021 131.344 87.1021 131.414 87.5921 131.414C88.5821 131.414 89.0771 131.169 89.0771 130.679C89.0771 130.449 88.9421 130.284 88.6721 130.184C88.4021 130.084 87.9871 129.999 87.4271 129.929C86.7671 129.829 86.2221 129.714 85.7921 129.584C85.3621 129.454 84.9871 129.224 84.6671 128.894C84.3571 128.564 84.2021 128.094 84.2021 127.484C84.2021 126.974 84.3471 126.524 84.6371 126.134C84.9371 125.734 85.3671 125.424 85.9271 125.204C86.4971 124.984 87.1671 124.874 87.9371 124.874C88.5071 124.874 89.0721 124.939 89.6321 125.069C90.2021 125.189 90.6721 125.359 91.0421 125.579L90.2621 127.244C89.5521 126.844 88.7771 126.644 87.9371 126.644C87.4371 126.644 87.0621 126.714 86.8121 126.854C86.5621 126.994 86.4371 127.174 86.4371 127.394C86.4371 127.644 86.5721 127.819 86.8421 127.919C87.1121 128.019 87.5421 128.114 88.1321 128.204C88.7921 128.314 89.3321 128.434 89.7521 128.564C90.1721 128.684 90.5371 128.909 90.8471 129.239C91.1571 129.569 91.3121 130.029 91.3121 130.619C91.3121 131.119 91.1621 131.564 90.8621 131.954C90.5621 132.344 90.1221 132.649 89.5421 132.869C88.9721 133.079 88.2921 133.184 87.5021 133.184ZM95.7709 124.874C97.0209 124.874 97.9809 125.174 98.6509 125.774C99.3209 126.364 99.6559 127.259 99.6559 128.459V133.064H97.4659V132.059C97.0259 132.809 96.2059 133.184 95.0059 133.184C94.3859 133.184 93.8459 133.079 93.3859 132.869C92.9359 132.659 92.5909 132.369 92.3509 131.999C92.1109 131.629 91.9909 131.209 91.9909 130.739C91.9909 129.989 92.2709 129.399 92.8309 128.969C93.4009 128.539 94.2759 128.324 95.4559 128.324H97.3159C97.3159 127.814 97.1609 127.424 96.8509 127.154C96.5409 126.874 96.0759 126.734 95.4559 126.734C95.0259 126.734 94.6009 126.804 94.1809 126.944C93.7709 127.074 93.4209 127.254 93.1309 127.484L92.2909 125.849C92.7309 125.539 93.2559 125.299 93.8659 125.129C94.4859 124.959 95.1209 124.874 95.7709 124.874ZM95.5909 131.609C95.9909 131.609 96.3459 131.519 96.6559 131.339C96.9659 131.149 97.1859 130.874 97.3159 130.514V129.689H95.7109C94.7509 129.689 94.2709 130.004 94.2709 130.634C94.2709 130.934 94.3859 131.174 94.6159 131.354C94.8559 131.524 95.1809 131.609 95.5909 131.609ZM106.304 124.874C107.054 124.874 107.734 125.049 108.344 125.399C108.964 125.739 109.449 126.224 109.799 126.854C110.149 127.474 110.324 128.199 110.324 129.029C110.324 129.859 110.149 130.589 109.799 131.219C109.449 131.839 108.964 132.324 108.344 132.674C107.734 133.014 107.054 133.184 106.304 133.184C105.274 133.184 104.464 132.859 103.874 132.209V135.974H101.534V124.994H103.769V125.924C104.349 125.224 105.194 124.874 106.304 124.874ZM105.899 131.264C106.499 131.264 106.989 131.064 107.369 130.664C107.759 130.254 107.954 129.709 107.954 129.029C107.954 128.349 107.759 127.809 107.369 127.409C106.989 126.999 106.499 126.794 105.899 126.794C105.299 126.794 104.804 126.999 104.414 127.409C104.034 127.809 103.844 128.349 103.844 129.029C103.844 129.709 104.034 130.254 104.414 130.664C104.804 131.064 105.299 131.264 105.899 131.264ZM116.42 124.874C117.17 124.874 117.85 125.049 118.46 125.399C119.08 125.739 119.565 126.224 119.915 126.854C120.265 127.474 120.44 128.199 120.44 129.029C120.44 129.859 120.265 130.589 119.915 131.219C119.565 131.839 119.08 132.324 118.46 132.674C117.85 133.014 117.17 133.184 116.42 133.184C115.39 133.184 114.58 132.859 113.99 132.209V135.974H111.65V124.994H113.885V125.924C114.465 125.224 115.31 124.874 116.42 124.874ZM116.015 131.264C116.615 131.264 117.105 131.064 117.485 130.664C117.875 130.254 118.07 129.709 118.07 129.029C118.07 128.349 117.875 127.809 117.485 127.409C117.105 126.999 116.615 126.794 116.015 126.794C115.415 126.794 114.92 126.999 114.53 127.409C114.15 127.809 113.96 128.349 113.96 129.029C113.96 129.709 114.15 130.254 114.53 130.664C114.92 131.064 115.415 131.264 116.015 131.264Z" fill="#5B5B5B"/>
<g clip-path="url(#clip0)">
<g filter="url(#filter1_f)">
<path d="M45.8447 107.249L50.8706 88.9823C47.7804 83.6372 46.1333 77.5654 46.1503 71.3582C46.1503 51.9072 62.0433 36.093 81.5702 36.093C91.0448 36.093 99.9423 39.7633 106.616 46.4273C113.305 53.0912 116.99 61.954 116.973 71.3751C116.973 90.8258 101.08 106.64 81.5532 106.64H81.5362C75.6103 106.64 69.7861 105.152 64.6073 102.344L45.8447 107.249ZM65.4903 95.9506L66.56 96.5935C71.0767 99.2658 76.2555 100.669 81.5362 100.686H81.5532C97.769 100.686 110.979 87.5445 110.979 71.3751C110.979 63.5439 107.923 56.1866 102.37 50.6386C96.8181 45.091 89.4147 42.0466 81.5532 42.0466C65.3204 42.0466 52.1102 55.1885 52.1102 71.3579C52.1102 76.8889 53.6553 82.2843 56.6099 86.9526L57.306 88.0689L54.3347 98.8768L65.4903 95.9506V95.9506Z" fill="black" fill-opacity="0.24"/>
</g>
<path d="M47.4514 105.364L52.2473 87.9414C49.29 82.8312 47.7344 77.036 47.7365 71.1376C47.7365 52.5963 62.8958 37.5128 81.4923 37.5128C90.531 37.5128 98.9996 41.0206 105.372 47.3679C111.744 53.7154 115.249 62.1677 115.249 71.1543C115.249 89.6953 100.089 104.779 81.4926 104.779H81.4759C75.8246 104.779 70.274 103.359 65.3439 100.686L47.4514 105.364V105.364Z" fill="url(#paint0_linear)"/>
<path d="M46.2275 106.583L51.191 88.5429C48.1392 83.2646 46.5123 77.2678 46.5293 71.1376C46.5293 51.9283 62.2251 36.3102 81.5098 36.3102C90.8666 36.3102 99.6533 39.9347 106.244 46.516C112.851 53.0973 116.49 61.8502 116.473 71.1542C116.473 90.3636 100.777 105.982 81.4925 105.982H81.4761C75.635 105.979 69.8874 104.521 64.7572 101.739L46.2275 106.583V106.583ZM65.6291 95.4248L66.6855 96.0595C71.1463 98.6988 76.2606 100.085 81.4761 100.102H81.4928C97.507 100.102 110.554 87.1231 110.554 71.1542C110.554 63.4205 107.535 56.1542 102.052 50.6755C96.5681 45.1967 89.2567 42.1899 81.4928 42.1899C65.4615 42.1899 52.4153 55.1687 52.4153 71.1376C52.4153 76.5998 53.9411 81.9283 56.8591 86.5383L57.5467 87.6408L54.612 98.3145L65.6291 95.4248V95.4248Z" fill="white"/>
<path d="M72.7561 56.5552C72.1019 55.1019 71.4143 55.0683 70.7941 55.0517C70.2911 55.035 69.7042 55.035 69.1171 55.035C68.5303 55.035 67.5911 55.2522 66.7863 56.1206C65.9812 56.9894 63.7341 59.0941 63.7341 63.3872C63.7341 67.6631 66.8701 71.8056 67.306 72.3901C67.7419 72.9749 73.3596 82.045 82.2304 85.5361C89.6088 88.4427 91.1182 87.8579 92.7111 87.7076C94.3209 87.5573 97.8761 85.6029 98.6138 83.5651C99.3348 81.5273 99.3348 79.79 99.1168 79.4226C98.8989 79.0549 98.3121 78.8381 97.4399 78.4035C96.568 77.9693 92.2751 75.8646 91.4704 75.564C90.6653 75.2634 90.0785 75.1298 89.5083 75.9983C88.9212 76.8667 87.2446 78.8211 86.7413 79.406C86.2382 79.9905 85.7185 80.0573 84.8463 79.6231C83.9745 79.1888 81.1573 78.2699 77.8204 75.2967C75.2211 72.9916 73.4604 70.1351 72.9571 69.2667C72.4541 68.3982 72.907 67.9301 73.3429 67.4961C73.7285 67.1118 74.2148 66.4771 74.651 65.976C75.087 65.4749 75.2378 65.1075 75.5229 64.5227C75.808 63.9381 75.6738 63.4371 75.4558 63.0028C75.2378 62.5683 73.5275 58.2755 72.7561 56.5552V56.5552Z" fill="white"/>
</g>
<defs>
<filter id="filter0_dd" x="0" y="0" width="162" height="162" filterUnits="userSpaceOnUse" color-interpolation-filters="sRGB">
<feFlood flood-opacity="0" result="BackgroundImageFix"/>
<feColorMatrix in="SourceAlpha" type="matrix" values="0 0 0 0 0 0 0 0 0 0 0 0 0 0 0 0 0 0 127 0"/>
<feOffset dx="-4" dy="-4"/>
<feGaussianBlur stdDeviation="6"/>
<feColorMatrix type="matrix" values="0 0 0 0 1 0 0 0 0 1 0 0 0 0 1 0 0 0 0.5 0"/>
<feBlend mode="normal" in2="BackgroundImageFix" result="effect1_dropShadow"/>
<feColorMatrix in="SourceAlpha" type="matrix" values="0 0 0 0 0 0 0 0 0 0 0 0 0 0 0 0 0 0 127 0"/>
<feOffset dx="4" dy="4"/>
<feGaussianBlur stdDeviation="6"/>
<feColorMatrix type="matrix" values="0 0 0 0 0.383333 0 0 0 0 0.383333 0 0 0 0 0.383333 0 0 0 0.5 0"/>
<feBlend mode="normal" in2="effect1_dropShadow" result="effect2_dropShadow"/>
<feBlend mode="normal" in="SourceGraphic" in2="effect2_dropShadow" result="shape"/>
</filter>
<filter id="filter1_f" x="39.8447" y="30.093" width="83.1285" height="83.156" filterUnits="userSpaceOnUse" color-interpolation-filters="sRGB">
<feFlood flood-opacity="0" result="BackgroundImageFix"/>
<feBlend mode="normal" in="SourceGraphic" in2="BackgroundImageFix" result="shape"/>
<feGaussianBlur stdDeviation="3" result="effect1_foregroundBlur"/>
</filter>
<linearGradient id="paint0_linear" x1="81.3487" y1="105.359" x2="81.3487" y2="37.5087" gradientUnits="userSpaceOnUse">
<stop stop-color="#20B01D"/>
<stop offset="1" stop-color="#87CE86"/>
</linearGradient>
<clipPath id="clip0">
<rect x="44" y="34" width="75" height="75" fill="white"/>
</clipPath>
</defs>
</svg>
