<svg width="332" height="119" viewBox="0 0 332 119" fill="none" xmlns="http://www.w3.org/2000/svg">
<g filter="url(#filter0_dd)">
<rect x="16" y="16" width="300" height="87" rx="10" fill="#F9BE7F"/>
</g>
<path d="M60.237 49H65.097V66.04H75.627V70H60.237V49ZM85.1652 70.24C83.4652 70.24 81.9352 69.89 80.5752 69.19C79.2352 68.47 78.1852 67.48 77.4252 66.22C76.6652 64.96 76.2852 63.53 76.2852 61.93C76.2852 60.33 76.6652 58.9 77.4252 57.64C78.1852 56.38 79.2352 55.4 80.5752 54.7C81.9352 53.98 83.4652 53.62 85.1652 53.62C86.8652 53.62 88.3852 53.98 89.7252 54.7C91.0652 55.4 92.1152 56.38 92.8752 57.64C93.6352 58.9 94.0152 60.33 94.0152 61.93C94.0152 63.53 93.6352 64.96 92.8752 66.22C92.1152 67.48 91.0652 68.47 89.7252 69.19C88.3852 69.89 86.8652 70.24 85.1652 70.24ZM85.1652 66.4C86.3652 66.4 87.3452 66 88.1052 65.2C88.8852 64.38 89.2752 63.29 89.2752 61.93C89.2752 60.57 88.8852 59.49 88.1052 58.69C87.3452 57.87 86.3652 57.46 85.1652 57.46C83.9652 57.46 82.9752 57.87 82.1952 58.69C81.4152 59.49 81.0252 60.57 81.0252 61.93C81.0252 63.29 81.4152 64.38 82.1952 65.2C82.9752 66 83.9652 66.4 85.1652 66.4ZM113.383 53.86V67.3C113.383 70.26 112.613 72.46 111.073 73.9C109.533 75.34 107.283 76.06 104.323 76.06C102.763 76.06 101.283 75.87 99.8834 75.49C98.4834 75.11 97.3234 74.56 96.4034 73.84L98.2634 70.48C98.9434 71.04 99.8034 71.48 100.843 71.8C101.883 72.14 102.923 72.31 103.963 72.31C105.583 72.31 106.773 71.94 107.533 71.2C108.313 70.48 108.703 69.38 108.703 67.9V67.21C107.483 68.55 105.783 69.22 103.603 69.22C102.123 69.22 100.763 68.9 99.5234 68.26C98.3034 67.6 97.3334 66.68 96.6134 65.5C95.8934 64.32 95.5334 62.96 95.5334 61.42C95.5334 59.88 95.8934 58.52 96.6134 57.34C97.3334 56.16 98.3034 55.25 99.5234 54.61C100.763 53.95 102.123 53.62 103.603 53.62C105.943 53.62 107.723 54.39 108.943 55.93V53.86H113.383ZM104.533 65.38C105.773 65.38 106.783 65.02 107.563 64.3C108.363 63.56 108.763 62.6 108.763 61.42C108.763 60.24 108.363 59.29 107.563 58.57C106.783 57.83 105.773 57.46 104.533 57.46C103.293 57.46 102.273 57.83 101.473 58.57C100.673 59.29 100.273 60.24 100.273 61.42C100.273 62.6 100.673 63.56 101.473 64.3C102.273 65.02 103.293 65.38 104.533 65.38ZM125.415 53.86H130.095V70H125.415V53.86ZM127.755 51.61C126.895 51.61 126.195 51.36 125.655 50.86C125.115 50.36 124.845 49.74 124.845 49C124.845 48.26 125.115 47.64 125.655 47.14C126.195 46.64 126.895 46.39 127.755 46.39C128.615 46.39 129.315 46.63 129.855 47.11C130.395 47.59 130.665 48.19 130.665 48.91C130.665 49.69 130.395 50.34 129.855 50.86C129.315 51.36 128.615 51.61 127.755 51.61ZM143.839 53.62C145.839 53.62 147.449 54.22 148.669 55.42C149.909 56.62 150.529 58.4 150.529 60.76V70H145.849V61.48C145.849 60.2 145.569 59.25 145.009 58.63C144.449 57.99 143.639 57.67 142.579 57.67C141.399 57.67 140.459 58.04 139.759 58.78C139.059 59.5 138.709 60.58 138.709 62.02V70H134.029V53.86H138.499V55.75C139.119 55.07 139.889 54.55 140.809 54.19C141.729 53.81 142.739 53.62 143.839 53.62ZM168.957 53.62C171.457 53.62 173.377 54.22 174.717 55.42C176.057 56.6 176.727 58.39 176.727 60.79V70H172.347V67.99C171.467 69.49 169.827 70.24 167.427 70.24C166.187 70.24 165.107 70.03 164.187 69.61C163.287 69.19 162.597 68.61 162.117 67.87C161.637 67.13 161.397 66.29 161.397 65.35C161.397 63.85 161.957 62.67 163.077 61.81C164.217 60.95 165.967 60.52 168.327 60.52H172.047C172.047 59.5 171.737 58.72 171.117 58.18C170.497 57.62 169.567 57.34 168.327 57.34C167.467 57.34 166.617 57.48 165.777 57.76C164.957 58.02 164.257 58.38 163.677 58.84L161.997 55.57C162.877 54.95 163.927 54.47 165.147 54.13C166.387 53.79 167.657 53.62 168.957 53.62ZM168.597 67.09C169.397 67.09 170.107 66.91 170.727 66.55C171.347 66.17 171.787 65.62 172.047 64.9V63.25H168.837C166.917 63.25 165.957 63.88 165.957 65.14C165.957 65.74 166.187 66.22 166.647 66.58C167.127 66.92 167.777 67.09 168.597 67.09ZM185.983 70.24C184.643 70.24 183.333 70.08 182.053 69.76C180.773 69.42 179.753 69 178.993 68.5L180.553 65.14C181.273 65.6 182.143 65.98 183.163 66.28C184.183 66.56 185.183 66.7 186.163 66.7C188.143 66.7 189.133 66.21 189.133 65.23C189.133 64.77 188.863 64.44 188.323 64.24C187.783 64.04 186.953 63.87 185.833 63.73C184.513 63.53 183.423 63.3 182.563 63.04C181.703 62.78 180.953 62.32 180.313 61.66C179.693 61 179.383 60.06 179.383 58.84C179.383 57.82 179.673 56.92 180.253 56.14C180.853 55.34 181.713 54.72 182.833 54.28C183.973 53.84 185.313 53.62 186.853 53.62C187.993 53.62 189.123 53.75 190.243 54.01C191.383 54.25 192.323 54.59 193.063 55.03L191.503 58.36C190.083 57.56 188.533 57.16 186.853 57.16C185.853 57.16 185.103 57.3 184.603 57.58C184.103 57.86 183.853 58.22 183.853 58.66C183.853 59.16 184.123 59.51 184.663 59.71C185.203 59.91 186.063 60.1 187.243 60.28C188.563 60.5 189.643 60.74 190.483 61C191.323 61.24 192.053 61.69 192.673 62.35C193.293 63.01 193.603 63.93 193.603 65.11C193.603 66.11 193.303 67 192.703 67.78C192.103 68.56 191.223 69.17 190.063 69.61C188.923 70.03 187.563 70.24 185.983 70.24ZM211.396 70.36C209.736 70.36 208.126 70.14 206.566 69.7C205.026 69.24 203.786 68.65 202.846 67.93L204.496 64.27C205.396 64.93 206.466 65.46 207.706 65.86C208.946 66.26 210.186 66.46 211.426 66.46C212.806 66.46 213.826 66.26 214.486 65.86C215.146 65.44 215.476 64.89 215.476 64.21C215.476 63.71 215.276 63.3 214.876 62.98C214.496 62.64 213.996 62.37 213.376 62.17C212.776 61.97 211.956 61.75 210.916 61.51C209.316 61.13 208.006 60.75 206.986 60.37C205.966 59.99 205.086 59.38 204.346 58.54C203.626 57.7 203.266 56.58 203.266 55.18C203.266 53.96 203.596 52.86 204.256 51.88C204.916 50.88 205.906 50.09 207.226 49.51C208.566 48.93 210.196 48.64 212.116 48.64C213.456 48.64 214.766 48.8 216.046 49.12C217.326 49.44 218.446 49.9 219.406 50.5L217.906 54.19C215.966 53.09 214.026 52.54 212.086 52.54C210.726 52.54 209.716 52.76 209.056 53.2C208.416 53.64 208.096 54.22 208.096 54.94C208.096 55.66 208.466 56.2 209.206 56.56C209.966 56.9 211.116 57.24 212.656 57.58C214.256 57.96 215.566 58.34 216.586 58.72C217.606 59.1 218.476 59.7 219.196 60.52C219.936 61.34 220.306 62.45 220.306 63.85C220.306 65.05 219.966 66.15 219.286 67.15C218.626 68.13 217.626 68.91 216.286 69.49C214.946 70.07 213.316 70.36 211.396 70.36ZM233.297 69.22C232.837 69.56 232.267 69.82 231.587 70C230.927 70.16 230.227 70.24 229.487 70.24C227.567 70.24 226.077 69.75 225.017 68.77C223.977 67.79 223.457 66.35 223.457 64.45V57.82H220.967V54.22H223.457V50.29H228.137V54.22H232.157V57.82H228.137V64.39C228.137 65.07 228.307 65.6 228.647 65.98C229.007 66.34 229.507 66.52 230.147 66.52C230.887 66.52 231.517 66.32 232.037 65.92L233.297 69.22ZM242.024 53.62C244.524 53.62 246.444 54.22 247.784 55.42C249.124 56.6 249.794 58.39 249.794 60.79V70H245.414V67.99C244.534 69.49 242.894 70.24 240.494 70.24C239.254 70.24 238.174 70.03 237.254 69.61C236.354 69.19 235.664 68.61 235.184 67.87C234.704 67.13 234.464 66.29 234.464 65.35C234.464 63.85 235.024 62.67 236.144 61.81C237.284 60.95 239.034 60.52 241.394 60.52H245.114C245.114 59.5 244.804 58.72 244.184 58.18C243.564 57.62 242.634 57.34 241.394 57.34C240.534 57.34 239.684 57.48 238.844 57.76C238.024 58.02 237.324 58.38 236.744 58.84L235.064 55.57C235.944 54.95 236.994 54.47 238.214 54.13C239.454 53.79 240.724 53.62 242.024 53.62ZM241.664 67.09C242.464 67.09 243.174 66.91 243.794 66.55C244.414 66.17 244.854 65.62 245.114 64.9V63.25H241.904C239.984 63.25 239.024 63.88 239.024 65.14C239.024 65.74 239.254 66.22 239.714 66.58C240.194 66.92 240.844 67.09 241.664 67.09ZM258.75 54.22H262.89V57.82H258.87V70H254.19V57.82H251.7V54.22H254.19V53.5C254.19 51.66 254.73 50.2 255.81 49.12C256.91 48.04 258.45 47.5 260.43 47.5C261.13 47.5 261.79 47.58 262.41 47.74C263.05 47.88 263.58 48.09 264 48.37L262.77 51.76C262.23 51.38 261.6 51.19 260.88 51.19C259.46 51.19 258.75 51.97 258.75 53.53V54.22ZM269.941 54.22H274.081V57.82H270.061V70H265.381V57.82H262.891V54.22H265.381V53.5C265.381 51.66 265.921 50.2 267.001 49.12C268.101 48.04 269.641 47.5 271.621 47.5C272.321 47.5 272.981 47.58 273.601 47.74C274.241 47.88 274.771 48.09 275.191 48.37L273.961 51.76C273.421 51.38 272.791 51.19 272.071 51.19C270.651 51.19 269.941 51.97 269.941 53.53V54.22Z" fill="white"/>
<defs>
<filter id="filter0_dd" x="0" y="0" width="332" height="119" filterUnits="userSpaceOnUse" color-interpolation-filters="sRGB">
<feFlood flood-opacity="0" result="BackgroundImageFix"/>
<feColorMatrix in="SourceAlpha" type="matrix" values="0 0 0 0 0 0 0 0 0 0 0 0 0 0 0 0 0 0 127 0"/>
<feOffset dx="-4" dy="-4"/>
<feGaussianBlur stdDeviation="6"/>
<feColorMatrix type="matrix" values="0 0 0 0 1 0 0 0 0 1 0 0 0 0 1 0 0 0 0.25 0"/>
<feBlend mode="normal" in2="BackgroundImageFix" result="effect1_dropShadow"/>
<feColorMatrix in="SourceAlpha" type="matrix" values="0 0 0 0 0 0 0 0 0 0 0 0 0 0 0 0 0 0 127 0"/>
<feOffset dx="4" dy="4"/>
<feGaussianBlur stdDeviation="6"/>
<feColorMatrix type="matrix" values="0 0 0 0 0 0 0 0 0 0 0 0 0 0 0 0 0 0 0.25 0"/>
<feBlend mode="normal" in2="effect1_dropShadow" result="effect2_dropShadow"/>
<feBlend mode="normal" in="SourceGraphic" in2="effect2_dropShadow" result="shape"/>
</filter>
</defs>
</svg>
